<?xml version="1.0" standalone="no"?> <!DOCTYPE svg PUBLIC "-//W3C//DTD SVG 1.0//EN" "http://www.w3.org/TR/2001/REC-SVG-20010904/DTD/svg10.dtd" > <svg xmlns="http://www.w3.org/2000/svg" width="100%" height="100%">
<defs >
<font horiz-adv-x="555" ><font-face
    font-family="Helvetica Neue LT Pro"
    units-per-em="1000"
    panose-1="2 11 8 4 2 2 2 2 2 4"
    ascent="714"
    descent="-286"
    alphabetic="0" />
<missing-glyph horiz-adv-x="512" d="M0 718H512V0H0V718ZM50 50H462V667H50V50ZM259 609Q313 609 348 573T383 478Q383 440 369 415T319 357Q285 326 278 311Q271 294 271 234H225L223 253Q223 287 227 307Q233 345 286 395Q332 437 332 474Q332 508 309 533T256
559Q186 559 174 464L124 472Q131 539 165 574T259 609ZM222 117V184H278V117H222Z" />
<glyph unicode=" " glyph-name="space" horiz-adv-x="278" />
<glyph unicode="!" glyph-name="exclam" horiz-adv-x="278" d="M65 714H213V522L174 214H103L65 522V714ZM61 154H218V0H61V154Z" />
<glyph unicode="&quot;" glyph-name="quotedbl" horiz-adv-x="463" d="M85 714H192V393H85V714ZM271 714H378V393H271V714Z" />
<glyph unicode="#" glyph-name="numbersign" horiz-adv-x="556" d="M186 700H283L255 502H352L379 700H476L449 502H523V412H436L419 288H493V198H406L379 0H282L309 198H213L186 3L185 0H88L116 198H33V288H128L146 412H63V502H158L186 700ZM339 412H243L225
288H322L339 412Z" />
<glyph unicode="$" glyph-name="dollar" horiz-adv-x="556" d="M248 731V808H307V731Q410 720 468 666T532 518H390Q389 558 365 586T307 614V437Q444 407 500 352T557 198Q557 165 543 131T501 65T423 10T307 -17V-102H248V-17Q22 0 -1 232H141V229Q141 178 170
144T248 100V309Q246 310 221 316T180 328Q97 354 57 398T16 517Q16 609 80 666T248 731ZM158 531Q158 498 179 481T248 451V614Q210 614 184 591T158 531ZM307 292V100Q355 105 385 131T415 198Q415 235 392 255T307 292Z" />
<glyph unicode="%" glyph-name="percent" horiz-adv-x="1000" d="M668 722H753L341 -22H254L668 722ZM245 714Q330 714 369 660T409 513Q409 422 365 373T240 324Q75 324 75 516Q75 604 118 659T245 714ZM177 513Q177 490 178 476T185 441T205 410T241 399Q307
399 307 513Q307 639 245 639Q177 639 177 513ZM761 376Q925 376 925 180Q925 90 881 38T756 -14Q673 -14 632 38T591 183Q591 269 634 322T761 376ZM693 182Q693 158 694 143T701 105T721 72T757 61Q823 61 823 182Q823 301 760 301Q693 301 693 182Z" />
<glyph unicode="&amp;" glyph-name="ampersand" horiz-adv-x="685" d="M311 722Q394 722 450 677T506 551Q506 441 379 373L471 260Q491 295 497 345H620Q609 243 551 169L696 0H522L464 71Q377 -14 263 -14Q162 -14 97 44T32 200Q32 332 192 407Q124 487 124
559Q124 630 179 676T311 722ZM253 564Q253 520 309 457Q348 481 365 504T382 559Q382 587 363 607T316 627Q290 627 272 610T253 564ZM167 197Q167 159 198 131T269 103Q333 103 389 166L267 315Q167 273 167 197Z" />
<glyph unicode="&apos;" glyph-name="quotesingle" horiz-adv-x="278" d="M86 714H193V393H86V714Z" />
<glyph unicode="(" glyph-name="parenleft" horiz-adv-x="296" d="M184 731H303Q194 528 194 278Q194 30 302 -182H184Q52 34 52 268Q52 386 85 511T184 731Z" />
<glyph unicode=")" glyph-name="parenright" horiz-adv-x="296" d="M-6 731H112Q244 515 244 280Q244 165 211 39T112 -182H-7Q102 26 102 270Q102 520 -6 731Z" />
<glyph unicode="*" glyph-name="asterisk" horiz-adv-x="407" d="M162 714H242V589L358 633L385 556L267 517L341 419L275 370L201 473L131 370L64 419L138 517L22 556L49 633L162 589V714Z" />
<glyph unicode="+" glyph-name="plus" horiz-adv-x="600" d="M247 505H354V306H553V199H354V0H247V199H48V306H247V505Z" />
<glyph unicode="," glyph-name="comma" horiz-adv-x="278" d="M61 154H218V-2Q218 -62 177 -108T62 -166V-94Q93 -87 113 -62T133 -7V0H61V154Z" />
<glyph unicode="-" glyph-name="hyphen" horiz-adv-x="407" d="M53 334H354V212H53V334Z" />
<glyph unicode="." glyph-name="period" horiz-adv-x="278" d="M60 154H217V0H60V154Z" />
<glyph unicode="/" glyph-name="slash" horiz-adv-x="371" d="M268 731H382L103 -17H-11L268 731Z" />
<glyph unicode="0" glyph-name="zero" horiz-adv-x="556" d="M151 714T277 714T469 622T535 353Q535 173 469 80T277 -14T86 79T21 353Q21 530 86 622ZM163 357Q163 327 163 308T167 254T177 197T197 151T229 115T277 103T324 114T357 148T377 194T388 250T392
304T393 357Q393 393 392 420T383 483T364 541T330 581T276 597Q249 597 229 585T197 550T178 505T167 450T164 400T163 357Z" />
<glyph unicode="1" glyph-name="one" horiz-adv-x="556" d="M279 700H392V0H250V454H74V561H84Q258 561 279 700Z" />
<glyph unicode="2" glyph-name="two" horiz-adv-x="556" d="M291 714Q391 714 461 654T531 495Q531 427 499 375Q463 318 364 255Q245 180 204 122H535V0H21Q21 128 114 216Q153 253 291 346Q338 378 363 410T389 484Q389 532 361 562T284 592Q232 592 203 549T173
431H37V444Q37 566 106 640T291 714Z" />
<glyph unicode="3" glyph-name="three" horiz-adv-x="556" d="M277 714Q368 714 440 661T512 520Q512 467 486 429T414 377V375Q472 362 505 319T538 216Q538 111 462 49T278 -14Q159 -14 89 53T18 233V241H153Q156 175 188 139T276 103Q326 103 358 133T390 213Q390
271 355 294T250 317H228V417H254Q314 417 345 439T377 504Q377 547 349 572T278 597Q233 597 202 567T170 472H35Q39 582 104 648T277 714Z" />
<glyph unicode="4" glyph-name="four" horiz-adv-x="556" d="M320 700H447V279H540V162H447V0H312V162H16V292L320 700ZM312 522H309L128 279H312V522Z" />
<glyph unicode="5" glyph-name="five" horiz-adv-x="556" d="M109 700H500V583H211L183 424L185 422Q239 476 322 476Q423 476 480 408T538 238Q538 133 464 60T281 -14Q167 -14 94 45T18 208H160Q165 160 196 132T275 103Q328 103 362 142T396 238Q396 293 364
331T274 369Q208 369 168 313H40L109 700Z" />
<glyph unicode="6" glyph-name="six" horiz-adv-x="556" d="M296 714Q389 714 450 663T523 520H388Q380 559 354 583T294 607Q233 607 199 547T160 394L162 392Q217 470 319 470Q406 470 470 409T535 242Q535 133 467 60T290 -14Q153 -14 87 83T21 348Q21 413
36 475T81 592T167 680T296 714ZM173 233Q173 179 204 141T286 103Q334 103 363 141T393 231Q393 285 366 324T285 363Q234 363 204 327T173 233Z" />
<glyph unicode="7" glyph-name="seven" horiz-adv-x="556" d="M39 700H517V578Q413 485 352 321T288 0H136Q148 154 209 300T371 568H39V700Z" />
<glyph unicode="8" glyph-name="eight" horiz-adv-x="556" d="M279 714Q340 714 387 695T461 647T500 586T513 525Q513 473 487 435T411 379V377Q475 362 508 317T542 206Q542 102 465 44T280 -14Q210 -14 152 8T54 81T14 205Q14 271 48 316T146 377V379Q97 392
70 430T43 523Q43 611 114 662T279 714ZM172 510Q172 467 203 443T279 418Q325 418 354 442T384 510Q384 548 361 577T278 607Q235 607 204 582T172 510ZM156 212Q156 159 191 126T280 93Q332 93 366 126T400 211Q400 259 366 291T279 323Q225 323 191 293T156
212Z" />
<glyph unicode="9" glyph-name="nine" horiz-adv-x="556" d="M267 714Q402 714 468 617T535 353Q535 285 520 222T473 105T386 19T260 -14Q167 -14 106 37T33 180H168Q176 142 202 118T262 93Q319 93 354 147T396 306L394 308Q340 230 236 230Q200 230 164 243T95
283T42 355T21 458Q21 566 88 640T267 714ZM163 469Q163 415 190 376T270 337Q324 337 353 374T383 467Q383 521 352 559T270 597Q222 597 193 559T163 469Z" />
<glyph unicode=":" glyph-name="colon" horiz-adv-x="278" d="M61 508H218V354H61V508ZM61 154H218V0H61V154Z" />
<glyph unicode=";" glyph-name="semicolon" horiz-adv-x="278" d="M61 508H218V354H61V508ZM61 154H218V-1Q218 -65 175 -110T62 -166V-94Q92 -88 112 -63T133 -7V0H61V154Z" />
<glyph unicode="&lt;" glyph-name="less" horiz-adv-x="600" d="M554 514V399L187 253L554 107V-8L46 194V312L554 514Z" />
<glyph unicode="=" glyph-name="equal" horiz-adv-x="600" d="M48 413H553V306H48V413ZM48 199H553V92H48V199Z" />
<glyph unicode="&gt;" glyph-name="greater" horiz-adv-x="600" d="M46 399V514L554 312V194L46 -8V107L413 253L46 399Z" />
<glyph unicode="?" glyph-name="question" horiz-adv-x="556" d="M275 731Q341 731 391 713T469 664T510 602T524 537Q524 490 509 454T478 402T437 367L404 343Q342 298 342 243V214H207V243Q207 301 228 341T296 418Q325 441 336 452T357 481T367 524Q367 614
282 614Q233 614 206 579T179 484H32Q34 595 101 663T275 731ZM193 154H350V0H193V154Z" />
<glyph unicode="@" glyph-name="at" horiz-adv-x="800" d="M416 731Q557 731 660 645T764 426Q764 355 737 296T671 204T594 154T528 136Q498 136 478 151T456 193H454Q418 135 346 135Q283 135 236 185T189 307Q189 404 250 482T407 561Q446 561 478 543T524
491L540 545H622L561 295Q551 257 551 244Q551 221 568 221Q613 221 649 274T686 405Q686 518 611 584T415 651Q288 651 210 568T132 355T214 145T427 63Q489 63 546 84T642 145H726Q673 66 594 25T421 -17Q260 -17 148 90T36 357Q36 514 147 622T416 731ZM291
319Q291 280 312 255T369 230Q420 230 456 277T492 381Q492 416 470 441T414 466Q364 466 328 421T291 319Z" />
<glyph unicode="A" glyph-name="A" horiz-adv-x="685" d="M264 714H425L692 0H529L475 159H208L152 0H-7L264 714ZM344 538H342L249 276H434L344 538Z" />
<glyph unicode="B" glyph-name="B" horiz-adv-x="704" d="M69 714H406Q633 714 633 538Q633 436 536 388Q601 370 634 323T667 207Q667 106 595 53T415 0H69V714ZM226 425H386Q430 425 455 446T481 510Q481 592 375 592H226V425ZM226 122H395Q510 122 510 216Q510
318 398 318H226V122Z" />
<glyph unicode="C" glyph-name="C" horiz-adv-x="741" d="M389 731Q512 731 598 662T697 474H545Q537 527 492 563T389 599Q295 599 245 532T195 354Q195 248 245 182T389 115Q457 115 499 157T551 275H703Q691 140 606 62T389 -17Q229 -17 134 88T38 354Q38 517
133 624T389 731Z" />
<glyph unicode="D" glyph-name="D" horiz-adv-x="741" d="M69 714H375Q525 714 613 621T701 361Q701 192 615 96T379 0H69V714ZM226 132H365Q444 132 494 185T544 347Q544 471 492 526T338 582H226V132Z" />
<glyph unicode="E" glyph-name="E" horiz-adv-x="648" d="M69 714H603V582H226V429H572V307H226V132H611V0H69V714Z" />
<glyph unicode="F" glyph-name="F" horiz-adv-x="593" d="M69 714H571V582H226V417H525V295H226V0H69V714Z" />
<glyph unicode="G" glyph-name="G" horiz-adv-x="759" d="M389 731Q507 731 593 662T690 479H540Q526 538 487 568T389 599Q295 599 245 532T195 354Q195 252 243 184T389 115Q544 115 559 269H401V386H701V0H601L585 81Q509 -17 389 -17Q229 -17 134 88T38 354Q38
518 132 624T389 731Z" />
<glyph unicode="H" glyph-name="H" horiz-adv-x="741" d="M69 714H226V440H515V714H672V0H515V308H226V0H69V714Z" />
<glyph unicode="I" glyph-name="I" horiz-adv-x="295" d="M69 714H226V0H69V714Z" />
<glyph unicode="J" glyph-name="J" horiz-adv-x="556" d="M330 714H487V224Q487 106 428 45T251 -17Q142 -17 78 42T14 202V266H156V231Q156 169 178 142T247 115Q275 115 292 124T318 151T328 185T330 226V714Z" />
<glyph unicode="K" glyph-name="K" horiz-adv-x="722" d="M69 714H226V418L505 714H701L422 432L728 0H531L316 321L226 230V0H69V714Z" />
<glyph unicode="L" glyph-name="L" horiz-adv-x="593" d="M69 714H226V132H574V0H69V714Z" />
<glyph unicode="M" glyph-name="M" horiz-adv-x="907" d="M69 714H290L457 223H459L617 714H838V0H691V506H689L514 0H393L218 501H216V0H69V714Z" />
<glyph unicode="N" glyph-name="N" horiz-adv-x="741" d="M69 714H225L523 235H525V714H672V0H515L218 478H216V0H69V714Z" />
<glyph unicode="O" glyph-name="O" horiz-adv-x="778" d="M389 731Q548 731 644 625T740 354Q740 194 645 89T389 -17T134 88T38 354Q38 517 133 624T389 731ZM195 354Q195 249 245 182T389 115Q484 115 533 182T583 354Q583 463 534 531T388 599Q294 599 245
531T195 354Z" />
<glyph unicode="P" glyph-name="P" horiz-adv-x="667" d="M69 714H392Q512 714 575 650T638 485T575 320T393 256H226V0H69V714ZM226 378H351Q420 378 453 403T486 485Q486 540 454 566T352 592H226V378Z" />
<glyph unicode="Q" glyph-name="Q" horiz-adv-x="778" d="M389 731Q548 731 644 626T740 354Q740 198 647 91L736 10L663 -67L562 25Q489 -17 389 -17Q228 -17 133 89T38 354Q38 518 132 624T389 731ZM195 354Q195 310 205 271T236 195T296 137T390 115Q440 115
452 125L385 186L458 264L539 190Q583 249 583 354Q583 465 533 532T388 599Q295 599 245 532T195 354Z" />
<glyph unicode="R" glyph-name="R" horiz-adv-x="722" d="M69 714H454Q547 714 605 658T663 517Q663 383 550 338V336Q579 328 599 309T630 272T646 223T653 177T656 131Q660 33 684 0H527Q514 32 507 124Q500 208 477 243T384 279H226V0H69V714ZM226 391H399Q506
391 506 493Q506 592 398 592H226V391Z" />
<glyph unicode="S" glyph-name="S" horiz-adv-x="649" d="M315 731Q439 731 520 674T601 501H449Q442 609 309 609Q262 609 231 589T200 528Q200 490 232 474T390 426Q431 415 456 408T517 383T574 345T609 290T625 212Q625 109 547 46T328 -17Q269 -17 217 -3T120
41T50 119T24 232V237H176Q176 168 222 137T333 105Q393 105 433 126T473 194Q473 228 445 250T350 289Q216 324 205 328Q48 380 48 516Q48 585 88 635T187 708T315 731Z" />
<glyph unicode="T" glyph-name="T" horiz-adv-x="611" d="M13 714H598V582H384V0H227V582H13V714Z" />
<glyph unicode="U" glyph-name="U" horiz-adv-x="741" d="M66 714H223V267Q223 188 258 152T370 115Q451 115 484 151T518 267V714H675V267Q675 132 598 58T370 -17Q218 -17 142 57T66 267V714Z" />
<glyph unicode="V" glyph-name="V" horiz-adv-x="630" d="M-8 714H154L313 212H315L476 714H638L401 0H224L-8 714Z" />
<glyph unicode="W" glyph-name="W" horiz-adv-x="944" d="M3 714H160L273 228H275L399 714H546L668 222H670L787 714H941L749 0H593L472 486H470L351 0H192L3 714Z" />
<glyph unicode="X" glyph-name="X" horiz-adv-x="667" d="M14 714H196L336 486L481 714H653L424 373L673 0H486L330 247L171 0H-6L244 374L14 714Z" />
<glyph unicode="Y" glyph-name="Y" horiz-adv-x="667" d="M-9 714H168L335 432L501 714H676L411 274V0H254V278L-9 714Z" />
<glyph unicode="Z" glyph-name="Z" horiz-adv-x="648" d="M53 714H615V590L232 132H625V0H23V124L406 582H53V714Z" />
<glyph unicode="[" glyph-name="bracketleft" horiz-adv-x="333" d="M68 731H332V619H210V-70H332V-182H68V731Z" />
<glyph unicode="\" glyph-name="backslash" horiz-adv-x="371" d="M-11 731H103L382 -17H268L-11 731Z" />
<glyph unicode="]" glyph-name="bracketright" horiz-adv-x="333" d="M1 731H265V-182H1V-70H123V619H1V731Z" />
<glyph unicode="^" glyph-name="asciicircum" horiz-adv-x="600" d="M233 700H367L539 315H422L300 590L178 315H61L233 700Z" />
<glyph unicode="_" glyph-name="underscore" horiz-adv-x="500" d="M0 -75H500V-125H0V-75Z" />
<glyph unicode="`" glyph-name="grave" horiz-adv-x="259" d="M-48 731H109L205 589H106L-48 731Z" />
<glyph unicode="a" glyph-name="a" horiz-adv-x="574" d="M292 531Q518 531 518 384V110Q518 29 536 0H392Q383 28 382 50Q321 -14 208 -14Q127 -14 80 26T32 141Q32 212 77 251Q123 290 244 303Q320 311 348 323T376 367Q376 407 352 421T285 436Q197 436 190
358H48Q52 442 117 486T292 531ZM174 147Q174 81 261 81Q376 81 376 198V253Q358 237 290 228Q230 221 202 204T174 147Z" />
<glyph unicode="b" glyph-name="b" horiz-adv-x="611" d="M54 714H196V454H198Q249 531 361 531Q447 531 511 461T575 259Q575 130 513 58T360 -14Q234 -14 191 66H189V0H54V714ZM191 258Q191 185 223 139T312 93Q370 93 401 139T433 258Q433 331 402 377T311
424Q254 424 223 378T191 258Z" />
<glyph unicode="c" glyph-name="c" horiz-adv-x="574" d="M302 531Q404 531 472 479T545 335H406Q392 424 301 424Q241 424 211 375T180 256Q180 187 209 140T298 93Q396 93 411 198H548Q534 96 469 41T299 -14Q181 -14 110 61T38 251Q38 376 109 453T302 531Z" />
<glyph unicode="d" glyph-name="d" horiz-adv-x="611" d="M416 714H558V0H423V66H421Q374 -14 264 -14T93 66T32 263Q32 376 93 453T261 531Q309 531 350 511T414 454H416V714ZM174 259Q174 191 206 142T299 93Q359 93 390 137T421 260Q421 335 391 379T298 424Q238
424 206 380T174 259Z" />
<glyph unicode="e" glyph-name="e" horiz-adv-x="574" d="M293 531Q411 531 478 451T545 250L544 224H171Q177 93 297 93Q337 93 369 112T410 160H535Q478 -14 293 -14Q172 -14 101 61T29 258Q29 376 103 453T293 531ZM171 314H402Q392 372 365 398T288 424Q237
424 207 395T171 314Z" />
<glyph unicode="f" glyph-name="f" horiz-adv-x="333" d="M227 0H85V422H0V517H85V555Q85 633 132 673T258 714Q277 714 333 710V604Q306 607 282 607Q251 607 239 594T227 547V517H325V422H227V0Z" />
<glyph unicode="g" glyph-name="g" horiz-adv-x="611" d="M260 531Q366 531 414 448H416V517H551V32Q551 -74 486 -135T284 -196Q191 -196 125 -151T55 -30H196Q213 -101 302 -101Q357 -101 386 -68T416 24V95H414Q393 57 352 36T259 15Q151 15 95 86T38 275Q38
381 97 456T260 531ZM180 277Q180 209 208 166T295 122Q351 122 383 162T416 266Q416 296 411 321T393 371T355 410T294 424Q240 424 210 383T180 277Z" />
<glyph unicode="h" glyph-name="h" horiz-adv-x="593" d="M54 714H196V445H199Q223 485 264 508T351 531Q449 531 494 481T539 323V0H397V294Q397 358 376 388T306 419Q244 419 220 382T196 271V0H54V714Z" />
<glyph unicode="i" glyph-name="i" horiz-adv-x="258" d="M58 714H200V597H58V714ZM58 517H200V0H58V517Z" />
<glyph unicode="j" glyph-name="j" horiz-adv-x="278" d="M67 714H209V597H67V714ZM67 517H209V-29Q209 -112 169 -147T28 -182Q2 -182 -19 -178V-61Q-8 -65 13 -65Q43 -65 55 -53T67 -18V517Z" />
<glyph unicode="k" glyph-name="k" horiz-adv-x="574" d="M67 714H209V331L388 517H556L361 327L578 0H406L264 231L209 178V0H67V714Z" />
<glyph unicode="l" glyph-name="l" horiz-adv-x="258" d="M58 714H200V0H58V714Z" />
<glyph unicode="m" glyph-name="m" horiz-adv-x="906" d="M352 531Q465 531 503 445Q562 531 660 531Q754 531 801 483T848 347V0H706V299Q706 359 689 389T619 419Q524 419 524 289V0H382V305Q382 363 365 391T296 419Q262 419 231 392T200 301V0H58V517H192V447H194Q253
531 352 531Z" />
<glyph unicode="n" glyph-name="n" horiz-adv-x="593" d="M351 531Q449 531 494 481T539 322V0H397V293Q397 358 376 388T306 419Q244 419 220 382T196 269V0H54V517H189V445H192Q245 531 351 531Z" />
<glyph unicode="o" glyph-name="o" horiz-adv-x="611" d="M305 531Q427 531 500 457T573 258T499 60T305 -14Q183 -14 111 60T38 258Q38 382 111 456T305 531ZM180 337T180 258T212 136T305 93Q367 93 399 136T431 258Q431 330 402 377T304 424Q245 424 213 381Z" />
<glyph unicode="p" glyph-name="p" horiz-adv-x="611" d="M345 531Q458 531 519 453T580 253Q580 140 520 63T353 -14Q251 -14 198 64H196V-182H54V517H189V451H191Q241 531 345 531ZM191 257Q191 183 222 138T315 93Q378 93 408 138T438 257Q438 326 408 375T313
424Q255 424 223 380T191 257Z" />
<glyph unicode="q" glyph-name="q" horiz-adv-x="611" d="M264 531Q376 531 421 451H423V517H558V-182H416V65H414Q391 27 348 7T251 -14Q167 -14 100 52T32 254Q32 371 92 451T264 531ZM174 258Q174 183 204 138T297 93Q360 93 390 138T421 256Q421 324 392 374T299
424Q237 424 206 378T174 258Z" />
<glyph unicode="r" glyph-name="r" horiz-adv-x="389" d="M356 531Q370 531 387 526V394Q364 399 336 399Q196 399 196 233V0H54V517H189V421H191Q211 470 257 500T356 531Z" />
<glyph unicode="s" glyph-name="s" horiz-adv-x="537" d="M266 531Q371 531 429 489T494 366H359Q353 436 262 436Q183 436 183 388Q183 364 208 349T294 322Q424 296 468 259Q508 223 508 166Q508 73 441 30T272 -14Q163 -14 98 32T29 168H164Q164 126 195 104T273
81Q312 81 339 98T366 147Q366 175 332 191T210 226Q120 245 81 277T41 365Q41 447 98 489T266 531Z" />
<glyph unicode="t" glyph-name="t" horiz-adv-x="352" d="M92 672H234V517H338V422H234V166Q234 130 246 118T294 106Q322 106 338 110V-1Q308 -6 254 -6Q170 -6 131 22T92 119V422H6V517H92V672Z" />
<glyph unicode="u" glyph-name="u" horiz-adv-x="593" d="M54 517H196V224Q196 161 216 130T287 98Q345 98 371 133T397 245V517H539V0H404V72H401Q348 -14 242 -14Q142 -14 98 37T54 196V517Z" />
<glyph unicode="v" glyph-name="v" horiz-adv-x="520" d="M5 517H154L263 164H265L374 517H515L340 0H182L5 517Z" />
<glyph unicode="w" glyph-name="w" horiz-adv-x="814" d="M6 517H156L251 166H253L339 517H477L565 167H567L662 517H808L645 0H499L407 347H405L317 0H170L6 517Z" />
<glyph unicode="x" glyph-name="x" horiz-adv-x="537" d="M16 517H178L269 382L359 517H516L346 275L537 0H375L267 163L159 0H0L186 272L16 517Z" />
<glyph unicode="y" glyph-name="y" horiz-adv-x="519" d="M-6 517H146L263 163H265L378 517H525L309 -65Q286 -126 245 -154T133 -182Q94 -182 44 -177V-60Q82 -65 119 -65Q148 -65 165 -47T182 0Q182 15 176 32L-6 517Z" />
<glyph unicode="z" glyph-name="z" horiz-adv-x="519" d="M42 517H478V410L209 107H497V0H22V107L291 410H42V517Z" />
<glyph unicode="{" glyph-name="braceleft" horiz-adv-x="333" d="M333 731V619H279Q225 619 225 548V395Q225 342 199 312T126 276V273Q168 267 196 239T225 164V1Q225 -70 280 -70H333V-182H209Q163 -182 123 -145T83 -48V148Q83 187 54 208T-9 231V318Q30 320
56 344T83 406V597Q83 654 122 692T210 731H333Z" />
<glyph unicode="|" glyph-name="bar" horiz-adv-x="223" d="M58 786H165V-214H58V786Z" />
<glyph unicode="}" glyph-name="braceright" horiz-adv-x="333" d="M0 731H126Q168 731 209 695T250 595V407Q250 368 276 344T342 318V231Q301 229 276 206T250 150V-48Q250 -108 210 -145T126 -182H0V-70H54Q108 -70 108 2V163Q108 212 136 240T207 273V276Q158
281 133 312T108 392V548Q108 619 54 619H0V731Z" />
<glyph unicode="~" glyph-name="asciitilde" horiz-adv-x="600" d="M493 344L533 251Q502 206 474 186T408 165Q368 165 298 199Q229 233 191 233Q139 233 107 161L67 254Q112 340 192 340Q233 340 316 302Q380 272 405 272Q428 272 448 288T493 344Z" />
</font>
</defs>
</svg>
