<?xml version="1.0" standalone="no"?> <!DOCTYPE svg PUBLIC "-//W3C//DTD SVG 1.0//EN" "http://www.w3.org/TR/2001/REC-SVG-20010904/DTD/svg10.dtd" > <svg xmlns="http://www.w3.org/2000/svg" width="100%" height="100%">
<defs >
<font horiz-adv-x="509" ><font-face
    font-family="Helvetica Neue LT Pro"
    units-per-em="1000"
    panose-1="2 11 4 3 2 2 2 2 2 4"
    ascent="714"
    descent="-286"
    alphabetic="0" />
<missing-glyph horiz-adv-x="512" d="M0 718H512V0H0V718ZM50 50H462V667H50V50ZM259 609Q312 609 347 573T383 478Q383 442 369 416T319 357T277 306Q271 286 271 234H225L223 253Q223 305 235 331T290 398Q315 424 323 439T332 474Q332 509 309 534T256 559Q185
559 174 464L124 472Q131 540 167 574T259 609ZM222 117V184H278V117H222Z" />
<glyph unicode=" " glyph-name="space" horiz-adv-x="278" />
<glyph unicode="!" glyph-name="exclam" horiz-adv-x="241" d="M87 714H155V501L140 178H102L87 501V714ZM79 106H163V0H79V106Z" />
<glyph unicode="&quot;" glyph-name="quotedbl" horiz-adv-x="370" d="M87 714H150V471H87V714ZM220 714H283V471H220V714Z" />
<glyph unicode="#" glyph-name="numbersign" horiz-adv-x="556" d="M179 469L210 691H260L229 469H370L401 691H451L420 469H525V424H414L392 268H497V223H386L355 0H305L336 223H195L164 0H114L145 223H35V268H151L173 424H63V469H179ZM223 424L201 268H342L364
424H223Z" />
<glyph unicode="$" glyph-name="dollar" horiz-adv-x="556" d="M257 729V807H296V729Q387 727 447 669T508 521V512H445Q444 584 404 629T296 676V388Q430 360 479 311Q527 262 527 185Q527 97 463 42T296 -15V-100H257V-14Q142 -3 88 54T29 228H92Q94 56 257
38V334Q140 357 94 403T47 534T104 672T257 729ZM110 527Q110 474 141 445T257 397V676Q188 676 149 637T110 527ZM296 326V38Q373 39 418 78T464 184Q464 238 426 271T296 326Z" />
<glyph unicode="%" glyph-name="percent" horiz-adv-x="889" d="M190 -34L643 725H690L238 -34H190ZM228 706Q305 706 346 657T387 517Q387 429 347 379T228 328Q152 328 111 377T69 517T110 657T228 706ZM122 516Q122 452 148 413T228 373Q282 373 308 414T334
516Q334 576 309 618T227 661Q178 661 150 623T122 516ZM590 363T667 363T785 314T826 174Q826 86 786 36T667 -15T548 36T508 174Q508 264 549 313ZM561 173Q561 110 587 70T667 30Q720 30 746 70T773 173Q773 209 765 239T731 294T666 318Q616 318 589 280T561
173Z" />
<glyph unicode="&amp;" glyph-name="ampersand" horiz-adv-x="611" d="M284 714Q351 714 396 674T442 569Q442 518 410 474T302 384L458 196Q479 241 479 316H542Q542 221 500 145L620 0H541L465 93Q378 -15 254 -15Q159 -15 99 38T39 185Q39 304 214 397Q210
402 195 420T174 447T157 474T140 504T131 534T126 569Q126 633 172 673T284 714ZM189 569Q189 518 269 425Q379 492 379 569Q379 611 353 636T283 661Q244 661 217 637T189 569ZM102 179Q102 118 148 78T257 38Q353 38 426 140L248 356Q102 279 102 179Z" />
<glyph unicode="&apos;" glyph-name="quotesingle" horiz-adv-x="278" d="M108 714H171V471H108V714Z" />
<glyph unicode="(" glyph-name="parenleft" horiz-adv-x="241" d="M192 729H242Q114 525 114 244Q114 136 149 19T242 -191H192Q115 -64 83 43T51 266Q51 510 192 729Z" />
<glyph unicode=")" glyph-name="parenright" horiz-adv-x="241" d="M-1 729H49Q123 607 156 500T190 272Q190 25 49 -191H-1Q127 14 127 294Q127 399 93 513T-1 729Z" />
<glyph unicode="*" glyph-name="asterisk" horiz-adv-x="352" d="M156 591V714H195V591L310 632L325 595L207 556L279 458L247 435L174 535L101 435L69 458L142 556L27 595L41 632L156 591Z" />
<glyph unicode="+" glyph-name="plus" horiz-adv-x="600" d="M274 278V503H327V278H552V225H327V0H274V225H49V278H274Z" />
<glyph unicode="," glyph-name="comma" horiz-adv-x="278" d="M97 106H181V-1Q181 -48 158 -87T93 -137V-94Q112 -88 125 -62T139 -9V0H97V106Z" />
<glyph unicode="-" glyph-name="hyphen" horiz-adv-x="370" d="M60 304H310V246H60V304Z" />
<glyph unicode="." glyph-name="period" horiz-adv-x="278" d="M97 106H181V0H97V106Z" />
<glyph unicode="/" glyph-name="slash" horiz-adv-x="333" d="M-13 -15L295 729H346L41 -15H-13Z" />
<glyph unicode="0" glyph-name="zero" horiz-adv-x="556" d="M278 706Q399 706 460 615T522 346Q522 167 460 76T278 -15T96 76T34 345Q34 525 96 615T278 706ZM97 346Q97 38 278 38T459 346Q459 653 277 653Q189 653 143 576T97 346Z" />
<glyph unicode="1" glyph-name="one" horiz-adv-x="556" d="M294 700H345V0H282V520H97V565Q182 566 217 580Q280 605 294 700Z" />
<glyph unicode="2" glyph-name="two" horiz-adv-x="556" d="M277 706Q372 706 433 655T494 509Q494 435 449 374Q404 311 274 232Q192 182 154 142T108 58H497V0H36Q39 88 86 148T239 277Q346 346 388 394Q431 443 431 510Q431 575 387 614T274 653Q197 653 157
602T116 468V458H53V468Q53 577 111 641T277 706Z" />
<glyph unicode="3" glyph-name="three" horiz-adv-x="556" d="M271 706Q361 706 424 660T487 528Q487 470 456 429T369 373V371Q439 359 476 313T513 198Q513 100 444 43T273 -15Q167 -15 100 43T32 204Q32 211 33 223H96V210Q96 132 143 85T272 38Q343 38 396
79T450 193Q450 262 405 301T281 341H229V394H280Q339 394 381 427T424 521Q424 584 383 618T272 653Q198 653 155 608T112 480V476H49Q50 582 111 644T271 706Z" />
<glyph unicode="4" glyph-name="four" horiz-adv-x="556" d="M30 235L354 700H411V227H516V174H411V0H353V174H30V235ZM351 608L87 227H353V608H351Z" />
<glyph unicode="5" glyph-name="five" horiz-adv-x="556" d="M125 691H475V633H169L124 401L126 399Q183 464 274 464Q380 464 444 397T509 222Q509 123 439 54T266 -15Q168 -15 103 43T36 200H99Q101 128 149 83T271 38Q350 38 398 94T446 229Q446 307 395 359T267
411Q166 411 111 328H57L125 691Z" />
<glyph unicode="6" glyph-name="six" horiz-adv-x="556" d="M290 706Q483 706 505 523H442Q434 582 395 617T296 653Q202 653 153 573T103 340H105Q131 394 181 425T292 456Q394 456 458 392T522 222Q522 119 455 52T285 -15Q156 -15 98 69T40 355Q40 400 46 444T69
536T112 621T185 682T290 706ZM116 218Q116 133 162 86T291 38Q364 38 411 90T459 218Q459 299 413 351T289 403Q210 403 163 350T116 218Z" />
<glyph unicode="7" glyph-name="seven" horiz-adv-x="556" d="M51 691H501V633Q236 356 218 0H150Q163 181 229 326T438 633H51V691Z" />
<glyph unicode="8" glyph-name="eight" horiz-adv-x="556" d="M277 706Q330 706 377 689T457 630T490 531Q490 474 460 434T376 377V375Q445 361 482 314T519 196Q519 97 453 41T278 -15T104 41T37 194Q37 257 73 309T179 375V377Q65 413 65 531Q65 612 126 659T277
706ZM128 531Q128 471 168 436T275 401Q345 401 386 435T427 531Q427 587 387 620T277 653Q215 653 172 620T128 531ZM100 196Q100 121 150 80T278 38Q360 38 408 80T456 196Q456 263 408 305T277 348Q195 348 148 307T100 196Z" />
<glyph unicode="9" glyph-name="nine" horiz-adv-x="556" d="M271 706Q403 706 459 619T516 336Q516 289 510 244T486 151T442 67T370 8T266 -15Q73 -15 51 168H114Q123 107 162 73T260 38Q355 38 404 119T453 351H451Q425 297 374 266T265 235Q161 235 98 300T34
469Q34 573 101 639T271 706ZM97 473Q97 392 143 340T266 288Q347 288 393 341T440 473Q440 557 395 605T265 653Q193 653 145 601T97 473Z" />
<glyph unicode=":" glyph-name="colon" horiz-adv-x="278" d="M97 500H181V394H97V500ZM97 106H181V0H97V106Z" />
<glyph unicode=";" glyph-name="semicolon" horiz-adv-x="278" d="M97 500H181V394H97V500ZM97 106H181V-3Q181 -48 158 -87T93 -137V-94Q114 -86 126 -61T139 -7V0H97V106Z" />
<glyph unicode="&lt;" glyph-name="less" horiz-adv-x="600" d="M46 280L554 514V459L108 253L554 47V-8L46 226V280Z" />
<glyph unicode="=" glyph-name="equal" horiz-adv-x="600" d="M49 378H552V325H49V378ZM49 181H552V128H49V181Z" />
<glyph unicode="&gt;" glyph-name="greater" horiz-adv-x="600" d="M46 459V514L554 280V226L46 -8V47L492 253L46 459Z" />
<glyph unicode="?" glyph-name="question" horiz-adv-x="537" d="M281 729Q369 729 426 678T484 544Q484 492 464 456T402 379L348 326Q319 298 313 273T304 179H241V199Q241 262 262 306Q281 345 348 405Q421 469 421 541Q421 599 380 637T277 676Q205 676 161
629T117 503V494H54Q54 603 115 666T281 729ZM231 106H315V0H231V106Z" />
<glyph unicode="@" glyph-name="at" horiz-adv-x="800" d="M414 729Q558 729 655 643T753 418Q753 299 680 214T521 128Q494 128 476 145T454 195H452Q387 129 325 129Q266 129 230 170T193 274Q193 383 260 473T430 563Q504 563 536 479L561 544H614L522 268Q507
224 507 201Q507 173 531 173Q595 173 647 253T700 421Q700 539 619 611T416 684Q278 684 189 589T100 353Q100 216 191 123T418 30Q493 30 563 66T676 163H727Q681 82 597 34T418 -15Q259 -15 153 92T47 360Q47 513 152 621T414 729ZM256 279Q256 236 279 209T339
182Q404 182 454 263T505 417Q505 452 481 481T426 510Q378 510 338 471T277 380T256 279Z" />
<glyph unicode="A" glyph-name="A" horiz-adv-x="630" d="M281 714H357L637 0H564L477 222H152L66 0H-7L281 714ZM316 646L173 280H454L316 646Z" />
<glyph unicode="B" glyph-name="B" horiz-adv-x="667" d="M72 714H374Q480 714 541 671T603 540Q603 483 570 438T479 379V377Q548 368 589 321T630 203Q630 104 565 52T375 0H72V714ZM140 401H375Q449 401 492 434T535 522Q535 656 373 656H140V401ZM140 58H375Q562
58 562 205Q562 273 514 308T374 343H140V58Z" />
<glyph unicode="C" glyph-name="C" horiz-adv-x="704" d="M375 729Q484 729 566 666T662 498H594Q576 578 516 624T375 671Q286 671 223 625T133 509T106 357Q106 297 121 243T168 143T253 70T375 43Q468 43 530 106T604 272H672Q658 138 578 62T375 -15Q268 -15
190 37T75 172T38 357Q38 431 59 497T120 615T227 698T375 729Z" />
<glyph unicode="D" glyph-name="D" horiz-adv-x="685" d="M72 714H307Q647 714 647 357T306 0H72V714ZM140 58H284Q436 58 507 126T579 357Q579 518 509 587T282 656H140V58Z" />
<glyph unicode="E" glyph-name="E" horiz-adv-x="593" d="M72 714H565V656H140V398H538V340H140V58H570V0H72V714Z" />
<glyph unicode="F" glyph-name="F" horiz-adv-x="537" d="M72 714H525V656H140V398H482V340H140V0H72V714Z" />
<glyph unicode="G" glyph-name="G" horiz-adv-x="741" d="M375 729Q492 729 573 667T673 492H605Q598 562 533 616T375 671Q307 671 254 644T170 572T122 473T106 357Q106 274 133 205T222 90T375 43Q486 43 554 112T622 299V305H379V363H682V0H633L624 130H622Q589
60 525 23T375 -15Q216 -15 127 91T38 357Q38 432 59 498T121 616T227 698T375 729Z" />
<glyph unicode="H" glyph-name="H" horiz-adv-x="704" d="M72 714H140V404H564V714H632V0H564V346H140V0H72V714Z" />
<glyph unicode="I" glyph-name="I" horiz-adv-x="222" d="M77 714H145V0H77V714Z" />
<glyph unicode="J" glyph-name="J" horiz-adv-x="500" d="M360 714H428V197Q428 87 380 36T221 -15Q21 -15 21 227V229H89Q89 136 118 90T227 43Q300 43 330 82T360 223V714Z" />
<glyph unicode="K" glyph-name="K" horiz-adv-x="648" d="M72 714H140V330L555 714H647L328 419L662 0H574L277 372L140 245V0H72V714Z" />
<glyph unicode="L" glyph-name="L" horiz-adv-x="537" d="M72 714H140V58H540V0H72V714Z" />
<glyph unicode="M" glyph-name="M" horiz-adv-x="833" d="M70 714H170L417 88L663 714H763V0H695V617H693L449 0H385L140 617H138V0H70V714Z" />
<glyph unicode="N" glyph-name="N" horiz-adv-x="704" d="M71 714H147L563 110H565V714H633V0H557L141 604H139V0H71V714Z" />
<glyph unicode="O" glyph-name="O" horiz-adv-x="741" d="M371 729Q530 729 618 622T707 357Q707 298 694 244T654 143T587 60T493 5T371 -15Q211 -15 123 92T34 357Q34 514 122 621T371 729ZM102 357Q102 296 118 242T165 142T250 70T371 43Q438 43 491 69T575
141T623 241T639 357Q639 417 623 471T576 571T492 644T370 671Q242 671 172 581T102 357Z" />
<glyph unicode="P" glyph-name="P" horiz-adv-x="630" d="M72 714H390Q485 714 543 661T601 510Q601 412 542 359T390 306H140V0H72V714ZM140 364H375Q448 364 490 400T533 510Q533 579 493 617T373 656H140V364Z" />
<glyph unicode="Q" glyph-name="Q" horiz-adv-x="741" d="M213 729T371 729T618 623T707 357Q707 177 599 74L701 -4L667 -46L556 38Q482 -15 371 -15Q211 -15 123 92T34 357Q34 516 123 622ZM102 357Q102 274 129 205T218 90T371 43Q447 43 503 78L409 149L444
192L548 113Q639 200 639 357Q639 440 612 509T523 624T370 671Q242 671 172 581T102 357Z" />
<glyph unicode="R" glyph-name="R" horiz-adv-x="667" d="M72 714H397Q496 714 556 666T616 528Q616 456 580 408T477 346V344Q517 339 543 322T581 276T597 224T603 165Q608 30 635 0H560Q547 20 540 131Q534 234 501 277Q470 317 408 317H140V0H72V714ZM140
375H395Q458 375 503 413T548 514Q548 583 508 619T395 656H140V375Z" />
<glyph unicode="S" glyph-name="S" horiz-adv-x="630" d="M304 729Q420 729 494 670T569 507H501Q497 584 442 627T305 671Q226 671 177 636T127 529Q127 447 227 422L401 379Q503 354 548 308T594 189Q594 165 589 141T565 88T519 37T440 0T321 -15Q187 -15 112
45T36 217V235H104V229Q104 43 335 43Q406 43 466 80T526 188Q526 281 383 316L220 356Q138 376 99 417T59 528Q59 561 71 594T110 658T186 709T304 729Z" />
<glyph unicode="T" glyph-name="T" horiz-adv-x="556" d="M-5 714H561V656H312V0H244V656H-5V714Z" />
<glyph unicode="U" glyph-name="U" horiz-adv-x="685" d="M65 714H133V271Q133 159 183 101T342 43Q449 43 500 99T552 272V714H620V259Q620 131 549 58T342 -15Q206 -15 136 59T65 259V714Z" />
<glyph unicode="V" glyph-name="V" horiz-adv-x="593" d="M-7 714H66L298 75H300L530 714H602L337 1L336 0H258L-7 714Z" />
<glyph unicode="W" glyph-name="W" horiz-adv-x="907" d="M0 714H73L235 89H237L411 714H496L671 89H673L836 714H904L707 0H635L454 639H452L272 0H198L0 714Z" />
<glyph unicode="X" glyph-name="X" horiz-adv-x="574" d="M3 714H83L285 415L494 714H570L326 366L584 0H502L285 315L65 0H-12L245 368L3 714Z" />
<glyph unicode="Y" glyph-name="Y" horiz-adv-x="611" d="M-10 714H71L306 352L540 714H621L339 294V0H271V294L-10 714Z" />
<glyph unicode="Z" glyph-name="Z" horiz-adv-x="574" d="M37 714H551V654L81 58H561V0H5V60L475 656H37V714Z" />
<glyph unicode="[" glyph-name="bracketleft" horiz-adv-x="241" d="M76 729H237V676H139V-138H237V-191H76V729Z" />
<glyph unicode="\" glyph-name="backslash" horiz-adv-x="333" d="M292 -15L-13 729H38L346 -15H292Z" />
<glyph unicode="]" glyph-name="bracketright" horiz-adv-x="241" d="M4 729H165V-191H4V-138H102V676H4V729Z" />
<glyph unicode="^" glyph-name="asciicircum" horiz-adv-x="600" d="M44 238L274 691H326L556 238H499L299 628L102 238H44Z" />
<glyph unicode="_" glyph-name="underscore" horiz-adv-x="500" d="M0 -75H500V-125H0V-75Z" />
<glyph unicode="`" glyph-name="grave" horiz-adv-x="185" d="M-31 730H47L152 589H101L-31 730Z" />
<glyph unicode="a" glyph-name="a" horiz-adv-x="519" d="M264 531Q453 531 453 365V91Q453 53 490 53Q500 53 510 57V4Q490 0 470 0Q429 0 412 20T395 87V90H393Q355 31 312 8T205 -15Q126 -15 79 24T32 136Q32 210 83 247Q110 266 152 278T283 299Q312 302 323
304T352 310T374 322T385 341T390 372Q390 428 356 453T255 478Q191 478 155 448T117 358H54Q59 443 113 487T264 531ZM390 282H388Q378 265 323 257Q204 238 197 236Q150 224 123 203T95 140Q95 95 129 67T210 38Q287 38 338 83T390 199V282Z" />
<glyph unicode="b" glyph-name="b" horiz-adv-x="574" d="M60 714H123V418H125Q143 469 192 500T305 531Q414 531 475 455T536 258Q536 140 476 63T304 -15Q242 -15 192 14T120 98H118V0H60V714ZM303 478Q217 478 170 418T123 259Q123 165 168 102T304 38Q387
38 430 103T473 258Q473 350 430 414T303 478Z" />
<glyph unicode="c" glyph-name="c" horiz-adv-x="519" d="M278 531Q368 531 422 484T487 354H424Q397 478 278 478Q193 478 145 413T97 258T145 104T278 38Q335 38 378 79T428 185H491Q478 91 422 38T278 -15Q165 -15 100 63T34 258Q34 377 100 454T278 531Z" />
<glyph unicode="d" glyph-name="d" horiz-adv-x="574" d="M451 714H514V0H456V98H454Q433 47 380 16T270 -15Q159 -15 99 61T38 258Q38 376 98 453T270 531Q331 531 381 501T449 418H451V714ZM101 258Q101 166 144 102T270 38Q359 38 405 100T451 258Q451 351
406 414T270 478Q187 478 144 414T101 258Z" />
<glyph unicode="e" glyph-name="e" horiz-adv-x="519" d="M267 531Q373 531 433 455T494 256V241H97Q98 158 142 98T267 38Q396 38 429 170H492Q449 -15 267 -15Q154 -15 94 60T34 258Q34 373 94 452T267 531ZM97 294H431Q429 370 384 424T266 478Q199 478 154
428T97 294Z" />
<glyph unicode="f" glyph-name="f" horiz-adv-x="259" d="M157 0H94V463H6V516H94V566Q94 642 122 678T220 714Q246 714 272 710V656Q245 661 226 661Q185 661 171 641T157 575V516H259V463H157V0Z" />
<glyph unicode="g" glyph-name="g" horiz-adv-x="556" d="M267 531Q321 531 366 502T431 427H433V516H496V40Q496 -206 268 -206Q179 -206 119 -165T53 -50H116Q124 -99 164 -126T267 -153Q433 -153 433 40V112H431Q409 62 365 34T267 6Q153 6 94 77T34 271Q34
385 97 458T267 531ZM97 264Q97 179 141 119T267 59Q342 59 387 118T433 264Q433 352 391 415T266 478Q187 478 142 419T97 264Z" />
<glyph unicode="h" glyph-name="h" horiz-adv-x="537" d="M59 714H122V427H124Q142 474 188 502T290 531Q388 531 433 483T478 334V0H415V324Q415 478 284 478Q204 478 163 424T122 296V0H59V714Z" />
<glyph unicode="i" glyph-name="i" horiz-adv-x="185" d="M61 714H124V613H61V714ZM61 516H124V0H61V516Z" />
<glyph unicode="j" glyph-name="j" horiz-adv-x="185" d="M61 714H124V613H61V714ZM61 516H124V-50Q124 -191 14 -191L-30 -189V-137Q-21 -138 0 -138Q33 -138 47 -123T61 -64V516Z" />
<glyph unicode="k" glyph-name="k" horiz-adv-x="500" d="M60 714H123V266L409 516H493L273 325L508 0H429L225 281L123 196V0H60V714Z" />
<glyph unicode="l" glyph-name="l" horiz-adv-x="185" d="M61 714H124V0H61V714Z" />
<glyph unicode="m" glyph-name="m" horiz-adv-x="833" d="M290 531Q344 531 384 505T438 430Q460 479 504 505T603 531Q773 531 773 352V0H710V348Q710 416 681 447T588 478Q448 478 448 291V0H385V349Q385 478 277 478Q200 478 162 427T123 288V0H60V516H118V429H121Q174
531 290 531Z" />
<glyph unicode="n" glyph-name="n" horiz-adv-x="537" d="M290 531Q388 531 433 483T478 335V0H415V323Q415 478 284 478Q206 478 164 425T122 296V0H59V516H122V427H124Q142 474 188 502T290 531Z" />
<glyph unicode="o" glyph-name="o" horiz-adv-x="556" d="M278 531Q392 531 457 453T522 258Q522 141 457 63T278 -15T100 63T34 258T99 453T278 531ZM97 348T97 258T145 103T278 38T410 103T459 258Q459 346 411 412T277 478Q194 478 146 413Z" />
<glyph unicode="p" glyph-name="p" horiz-adv-x="574" d="M123 -191H60V516H118V418H120Q142 472 191 501T304 531Q416 531 476 454T536 258Q536 136 474 61T305 -15Q242 -15 193 15T125 98H123V-191ZM303 478Q215 478 169 423T123 258Q123 199 140 152T199 71T304
38Q387 38 430 103T473 258Q473 315 457 362T401 444T303 478Z" />
<glyph unicode="q" glyph-name="q" horiz-adv-x="574" d="M270 531Q329 531 381 500T454 418H456V516H514V-191H451V98H449Q431 46 382 16T270 -15Q158 -15 98 63T38 258T97 453T270 531ZM101 258Q101 167 144 103T270 38Q318 38 354 57T411 108T441 178T451 258Q451
350 406 414T270 478Q186 478 144 413T101 258Z" />
<glyph unicode="r" glyph-name="r" horiz-adv-x="315" d="M315 523V460H305Q224 460 174 407T123 274V0H60V516H118V395H120Q143 456 191 489T302 523H315Z" />
<glyph unicode="s" glyph-name="s" horiz-adv-x="481" d="M243 531Q327 531 378 487T432 365H369Q368 418 332 448T234 478Q184 478 148 457T112 389Q112 326 228 300L294 285Q322 279 343 272T391 249T434 206T450 140Q450 63 388 24T243 -15Q47 -15 31 167H94Q98
106 138 72T246 38Q301 38 344 63T387 135Q387 174 358 196T265 232L198 247Q121 265 85 297T49 386Q49 459 107 495T243 531Z" />
<glyph unicode="t" glyph-name="t" horiz-adv-x="296" d="M97 671H160V516H265V463H160V111Q160 76 172 62T218 47Q238 47 265 50V-4Q217 -6 209 -6Q147 -6 122 18T97 106V463H7V516H97V671Z" />
<glyph unicode="u" glyph-name="u" horiz-adv-x="537" d="M59 516H122V193Q122 118 151 78T259 38Q335 38 375 98T415 246V516H478V0H420V93H418Q393 42 346 14T240 -15Q59 -15 59 181V516Z" />
<glyph unicode="v" glyph-name="v" horiz-adv-x="463" d="M2 516H72L234 63H236L396 516H461L268 0H201L2 516Z" />
<glyph unicode="w" glyph-name="w" horiz-adv-x="741" d="M8 516H75L207 74H209L335 516H406L532 74H534L666 516H733L567 0H498L371 434H369L243 0H174L8 516Z" />
<glyph unicode="x" glyph-name="x" horiz-adv-x="481" d="M16 516H95L242 320L386 516H465L279 269L480 0H400L238 217L79 0H1L201 268L16 516Z" />
<glyph unicode="y" glyph-name="y" horiz-adv-x="463" d="M2 516H69L239 76L398 516H461L237 -79Q212 -142 189 -164Q161 -191 104 -191Q68 -191 53 -186V-133Q78 -138 96 -138Q136 -138 156 -113Q175 -89 208 2L2 516Z" />
<glyph unicode="z" glyph-name="z" horiz-adv-x="463" d="M38 516H432V471L91 53H446V0H15V51L352 463H38V516Z" />
<glyph unicode="{" glyph-name="braceleft" horiz-adv-x="333" d="M293 729V676H275Q255 676 241 661Q218 635 218 573V431Q218 377 199 335T148 270V268Q180 247 199 205T218 107V-33Q218 -138 274 -138H293V-191H243Q202 -191 179 -158T155 -66V84Q155 242 83
242V295Q155 295 155 452V607Q155 655 176 692T244 729H293Z" />
<glyph unicode="|" glyph-name="bar" horiz-adv-x="222" d="M85 -214V786H138V-214H85Z" />
<glyph unicode="}" glyph-name="braceright" horiz-adv-x="333" d="M40 676V729H90Q134 729 156 694T178 607V454Q178 296 250 296V243Q178 243 178 86V-67Q178 -122 155 -156T90 -191H40V-138H59Q115 -138 115 -33V110Q115 159 133 202T185 268V270Q153 292 134
334T115 430V574Q115 613 103 644T59 676H40Z" />
<glyph unicode="~" glyph-name="asciitilde" horiz-adv-x="600" d="M495 315L531 279Q475 193 406 193Q364 193 300 224Q229 258 189 258Q136 258 105 189L69 225Q111 311 194 311Q237 311 318 275Q383 246 407 246Q451 246 495 315Z" />
</font>
</defs>
</svg>
