<?xml version="1.0" standalone="no"?>
<!DOCTYPE svg PUBLIC "-//W3C//DTD SVG 1.1//EN" "http://www.w3.org/Graphics/SVG/1.1/DTD/svg11.dtd" >
<svg xmlns="http://www.w3.org/2000/svg" xmlns:xlink="http://www.w3.org/1999/xlink" version="1.1">
<metadata></metadata>
<defs>
<font id="qdoozgsignatureregular" horiz-adv-x="845" >
<font-face units-per-em="2048" ascent="1638" descent="-410" />
<missing-glyph horiz-adv-x="671" />
<glyph horiz-adv-x="0" />
<glyph unicode="&#xd;" horiz-adv-x="681" />
<glyph unicode=" "  horiz-adv-x="671" />
<glyph unicode="&#x09;" horiz-adv-x="671" />
<glyph unicode="&#xa0;" horiz-adv-x="671" />
<glyph unicode="!" horiz-adv-x="841" d="M176 24.5v20.5l2 16q0 16 10 27q0 4 12.5 28.5t12.5 26.5q10 14 20 47q2 2 19 27q8 8 10 8q4 4 31 4q29 0 33 -4q6 0 63 -24q16 -8 29 -21l26 -26q2 -2 6.5 -13.5t4.5 -13.5v-16v-13q0 -2 -4.5 -14t-6.5 -14q-2 -4 -19 -32t-34.5 -54.5t-19.5 -32.5q-2 -2 -6.5 -14.5 t-4.5 -14.5q0 -16 -8 -16l-4 -4q-4 -4 -4 -6q-10 0 -18 -9q-4 -2 -15.5 -6t-13.5 -4h-4h-6q-25 8 -25 10l-74 74q-4 2 -10 27l-2 16v20.5zM389 651v35q0 2 5 35t9.5 60.5t4.5 33.5v19q0 2 4 26.5t6 28.5q0 4 3 20.5t8 32.5t5 21q6 25 29 92q0 2 4 14t6 14q0 2 4 19l4 16 q4 14 46 118.5t46 113.5q29 66 37 110q12 31 19 74q0 2 4 27.5t6 27.5q0 12 8 29q16 16 18.5 16t18.5 1t18 1q6 0 23 -2h14q14 -6 19 -8q2 0 14 -8t14 -10q0 -2 16.5 -10.5t18.5 -8.5l10 -10l29 -35v-39v-35q0 -6 -47 -120q-2 -4 -10 -23.5t-8 -21.5q-18 -55 -47 -113 l-9 -25q-2 -8 -32.5 -83.5t-32.5 -84.5q-2 -4 -13.5 -38.5t-13.5 -42.5q0 -2 -8 -32t-10 -32q0 -2 -4 -14l-4 -15v-10q-20 -133 -29 -164q-4 -8 -19 -65l-8 -27l-39 -39q-2 0 -18 -8l-16 -8l-11 -10h-4h-4q-4 2 -29 18q-2 0 -6 4l-4 4q-2 4 -13 19.5t-13 19.5q-8 8 -9 19 q-10 16 -10 34v39z" />
<glyph unicode="$" horiz-adv-x="1394" d="M145 -989v4q6 6 21 47q0 2 4 22.5t4 22.5q41 180 66 258q0 2 4 21.5t4 23.5v6v4l-8 9q-25 12 -74 28q-4 2 -28.5 13.5t-28.5 13.5q-2 2 -15 10l-12 8q-45 45 -102 95l-9 8q-2 2 -14 22.5t-12 22.5l-11 10q-8 16 -8 27v14q-2 12 -2 16l2 25q6 29 45 92q4 12 29 29 q-23 -39 -29 -66q-2 -2 1 -14t3 -14h5q29 51 55 84q2 2 10 9t8 9q6 6 21 10q16 8 26 8q14 2 19 2l8 -2h10q8 -33 8 -55q2 -12 2 -16l-2 -11q-2 -6 -26 -55q-2 -6 -19 -47l-8 -27q-2 -12 -2 -14v-8l2 -6q0 -2 8 -19q18 -27 27 -26q18 -14 74 -37q6 -2 36.5 -10.5t36.5 -10.5 l11 11l2 6l4 12t2 10q14 37 29 92q2 8 22.5 70t22.5 68q0 2 4 27.5t6 27.5q0 8 10 29q4 16 25 71l20 58l4 10q4 10 9.5 21.5t5.5 13.5t8 30.5t10 32.5q45 147 74 221v9v10q-8 16 -11 18l-55 74q-2 4 -15 28.5t-28.5 56.5t-21.5 44q0 2 -7.5 21.5t-9.5 25.5q-8 16 -8 27 q-18 51 -29 110q0 2 -2 13.5t-5 25t-3 17.5q0 6 -3 26.5t-5 38t-2 19.5v49v51q0 2 2 17.5t5 33t3 23.5q0 2 3 13t5 20.5t2 11.5q27 80 29 84q0 2 16 35q8 14 37 57q18 27 45 45l19 14q16 12 32.5 24.5t22.5 16.5q27 20 113 74q10 10 63 37q45 27 56 26q2 2 14 6.5t14 4.5 q4 2 22.5 9t22.5 9q6 2 41 18.5t41 18.5l19 8q16 16 20 19q27 80 35 112q4 6 29 109q2 4 6 24.5t4 22.5t4 31.5t4 33.5q0 2 4 17.5t4 17.5q4 0 21.5 1t19.5 1l41 -2q14 0 29 -10q2 0 10 -4t10 -4q0 -2 7.5 -9.5t9.5 -7.5q0 -2 4 -10t4 -10l2 -8v-19.5v-17.5v-15.5v-21.5 l-2 -10q0 -12 -8 -53q-2 -6 -14.5 -56.5t-12.5 -56.5q-2 -16 -2 -21l2 -14q0 -2 35 -10h29q2 -2 18 -6t18 -4q23 0 47 -9q31 -6 93 -36q2 -2 21.5 -10.5t33.5 -16.5t18 -10l7 -9l10 -10q10 -10 18 -26q25 -43 29 -56v-6v-4q-8 -33 -8 -37q-18 -35 -21 -37q-37 -45 -63 -63 q-6 -10 -45 -29h-11h-8q-4 0 -10 10l-10 19q0 16 10 37q2 2 6 10l4 8l8 27q2 14 2 18l-2 19q0 2 -8 18l-10 10q-2 0 -8 5.5t-12.5 8.5t-8.5 3q-2 2 -18.5 10t-16.5 10q-25 8 -38 8q-39 2 -54 2h-19h-24l-12 -2q-14 0 -47 -8q-8 -6 -8 -10q-4 -2 -11 -14l-8 -13q0 -2 -6 -16 t-12 -31.5t-10 -25.5q0 -18 -11 -29q0 -4 -12 -45t-12 -47q-4 -8 -29.5 -80t-28.5 -76q-6 -20 -56 -177t-52 -163q-12 -25 -29 -74q-8 -25 -10 -28q0 -4 -8 -33t-8 -31q-2 -4 -10.5 -27.5t-8.5 -27.5q-2 -4 -11 -27.5t-17.5 -48t-10.5 -26.5q-23 -68 -26 -84v-9v-8 q10 -20 37 -47q4 -4 46 -50t46 -50q2 -4 25.5 -35t29.5 -39q2 -4 17.5 -27.5t19.5 -27.5l4 -8q4 -8 6 -11l8 -14l8 -12q10 -16 19 -39q4 -4 29 -82q10 -41 10 -45v-51v-52q0 -2 -2 -11t-5 -19.5t-3 -14.5l-5 -14q-4 -12 -6 -14q-2 -4 -13 -28t-13 -28q-8 -16 -19 -26 l-28 -29l-17 -12q-16 -12 -20 -17q-2 0 -8.5 -4t-12.5 -8l-6 -4q-6 -4 -21.5 -12t-27.5 -16.5t-14 -8.5t-23.5 -9t-41 -17.5t-28.5 -10.5h-10q-2 0 -14 -4t-14 -4q-4 -2 -18.5 -6t-33 -8t-22.5 -6q-33 -8 -45 -9q-47 -10 -129 -18q-8 -8 -8 -10q-10 -10 -19 -45 q-2 -4 -10 -32t-10 -32q0 -2 -17 -84q-2 -6 -14 -64.5t-14 -64.5l-5 -12q-4 -12 -4 -14q-2 -6 -6 -34t-4 -32v-29q0 -2 -2 -8l-4 -12t-4 -6q-2 -4 -15.5 -18.5t-19.5 -18.5q-6 -2 -8 -2l-10 2q-45 8 -45 10l-84 82q0 8 -11 29v4zM690 184q-2 -8 -18.5 -55t-20.5 -55l-4 -8 q-4 -8 -4 -11q-2 -2 -6 -23.5t-4 -23.5l-8 -8q0 -2 -8.5 -21.5t-10.5 -23.5q-10 -25 -37 -113q0 -2 -6 -20.5t-12 -40t-8 -29.5q-18 -49 -19 -65q0 -4 -8 -41t-10 -41q0 -2 -4 -18.5t-6 -18.5h14h14q45 0 54 8l40 16q39 16 54 21q6 4 21.5 10t27.5 12.5t14 6.5q41 16 45 28 q35 27 74 72q2 2 10 14l8 13q10 20 11 38v74v53q-8 27 -56 113q0 6 -28 35q-14 25 -45 55q-4 4 -28 28.5t-28 29.5zM395 -266h-8q-4 0 -14.5 -29t-14.5 -45l-2 -14v-18.5v-16.5l2 -14q8 0 9 16q2 2 6 14.5t4 14.5t4 17t6 19q0 4 4 28t4 28zM403 -240l-8 -8h8v8zM403 -184v-9 l5 -4q4 -4 4 -6v19h-9zM451 -74l-11 -10v-8l-8 -8q-2 -4 -10 -37v-4v-6q4 0 10 10q8 8 8 18q0 2 4.5 13.5t6.5 13.5v8v10zM469 -18q-2 -2 -10 -15l-8 -12l-2 -14q10 2 10 4q4 4 10 28v4v5zM469 18q-8 0 -8 -9t8 -9q6 0 6 9t-6 9zM477 45v-8l8 -8l10.5 31.5l10.5 31.5 q0 2 4 10l4 9v4v6q-20 -31 -29 -39l-4 -12q-4 -10 -4 -15v-10zM514 147q-6 0 -6 -9t6 -9q8 0 8 9t-8 9zM578 332q-8 -8 -8.5 -10.5t-4.5 -18.5t-6 -18l-8 -9q-2 -4 -10.5 -32.5t-8.5 -32.5q0 -2 -4 -14l-4 -13v-8v-10l35 37l4 18q4 20 9.5 45t5.5 37v14v15zM651 543l-8 -19 h8v19zM506 899v-16q8 -74 8 -90q14 -82 18 -93q55 -121 74 -147q25 51 27 55q2 2 6 15l4 12q4 6 24.5 64.5t22.5 64.5t22.5 68.5t22.5 68.5l10 21q0 2 12.5 34.5t14.5 38.5l4 17q4 16 4 18q8 25 11 29q0 2 4 10l4 8q41 106 73 221l5 17q4 16 6 18q10 41 18 66q2 2 2 18h-10 q-2 0 -113 -55q-8 0 -26 -19q-55 -37 -74 -55q-49 -39 -82 -82q0 -2 -8 -16t-17.5 -31.5t-13.5 -25.5q0 -2 -8 -21.5t-8 -24.5q-8 -25 -11 -28l-18 -74q-8 -33 -8 -74v-12zM662 580l-3 -15l3 -4q2 2 2 9.5t-2 9.5zM690 662v-17l8 8l2 9h-10zM698 690l9 -8l28 72l2 6v8v8 l-2 6q-2 -2 -10 -18q0 -2 -4 -14.5t-4 -14.5t-8.5 -22.5t-10.5 -22.5zM764 866q-6 0 -6 -5t6 -5q2 2 2 5t-2 5zM791 967q-8 0 -8.5 -9.5t8.5 -9.5q6 0 6 9.5t-6 9.5zM799 995q-6 0 -6 -10t6 -10q8 0 8 10t-8 10zM864 1169q-4 0 -4 -5t4 -3q4 0 4 4t-4 4zM565 1364 q-12 0 -14 -2q-8 -6 -8 -8l-2 -4v-2l2 -5l4 3l8 4t4 4zM674 1438l-2 -2q-2 0 -10 -9l4 -2l6 2q8 0 8 9q-4 2 -6 2z" />
<glyph unicode="%" horiz-adv-x="1751" d="M362 -154q4 14 17 35h-2l39 74q55 98 73 123l15 22v-2l102 146l33 45l10 20l72 94l24 35l25 33l25 33l24 31l-2 -7l14 25q23 27 39 53v-2l23 29l10 16l6 10l31 50l25 32q25 35 41 61.5t16 35.5l4 2q4 2 6 6l15 14l-3 -2l48 76l57 84l-6 -4l59 86v-2l4 10l-2 -2q2 4 6 10 t7 10l32 54h-2l29 45l35 73q0 2 3 6.5t5 8.5l2 4v4l-4 2q-16 8 -27 8q-8 0 -24 6h-99q-10 0 -39 -4q-10 -2 -28 -2l-31 -4h2q-66 -8 -80 -8l-10 -4q-10 -2 -21.5 -5t-17.5 -3l-8 -2l-8 -2q-25 -10 -60 -21q0 -6 1 -22.5t1 -24.5q0 -14 -1 -34.5t-1 -24.5q-4 -18 -6 -31 q-4 -20 -8 -27v2l-2 -10l-29 -53l-8 -13l-6 -8q-2 -2 -2 -4q-8 -51 -19 -74l-22 -69l-2 -8l-8 -15l-11 -18l-28 -39q-20 -27 -51 -51h2q-20 -20 -41 -31l-37 -18q-4 -2 -22.5 -8.5t-20.5 -6.5h-53l-41 23l-33 20q-16 10 -37 31l-14 18q-4 4 -5 7l-20 34l-8 19l2 -4 q-8 12 -8 30l-9 25q-12 37 -12 47v31q0 37 6 61v-4l9 31l6 14q2 6 6 19.5t6 21.5l4 8l18 25h-2l21 33l12 12h2q0 4 4 12q0 2 4 11l15 30l8 6v-2l41 50l8 10q2 0 5 3t7.5 5t8.5 4l4 2l4 4q2 6 6 13.5t6 9.5l8 22l23 21l12 8q4 2 16.5 8t22.5 11.5t12 5.5h-4l27 8q2 0 9 1 t11 1q2 0 8.5 -1t12.5 -1q29 -4 39 -8l-4 2h12q0 2 8 6l-2 -2l10 4q51 20 82 30l51 11l31 6q4 0 26.5 3t26.5 3q12 0 31 6q12 4 31 4q82 8 108 8h15h45h51h4q20 0 61 -8l23 -6l12 -2l78 -25q16 -8 19 -8l20 -12l23 -16q8 -8 16 -25v4q2 -2 9 -17.5t7 -17.5v-55q0 -18 -6 -37 v4q0 -2 -3 -10t-5 -12l2 6l-6 -19l2 2q0 -2 -4 -9t-4 -11l-17 -35l-2 -10q-27 -49 -39 -70l-6 -12l-6 -14q-8 -14 -12 -19l-2 -2l-17 -28q-8 -6 -8 -13l-2 -2l-14 -24v-2l-4 -5q-4 -4 -4 -8q-92 -147 -105 -159v2l-8 -17l-2 -8l-29 -37q-2 -6 -8 -14t-10 -15l-2 -4l-39 -53 q-10 -16 -10 -20l-35 -54v2q-2 -4 -12.5 -18t-12.5 -20l-30 -43l-93 -129l-18 -25q-2 -4 -9 -11.5t-9 -11.5l-23 -30l-64 -86l-40 -58q-4 0 -7 -6l2 8l-10 -20q-6 -20 -6 -21v7q-20 -14 -27 -33l-53 -82l-6 -6q-12 -6 -20 -33l-33 -49q-23 -43 -41 -68q2 0 2 -2l-6 -14 l-21 -45l-16 -39l-31 -47q-25 -14 -33 -15q-2 0 -6 -2h-6h-6q-4 2 -8 2q-14 6 -25 9l-28 18q-18 14 -25 21l8 -5l-14 25l-2 4l-5 10t-3 11l2 -2q-4 6 -5 18v18zM524 -262l-6 -4l4 4t2 0zM1493 1268l-2 -4q0 2 2 4zM784 178v-2v2zM518 -266v-2v2zM905 -2q0 6 4 22l6 25l-4 -4 l7 20q2 6 6 20.5t6 20.5q4 16 8 27l12 31l15 33l-4 -5q0 2 6 13.5t8 17.5l4 10q4 4 8 19l10 18q6 23 9 23q2 2 5 7t3 7l-2 -4q12 25 16 27l-2 -2l47 65l10 17l7 8l14 16v-2l26 33q41 41 48 45l-4 -2l20 16h6l10 2l-16 -6q6 12 27 12q16 4 20 9l-8 32h41l45 -4q16 -4 41 -4 q8 -8 14 -8l43 -21l-8 3q2 -2 11.5 -8.5t13.5 -10.5v-4l10 -14l8 -19q0 -4 2 -4l4 -4l8 -41q0 -6 2 -15t2 -14l3 -2v-59q0 -6 -5 -27q-2 -8 -2 -20q0 -2 -4 -20.5t-4 -22.5q-4 -6 -4 -10l-2 -7q0 -8 -2 -12l-8 -20q-6 -8 -17 -41l-4 -8l-24 -58v2l-6 -14l-7 -12l-8 -15 l-6 -12l-33 -53l2 2l-43 -68v2l-8 -12l-37 -49v2q-8 -8 -32.5 -36t-28.5 -32l2 4q-2 -4 -16.5 -14t-16.5 -12l-43 -21h-65q-25 12 -54 29q-20 14 -39 37l15 -6q-20 12 -27 24l4 -2q-6 6 -8 10q-6 12 -6 15l2 -8l-20 47v6l-7 6q0 18 -2 27q0 2 -2 6l-2 16v35zM950 -162l4 -4z M1098 -2v-27l12 13l4 8l-2 -4l16 22q16 20 21 29h2l39 63l61 115q27 53 27 55q4 8 12 60l6 14q-2 16 -2 23v4l-37 -37q-12 -12 -24 -31q-2 -4 -8 -13t-14.5 -20.5t-10.5 -15.5v2l-2 -4l2 2l-2 -2q-6 -14 -27.5 -57l-23.5 -47q-20 -53 -43 -130q-6 -12 -6 -22zM1081 -53 l17 -4v28l-17 -20v4l-8 -8l6 2zM1294 373l2 4l9 4q2 0 2 2h2h-2l12 6l-16 -4q-6 0 -7 4v4v-4q0 -2 -1 -7t-1 -9zM1307 385v-2h-2zM1296 395q0 2 -1 2t-1 2l2 -6v2zM475 922q0 -8 4 -13l4 -8l13 -22h-4l12 -2l12 2q8 2 12 2l21 16q4 4 20 23l4 2q-37 -8 -55 -9l35 25l-4 4 q-4 18 -4 21l4 22q4 2 14 9t20.5 14.5t12.5 9.5q31 23 31 26l2 5q2 4 2 6t6 12l2 2v4v6l12 45l-2 -4l6 27q0 70 2 104l-8 -4l-14 -12l6 4l-49 -47q-2 -2 -16.5 -19.5t-18.5 -23.5l-6 -8l-8 -13l2 7q-2 -2 -15 -27l-38 -74l-11 -33h2l-8 -26v-53zM553 938l20 -8h7l-7 -8 q2 0 5 2q4 0 4 2v2v2q10 -2 30 -2l-14 43zM657 1251l11 6h6h6l-23 25v-31zM1180 1348q4 0 4 17t-4 17q-6 0 -6 -17t6 -17z" />
<glyph unicode="&#x26;" horiz-adv-x="1200" d="M715 -51q-27 55 -43 80q0 -2 -8 -4h2q-14 -10 -21 -11q4 0 6 2q-31 -27 -102.5 -82t-81.5 -61l-39 -20l-16 -9l-101 -59q-8 -4 -20 -8q-6 -4 -23.5 -8.5t-23.5 -8.5l-19 -8l-16 -4h4l-37 -6l-37 -6l-26 -4q-6 0 -23 4l-37 6l-22 8l-25 25l-31 47l-10 16q-18 47 -18 66v18 q2 10 4 17v-2l4 18q10 20 10 35q18 53 29 63v-2l24 51l25 48l20 30l21 21q12 12 27 12q-2 2 -2 4l14 19v-3l61 93q2 6 14.5 24.5t16.5 26.5l31 47l43 68l12 18v-2l12 22q6 6 21.5 28t15.5 24l6 12q4 4 4 12l52 66v-2l4 4q20 31 26 51v20q0 12 -10 70l-16 107q-6 55 -6 73 q0 6 -4 39q-6 55 -7 88v17q0 12 -1 40.5t-1 37t1 34t1 35.5v17q2 12 4 22q4 16 5 23l4 20v2l4 14l10 21q0 2 3 8t3 8l39 82l10 17v-2l13 20q16 20 36 41q31 23 50 23h65l39 -19l-2 2l45 -20l37 -19q18 -14 24 -20q0 -2 5 -10l22 -35l12 -31h-2l6 -12q0 4 5 -2q0 -4 2 -9h-2 q0 -2 4 -8q2 -6 2 -8v4l6 -22q12 -37 12 -54l-2 4l12 -83v-15q-4 -12 -8 -51q-2 -8 -2 -18l-8 -64v2l-8 -14l-4 -8h2q0 -2 -11.5 -30t-15.5 -42l-37 -70l-37 -76l-14 -24l-20 -39l-48 -72v2q-6 -12 -6 -16l-6 -31q-4 -20 -4 -22v-8q12 -74 27 -107l18 -61q4 -16 10.5 -38 t10.5 -35t6 -17q10 -27 14 -33q0 -2 6 -8h15l16 -3q2 2 4 7l8 14v-2l15 22q18 35 26 54h-2q4 8 4 6l29 43v-2q8 16 16 24v-2l23 29h26q6 0 35 -14q4 -4 8 -6l9 -7q6 0 18 -4l10 -4q4 0 18.5 -10t16.5 -16q8 -6 29 -27v-10l-15 -29h3q-10 -16 -15 -25l-14 -14t-22.5 -24.5 t-10.5 -16.5t-5 -8t-9 -6l-4 -2l-146 -168h2v-6q0 -27 6 -33l23 -45h-2q18 -37 29 -64q27 -63 26 -65q8 -12 29.5 -60.5t28.5 -60.5h-2l43 -86v4q4 -4 15 -25.5t11 -25.5q4 -6 6 -8l64 -111q2 -2 7 -12t7 -12q2 -6 4 -9v2l12 -18q2 -23 3 -35q0 -2 -1.5 -11t-1.5 -13l-2 -11 q0 -8 -2 -10q-12 -16 -12 -22q-14 -14 -24 -23h2q-6 -6 -11 -6q-4 -2 -13 -6t-16.5 -8.5t-9.5 -4.5h-14q-55 6 -70 15q0 2 -2 4q-8 2 -16 12t-12 21l-4 8l-13 37l-6 20l-8 17q-4 10 -10 41l-2 4v4v8l-4 8q-2 6 -5.5 15.5t-3.5 11.5q0 4 -3 10t-5 12v4l-12 21 q-102 205 -115 225q0 2 -2 8q-4 12 -4 15q-4 4 -4 8q-6 10 -6 14q0 -2 -2 6q-2 6 -2 11l2 -2zM498 494l-4 -9q-14 -4 -132 -190v2q-8 -14 -18 -33q-6 -8 -26.5 -43t-26.5 -45v2l-15 -22l-14 -23v2l-14 -24l-64 -117q0 -8 -6 -14v4l-4 -9q-2 -2 -8 -24l27 6l-3 -2l11 4 q96 45 139 72l63 43h-2l11 10l24 18l19 15l28 22l72 62q18 14 33 30v11l-6 14q-4 12 -4 18l2 -8q4 -4 0 6q-2 4 -9 17q-10 14 -10 20v-2q-10 21 -63 187zM162 -49l-8 -2l10 -8l2 8v2h-4zM580 1198q0 -8 1 -36.5t1 -41.5v-16l8 -98q0 -10 6 -41l35 67q0 8 6 15v-5l4 9 q0 6 4 14l-2 -2l6 14q0 2 6.5 14.5t12.5 27t6 16.5q4 20 8 34q6 10 6 19l8 35v12q0 10 1 28.5t1 20.5l-2 64q0 6 -6 24l-37 47h-8q-27 -27 -27 -28q-16 -31 -16 -35q-20 -35 -20 -64q0 -2 -1 -18.5t-1 -28.5v-47zM594 963h-6l10 -9q-2 4 -2 11z" />
<glyph unicode="(" horiz-adv-x="958" d="M653 958l-10 -16q-8 -16 -21.5 -39.5t-21.5 -36.5q-2 -2 -12 -18.5t-13 -20.5l-22 -43q-4 -6 -21.5 -38.5t-19.5 -36.5q-31 -53 -43 -121l-4 -19q-2 -8 -10.5 -45t-8.5 -39l-6 -57q-2 -6 -5 -43t-7 -43l8 -41l-2 -27v-28l-4 -6l6 -84v-47l2 -11q0 -12 2 -25.5t2 -19.5 q12 -76 37 -164q0 -8 18.5 -59t18.5 -61l25 -52q4 -6 19 -37.5t15 -33.5q14 -27 35 -65t35 -66l25 -27l10 -31l2 -18l-12 -10q-2 -2 -12.5 -4.5t-12.5 -4.5l-10 -14q-12 -16 -33 -18q-10 -2 -41 6t-41 12l-43 33q0 2 -9 14t-9 15q-4 8 -16.5 39.5t-30.5 58.5l-19 37 q-23 49 -35 73q-2 8 -23.5 59.5t-36.5 94.5t-22 78l-26 180q-4 16 -4 64.5t-2 72.5v51v7v84q0 82 16 147l25 121l18 37q6 20 4 33l8 18q10 18 23.5 43t19.5 33l31 59q18 27 47 78q14 16 26.5 29.5t12.5 11.5l21 31q0 12 22 45q2 4 20.5 21.5t18.5 19.5q8 16 10 18l17 31 q4 2 22.5 25.5t42 54t35.5 43.5l6 4q10 10 10 18l21 27l24 24l25 25q2 0 12.5 6t12.5 10l32 25q0 2 9.5 10t22.5 18.5t22 18.5l26 21q18 31 70 61l10 8q12 6 29 6l8 2q2 0 7 -1t9 -1l7 -2q98 -4 104 -39l4 -28l-6 -6q-41 -41 -53 -41l-62 -43q-2 -2 -9 -7.5t-12 -9.5t-5 -6 l-4 -2q-2 -4 -6.5 -6t-6.5 -2l-33 -29l-38 -41l-46 -41l-32 -41q-66 -82 -70 -86q-49 -51 -92 -127q-29 -29 -27 -33z" />
<glyph unicode=")" horiz-adv-x="958" d="M-172 -477l2 12q0 2 31 16q12 8 28 17q12 14 15 18q10 8 78 76q23 23 34 39q12 18 45 51q10 10 39 46t33 40q8 10 31.5 40t44 54.5t27.5 28.5q27 45 83 123q4 6 32 51t32 53q14 10 51 84q16 27 39 80q31 61 43 92q0 2 10.5 29t12.5 33q12 37 12 39q2 14 2 18q2 2 5 13.5 t7 24.5t4 15q2 10 11.5 51.5t9.5 45.5q0 18 4 39l4 36q0 12 4 56.5t4 48.5t-2 25.5t-5 47t-3 35.5q-2 6 -6 42t-4 40l-4 4l-4 5q0 27 -11 36q-14 41 -16 46q-6 16 -29 61l-14 20q-12 20 -16 25q-18 25 -23 25q-29 29 -41 36q-6 2 -27.5 19.5t-25.5 19.5q-31 20 -39 29 q-6 6 -17 6l-6 8l-26 31q0 2 -6.5 14.5t-6.5 16.5l5 6q0 2 -5 14l-4 13q2 10 4 16v14l11 2q8 8 28 9q2 -4 21 -5l18 -2q12 0 29 -8q4 0 29 -12l32 -23q6 -4 22.5 -20t18.5 -21q6 -6 32 -27.5t30 -23.5q8 -8 36.5 -35.5t30.5 -29.5t27 -36t31 -44l6 -15q8 -14 12 -18 q6 -8 8 -10q0 -10 17 -43l4 -12q2 -6 12 -31t10 -27q0 -4 3 -11t8 -15l2 -7q0 -2 5 -33.5t7 -39.5l2 -15q2 -14 2 -18q2 -31 2 -33t2 -15.5t2 -15.5q0 -8 2 -45t2 -41q0 -8 -1 -40.5t-1 -36.5q0 -23 -12 -91q0 -8 -3 -28.5t-5 -36.5l-2 -16q-12 -37 -15 -41l-6 -23 q-6 -23 -10 -27q0 -12 -8 -20q0 -2 -1 -13.5t-1 -13.5q-4 -6 -18.5 -51t-18.5 -53l-12 -25q0 -2 -8.5 -17t-10.5 -20l-12 -18q-6 -18 -19 -43q-2 -2 -9 -14.5t-13 -22.5t-8 -12l-6 -12l-5 -13q-27 -53 -38 -65q-2 -4 -10.5 -17.5t-8.5 -15.5q-8 -16 -27 -35q-6 -12 -20 -26 l-8 -11q-2 -2 -10.5 -16t-8.5 -16q-14 -4 -36 -50q-47 -61 -48 -63q-57 -72 -63 -78q-16 -16 -25 -29l-4 -4q-2 -2 -5 -4t-7 -4l-4 -4q-8 -16 -51 -59q-2 -4 -18.5 -24.5t-16.5 -23.5q-2 0 -14.5 -13t-12.5 -15q-2 -2 -18.5 -19.5t-18.5 -19.5q-2 -4 -25.5 -25.5 t-25.5 -23.5q0 -12 -18 -31l-8 -10q-2 -2 -11 -6l-10 -4q-6 -4 -31.5 -11.5t-27.5 -9.5h-13l-10 4q-14 0 -16 6l-70 72q-10 4 -10 14q4 15 4 21z" />
<glyph unicode="*" horiz-adv-x="1845" d="M942 39h-2l-14 16q-23 23 -25 23q0 10 -8 18v-2q-8 12 -8 16.5t-5.5 27t-5.5 24.5q0 23 -16 39q0 16 -6 28.5t-6 20.5q0 4 -2 10q-2 8 -2 29v16l4 19l10 10l4 16h23l10 -2q6 -6 8 -10q4 16 8 20q0 2 1 13.5t1 17.5v25q0 4 11 49q4 12 4 20q0 33 10 47q2 20 11 88t9 74 l-8 -8q-8 -6 -24.5 -20.5t-24.5 -20.5h2q-4 -4 -10 -8t-10 -8q-18 -14 -52 -47v2q-10 -16 -67 -74l-31 -29q-51 -51 -59 -63q-29 -47 -37 -56v2l-12 -18q-6 -18 -15 -20h6q-27 -16 -30 -19q-2 -6 -17 -6l-8 6q-12 0 -16 2l-27 6l-8 11h-14l-35 57v-2q-8 8 -8 43v14v17 q18 18 20 18q2 2 14.5 17.5t23.5 27.5t15 14h-2q8 10 109.5 110.5t128.5 131.5q-20 0 -37 -2q-41 -4 -51 -4h-10q-12 0 -64.5 -4t-56.5 -4h-74q-4 0 -24.5 4t-26.5 4q-14 0 -17 2h2l-12 4l-10 4l-21 8q-10 14 -14 21q0 4 -7 19.5t-7 23.5l-2 2l-2 2q0 10 -11 20v52 q14 0 25 10h43q6 -10 47 -10h205q29 0 70 10q74 0 157 18h6l2 2h2h-2l-39 31l-14 10h2l-6 4q-6 6 -14 11.5t-11 9.5l3 -4l-15 8q-20 16 -47 31q-8 4 -41 24q-20 14 -29 17l5 -2l-23 14q-25 10 -27 10l-30 23l2 -2q-4 0 -13 8q-6 6 -12 6l-12 14q-8 14 -8 21l-13 24 q-8 8 -8 29v49l15 17h34l19 -9h-2q2 0 7 -2t9 -3t9 -3t8.5 -3t7.5 -2l4 -1q33 -18 39 -22q2 0 9 -6.5t11 -8.5h-2l19 -12q39 -27 55 -27q0 -4 4 -8t8 -6l4 -2q31 -18 53 -33l41 -24h-4l107 -66q33 -16 41 -25q0 16 2 27q0 12 2 23q4 25 4 32v25l8 33v14l2 19v10q0 27 6 55 l4 16q2 23 5 43q12 78 12 121q0 2 3 19.5t3 25.5q0 2 2 4l2 5q0 72 16 100v18q0 10 3 27v16q0 31 8 45q0 12 2 23q4 29 4 31q0 14 2 22v27q6 2 10 6q12 12 23 12h16q18 0 41 -18q16 -12 23 -19l18 -20q8 -14 8 -23v-86q0 -18 -16 -90l-2 -35q-4 -31 -6 -41l-4 -24 q0 -68 -13 -123l-18 -190v-23l18 16l117 115l6 10q8 8 12 21q12 6 13 18q2 0 7 12.5t5 14.5q2 0 12 7t15 7h6l20 -4l8 -4q23 0 43 -16h15q33 -41 45 -41v-62q0 -10 -10 -20q-6 -6 -7 -13l-8 -8q-4 -6 -28 -30l-168 -170h26q6 0 51 4q41 4 48 4h18q27 0 107.5 4t84.5 4h62 q16 0 38.5 1t26.5 1v6q0 14 17 31l6 12h29l30 -16q29 -16 35 -19q23 -8 23 -16q20 -8 41 -25l14 -8l14 -26v-35q0 -12 -8 -21l-10 -22q-14 -4 -25 -4q-14 -8 -26 -9q-4 0 -37 -4h2q-14 -2 -29 -2q-8 0 -28 -4q-25 -4 -31 -4h-166q-6 0 -16.5 -1t-12.5 -1h-112l-17 -4 q-4 0 -15 -3t-15 -3q-14 0 -27 -2q-49 -4 -72 -4h-14l-4 -2q-6 0 -13.5 -2.5t-9.5 -2.5q-6 -2 -14 -2l53 -55h2q0 2 4 6q8 8 17 8h30l5 -4l22 -47l39 -78v3l25 -31v2l16 -17l8 -16v-14q0 -4 -3 -21.5t-3 -21.5t-4 -8h2l-4 -11q-10 -20 -12 -20q-4 -6 -15 -12h2q-8 -8 -20 -9 h-17l-24 4l-8 2q-14 10 -21 11l-14 2q-6 2 -19.5 22.5t-13.5 26.5q0 2 -10 10t-12 8l-58 68l-22 29v-4l-9 8q-4 4 -15 16t-20.5 23.5t-15.5 19.5q-2 0 -5 3t-6 5t-8 6.5t-9 6.5v-2q-2 -6 -2 -11q-12 -61 -13 -82q0 -4 -4 -28l-2 -17q0 -4 -3 -18t-6 -31.5t-5 -32.5 q-6 -35 -6 -49q0 -33 -15 -98q0 -6 -1 -18.5t-3 -29t-2 -26.5l-6 -47q0 -25 -4 -53q0 -4 -2 -6v-4v-88q0 -29 -10 -39q-6 -25 -17 -31q-8 -8 -18 -16h-12q-27 16 -62 16z" />
<glyph unicode="," horiz-adv-x="911" d="M0 -369q0 10 8 27l2 2l2 2q10 18 19 33l6 10l41 62v2l41 69q16 29 47 90l110 211l7 8q4 10 12 22.5t10 18.5l14 29q0 2 2.5 3t2.5 3l38 70q2 4 8.5 15t15.5 24.5t17.5 27t14.5 21.5l4 8h14h17q4 0 13 -4t13 -6q2 -2 27 -2q6 -14 12 -21h10l21 -16h-4q2 0 10 -8t12 -10v-7 l6 7v-39l-20 -45l-21 -37l3 6l-17 -29l-6 -10q0 -2 -4 -6q-2 -2 -2 -4l-41 -72l-23 -45q-4 -8 0 2q2 4 9 20l6 15l-2 -4v2q-10 -27 -58 -119l-84 -172l-32 -55l-11 -19q-8 -12 -8 -24q-12 -12 -12 -23q-12 -12 -14 -16l-5 -8l-28 -50l-35 -57q-2 -2 -6 -4l-21 -8h11 q-16 -8 -66 -8l-41 41q-16 12 -29 36l-12 27q-4 12 -4 14zM508 360l8 -4l-4 2q-2 2 -4 2z" />
<glyph unicode="." horiz-adv-x="907" d="M121 35q0 25 8 28l21 37l-3 -8q29 49 76 92l-4 -8q6 12 23 21l-11 -4l25 16q16 8 39 8h16q2 2 2 12l21 19h33l28 -4l23 -2q10 -16 14 -21l10 -14l19 -35v4q0 -4 3 -37t3 -37t2 -10q2 -4 2 -20v-31l-2 -43q-14 -23 -33 -23v-2l-6 2h-6h-4l-19 -28l-20 -25l-23 -20l-34 -27 l-17 -8q-20 -14 -35 -14h-32q-27 6 -35 14l-27 31l-12 14q0 2 -10 2q0 18 -2 25h-2l-23 43q-8 12 -8 34v19zM324 -125h4q-6 -2 -9 -2zM231 193z" />
<glyph unicode="/" horiz-adv-x="1064" d="M0 -293q0 16 12 29v-2q4 6 17.5 18t19.5 15h2l4 6l2 2q-2 -2 -2 -6q2 2 4 8t2 8l-2 -4l9 26l14 39l6 15q20 61 37 94v-2q2 8 20 51q6 16 7 21l75 161l23 43l26 54l27 49l23 45q0 -2 12 21.5t26.5 50t16.5 30.5l8 17q14 14 14 22l19 27l-2 -2l6 6l6 12l14 27l17 35l41 61 l43 74l10 14l10 16l-2 -2q4 8 17.5 28t22.5 35t9 17t2 2l2 4q16 29 25 37v-4q4 20 23 45l59 94l33 58l76 127l24 43l2 2q2 4 6 10t6 8l25 39l29 49l49 84l-2 -6q2 4 7 12.5t7 12.5t5 9t3 7l11 14l-5 -8l19 31l4 4l2 4l4 6l-2 -6q4 4 4 8q12 23 70 138l-2 -11q0 10 18 29h33 q2 0 12.5 -3t16.5 -5q27 -8 30 -10q14 0 37 -23q14 -14 21 -33v6q2 -6 2 -14l-2 -16l-11 -29q-2 -2 -127 -211l-36 -65l-39 -72q-2 0 -2 -2q-2 -4 -4 -6l2 6l-9 -12l2 10q-4 -16 -18 -27l12 8l-47 -86l-43 -73l-35 -56l-32 -55v2l-9 -18l-8 -11l2 7l-6 -15l-4 -6l-16 -27 l-17 -26q-20 -31 -41 -72q-4 -4 -10 -15t-10 -18q-20 -29 -21 -32l-20 -27l-8 -14h2l-6 -11l-9 -20l-22 -27l-4 -8q-12 -16 -17 -29l-14 -26l-4 -6q-4 -8 -4 -11v2l-4 -12l-17 -24l-18 -25l-10 -22l-19 -27l-10 -16h2q-4 -8 -4 -3l-4 -14q-6 -8 -31 -57q-8 -12 -18 -33 q-12 -25 -38 -74t-45.5 -90t-35.5 -74l-14 -34h2l-2 -2q-2 -4 -4.5 -7.5t-2.5 -5.5h3l-7 -12l-18 -37l-14 -35q0 -2 -5.5 -13t-9.5 -21.5t-4 -12.5l-20 -49l-15 -35l2 2q2 8 -2 -2q-2 -2 -4 -10q-6 -18 -10 -25h2l-10 -41v5v-5l-2 -4q0 -4 2 -8q10 -14 10 -35q0 -4 2 -10v-4 l-2 -22q-8 -23 -12 -27l2 6l-4 -10l-13 -21q-2 0 -14 -12t-18 -14l-41 -17q-33 -6 -41 -6q-12 4 -21 8l-24 11l-13 10l-18 20q-29 45 -43 82v39zM1040 1212l-2 -2zM59 -221q-2 -2 -2 -4zM1042 1219v-2v2z" />
<glyph unicode="0" horiz-adv-x="868" d="M123 399v31q0 6 1 16.5t1 14.5v8q6 12 8 18q2 12 4 21l19 63l16 45q14 14 33 46l14 24l19 29q33 47 43 57l43 41q4 4 43 29l14 8q2 0 13.5 3t17.5 5l18 4h-2q43 14 51 15h31q68 -6 82 -15q45 -14 96 -49l17 -12l53 -43h41q16 8 47 26l4 7l4 -11v0h-2q6 -4 8 -6 q8 -8 8 -26v-21v-35v-47v-31v-14q-20 -82 -43 -149q-2 -6 -23.5 -54.5t-40 -94.5t-18.5 -62l-10 -11q-8 -10 -17 -22t-9 -19l-11 -12l-24 -35q-14 -18 -19 -32l-2 4l-73 -78h2l-31 -27l-17 -16l17 8q-2 -4 -25 -27l-41 -20q-8 -8 -16 -8h-14h-27h-49h-39h-10q-6 0 -36 9 t-34 13l-22 25q-2 2 -13.5 11t-21.5 17l-39 50q-16 18 -33 47l-6 37l-8 57q-2 10 -4 16l-2 11q-2 10 -3 16v4l-2 4q-2 12 5 53v23q0 8 8 33q6 18 6 28zM305 231q0 -16 4 -41q2 -8 2 -12l15 -37l10 -30h4l2 -2q12 -12 33 -13q10 0 10 6q33 4 45 15q4 6 70.5 108.5t83.5 122.5 l-2 -2q8 8 41 74q4 14 12 35.5t10 29.5q0 2 4 9q2 12 4 16q10 33 11 63q0 10 2 13l-9 37q0 8 -1 12t-3 4h-2l-26 35q-25 25 -41 24l-74 17q-18 -10 -55 -41q-23 -18 -37 -33q-18 -27 -56 -115l-24 -53q-14 -41 -16 -70q-6 -14 -14.5 -61t-8.5 -61q0 -4 3 -24t3 -26z" />
<glyph unicode="1" horiz-adv-x="841" d="M111 84h141l8 25l33 79l69 205q2 6 12.5 32t16.5 36l4 16q4 16 4 19q2 10 26 88t28 88q2 6 1 15t-2 23.5t-1 16.5h-5l-129 -10h-73q-12 6 -19 18q-12 25 -16 37l-16 64v10l18 18h111q2 0 23.5 5t23.5 5h20q33 6 109 37h10q80 -27 82 -28q10 0 37 -27l26 -27q6 -12 6 -20 q2 -29 3 -39q-4 -20 -5 -43q0 -18 -12 -55q0 -20 -20 -82q-8 -35 -13 -39l-8 -29l-12 -35l-37 -118l14 32q-18 -53 -24 -63q0 -4 -23.5 -71.5t-23.5 -76.5q0 -2 -3 -9t-6.5 -16t-3.5 -11l-12 -45l-2 -29q0 -2 18 -10q16 -8 27 -9h10l15 5q12 4 14 4q27 -14 35 -19l10 -8 l-2 -47q0 -8 -10 -19q-2 -2 -10.5 -8t-10.5 -8l-18 -10q-10 0 -27 -8l-67 -21q-29 0 -45 -8q-8 0 -27 -18q-25 -8 -29 -9l-14 -2h-18.5h-18.5l-14 2q-10 0 -35 9l-21 10l-8 8q-8 8 -18 8l-25 10q-4 2 -15 8.5t-20.5 12.5t-11.5 6t-16 29q-8 16 -8 18q-2 10 -2 39t2 39z" />
<glyph unicode="2" horiz-adv-x="851" d="M80 106l2 25q0 6 18 37q0 2 8.5 14.5t8.5 14.5q4 4 15 18t13 16q6 8 59.5 74t59.5 74q23 25 139 184q0 2 8.5 13.5t10.5 15.5q41 61 47 74q25 49 27 55q2 2 -1 12t-3 12q-2 0 -11.5 1.5t-11.5 1.5t-21.5 -7.5t-25.5 -9.5q-10 -6 -55 -29q-4 -2 -29 -20l-16 -12 q-16 -12 -19 -13l-12 -2h-19l-32 2q-4 0 -21 9q-16 16 -18 16q-2 6 -2 33q0 33 2 33l12 16q12 16 16 20q2 2 13.5 14.5t13.5 14.5l14 8q12 8 15 8q20 20 37 29l36 19q2 0 21.5 8t23.5 10q4 0 10.5 2t12.5 4l4 2q12 4 42 8t32 2l94 -26l27 -10q20 -14 55 -56q2 0 6 -10l4 -6 q0 -4 4 -24.5t4 -24.5v-13v-12q0 -4 -4 -24.5t-4 -24.5q-2 -4 -18 -53q-2 -4 -13.5 -27.5t-15.5 -28.5q-12 -25 -55 -81q-6 -8 -21.5 -30t-33 -45.5t-19.5 -27.5q-20 -31 -45 -55q-72 -78 -84 -103q-43 -57 -47 -63l-27 -45l-8 -19q0 -10 8 -10h66q10 0 50 -3t74 -5t42 -2 q6 0 55 -8l12 -4q12 -4 14.5 -4t18.5 4t18.5 4t18.5 -8q27 -20 27 -29q2 -12 2 -16l-2 -21q-6 -14 -9 -16l-8 -11q-2 0 -28 -10q-25 -8 -37 -8q-2 -2 -27 -6t-29 -4q-2 -2 -18 -6t-19 -4h-28q-8 0 -78 -4.5t-78 -4.5h-53h-47q-2 0 -27.5 4.5t-30.5 4.5h-8q-33 16 -37 20 l-36 37q-8 14 -9 16q0 4 -4 15.5t-4 13.5l-10 37v14q-2 12 -2 16z" />
<glyph unicode="3" horiz-adv-x="761" d="M317 -287q43 27 52 33q2 2 29.5 28.5t31.5 35.5q4 4 18.5 34.5t16.5 32.5q0 12 4 21l-6 34l-14 27l-21 31q-80 119 -80 133q-82 115 -84 135q-8 16 -8 37v18l4 19q0 18 14 37q10 20 11 24q72 109 102 127q2 8 51 63.5t51 63.5l25 51q0 2 1 8.5t1 8.5v12q0 6 -27 12 q-2 0 -21 7.5t-24 7.5h-10q-12 2 -16 2l-27 2q-33 0 -76 -15q-18 0 -30 5l-33 2q-6 0 -19 12q-2 2 -8 12l-8 8q-6 12 -6 45l2 13v18v14l2 11q4 6 23 16q4 4 45 14q18 6 49 7h12l14 -2l91 -19q39 0 79 -10q37 -12 47 -12q2 -2 11 -9l6 -4l72 -26q16 -10 18 -11q0 -2 7 -11 t15.5 -19.5t10.5 -12.5t10 -14l6 -12q-2 -6 -2 -8v-11l-14 -55l-13 -35q-2 -14 -22 -53q-6 -12 -87 -102.5t-87 -98.5q-2 -6 -17.5 -36.5t-17.5 -34.5l-12 -31l16 -25l14 -37l121 -184l25 -47q6 -33 8 -47v-15.5t-1 -10.5t-1 -7q0 -6 -2 -25.5t-4 -33.5l-2 -15l-12 -36 q-20 -41 -23 -43q-12 -25 -33 -46l-18 -24q-61 -57 -131 -109q-12 -12 -76 -49l-49 -18q-66 -27 -86 -29l-27 -8l-28 -10l-35 -6h-97l-47 8l-47 14l-22 18q-6 6 -8 11l-5 10q-2 8 -2 10q-6 6 -6 27v10l2 8q8 25 29 35q45 14 57 12q8 4 43 4h8q4 -2 33 -2q12 -2 17 -2h10 l8 -2l6 2l13.5 4.5t11.5 2.5q70 18 92 28l59 23z" />
<glyph unicode="4" horiz-adv-x="985" d="M326 -408v60v59q0 18 10 56q0 10 16.5 93t18.5 91q18 80 18 100q0 2 2 18.5t2 20.5t-2 16l-2 11l-8 8q-211 0 -223 2q-2 0 -24.5 2t-48.5 5t-34 5q-6 4 -15 16.5t-16.5 23.5t-9.5 11q-2 4 -5 25t-3 25q-2 0 0 5t4 12t2 13v13q-2 10 -2 14l35 68q0 2 16.5 14t18.5 14 q23 14 94 74l111 92q61 49 90 74q4 2 19.5 13t19.5 13q2 2 26.5 18.5t26.5 18.5q6 4 24.5 18.5t41 33t28.5 22.5l18 18l74 148l17 18h16q16 2 20 2q6 0 19.5 -1t23.5 -1h13q12 0 18 -10q29 -23 37 -37q10 -6 18 -37v-4v-4q0 -2 -13 -40t-13 -42v-57q0 -6 -19 -35 q-20 -31 -28 -39q-6 -14 -8 -16l-19 -47q0 -2 -9 -32t-17.5 -58.5t-10.5 -38.5q-4 -14 -13 -47t-16.5 -56.5t-7.5 -27.5q-2 -4 1.5 -20.5t3.5 -20.5q2 0 90 -6l88 -5q35 -8 37 -10q8 0 36 -37v-12q0 -12 2.5 -16t-2.5 -21l-6 -16q2 -10 2 -15l-2 -12q-10 -20 -26 -26 q-10 -10 -27 -11h-223q-10 0 -21 -10q-6 -12 -8 -18q0 -2 -4 -17.5t-6 -17.5q0 -8 -8.5 -61.5t-8.5 -59.5q0 -2 -4 -18.5t-6 -18.5q-6 -23 -16 -78t-19.5 -100t-11.5 -51q0 -4 -4 -42t-4 -42l-8 -53q-10 -18 -29 -29l-6 -2h-12l-19 2q-27 10 -37 18q-23 14 -45 45 q-10 10 -28 47zM258 297q8 -2 71.5 -1t69.5 1h17h12q0 2 8 10t8 10q14 14 19 58q27 68 26 78q2 14 3 18q0 2 7 17.5t7 17.5q-2 -2 -14.5 -9.5t-14.5 -9.5l-22 -16q-20 -16 -39 -29.5t-21 -15.5t-40 -33t-42 -33q-4 -4 -32.5 -24.5t-32.5 -22.5v-4v-4q2 0 6 -4z" />
<glyph unicode="5" horiz-adv-x="862" d="M78 -410l2 23q23 29 33 29q0 2 6 7t8 5h4h6q6 0 6 -8l11 -17q8 -16 16 -24q2 -2 16.5 -20.5t16.5 -20.5l16 -17q2 -2 13.5 2.5t13.5 6.5t19.5 15t21.5 17q2 0 7 8.5t13 18.5t10 14q4 6 14.5 20.5t19.5 26t9 13.5t8.5 16t15.5 28.5t15.5 31t10.5 22.5q0 2 4 12.5t4 12.5 q0 4 2 20t4 35.5t2 26.5v14v12q0 25 -8 41l-25 49q-2 8 -24 41q-4 4 -13.5 18.5t-11.5 16.5q-4 4 -30.5 28.5t-28.5 28.5q-29 35 -74 101q0 2 -11.5 19.5t-13.5 21.5q-10 16 -16 32q0 8 -8 25l-8 33q-8 41 -9 74l-2 10v12l2 18q0 2 7.5 35t7.5 41q0 14 10 25q2 2 4 9t4 7 q4 4 24.5 40t26.5 44q8 8 17 25l8 16q0 2 -1 37t-1 39l4 8q4 6 4 8q6 14 16 15h27q2 2 12.5 6t12.5 4l32 33q8 8 17 8h35h30q25 -12 25 -17l16 -8q16 -10 27 -10h14h17q10 2 66.5 6t66.5 4q164 16 209 17h10q10 0 21.5 1t17.5 1t29 -2h22q16 0 57 -9q8 0 25 -8q12 -6 16 -10 l17 -16q8 -8 8 -15v-18v-17q0 -8 -25 -16l-18 -6q-18 -8 -23 -10q-8 -8 -32.5 -8t-40.5 -9q-41 -8 -52 -8h-8q-4 0 -29.5 -5t-27.5 -5q-37 -6 -68 -6h-6q-2 0 -16.5 -2t-28.5 -4l-14 -2q-2 -2 -17 -2q-2 0 -24.5 -3.5t-26.5 -3.5q-2 0 -35.5 -4t-38.5 -4q-8 0 -27.5 -4 t-40 -8t-24.5 -4q-6 0 -16 -10q-27 -20 -41 -41q0 -2 -11.5 -19.5t-13.5 -21.5q-6 -8 -25.5 -50.5t-23.5 -48.5q0 -2 -3 -13t-5 -13q-8 -33 -8 -41q-2 -20 -2 -25l2 -24q0 -8 16 -41q0 -8 24.5 -33t41.5 -49q2 -2 12 -23l12 -20q2 -2 14.5 -13.5t24 -22.5t13.5 -13 q10 -14 47 -82q41 -82 41 -86q0 -2 10 -23q8 -20 8 -41v-63v-64q0 -27 -8 -47q-8 -16 -8 -35q0 -25 -9 -41q-16 -33 -24 -41q-2 -2 -16.5 -28.5t-16.5 -28.5q-33 -49 -43 -59q-57 -66 -90 -91q-8 -8 -41 -24q-8 -8 -25 -8h-14q-14 -2 -18 -2t-17 2h-10l-47 24 q-4 2 -14.5 8.5t-18.5 12.5l-10 4l-6 6q-6 6 -13.5 12t-14.5 13.5t-9 11.5q-20 20 -31 41l-2 4q-2 4 -5 7t-3 5q-6 12 -6 25q-2 20 -2 26z" />
<glyph unicode="6" horiz-adv-x="987" d="M154 283q0 10 2 32v23q0 14 10 41q0 4 3 17.5t8 27.5t5 16q2 4 14.5 35t14.5 35q6 25 37 84q4 4 19.5 36t17.5 36q18 37 90 165q16 31 63 101q23 41 84 115q0 8 19 20q57 66 147 156l8 8q4 2 22.5 20.5t22.5 20.5q2 4 17.5 17.5t17.5 15.5q2 0 43 -9.5t49 -13.5l4 -2 q4 -2 8.5 -5t6.5 -3q2 -2 18.5 -14.5t18.5 -14.5q10 -6 10 -12v-82q-12 -16 -19 -21l-16 -14q-16 -14 -20 -18q-4 -2 -29 -18.5t-27 -20.5q-80 -80 -90 -92l-74 -93q-2 -2 -63 -94q-23 -39 -29 -39q-2 -4 -29.5 -53t-35.5 -61q-2 -4 -13.5 -25.5t-13.5 -24.5l-37 -73 q-45 -98 -45 -103v-20q27 14 56 20q4 2 45 11q8 0 34 4l29 6h49h43q4 0 20.5 -5t18.5 -5t26.5 -4.5t26.5 -6.5q4 0 12.5 -3t16.5 -5l6 -2l12 -8q12 -10 17 -14q16 -8 37 -29q12 -16 26 -31q6 -10 29 -61q10 -31 10 -33v-25v-24q0 -10 -10 -21q-18 -25 -47 -53 q-14 -14 -27 -20q-57 -35 -108 -62l-10 -4q-12 -6 -17 -6q-8 0 -39 -10q-2 0 -10 -4l-8 -7q-2 0 -13.5 -4t-13.5 -6q-27 -10 -55 -10l-14 -2h-31h-25h-41l-28 2q-25 0 -45 10l-9 4q-10 4 -20 9.5t-14 7.5q-2 0 -6.5 3t-8.5 5l-4 2q-53 39 -55 41q-25 25 -37 41l-4 6 q-4 6 -9 14.5t-8 10.5q0 2 -4 10t-4 10t-4 15.5t-4 17.5q-18 55 -18 69v11q0 10 -1 21.5t-1 17.5zM346 217q0 -4 2 -20v-15q4 -16 8 -18q4 -14 19 -21q4 -12 18 -12h25h31q76 8 81 12q8 0 66 29q8 6 40 22.5t34 18.5t13 16.5t13 16.5l2 10q-4 0 -40.5 -1t-43 -1t-39.5 -8 q-16 -8 -53 -21q-4 -4 -20 -12q-2 0 -17.5 -4t-17.5 -6h-10h-8q-16 8 -19 10q-43 43 -55 61q-10 16 -10 33q-8 -16 -9 -22q-8 -16 -8 -31v-16q-2 -15 -2 -21z" />
<glyph unicode="7" horiz-adv-x="919" d="M209 -324q4 6 22.5 45t22.5 48q2 6 20.5 54t20.5 56q8 12 47 129q0 2 5 14.5t5 14.5t9.5 27.5t16.5 51t7 29.5q12 12 12 29v6q2 8 2 13v16q-41 0 -61 10q-8 4 -28.5 26.5t-24.5 28.5v33q6 31 6 41t8 18.5t12 10.5q66 33 76 37q2 0 24.5 7t30.5 9l17 4q16 4 18 6 q20 6 21 11q4 0 10 18q12 18 22 55q23 68 23 72q0 2 14 84q0 10 -8 18q-4 4 -16 11q-33 8 -47 8h-303q-4 0 -46 8q-2 0 -9 4t-9 6q0 2 -11.5 13.5t-13.5 15.5q-8 8 -8 18v41q0 16 6 41q6 0 45 4t48 4q12 0 81.5 4.5t81.5 6.5h35h31l92 -11q8 0 38 -7t64.5 -16t43.5 -11 q2 -2 21 -10.5t24 -10.5q20 -20 24 -26q16 -16 25 -48q8 -4 8 -18q6 -25 6 -63q0 -25 -2 -33q0 -4 -1 -17.5t-1 -15.5l-4 -10q-2 -12 -5 -24.5t-3 -18.5q0 -2 -4.5 -13.5t-7.5 -21.5t-3 -12v-19q-2 -6 -2 -18q6 -6 11 -8q2 -2 10 -7l6 -4h18q4 -2 28 -6t28 -4q2 0 18 -4 t18 -4h46l18 -8l-6 -74q0 -4 -7 -10t-12 -8q-6 -4 -35.5 -11.5t-39.5 -7.5q-61 -10 -164 -10q-6 -6 -21 -35q-12 -37 -12 -39l-23 -45q0 -4 -9 -28.5t-20 -56.5t-16 -44q0 -2 -5 -18.5t-5 -18.5q-45 -141 -90 -258q-23 -53 -22 -55q-2 -2 -11.5 -18.5t-11.5 -18.5 q0 -2 -9 -26.5t-9 -28.5q-6 -12 -13 -19q-18 -18 -30 -26q0 -2 -19 -11q-8 -2 -12 -2h-8l-6 2q-2 0 -17.5 4.5t-19.5 6.5q-8 0 -17 8q-18 12 -35 37q0 10 -8 18q-12 45 -16 55z" />
<glyph unicode="8" horiz-adv-x="917" d="M102 248v22l2 19q0 2 4.5 26.5t6.5 28.5q2 6 13 41t11 41l29 55l29 45q0 4 26 39l39 45l8 8l74 84l64 64q0 2 3 6t5 8l2 4q0 2 -2 11.5t-5 20.5t-3 15l-19 72l-18 58v16q0 2 -4.5 23.5t-6.5 23.5q0 16 -8 66q0 8 -4 27.5t-7 34.5t-3 17l8 97q0 10 6 53q8 41 8 47 q2 2 6.5 13.5t4.5 13.5q2 2 12 27.5t12 27.5l19 29l30 39l43 38q2 0 7.5 4.5t11.5 8.5t8 4l18 10l56 29l37 14l47 10l65 4l62 -8l63 -12l29 -14l18 -13l25 -12q8 0 18 -10l45 -47l11 -11l24 -34q4 -4 12.5 -37t10.5 -35l4 -16q4 -16 6 -19l8 2q10 0 19.5 1t13.5 1h29l28 -18 l4 -4q4 -4 4 -6q18 -18 19 -27l2 -16q2 -16 2 -21l-4 -27l-561 -563v-8q0 -2 3 -13.5t5 -20.5t2 -11t4 -16l4 -13l27 -110q2 -2 6 -14.5t4 -14.5q10 -27 18 -74q18 -68 19 -92v-172q0 -6 -4 -29.5t-4 -27.5q-4 0 -29 -64q-8 -18 -10 -18q-4 -14 -27 -37l-37 -37l-12 -8 q-12 -8 -16 -10l-35 -19q-43 -18 -55 -18h-27q-27 -2 -35 -2t-33 2h-26q-14 0 -45 18q-47 20 -56 29q-2 0 -13 11l-24.5 24.5t-19.5 17.5q0 12 -35 47l-28 37l-19 45q0 2 -5 17.5t-8 29t-3 17.5q-10 31 -11 47l-2 8v18.5v16.5zM547 1071q0 -2 8 -54t12 -67l8 -41l13 -2 l305 314l6 26l-6 51l-4 35q-4 16 -23 51q-16 29 -28.5 39.5t-38.5 20.5q-25 8 -41 8l-8 2q-8 0 -15.5 1t-18.5 0t-18 -3q-16 0 -18 -2l-18 -4q-18 -4 -21 -8l-35 -29q0 -2 -11 -18.5t-13 -22.5q-25 -51 -27 -55l-2 -8q-2 -8 -5 -17.5t-3 -11.5q-6 -23 -6 -72zM279 186l8 -82 l28 -55l19 -18q14 -10 37 -11q27 0 47 11q2 0 13 7t13 11q2 2 18.5 17.5t18.5 17.5l19 29q4 6 10 18t10 25l6 12q10 18 21 74v84q0 39 -10 63l-19 82q-2 6 -26 84l-3 2h-4l-4 -2l-2 -2q-2 -4 -5 -6t-6 -5l-5 -5l-64 -74q-12 -12 -28 -37l-45 -74l-11 -18q-25 -74 -28 -82 q0 -4 -4 -21l-4 -16v-29z" />
<glyph unicode="9" horiz-adv-x="886" d="M295 -696v8q0 4 8 37q2 4 10 28q0 2 8.5 21.5t10.5 23.5q0 2 12 32t14 32q14 41 74 176q0 8 10 19q18 43 54 137q14 29 39 102q8 25 8 27q27 88 26 102q4 14 19 82q10 35 10 66v20q0 18 1 43t1 37q0 8 -1 51t-1 49q-8 27 -10 29l-8 18q-2 2 -12.5 13.5t-14.5 13.5 q-2 4 -14.5 11t-14.5 10q-16 8 -28 8q-135 0 -211 10q-18 0 -35 8q-10 0 -39 19q-6 6 -10 8q0 2 -8.5 14t-8.5 14q-18 31 -18 37l-2 17v24q0 4 1 20.5t1 20.5q33 41 74 74q6 6 29.5 25.5t25.5 21.5q33 25 63 37l56 18h12q12 0 27.5 1t21.5 1q8 0 33 -2h27q49 -16 81 -28 l11 -9q12 -6 16 -10l4 -4q4 -4 6 -4q4 -6 12.5 -19.5t16.5 -24.5t8 -13q10 -10 10 -35v-176q6 -6 17 -27q4 -10 20.5 -39.5t18.5 -34.5q4 -8 18 -65q0 -2 4 -21.5t4 -23.5q0 -10 1 -58.5t1 -56.5q0 -12 -1 -39.5t-1 -50.5v-25q0 -10 -18 -102q0 -4 -2 -15.5t-4 -19.5l-2 -10 q-23 -92 -39 -129q-4 -12 -23.5 -68.5t-21.5 -60.5q-2 -2 -15.5 -37t-32 -76t-26.5 -61q-61 -156 -84 -195l-18 -55l-4 -16q-4 -18 -5 -21q0 -4 -4 -16l-4 -10q-4 -10 -10 -11h-121q-20 20 -24 29q-4 2 -21 35q-8 25 -8 28v11zM479 674l8 -8q8 -8 19 -9h6h2q10 0 10 9 q4 8 4 28q-18 0 -22 -2q-8 0 -19 -10q-8 -6 -8 -8z" />
<glyph unicode=":" horiz-adv-x="1245" d="M305 35q0 25 8 28l21 37l-2 -8q29 49 76 92l-5 -8q6 12 23 21l-10 -4l24 16q16 8 39 8h17q2 2 2 12l20 19h33l29 -4l22 -2q10 -16 14 -21l11 -14l18 -35v4q0 -4 3 -37t3 -37t2 -10q2 -4 2 -20v-31l-2 -43q-14 -23 -32 -23v-2l-7 2h-6h-4l-18 -28l-21 -25l-22 -20l-35 -27 l-16 -8q-20 -14 -35 -14h-33q-27 6 -35 14l-27 31l-12 14q0 2 -10 2q0 18 -2 25h-2l-23 43q-8 12 -8 34v19zM508 -125h4q-6 -2 -8 -2zM416 193zM522 668v24v25l17 24l34 60l9 24l-2 -2q0 6 3 12.5t6 12.5t3 8q10 18 14 33l17 33q18 45 20 49q14 20 35 24l-16 -4q8 8 38 8 q29 0 39 -6l27 -14l10 -8q8 -4 8 -6h2q20 -20 23 -29q6 -25 6 -27l-10 -20l-21 -29q18 -16 19 -20l-2 6q8 -8 14 -27q4 -20 4 -33v-26q0 -2 -2 -21.5t-2 -25.5l-8 -33l-6 -18q0 -6 -13 -37l-4 -19l-6 -14l-26 -49q-4 -4 -15.5 -16.5t-15.5 -16.5l-6 -6l-35 -25h-10 q-2 0 -6.5 -1t-12.5 -1h-14l-10 2q-8 2 -13 2l-6 6q-14 8 -18 11l-19 14l-6 6q0 2 -8 19l-8 18q0 2 -4 12.5t-4 14.5l-6 12q-2 4 -7.5 16.5t-5.5 16.5v8v33z" />
<glyph unicode=";" horiz-adv-x="1118" d="M270 -401v18l25 98l10 37l27 80q20 55 24 74l21 49q2 2 6 20q4 8 8 37l6 19q8 29 13 35l-4 -9l16 70q14 57 22 74l5 14q0 2 2 12.5t2 16.5q0 2 1 7t1 7l4 8q6 18 6 33q6 12 6 45q2 -2 8 4l-4 -8l4 4v14q20 20 31 21q2 0 6 1l4 1l15 -2l-9 2l27 -10l-2 2q41 -16 47 -17 l27 -32l-2 2l8 -11q10 -31 10 -32v-66l-2 -4v-4q-8 -41 -12 -49l-15 -29v2l4 10l-10 -28l4 4l-49 -182v2l-6 -23q0 -4 -3 -11t-5 -14l-2 -6v-6l-2 -6l-43 -129q-12 -25 -12.5 -43t-2.5 -31q-4 -29 -4 -39l-8 -16l-2 -4l-12 -35l-15 -45l2 2q-6 -18 -18 -35q-6 -8 -22 -12 q-6 -6 -19 -6h-6q-16 0 -25 6h-2l-32 25l-17 18l-14 25zM500 821q0 8 6 27l35 45h-2q4 4 28.5 43t26.5 43q12 12 31 25l-7 -13q8 14 31 23h-4q25 6 41 6q2 -2 6 -3t12.5 -4t10.5 1q-2 -2 -4 -2q6 -2 17 -8.5t23.5 -12.5t14.5 -8l12 -10l10 -19h3q0 -2 3 -11t5 -17l4 -6v-43 q-4 -4 -12 -27v-4l-11 -23l-2 -8q-14 -29 -24 -45l-9 -18q-10 -20 -20 -31l-41 -37l-4 -2l-21 -14l-4 -2l-14 -7h2l-10 -2h2h-2l-19 -6h-24q-12 0 -21 4l2 -2q-18 4 -26 13l6 -2q-20 10 -25 28q-6 14 -8 17h2q-20 51 -20 69v43zM635 657q6 0 6 2zM711 1012l-2 2z" />
<glyph unicode="&#x3c;" horiz-adv-x="2381" d="M236 602q0 39 6 76l8 31q12 12 22 28q14 14 25 35v-6q4 16 14 16h-6l19 11q0 6 6 6v8q12 2 49 27q4 4 16.5 12t14.5 10t18 10l25 17l41 32l30 23l31 18q4 6 16 15q2 2 11 6q16 10 69 49l8 6l52 31q2 0 2 6q27 8 59 31h-2l115 76h-2l20 8h41q12 -8 17 -8q8 -8 20 -9 l29 -16h-2l12 -8q12 -12 12 -25q0 -8 10 -18v-17l-14 -30l-43 -43q-6 -6 -22 -15q-4 -2 -20.5 -8t-22.5 -8l-23 -8l2 2l-29 -12h2l-51 -31q-35 -18 -41 -29l-18 -8h2l-16 -12v2q-4 -2 -10.5 -7.5t-8.5 -5.5l4 2l-37 -26q-16 -8 -30 -23l-43 -28l-13 -11l-12 -10 q-6 -2 -12 -6t-12.5 -8t-11.5 -8t-7 -7l-2 -2q-12 -8 -38 -27.5t-38 -27.5l-14 -10l-4 -4q16 0 82 8q6 0 30.5 4t46 7t27.5 3l-6 -2q31 2 43 2h8l15 4q8 2 20 2l25 5q51 6 55 6q8 0 61.5 3t65.5 3q2 0 77.5 3t98 3t106.5 4t91 4h32q129 0 211 8h54q27 0 49 2q10 0 22.5 2.5 t20.5 3.5t10 1h14q16 0 58 6q39 6 61 6q2 0 31 4l35 4q37 6 49 6q4 2 15 5t13 3q18 6 25 7q2 0 13.5 1t15.5 1l6 -2h10h8q20 0 33 -7h-2q16 -4 31 -18l16 -16l4 -5q10 -20 10 -24v-41q-6 -27 -14 -35l-76 -47h-8l-2 -4l4 2q-8 -8 -18 -8h-27l-33 10h-43q-12 -2 -36.5 -5 t-32.5 -3l-72 -8q-6 0 -61.5 -4.5t-61.5 -4.5q-82 0 -119 -6h-16q-4 0 -42 -3t-44 -3q-8 0 -111 -4q-106 -4 -118 -4q-16 0 -64.5 -2t-84.5 -4t-42 -2q-10 0 -72 -4q-6 0 -23.5 -2t-21.5 -2q-8 0 -50 -3.5t-48 -3.5h-10q-43 -6 -72 -6h-18q-78 -14 -90 -14h-7 q-61 -10 -88 -10q-14 -2 -29.5 -3t-17.5 1v-6q23 -18 33 -27q10 -10 12 -10l29 -17l37 -24l65 -31l11 -6q12 -8 25.5 -15.5t17.5 -11.5l16 -10l6 -6q12 -2 23 -8l8 -4l16 -13q8 -4 23.5 -13t23.5 -13l-2 2l41 -27l6 -6q33 -8 56 -31q2 0 17.5 -12t21.5 -16l6 -9l10 -16h-2 l14 -29v2q2 -8 2 -14l-2 -18q-6 -20 -10 -23l-24 -35l-9 -2l-24 -14l-17 -8q-18 -12 -24 -13h-10l-21 13l-10 2l-49 49l-9 8h3l-37 29l-15 10l4 -2l-75 49l6 -2q-14 4 -27 16l2 -6q-2 2 -18 13l-15 12q-14 6 -16 8l4 -2l-20 10q-4 2 -18.5 10.5t-22.5 12.5l-103 55l-2 2 q-33 20 -37 29l2 -2q-43 25 -55 37q-8 8 -40 40.5t-34 34.5q-16 16 -16 25l-6 12q-4 8 -4 10l-2 15q-2 10 -3 16t-3 15.5t-2 13.5l-2 4v51zM305 782z" />
<glyph unicode="&#x3e;" horiz-adv-x="2258" d="M1204 119l2 8q4 8 23 27l16 8l12 10q12 8 23 12h-2l57 37q25 12 41 29l10 4q-2 0 5 4q6 2 8 4l18 12l74 50l98 65q2 2 13.5 9.5t23.5 15.5t21 16l30 19l11 8q6 2 24 20l6 6l4 2l88 86l9 17q2 2 7 9t7 11v2l4 8l6 19v14l-10 25l-14 18l-7 6l-24 29q-12 18 -47 45l-12 10 l4 -4l-68 43h2q-12 12 -86 37h4l-63 21h2l-4 2q-6 2 -11.5 4t-9.5 2h2l-26 10l-39 14l-13 7l-22 18l2 -2l-14 14l4 -6l-11 21q-8 41 -8 55v6q0 4 -1 15.5t-1 13.5l2 32l15 27q6 6 12 6l8 2h8l17 -2l16 -12l-2 4l43 -14l6 -4v-2q8 0 14 -5l-4 3q37 -12 41 -15q25 -12 39 -12 q8 -8 19 -8l53 -25l70 -35l20 -8q4 0 18 -10l31 -19q4 0 8 -4q6 -6 6 -8q10 -6 35 -24h4l33 -31h4l19.5 -19.5l31 -31l17.5 -17.5q10 -14 14 -24q33 -39 33 -51l4 -9v-2l12 -30q0 -14 6 -39v-43q-6 -18 -6 -45q-8 -4 -8 -19q-10 -27 -20 -37l-15 -22l-26 -41l-11 -15 l-14 -18l-2 -4l-59 -51l-72 -64q-47 -37 -55 -37l-4 -2q-2 -4 -4 -4l-27 -16h2l-47 -33q-25 -10 -88 -57q-49 -33 -72 -47l-14 -11q-14 0 -33 -18l-39 -25l-6 -6l-6 -6l-39 -27l-33 -20q-2 0 -6 -2l-10 -6l-21 -8q-31 0 -39 12h2q-10 6 -25.5 20.5t-15.5 20.5v-2v49 q-2 0 -6 14l-2 17v4zM651 520q-74 0 -135 -2q-111 -4 -129 -4h-45q-27 0 -68 8l-12 13q0 2 -4 8l-2 6q0 4 -6 29l-17 16v113l23 10h47h203h287h92q2 0 29.5 -1t66.5 -2t68 -1q12 0 30.5 -2t22.5 -2q8 0 72.5 -3.5t70.5 -3.5h17q74 -8 176 -8h49q25 -6 92 -6h68q12 20 22 21 h10h11l6 2l28 -2l78 -78l4 -21l-2 -18v2q-2 -12 -4 -19l-4 -6q-4 -4 -4 -14q-6 -16 -14 -25l2 7q-6 -12 -17 -17l6 2l-38 -20l4 2l-9 -6q-25 -12 -30 -13h-29q-109 0 -158 7h-71q-2 0 -36 4t-42 4q-20 2 -113.5 8t-103.5 6h-29q-10 0 -88 4q-39 2 -88 2h-287z" />
<glyph unicode="?" horiz-adv-x="1167" d="M201 -266v16l2 10l18 19q25 2 33 2q6 0 17.5 -1t21.5 -1h10q12 0 29 -10q6 -2 36.5 -17.5t37.5 -17.5q8 -8 8 -10q2 -2 10 -19l18 -45v-18v-21q-51 -25 -57 -27q-8 -8 -53 -8h-8q-8 -2 -13 -2l-16 2q-14 6 -19 8l-47 27q0 2 -7 17.5t-9 21.5q-10 16 -10 35q0 2 -1 18.5 t-1 20.5zM1040 1280l-8 8q-25 8 -28 10q-49 8 -66 9h-57h-62q-23 0 -121 -9q-6 -2 -36.5 -6t-36.5 -4q-4 0 -45 -8q-35 -8 -37 -10l-37 -19q-2 -2 -14 -6l-13 -4q-2 0 -12 -4l-8 -4h-21h-24q-4 0 -19.5 4t-17.5 4q-23 23 -27 29q-2 2 -10 18l-8 27v14q-2 14 -2 19l2 32 q0 18 8 27l10 10q27 18 35 19l74 18q41 8 102 8q2 0 32 4t32 7q106 8 129 8l41 2h55h31.5h40.5l16 -2q6 0 55 -8q6 -2 39 -11q16 0 25 -8q2 0 10 -4t10 -4q74 -43 82 -57q4 -2 37 -35q0 -2 29 -39q2 -2 5 -6t6 -8.5t5 -8.5l2 -4v-22v-25q-8 -47 -18 -74l-37 -73 q-8 -8 -47 -74q-12 -25 -19 -25q-31 -49 -55 -73q-2 -4 -18 -21l-9 -12q-8 -12 -8 -15q-4 -4 -46 -54t-48 -56q-2 -2 -18.5 -22.5t-18.5 -24.5q-158 -174 -164 -182l-8 -9q-6 -8 -12 -14t-8 -6q0 -2 -4.5 -10.5t-6.5 -8.5l-16 -20q-16 -18 -35.5 -43t-30.5 -37 q-20 -31 -45 -55q-20 -20 -39 -58q0 -8 -26 -34q0 -2 -8.5 -18.5t-10.5 -20.5q-8 -8 -8 -25v-10v-10q0 -2 8.5 -27t10.5 -27v-24v-23q-25 -8 -29 -10l-12 -8q-12 -8 -15 -8h-16q-14 -2 -20 -2l-37 2q-4 0 -37 16q-2 2 -9.5 6t-13.5 8l-6 4q-2 2 -13 14.5t-14 14.5 q-10 6 -10 19v137q0 10 10 26q2 6 14.5 31t12.5 27q4 4 27.5 39t29.5 43l35 47q8 8 75 82.5t73 83.5q2 2 18.5 22.5t18.5 22.5q6 6 49 57t51 62q49 57 65 73q51 61 111 121q2 2 14.5 18.5t14.5 16.5q2 4 22.5 29.5t22.5 27.5t13 17.5t15 19.5q2 4 9 16l8 11q20 37 57 110 q0 4 4 15.5t4 13.5z" />
<glyph unicode="@" horiz-adv-x="1783" d="M207 -293q-10 37 -19 55q-16 33 -20 37q0 4 -8 37q0 6 -8.5 46t-8.5 46q-10 35 -10 64q0 2 -1 20.5t-1 40v31.5v28.5t1 37t1 18.5t4 33.5t8.5 61.5t6.5 42l4 14q4 14 8 33t4 27q2 4 10 31.5t10 31.5q8 25 9 29q6 14 10 16q12 25 36.5 74t43.5 86l20 35q4 8 66 100 q37 66 55 84q2 4 17.5 23.5t17.5 23.5q8 8 35.5 40t29.5 34q8 6 47 45q68 66 93 82q25 25 73 55q2 2 27 18.5t27 20.5q2 0 23.5 16.5t23.5 18.5q10 10 73 39q4 0 31 11.5t33 13.5q10 10 29 10q27 10 73 18l45 11h99h96q2 -2 17.5 -6.5t17.5 -4.5q12 0 28 -8q72 -29 74 -29 t18.5 -13t18.5 -13q2 -2 14 -10l13 -9q31 -20 47 -36l8 -9q10 -20 18 -28q25 -33 29 -37l18 -19q16 -25 19 -28q8 -8 8 -27q2 -4 6 -32.5t4 -32.5v-23v-23q0 -29 -10 -73q-8 -49 -8 -64q-2 -10 -6 -34.5t-8.5 -45t-4.5 -22.5l-4 -10q-4 -8 -8 -18.5t-6 -16.5 q-37 -92 -47 -113l-16 -24q0 -2 -8.5 -23.5t-10.5 -26.5q-2 0 -6 -10l-4 -6q-10 -20 -19 -29q0 -2 -110 -118l-8 -9q-12 -10 -38 -33.5t-44.5 -41t-20.5 -17.5q-2 -2 -14 -10l-12 -10q-2 -2 -28 -22.5t-30 -22.5q-25 -18 -34 -29q-2 0 -18.5 -8t-20.5 -10q-57 -29 -99 -45 q-31 -12 -49 -19q0 -2 -16.5 -6t-18.5 -4t-14 -4t-14 -4h-31h-33q-2 0 -21.5 4t-23.5 4l-20 10q-45 23 -45 29l-9 10q-6 10 -15 23.5l-13 19.5l-11 21q-8 25 -8 26q-10 123 -10 129q0 14 10 45q8 23 37 74l4 6q4 6 8.5 13.5t6.5 9.5q53 80 65 92q2 4 8 12t13 16l6 9 q88 96 129 127q2 8 55 39l35 18h41h43q2 0 18.5 -4t18.5 -6t18.5 -13.5t18.5 -13.5l55 -55q16 -25 18 -29q4 -12 29 -108q2 0 9 8t9 8q2 4 17.5 23.5t17.5 23.5q2 2 10.5 13.5t10.5 13.5t13 22.5t13 24.5q4 6 19 35q2 6 17.5 45t19.5 47q2 4 10 27.5t8 27.5q0 2 4 18.5 t4 20.5q10 25 10 45v47v45q0 8 -10 29l-8 16q-23 29 -37 37q-2 2 -55 29l-12 4q-12 4 -17 4l-35 10h-67h-64q-4 0 -43 -8t-47 -10q-57 -16 -82 -29q-12 -4 -94 -45q-2 -2 -22.5 -16.5t-45 -33t-32.5 -24.5q-51 -41 -56 -47q-25 -23 -157 -155q0 -2 -7.5 -11.5t-16.5 -20.5 t-11 -13q-47 -57 -74 -113q-4 -6 -28.5 -48t-28.5 -50q-2 -6 -18.5 -43t-16.5 -41q-18 -31 -47 -103q-10 -25 -27 -108q0 -2 -9 -28t-9 -30v-55q0 -8 -4 -74.5t-6 -72.5v-2v-7q8 -59 10 -63q8 -47 18 -74q8 -31 19 -47q0 -4 26 -37q12 -20 47 -55q0 -2 8.5 -9t8.5 -10 q35 -27 39 -26q12 -12 45 -19q43 -18 55 -18q4 0 17.5 -2t29 -5t19.5 -3h32h31q33 0 64 10q41 8 47 8q109 33 129 37q8 4 65 29q8 4 59.5 29.5t91.5 45t50 25.5q82 45 129 74q2 0 18.5 13t18.5 13t10 4.5t8 6.5q37 18 56 18h10q12 2 16 2t15.5 -1t13.5 -1q0 -6 4 -37t6 -37 v-20v-17q-2 0 -6 -8t-4 -10q-4 -6 -45 -47q-2 0 -18.5 -12.5t-20.5 -12.5q0 -2 -10.5 -11t-21.5 -17t-13 -11q-4 -2 -15.5 -10t-13.5 -8t-18 -8l-17 -8q-4 -4 -43 -31t-41 -27q-4 -2 -23.5 -10t-43 -17.5t-25.5 -9.5q-82 -41 -92 -45q-37 -18 -137 -47q-33 -8 -45 -8l-47 -2 h-66h-35.5t-43 1t-21.5 1q-66 0 -129 19q-6 0 -111 45l-37 18l-22 18q-20 16 -23 21q-2 0 -19.5 13.5t-19.5 13.5q-69 61 -108 110zM1155 563q-2 0 -6 -2h-4q-10 0 -27 -16q-61 -53 -121 -121q-2 -2 -11 -13.5t-16 -20.5t-7 -11q-16 -16 -48 -92q-10 -20 -10 -29v-27h10 q2 2 13.5 6.5t13.5 4.5q4 2 27.5 13t27.5 13t24.5 13.5t23 13.5t13.5 10t13 10q12 6 37 23.5t27 21.5q6 2 18 12.5t24.5 20.5t14.5 13q4 4 31.5 32.5t31.5 32.5q-6 8 -8 8q-25 8 -47 8l-18 29q-8 16 -8 21q-2 0 -7 12l-4 12q-6 2 -8 2z" />
<glyph unicode="A" horiz-adv-x="1341" d="M666 80q0 2 -2 6v6l4 19q0 4 7 11t9 7q12 0 37 -18q2 0 10 -11l8 -10q2 -2 16.5 -14.5t16.5 -16.5q4 6 12 31q0 20 15 115q18 111 18 145q2 14 4 75.5t2 70.5h-10q-2 0 -36 -4.5t-38 -4.5h-8q-2 0 -32.5 -5t-32.5 -7q-12 -2 -107.5 -13t-114.5 -16q-37 -57 -61 -114 q-2 -2 -11.5 -21.5t-18.5 -41t-11 -23.5q-8 -12 -23 -41q0 -4 -16 -34t-16 -32q-10 -25 -51 -98q0 -2 -10.5 -17.5t-19.5 -31t-9 -19.5l-4 -10q-6 -8 -13 -16l-4 -10q-2 -4 -13 -11.5t-13 -9.5h-13h-14q-25 8 -29 10q-14 14 -16 21l-4 12q-4 12 -4 14t-4 7l-3 4 q-10 10 -10 18v23l2 26q8 29 13 39q0 18 10 29q0 4 9 25.5t9 23.5q4 6 18.5 35.5t14.5 32.5q31 76 39 88l43 90q43 90 47 104q12 12 12 29l-14 96q10 14 10 16q4 4 21 13q43 0 55 6q2 0 12 10q2 2 9.5 16.5t9.5 16.5q80 127 92 156l10 12q8 10 10 10q6 10 20.5 34.5t30 49.5 t17.5 27q18 37 29 47q6 6 32.5 45t30.5 45q2 4 33 46t35 48q0 2 10 15.5t10 15.5l8 8q6 6 39 47t37 49l21 21h8q8 2 10 2t12 -2h13q37 -8 80 -31q12 -4 36 -16q0 -10 17 -19l4 -8q4 -10 6 -14v-6q2 -6 4 -13.5t2 -9.5q0 -4 3 -20.5t3 -18.5q6 -43 6 -57q0 -141 2 -156 q0 -4 1.5 -41t1.5 -63.5v-41t-13 -161.5h33q6 0 68.5 9t70.5 9h19q33 8 100 9h133h90l27 -9l-4 -67q0 -8 -8 -13q-33 -16 -47 -16q-2 0 -18.5 -5t-20.5 -7q-25 -8 -45 -8q-29 -10 -115 -21l-74 -18q-2 0 -26.5 -4.5t-28.5 -4.5q-2 0 -18.5 -5t-18.5 -5q-4 0 -42 -8t-42 -10 q-12 -4 -29 -12q-8 0 -8 -9q-4 -23 -11 -92t-15.5 -146t-10.5 -93q0 -2 -2 -28t-2 -28q0 -10 -7 -74.5t-7 -72.5q-8 -82 -14 -96l-19 -37q-8 -16 -20 -29q-6 -12 -11 -12q-25 -8 -47 -8h-18h-19q-57 57 -71 77q-2 2 -9.5 19.5t-7.5 19.5l-12 19q-12 18 -14 20 q0 2 -22.5 53.5t-24.5 61.5zM844 1096h-4q-23 -23 -27 -29l-6 -8q-6 -8 -12.5 -17.5t-8.5 -13.5l-43 -57q-6 -10 -45 -69.5t-43 -67.5q-25 -37 -28 -46q-4 -6 -25.5 -43.5t-26.5 -46.5q-2 -4 -11 -19t-9 -20q-2 -8 -2 -10q4 0 25.5 1t23.5 1q8 0 51 4t49 4q14 4 66 13l51 6 q27 6 27 10l18 389l-2 4q-2 4 -5 8.5t-3 6.5h-10z" />
<glyph unicode="B" horiz-adv-x="1150" d="M-6 147l4 21l22 45q14 29 15 39q39 86 53 133q25 57 49 125q0 2 6.5 13.5t6.5 13.5q18 45 28 61q2 8 24.5 68.5t26.5 72.5q14 18 29 84q2 4 5 14.5t6 18.5t5 10q2 4 9.5 32t9.5 32l-2 4v6l-62 8q-4 0 -18 21q-12 37 -12 39v86q12 37 28 69q10 25 33 56q2 0 23.5 17 t27.5 21q2 0 39 23l29 14q6 2 19.5 8.5t23.5 10.5l8 4q4 2 30.5 10t58.5 17.5t42 13.5q2 2 13.5 4t13.5 2q12 4 39 4q4 0 44 4t44 6q31 0 39 4q6 2 43 2q12 2 49 1t43 -3q25 0 76 -10q10 0 39 -4l30 -2q33 -16 43 -16q2 0 26.5 -7.5t29.5 -7.5q0 -6 26 -14q4 -6 41 -25 q0 -2 6 -6l6 -4q35 -31 50 -90q2 -6 2 -55l-2 -11q-2 -8 -2 -12l-3 -22q0 -2 -5 -12.5t-10 -22.5t-7 -17q0 -2 -6 -12l-6 -10q-12 -4 -35 -35t-51 -47l-4 -4q-4 -4 -11 -8l-4 -4q-8 -4 -23.5 -19.5l-17.5 -17.5q-10 -6 -56 -36t-52 -34q-84 -45 -127 -80q-88 -39 -121 -59 q-12 -4 -80 -45l-10 -8v-7l-2 -4q18 -6 28 -8q47 -16 70 -31l14 -6q12 -4 15 -4q8 -8 84 -39q49 -23 55 -26q2 -2 11 -9.5t21.5 -16.5t16.5 -11q2 -2 8 -6t11.5 -8.5t7.5 -4.5q6 -12 47 -63q2 -4 8 -17.5t6 -15.5q-2 -18 -4 -26q0 -4 -2 -17l-2 -12l-12 -25q0 -2 -5.5 -8 t-5.5 -8q-4 -2 -9 -8t-9 -15l-4 -6q-8 -10 -32.5 -31.5t-28.5 -23.5q-35 -23 -50 -31l-41 -24q-47 -31 -86 -47q-2 -2 -19 -8.5t-37.5 -14.5t-31.5 -12q-14 0 -22 -8q-4 0 -24.5 -10.5t-22.5 -10.5q-31 -18 -60 -18q-2 0 -19.5 -6.5t-41 -13.5t-33.5 -11q-59 -10 -119 -31 q-4 0 -17 -2t-15 -4q-12 0 -42 -3t-53.5 -6t-25.5 -3q-18 0 -35 4q-4 0 -13.5 1t-15.5 3l-8 2q-2 0 -27 12l-4 4l-8 4l-4 3q-14 14 -23 30q-8 8 -8 33v4l-4 8l-2 6q-2 4 -6 29t-6 29q0 4 -1 25.5t-1 23.5q0 18 2 22zM389 598q-20 -31 -24 -51q-4 -4 -17 -35l-12 -29 q0 -4 -6 -19t-12.5 -31.5t-6.5 -18.5q0 -4 -18.5 -51.5t-18.5 -51.5q-6 -8 -23.5 -54t-21.5 -52q0 -4 -6 -22.5t-6 -20.5q-12 -25 -12 -29q-6 -18 -6 -29q0 -23 -2 -28q4 2 20 4t21 2l20 6q23 6 25 6q2 2 14 4t14 2q6 4 24.5 8.5t35.5 8.5l16 4q6 2 63.5 22.5t69.5 26.5 l12 4q10 4 21.5 9t15.5 10q8 2 42 17t40 17q25 16 27 17q4 4 22.5 13t20.5 11q53 37 57 37q4 4 25.5 21.5t25.5 19.5q0 2 1 6l1 4q2 2 1 5.5t-3 3.5q-18 10 -22 14q-18 6 -39 16q-2 0 -8 4l-6 4l-6 3q-6 4 -12.5 8t-8.5 4q-2 2 -35 13t-37 13l-57 17q-4 0 -28.5 7t-28.5 9 q-10 6 -56 25q-14 14 -32 26q-23 12 -23 21q-23 35 -22 39q-8 8 -11 8l-4 2h-4zM506 1022q0 -6 -2 -21.5t-4 -25.5l-2 -12q0 -2 -4.5 -16.5t-8.5 -33t-6 -26.5q-2 -4 -9 -31t-14 -55.5t-10 -32.5l-2 -2q-2 -4 -2 -6l33 6q201 106 283 152q6 4 52 29.5t48 25.5q49 25 57 33 q84 57 113 98q4 4 12 20q4 16 4 19l-2 2q0 10 -6 12l-8 10q-8 10 -10 13q-29 23 -39 24q-57 8 -72 8q-10 2 -84 2q-8 -2 -48 -5t-46 -5q-29 0 -115 -24l-49 -13q-20 0 -35 -14q-2 0 -10 -6t-10 -8t-2 -4v-5q0 -4 1 -24.5t1 -22.5l-2 -12q0 -12 -1 -26.5t-1 -22.5z" />
<glyph unicode="C" horiz-adv-x="929" d="M20 365l3 51q0 49 20 100q0 10 16 59q18 55 31 80q10 20 39 93q0 2 3 6t5 8l2 4q2 2 14.5 24.5t14.5 24.5l20 41q37 68 60 90l223 230q37 29 119 79q76 45 137 68q2 0 23.5 5t23.5 7q2 0 11.5 2t19.5 5.5t12 3.5h8h11q47 -10 49 -11q33 -10 47 -20q6 -2 27.5 -15.5 t23.5 -13.5q10 -10 10 -20v-35v-37q-8 -8 -10 -8q-43 -18 -68 -31q-2 0 -6 -1t-6 -1l-8 2q-10 0 -31 21h-4h-6q-25 0 -37 -13q-12 -2 -34.5 -9t-24.5 -11q-16 0 -51 -29q-20 -14 -78 -59q-37 -37 -99 -88q0 -2 -4 -6.5t-8 -10.5l-4 -4q-4 -4 -21.5 -25.5t-21.5 -25.5 q-37 -49 -57 -80q-6 -6 -58 -96q-2 -2 -16 -31t-27.5 -55.5t-17.5 -36.5l-4 -10q-4 -10 -8 -21.5t-4 -17.5q-31 -68 -31 -80q-6 -20 -6 -59v-11q0 -12 -1 -25.5t-1 -21.5t2 -35v-26l2 -8q2 -8 4 -17.5t2 -15.5q0 -2 5 -14.5t7 -14.5q0 -2 2 -6t4 -9t2 -7q12 -18 23 -29 q35 -35 47 -51l8 -4q8 -4 17.5 -8.5t13.5 -4.5q20 -10 29 -10q31 -10 59 -10l8 -2q10 -4 21.5 -8t19.5 -4q6 0 18.5 -2.5t22.5 -2.5l12 -2q29 0 90 11q4 0 39 5t39 5t35 4t33 4h16h15l10 -8v-72q-14 -14 -21 -18q-4 -6 -23.5 -17.5t-27.5 -13.5q-2 -2 -27.5 -10t-29.5 -12 l-10 -5l-11 -4l-16 -4q-16 -4 -21 -4q-10 -2 -34.5 -7t-43 -9t-20.5 -4l-8 -2h-14l-25 2q-2 0 -42 4t-48 6q-18 0 -49 10q-10 2 -48 15.5t-40 13.5q-49 25 -78 41q-10 0 -29 18q-8 6 -31.5 29.5t-27.5 32.5q-6 0 -21 26q-18 47 -49 103q-16 41 -20 49q-8 33 -8 59l-3 12v25 v21z" />
<glyph unicode="D" horiz-adv-x="1269" d="M209 518l37 129l33 88l49 162q0 8 4 16q2 12 12 43l4 19l-4 -14q0 12 10 38l-2 -2l10 37l-2 -4l11 29l2 2v6q4 8 4 25l14 32v31q-2 -2 -4 0l2 -2q-8 6 -12 23v26q0 4 -2 12.5t-2 10.5v65q0 4 1 15.5t1 17.5q0 25 2 35q4 18 22 26h-4q4 2 15.5 8.5t13.5 6.5h27q4 0 13 1 t11 1q4 0 20.5 -1t20.5 -1h8l27 -6h8l19 -7l-3 3l29 -7h2q4 0 11.5 -4t11.5 -4h8q2 0 12 -4t19 -4q18 -8 22 -10l-8 2q10 -6 18 -8l25 -7l18 -10l17 -10l59 -27l-4 4l59 -36l46 -33q12 -8 30.5 -21.5t22.5 -15.5l57 -45l17 -19l24 -20l23 -23l41 -45l26 -32q10 -14 15 -19 l18 -30q16 -33 25 -58l10 -35v-6q4 -8 6 -16v-15q0 -6 2 -10l6 -22v-56q-4 -16 -6 -26q-2 -4 -2 -10q0 -4 -2 -19l-4 -16l-8 -35l-23 -66v7l-29 -66l-16 -25l-43 -69l-29 -35l-114 -121l-43 -39q-59 -51 -93 -71l-112 -66l-8 -4h2l-47 -31l-86 -37l8 6l-23 -12l-16 -6l-2 -2 h-4h4l-17 -8l-24 -8l-14 -9h2q-2 -2 -5 -2q-8 -4 -14 -4q-74 -20 -90 -24l-57 -19l-31 -4q-2 -2 -31 -8q-2 0 -6 -1t-6 -1q-37 -6 -55 -6h-52q-2 0 -11 2t-13 2t-17 8v-2l-22 12l-8 11l-17 12l11 -4l-17 10l-12 16l-18 21l-3 6l-10 12v23l6 16l4 15l3 6l26 30q16 6 31 11 l4 6l33 8l-6 23l2 -3q0 2 -2 9q-4 12 -5 10v12q4 20 11 31l-4 -6q16 49 16 69q0 2 3 9.5t3 9.5q0 4 2 11t3 11t1 6l11 27l4 10q4 12 8 19l8 26zM584 1212h-9q-33 -139 -36 -163v2q-6 -20 -9 -35l-14 -43l-2 -45q0 -2 -1 -4l-1 -2l-10 -25l-6 -27q0 -2 -3.5 -11t-5.5 -19.5 t-2 -18.5l-12 -53l-4 2q-2 4 -4 0l-55 -207v-2l-9 -22l-28 -86l-17 -58v2q-2 -4 -6 -15t-6 -17v2l-6 -21q-2 -10 -2 -12v-27q-2 -4 -6 -20.5t-8.5 -35t-4.5 -20.5q-2 -10 -2 -14q0 -8 -4 -10l-22 -80h-2q-2 -23 -8 -31l-3 -4l99 33l35 12q8 4 14 8l4 2l21 7h-3l25 12l-2 -2 l31 14l37 17l8 4l12 6q16 8 27 14l34 21l3 2l18 6q8 8 37 28.5t31 22.5q4 0 12 8l12 4h-2q29 6 68 45q4 2 37 35q25 18 57 60q4 2 39 45q18 18 26 34l2 5q4 4 9.5 10t9.5 10l12 16q4 12 8 17l4 8q14 14 21 35l31 61l16 56v-3q2 6 2 21v6q0 6 1 19.5t1 17.5t-1 17.5t-1 17.5 v22l-6 6l-10 25l-15 23l-6 12h-2l-18 22l-82 88h-8q-16 8 -25 11l-2 2q-14 6 -31 20q-27 27 -32 27l-9 10q0 -4 -2 -4l-26 14l-86 45l-17 13l-10 4q-10 2 -21.5 6t-13.5 4q-8 2 -12 6l-8 4q-18 4 -23 4q-12 2 -22 4z" />
<glyph unicode="E" horiz-adv-x="1140" d="M94 262v30.5t1 37t1 18.5q0 45 10 80q0 6 9 39q0 4 8 34.5t8 37.5q10 10 10 36q4 16 39 111q2 8 9.5 29.5t15.5 44t10 26.5q10 18 47 109q0 2 8.5 19.5t8.5 21.5q4 4 29.5 49t27.5 47q0 2 2 7l4 10l2 4v149q0 2 4 6l4 4q2 0 22.5 4.5t24.5 6.5l84 77q0 4 23 5q29 0 33 -5 q2 0 24.5 -7t28.5 -13l10 -4q8 -4 10 -4t8.5 -3t12.5 -5l6 -2q12 -2 16 -2t13 2h8q2 0 26.5 5t28.5 5q57 8 92 8q98 12 166 12h119h84l37 -12v-23v-34l-10 -11q-2 0 -14.5 -6t-26 -13t-15.5 -9q-2 0 -8 -3t-12 -5l-6 -5l-27 -4q-27 -6 -49.5 -10t-26.5 -6q-2 0 -18.5 -4 t-36.5 -8l-18 -6q-4 -2 -38 -7.5t-36 -5.5q-4 0 -41 -8t-41 -8q-27 0 -47 -10q-6 0 -29.5 -6.5t-52.5 -14.5t-37 -10q-35 -8 -37 -10q-16 -8 -18 -13q-29 -37 -92 -145q-12 -20 -27 -49q-4 -8 -23.5 -50t-23.5 -51q-55 -131 -56 -137v-16q2 0 27 -3t29 -1q12 0 37 10 q41 6 92 29q53 16 55 20q2 0 18.5 4t18.5 4l12 4q10 6 21.5 11.5t13.5 7.5q59 14 127 39q33 8 39 8q41 10 74 10h8h8l8 -16t13.5 -25.5t7.5 -15.5v-6v-6q-29 -47 -37 -48q-8 -8 -82 -63q-47 -20 -94 -47q-74 -37 -119 -49q-2 0 -18.5 -4t-18.5 -6q-2 0 -14.5 -5.5 t-14.5 -5.5q-4 -4 -118 -41q-2 0 -14.5 -4t-14.5 -4q-53 -14 -64 -20q-33 -8 -55 -9q0 -2 -2 -7t-4 -9l-2 -4q-2 -8 -6 -39t-4 -33l-2 -10v-21.5v-17.5v-26l2 -23q0 -2 4 -31.5t6 -36.5l8 -32l4 -4q2 -4 4 -9l2 -4q2 -8 27 -33q4 0 19.5 -1t17.5 -1l37 2q6 0 37 11q2 2 16 8 t28.5 13t18.5 9q10 4 35 17.5t49.5 27t28.5 15.5q55 33 90 59q0 2 8 8.5t16.5 12.5t12.5 10q16 8 47 39l18 18q12 12 29 21q0 2 8 6t8 6q8 8 11 8l10 2q12 2 25.5 4t19.5 2h6h2q4 0 11.5 -7t7.5 -9q14 -33 18 -63q2 -14 2 -19l-2 -18l-2 -4q-2 -4 -4 -9.5t-2 -7.5 q-4 -4 -17.5 -23.5t-24.5 -35t-14 -19.5q-2 -2 -17 -20.5t-19 -20.5q-4 -4 -36 -28.5t-38 -30.5q-33 -29 -55 -39q-2 -2 -12.5 -7t-20.5 -9l-12 -4q-66 -43 -113 -60q-82 -37 -109 -41q-8 -2 -102 -10h-21h-16q-37 6 -65 21q-37 25 -54 41q-43 43 -45 49q-2 2 -9 13 t-17.5 26.5t-12.5 19.5q-2 2 -10 18q-2 6 -9 32t-7 28q0 4 -4.5 30.5t-4.5 30.5q-10 10 -10 39q0 2 -1 17.5t-1 35v29.5z" />
<glyph unicode="F" horiz-adv-x="1138" d="M2 -37l2 27q0 8 27 55q2 2 27.5 49t29.5 53q41 92 82 175q0 2 5 12t8 20.5t3 12.5q-4 6 -23.5 29.5t-21.5 25.5q0 10 -8 18q-10 27 -10 29q0 4 -4 27.5t-6 27.5v17v12q2 0 10 8t10 8h8h11q8 0 36 -4l27 -4q8 0 45 -18h6h4l11 10l36 74q0 2 8.5 22.5t8.5 22.5 q14 29 47 110q0 4 12.5 35t14.5 39q8 25 10 27q0 4 2 13t4 16.5t2 9.5q2 23 2 28l-2 25q0 2 -8 16l-10 13v4v4q10 20 10 37v110q6 12 18 19q2 2 27.5 5t28.5 3q2 2 31.5 19.5t31.5 19.5q45 23 57 26q27 6 35 9q6 2 29.5 6t25.5 4q6 0 33 3t49.5 5t28.5 2h51h51q8 -2 59.5 -6 t59.5 -4q2 0 27.5 -4t28.5 -6h18q25 -6 55 -19q4 0 19.5 -8t17.5 -8t13.5 -8.5t13.5 -10.5l10 -10q8 -16 8 -29q2 -23 2 -30q0 -2 -1 -15.5t-1 -17.5q0 -2 -8 -10q-2 0 -14 -4l-13 -5h-24h-23q-4 0 -28.5 4.5t-26.5 4.5h-23q-23 0 -50 1t-40 1q-14 0 -41.5 -1t-52.5 -1h-22 q-10 0 -93 -9q-4 0 -27.5 -4t-27.5 -4q-35 -8 -37 -10q-4 -2 -27.5 -13.5t-27.5 -13.5q-2 -8 -6 -48t-4 -46q0 -23 -8 -63q0 -4 -4.5 -23.5t-4.5 -21.5q-2 -4 -10 -29q-2 -2 -9 -22.5t-9 -22.5t-6 -10l-5 -9q0 -2 -4 -18t-4 -18t-4 -14.5t-6 -14.5q0 -2 -11.5 -29.5 t-15.5 -34.5q0 -2 -4 -10l-4 -8v-5v-7l2 -4q2 0 10.5 -1t13.5 -1h9q63 8 111 18l18 4q20 6 36.5 10t18.5 4t28 4.5t28 6.5q4 0 24.5 4t22.5 4h45q2 0 18.5 4t18.5 4h229q2 0 10 -8l4 -12q4 -12 4 -15l11 -20q0 -8 -11 -8q-2 -2 -26.5 -10.5t-26.5 -8.5q-31 -10 -47 -18 q-2 0 -14 -4l-13 -4q-25 -12 -73 -29q-2 0 -56.5 -16.5t-72.5 -20.5q-2 0 -18.5 -4t-18.5 -4t-17.5 -5t-31 -9.5t-17.5 -6.5q-4 0 -23.5 -4t-43 -9t-25.5 -5l-16 -4q-16 -4 -19 -4q-4 0 -42 -8.5t-42 -10.5q-102 -27 -110 -28q-20 -20 -27 -45q-4 -8 -42 -87t-42 -88 q-31 -74 -74 -147q0 -2 -4 -14.5t-4 -14.5l-12 -28q-12 -31 -16 -35q-27 -47 -27 -55q-10 -8 -37 -19l-10 -2h-12l-23 2q-2 0 -10 4l-10 4h-19l-18 19q-16 49 -17 55q-10 10 -10 18q0 2 -1 13.5t-1 15.5z" />
<glyph unicode="G" horiz-adv-x="1146" d="M31 377q0 20 6 45l18 67q0 14 11 35l14 39q0 8 10 33l10 22q0 8 2 11l2 6l9 22q2 2 2 5.5t6 9.5l22 47l25 41l41 69q10 14 10 19l33 37q10 20 20 30l7 11l8 12l16 23l21 28l34 41l23 21q18 12 18 14l127 125l43 33l2 2q-6 0 7 6l24 18q2 2 6 4l21 13l12 12l25 16l24 9h2 q12 0 21 4l6 4q2 0 2 -2l29 16l8 2h10q6 4 14 10q8 0 21 6q12 0 24 7q12 4 47 4h7q4 0 10 1t8 1t8 -1t8 -1h9q33 -4 43 -8l8 -3h8q6 -8 13.5 -12t9.5 -4v4l41 -31q2 -2 9 -8t13 -14l8 -8l10 -17l29 -55l4 -12q4 -12 4 -17v-24q0 -6 1 -29.5t1 -25.5h-51q-14 0 -67 53 q-8 6 -13 18l-6 8q-2 2 -14 13h-86l-19 -6l-22 -7h2q-4 0 -9 -3t-10 -3l-40 -20l-31 -19q-2 -2 -7 -6t-8 -4l-4 -2l-16 -10q2 -2 -10 -10q-8 -4 -17 -9l-14 -12v4l-29 -22h2l-137 -135l-69 -80l-2 -2l-19 -25l-6 -8l-10 -19l-8 -12l-41 -65l-27 -50q14 18 0 -2 q-18 -29 -23 -37v3l-18 -33l-21 -45l-12 -21q0 -2 -4 -11t-7 -18.5t-3 -13.5l-19 -53l-4 -16h-2l-2 -21q-2 -4 -2 -6v-2q0 -4 -1 -14.5t-1 -12.5t-2 -9t-2 -9q0 -6 -4 -47q-4 -20 -4 -27q0 -2 3 -14t5 -21q0 -4 2 -14l2 -12l-2 -4l6 -13l8 -28l9 -19l-4 8v7q2 -8 12 -23 l4 -8l8 -12l2 -3l19 -22l20 -18l14 -15l25 -18v2l14 -10l13 -9l-9 7l31 -15l8 -6q-6 6 0 6l4 -2l76 -12l2 -2h23l26 6q4 2 17 2q4 0 12 2t13 3t8 1l24 8l-2 -2q4 0 10 1t11 3h4q-6 0 2 4l-6 -2l22 11l8 4l25 16l8 6q12 8 21 21l6 10l10 18l-2 -4l8 15q6 12 6 22v60l-6 24 q-2 6 -2 19q-4 18 -6 24q-2 2 -2 4v8l-23 46l-6 16l-2 -2l-2 2l-4 4l-25 18h-2l-16 13l-94 47l-19 12q-10 4 -22 19l-17 16l-18 22l-4 19q0 -6 -6 0l-2 16v23l-2 8l2 16q4 10 37 39l14 11l-2 -3l33 21l57 25l-8 -5q35 14 39 15l-7 -4q4 4 17 6l10 4h-2l33 10q2 0 7 2t12 4 l14 4l59 17q14 0 23 4l88 20q25 6 51 7h57q10 -2 43 -15l-2 2l25 -6q45 -23 57 -35q6 -25 8 -28v-19l-10 -18q-2 -2 -2 0q-10 -25 -21 -35l-24 -23q-16 -8 -47 -8q-6 0 -20.5 -2t-16.5 -2h-4l-17 -2q-16 -4 -20 -4q-2 0 -7 -1t-9 -1q-10 0 -15 -4q-14 0 -22 -2l2 2l-43 -10 l-47 -13l-25 -4h2q-4 -2 -6 0l-21 -10q-8 -2 -20 -8l-8 -2q12 -8 14 -8l43 -37q20 -16 27 -27l22 -35l60 -90l-4 4l10 -26v2q4 -16 4 -21q0 -2 2 -12l2 -12l4 -17q4 -12 4 -22l6 -39q4 -12 4 -35v-6q0 -4 3 -8v-7q0 -2 -1.5 -8t-1.5 -12q0 -33 -8 -43l4 12l-8 -20 q-2 -8 -2 -10l-33 -66q0 -2 -11 -11t-23.5 -20.5t-16.5 -15.5l-35 -25q-18 -10 -41 -18l-19 -9.5t-17 -7.5l-13 -2q-14 -2 -18 -2q-63 -14 -74 -14l-55 -4q-4 0 -10.5 -1t-8.5 -1h-6q-10 0 -24 4l4 -2q-20 4 -27 4l-51 14l-25 4l-12 7l-29 8l-32 12l-23 10l-29 15l9 -2l-9 2 l-12 6l-8 8l-19 10l-16 8q-10 8 -16 15l-15 12l-24 25q-27 18 -53 57l-19 31q-18 18 -27 49q-12 18 -12 43q-20 55 -20 74v137zM643 680l-4 -2z" />
<glyph unicode="H" horiz-adv-x="1245" d="M2 -49q0 4 2 16v10l4 23q4 23 6 27q0 4 8.5 28.5t8.5 28.5q33 82 37 94q2 4 14 35t14 33q10 37 37 92q0 2 4 10l4 8q14 47 31 76q0 2 -5 6t-5 6q-2 2 -23.5 18.5t-25.5 18.5q-12 20 -17 27q-8 16 -8 20q-2 4 -6 19.5t-4 17.5q-2 10 -2 17l2 14q0 8 10 8q6 6 74 29 q6 2 44 14t40 12q16 16 16 21q14 16 39 76l18 55q2 6 22.5 61.5t23.5 63.5l2 6q2 6 6 12l2 9q0 4 16.5 47t18.5 49q12 25 47 129q2 10 9 32.5t13 36.5l4 17q4 18 4 72.5t-4 68.5l11 10q2 4 11 16.5t9 14.5q8 8 10 8t21.5 1t23.5 1h17.5h19.5l10 -2q14 -6 17 -8l10 -10 q47 -47 47 -57v-41v-54q-2 -4 -6 -27.5t-4 -27.5l-29 -86q-4 -12 -41 -113.5t-41 -113.5q0 -4 -8 -30t-10 -28q-2 -4 -10.5 -24.5t-16.5 -44t-10 -25.5q-4 -12 -12 -29q0 -2 1 -8t1 -8q4 0 19.5 -2t19.5 -2q2 0 23.5 5t42 9t24.5 6q4 0 32.5 4.5t32.5 6.5q2 2 27 6t29 4 t42 4t42 4q8 0 24.5 3t28.5 5l12 2l6 11q4 10 10.5 25.5t10.5 21.5q61 133 74 170q8 16 8 26q2 8 2 13l-2 8l-17 8q-6 4 -16 14.5t-21 20.5l-10 12q-10 20 -10 39q6 4 21.5 20.5t32 34t20.5 21.5q47 31 57 35q2 2 12.5 11t20.5 18.5t12 11.5h12h17q47 -12 57 -19l8 -6 q8 -6 16.5 -13t10.5 -12q4 -4 20.5 -19t18.5 -17l2 -7q2 -6 4 -13t2 -11v-2v-6q0 -4 -8 -37q-2 -6 -7 -22.5t-10 -30.5l-4 -13q-10 -33 -63 -141q-8 -25 -21 -49q-2 -2 -6 -10l-4 -9q-4 -8 -14 -36.5t-12 -30.5v-4v-4q8 0 64 -4.5t67 -4.5q2 -2 22.5 -6t22.5 -4h28 q10 0 11 -8v-76q-47 -14 -66 -20q-20 -10 -37 -11q-4 0 -37.5 -4t-38.5 -6q-10 0 -36 -4l-27 -4q-4 0 -21 -4l-16 -4l-10 -10q-6 -14 -8 -19q-2 -2 -14.5 -31.5t-14.5 -33.5q-2 -2 -6 -11l-4 -8q-2 -10 -11.5 -43t-20.5 -71.5t-13 -49.5q0 -2 -4.5 -17t-8.5 -33.5t-6 -24.5 q0 -2 -8 -40t-10 -44q-16 -90 -17 -95q-2 -4 -6 -47t-4 -47q-8 -23 -18 -39l-37 -37q-8 -8 -21 -8l-6 -2h-8h-8l-6 2q-2 0 -27 8q-16 8 -18 11l-4 4q-4 4 -7 4q-2 2 -14 13t-24.5 22.5t-14.5 13.5q-10 4 -10 35q0 20 10 31q0 2 13.5 14t13.5 14q8 25 8 76q8 35 29 141 q18 82 18 86q2 4 14.5 42t12.5 42q2 4 7 27.5t12 51.5l9 36v4v4q-8 -2 -55 -10t-55 -10q-45 -4 -101 -19q-2 0 -84 -18q-25 -8 -38 -8q-2 -2 -13.5 -6.5t-13.5 -4.5q-39 -12 -47 -20l-10 -10q0 -4 -16.5 -46t-18.5 -46q-49 -115 -56 -134l-4 -14q-6 -14 -10 -26.5t-4 -14.5 q-18 -55 -39 -96q0 -2 3 -13.5t3 -13.5h4q4 0 37 17q2 2 19 16l18 14q8 4 21 4q0 -23 -2 -24l-11 -27q0 -2 1 -16.5t1 -27.5t-2 -15q-18 -33 -26 -45q-4 -8 -15.5 -26.5t-20.5 -33t-9 -16.5q-8 -8 -29 -39q-6 -6 -28.5 -34.5t-26.5 -33.5q-2 0 -9 -4q-6 -4 -10 -4 q-25 -8 -28 -8q-14 0 -48 8q-2 0 -10 4t-16 9l-10 6q-2 2 -13.5 14t-15.5 16l-6 11q-6 10 -12.5 20t-6.5 15q-10 16 -10 30q-2 19 -2 27zM283 225q-8 0 -8.5 -10t8.5 -10q6 0 6 10t-6 10z" />
<glyph unicode="I" horiz-adv-x="573" d="M27 14v11q12 57 36 155q2 4 13.5 38t22 64.5t10.5 36.5q0 2 5 18.5t5 18.5q0 8 18 45q2 6 11.5 27t16.5 37t9 20q4 8 41 83t41 83q8 25 20 45q2 12 17 56q10 31 10 47q8 57 8 100q14 23 29 27h8h10q49 -8 56 -8q2 0 7 -3.5t11 -8.5t8 -7q29 -23 37 -37q14 -29 21 -37 l8 -26v-35v-31q0 -10 -29 -82q-4 -10 -15 -40.5t-11 -32.5q-4 -6 -37 -74t-37 -74q-18 -37 -19 -47q0 -2 -4 -10l-4 -8q-2 0 -6 -12.5t-4 -14.5l-10 -10l-19 -37q-2 -4 -18 -45q-4 -8 -10.5 -26.5t-12.5 -33.5l-4 -14q0 -25 -10 -45q-2 -4 -14.5 -42t-12.5 -42 q0 -27 -10 -37q-2 -2 -10 -18q-23 -45 -25 -47q-39 -39 -47 -45h-8h-10q-8 8 -8 10q-6 0 -39 16q-25 18 -35 39l-2 10q-2 8 -5 18.5t-3 16.5v8zM326 1171q-10 53 -4 66q4 4 18 33q16 18 57 73q41 41 62 54q4 4 36.5 25.5t34.5 23.5q18 18 39 29q109 80 123 79q29 10 35 13 q4 0 15.5 3t19.5 5l10 2h6h10.5h12.5h10h16l11 -2q6 0 26 -21l4 -8v-10q-2 -2 -2 -18q0 -2 -4 -9l-4 -6l-22 -22q-6 -8 -58.5 -52.5t-72.5 -58.5q-2 -4 -27 -23.5t-27 -21.5q-12 -6 -73 -76q-23 -23 -25 -26q-25 -25 -49 -62l-45 -49l-8 -2q-10 -4 -15 -4l-30 -10 q-10 0 -19 8q-2 0 -6 1t-8 3q-23 23 -27 31q-2 2 -6 10t-8 14t-6 8z" />
<glyph unicode="J" horiz-adv-x="968" d="M-248 -266q0 6 1 16t1 21v8l2 4q2 4 5 8t3 6l27 27l4 2q4 2 8 5t7 3q20 10 28 10h25q2 0 20 -18q0 -6 4 -47t4 -47l3 -6q2 -6 5 -12.5t3 -8.5l10 -18q14 -14 16 -19q8 -8 19 -8h18q8 0 26.5 2t32 4t15.5 2l84 29q2 0 9 4t15.5 7t10.5 5q20 10 28 19l37 28q2 2 16.5 11.5 t27 19.5t12.5 14q0 2 4 6.5t6 4.5q4 0 14 12t19.5 26.5t11.5 16.5l28 37l35 55l39 64l53 112q14 23 29 64q0 2 4 10l4 8l29 66q20 49 74 219l18 65q6 33 37 109l18 65l19 56l18 73l19 56q18 55 18 63q0 2 4 11l4 8q0 2 3.5 18.5t5.5 18.5l12 32q-2 0 -22.5 -3t-22.5 -3 q-31 0 -64 -4q-6 -2 -27.5 -2h-25.5q-6 0 -25.5 -1l-58.5 -3t-74 -2q-10 -6 -57 -6q-4 0 -29.5 1t-52.5 2t-31 1h-4l-6 2q-6 0 -26 10l-17 14q0 2 -10 16.5t-10 16.5t-1 8.5t-1 11.5v9l2 37q12 16 12 37q0 10 14 24l8 2q8 2 19.5 4t15.5 2q2 0 26.5 3.5t31.5 1.5h63 q6 -2 17.5 -1t29 2t19.5 1q-2 0 -4 -2v0l51 2q70 0 94 6q20 -4 29 -2q2 0 21.5 1t43 1t33.5 2t37.5 6t49 8t24.5 4h18q41 -4 82 -18l29 -19q25 -18 36 -37q10 -10 19 -36v-37q-4 -8 -55 -109l-29 -74l-16 -47q-2 -4 -17.5 -46t-19.5 -54l-11 -29q-6 -18 -24.5 -80.5 t-20.5 -66.5q-10 -20 -10 -37q0 -2 -4 -10l-4 -8l-29 -101q-2 -2 -5 -18.5t-3 -18.5l-18 -47l-19 -37v-8q-16 -49 -20 -55q0 -2 -4 -18.5t-4 -18.5l-37 -102l-19 -45l-45 -93q-10 -20 -10 -26q-29 -68 -55 -113l-72 -108l-29 -39q-80 -86 -119 -119q-2 -2 -15 -11.5 t-31.5 -19.5t-26.5 -10l-4 -2q-4 -4 -8.5 -8t-6.5 -4q-27 -12 -47 -19q-37 -10 -55 -18q-4 0 -13.5 -2t-15.5 -4l-8 -2h-16q-16 0 -37 -1t-29 -1q-10 0 -29.5 1t-36 1h-18.5q-4 0 -37 8q0 2 -16 10l-47 29l-27 16q-43 37 -47 47q-8 10 -22.5 38t-14.5 36v16q-2 15 -2 21z " />
<glyph unicode="K" horiz-adv-x="1218" d="M53 -121v23q0 2 4 30.5t9.5 57t7.5 39.5l14 57q2 4 9 27.5t14.5 44t7.5 28.5q27 55 74 209q8 16 8 31q6 27 24 66q2 8 17.5 47t31 79.5t17.5 45.5q0 2 5 16t8 27.5t3 15.5q0 18 17 51q4 33 30 86q16 33 33 82q0 2 2 8t5 13.5t3 9.5l4 16q16 35 27 72q2 4 9 23.5t13.5 35 t10.5 19.5l18 30q0 8 14.5 50.5t18.5 48.5q0 4 61 170q10 25 19 32h24h15l12 3q2 0 18.5 -2.5t18.5 -4.5q2 0 14.5 -8t16.5 -8q23 -16 41 -39q2 0 6 -8t4 -10q0 -12 2 -17v-18q-14 -53 -88 -232q-8 -16 -41 -95t-35 -85l4 -16h8q2 0 8.5 2t12.5 5t8 3q106 63 109 66l12 6 q10 4 21.5 10t15.5 8q37 12 53 21q61 37 86 43q4 4 20.5 12t35 16t20.5 8q2 2 20.5 12.5t34.5 19.5t21 14l12 8l22.5 18t16.5 15q2 2 19.5 16t19.5 16q23 2 28 4h29q4 0 25.5 -7t25.5 -7q8 -4 41 -29l19 -16l6 -88q-6 -6 -8 -10q-2 -2 -8.5 -7.5t-12.5 -9.5l-6 -4 q-4 -2 -70.5 -41t-79.5 -47q-12 -12 -65 -33q-4 -2 -47 -24q-16 0 -86 -35q-6 0 -56 -33q-29 -14 -47 -20q-8 -6 -42.5 -25.5t-39.5 -21.5q-14 -8 -45.5 -26.5t-57.5 -33t-28 -16.5q-31 -31 -34 -41q-10 -14 -19 -41v-16.5t-1 -29t-1 -24.5v-14v-12q8 -33 10 -39 q8 -8 23 -37q25 -31 33 -47q6 -6 60 -52.5t62 -54.5q4 -2 62 -35l102 -51q8 -4 98.5 -39.5t98.5 -42.5q2 0 20.5 -11t22.5 -13q2 -4 15.5 -16.5t13.5 -14.5q4 -2 9 -13.5t3 -15.5q-12 -20 -14 -28l-11 -11l-16 -4h-6q-6 2 -8 2l-9 2q-8 2 -16 4.5t-12 2.5q-8 0 -33 8l-68 22 l-28 6q-4 4 -31 14.5t-29 12.5q-4 2 -25.5 7t-25.5 7q-8 4 -58 25t-61 27q-12 4 -50 23.5t-40 19.5q-4 2 -30.5 20.5t-30.5 22.5q-20 8 -41 26q-61 49 -94 82q-4 4 -17.5 23.5t-28 42t-18.5 26.5q-2 -2 -10 -12l-8 -8q0 -2 -6.5 -24.5t-8.5 -24.5l-10 -13q-10 -10 -10 -12 q-6 -6 -14 -55q0 -4 -3.5 -21.5t-3.5 -19.5q-2 -6 -16 -62q-41 -121 -49 -137v-10l4 -8l18 -19q2 -12 2 -16t1 -12t1 -11q0 -6 -2 -29.5t-2 -27.5q0 -2 -4 -10t-6 -10q-16 -33 -16 -52q-2 -4 -8.5 -18t-11.5 -26.5t-5 -14.5q-6 -6 -8 -10q-10 -4 -37 -31q-2 -2 -14 -6 l-15 -6l-4 -2h-6h-8q-8 8 -31 16q-23 23 -41 29q-8 0 -8 8q-8 8 -22 37q-12 18 -13 31q-2 16 -4 24z" />
<glyph unicode="L" horiz-adv-x="987" d="M29 125v12q18 61 28 84q4 8 82 166q0 2 4 14l4 13l19 37l6 12q4 12 8 22.5t6 10.5q4 14 16.5 43.5t25 57.5t12.5 30q2 2 14 27.5t14 27.5q0 2 6.5 17.5t12.5 32t8 24.5q2 4 24.5 61t24.5 62q18 61 37 100q0 4 8 23.5t8 23.5q2 4 23.5 54t25.5 55q0 2 5 16l4 12 q20 61 26 74q6 18 19 37q12 23 20 29l8 8q18 2 25 2q4 0 16 -2h15q27 0 34 -8q31 -20 39 -29q35 -35 35 -37q4 -4 10 -29v-2v-6q0 -2 -4 -13t-6 -13q-12 -35 -35 -74q-2 -2 -10 -14.5t-8 -14.5q-8 -12 -22.5 -47t-28 -66.5t-15.5 -33.5q-25 -68 -94 -242l-4 -10 q-4 -8 -4 -10l-4 -11q-4 -8 -9 -19t-7 -16q0 -2 -12.5 -35.5t-12.5 -37.5q-14 -23 -29 -64v-28q-2 -2 -10 -19l-18 -18q-8 -14 -9 -17q0 -4 -4 -15t-4 -13t-4 -18.5t-6 -18.5v-8q-10 -20 -18 -29v-10q0 -2 -4.5 -10.5t-6.5 -8.5v-8q-10 -31 -18 -47l-16 -35l-21 -20 q-8 -8 -8 -19q-2 -6 -2 -8l2 -10q6 -8 8 -8h4h6q2 0 15 4l12 4q10 4 57 15t54 13q4 0 22 4.5t41 8.5t31 6q4 0 26.5 4t26.5 6q18 0 84 8h4h4q14 0 44 -2t52 -4l23 -2q43 -14 55 -20q10 0 29 -19l10 -8v-66l-10 -8q-10 -2 -61.5 -10t-57.5 -8q-6 -2 -35.5 -6t-50 -8.5 t-25 -4.5t-36.5 -8q-2 -2 -14.5 -6t-14.5 -4t-22.5 -4t-22.5 -6q-20 0 -37 -8q-92 -31 -129 -37q-6 0 -47 -8q-6 -2 -34 -6.5t-30 -4.5h-14h-12q-45 8 -47 11q-6 2 -74 34l-18 19q-25 49 -27 55t-10 66v14zM287 221q-4 2 -4 -2q-2 -8 4 -8q4 2 4 5t-4 5z" />
<glyph unicode="M" horiz-adv-x="1783" d="M-14 -8q-2 4 -2 31q0 2 3 5t5 7l4 8l2 4q31 39 63 121l7 20q4 4 29.5 59.5t31.5 61.5l6 15q6 14 13.5 32.5t9.5 22.5q0 4 9 24.5t18.5 42t11.5 25.5q2 2 11 23.5t13 23.5q2 8 22.5 64.5t20.5 58.5q51 133 60 152q6 6 18 30q0 25 6 31q16 49 17 84q8 16 8 57q0 6 6 25 q31 49 51 106q35 90 35 95q0 2 9 15t19.5 26.5t12.5 15.5t5 11t3 11l16 33q4 2 14.5 12.5t10.5 14.5q2 0 10 4l8 4q12 12 29 12h12h13q27 -6 63 -20q16 -10 19 -10q12 -6 96 -62q4 0 9 -9t9 -19.5t6 -12.5q0 -2 3.5 -10t6.5 -15.5t3 -11.5q2 -6 10 -45t10 -45q2 -20 4 -28 l2 -25q0 -2 -4 -12l-4 -11q10 -31 10 -77q0 -41 -4 -49q0 -18 -22 -64q-2 -6 -4 -50t0 -48q0 -2 -2 -9.5t-4 -13.5l-3 -8q0 -2 -1 -30.5t-3 -30.5q0 -2 -4 -13l-2 -10q0 -4 -2 -23.5t-4 -36t-4 -18.5q2 -2 2 -16l2 -15q18 31 43 62l4 10q23 18 37 47t16 31q27 35 23 43 q39 43 92 121q0 2 2 18.5t2 18.5q2 0 6 6l2 4l5 4q4 2 8 5t4 5q27 18 26 31q6 8 82 129q2 6 29 47t29 43t9 21.5t9 21.5q0 10 27 37q14 14 39 33l20 20q20 18 23 21q10 10 34 22q14 0 27 6q4 0 13.5 3.5t17.5 5.5l8 2h21h14q8 0 50 -8.5t48 -8.5q4 0 21 -10q4 -4 20 -12 l14 -11q4 -4 32 -30.5t32 -32.5q0 -2 15.5 -16.5t19.5 -20.5l10 -20q0 -6 4 -33t4 -33q6 -43 6 -70l-4 -24q0 -27 4 -35q0 -2 -7 -19.5t-7 -19.5q-4 -6 -11 -46t-5 -46q0 -2 -21.5 -66.5t-23.5 -72.5q-12 -25 -13 -51v-13q0 -2 -8 -15t-10 -15q-23 -68 -23 -78v-6.5t1 -10.5 t1 -8t-3 -13t-5 -13q-6 -31 -14 -39q0 -2 -12.5 -16.5t-12.5 -18.5l-6 -19q-4 -6 -8 -20t-8 -29.5t-4 -17.5q-6 -25 -9 -35l-2 -18q-2 -18 0 -21q0 -4 -4 -16.5t-6 -16.5l-6 -20q-4 -23 -4 -27q-29 -100 -29 -123q-6 -25 -6 -98q0 -6 -1 -17.5t-3 -21.5l-2 -8q-8 -8 -14 -8 l-7 2q-14 8 -16 6l-16 -16h-13h-8q-49 25 -57 30l-8 6q-10 6 -18.5 13.5t-8.5 13.5q-8 6 -25 39q0 8 -4 20q0 29 -2 31q0 2 2 23.5t2 23.5q0 4 1 32t1 30q8 57 13 82q0 4 5 28.5t5 30.5q16 82 23 82q2 10 27.5 81.5t27.5 82.5l12 32q10 33 20.5 62t10.5 35q2 2 20.5 58 t36 105.5t23.5 57.5q0 2 1 9t3 16v6q0 18 16 51q8 27 6 33q4 10 8.5 37.5t2.5 31.5q2 4 3 16.5t1 22.5l2 10q0 4 -3 14.5t-3 12.5q-2 0 -9.5 1t-16.5 2t-13 1q-41 -14 -52 -31q-4 0 -22 -14t-23 -22q-49 -49 -86 -95q-16 -8 -20 -20q-18 -37 -39 -57l-4 -11q-2 -4 -9 -18.5 t-7 -16.5q-6 -10 -20.5 -34.5t-26 -44t-13.5 -19.5l-8 -8q-8 -8 -8 -10q0 -4 -5 -13.5t-12 -17.5l-6 -10l-16 -21q-12 -16 -23 -65l-8 -6l-8 -9q-6 -6 -59 -114q-20 -31 -41 -82q-2 0 -4.5 -3t-4.5 -3q-2 -2 -7 -11.5t-11 -19.5l-6 -8l-10 -8q-2 -4 -14.5 -25t-12.5 -23 q-6 -20 -33 -47q-4 -14 -49 -92q-2 -2 -21.5 -33.5t-25.5 -38.5q-4 -18 -29 -30l-41 -41l-10 -2h-14h-19l-14 2l-4 2q-4 4 -9 7t-10 3q-2 0 -6 4l-4 4q-2 4 -21.5 16.5t-19.5 14.5t-6 10t-11 16.5t-5 12.5q0 2 -3 9t-8 13l-2 9l-2 12q-2 12 -2 16l-2 25q2 37 4 49 q0 10 1 31.5t3 41t2 21.5q6 33 31 239t29 245q0 53 10 88q0 12 2 37.5t4 45t2 21.5q-2 23 -4 35q0 2 -2 18.5t-2 20.5q-2 -2 -9 -12.5t-9 -12.5q-12 -20 -31 -57q0 -8 -10.5 -37t-23.5 -64.5t-17 -46.5q0 -2 -6.5 -18t-10.5 -31.5t-4 -19.5q-2 -6 -12 -35t-20.5 -61.5 t-10.5 -34.5q2 -4 -4 -31l-6 -27q-2 -2 -39 -114q-10 -20 -10 -47q-2 -4 -9 -21.5t-14.5 -33t-7.5 -19.5q-8 -12 -22 -62q-39 -129 -43 -129v-71l-25 -41q-16 -20 -33 -53q-23 -23 -24 -27q-14 -14 -23 -39q-4 -4 -18.5 -31.5t-18.5 -31.5q-6 -10 -8 -10.5t-10 -9.5t-10 -9 l-19 -10l-10 -2h-12l-19 2q-14 0 -57 28q-10 10 -12 11q-2 4 -12.5 16t-10.5 14q-12 12 -12 33q-6 25 -6 35z" />
<glyph unicode="N" horiz-adv-x="1294" d="M645 70v39v84q0 14 6 51q0 2 4 40t8.5 69.5t6.5 39.5l2 25q2 23 2 26q0 6 6 72t6 72q0 4 2 26.5t4 26.5q8 49 8 115q12 74 13 104v54.5t-2 52.5q0 2 -2 28.5t-2 32.5q-4 29 -5 45l-10 8l-8 -8q-4 -6 -25.5 -50t-23.5 -46q-2 -4 -21.5 -26.5t-21.5 -26.5q-8 -31 -62 -146 q-2 -6 -15 -42t-15 -42q-12 -37 -13 -61q0 -12 -8 -21q0 -4 -8 -12q0 -2 -3 -16.5t-5 -14.5q0 -27 -14 -41q-10 -27 -25 -43l-16 -32q-2 -2 -5.5 -10.5t-3.5 -10.5t-2 -16l-4 -15q-2 -6 -8 -24.5t-12 -36.5t-8 -23l-9 -8q-14 -29 -18 -33q0 -4 -7 -23.5t-16 -39.5l-6 -20 l-6 -13q-4 -12 -10 -23.5t-8 -15.5q-6 -25 -15 -32q0 -2 -7 -11.5t-12 -19.5t-5 -12q-2 0 -8 -15l-9 -14q-18 -31 -43 -55l-14 -9l-16 -2h-19l-33 2q-16 6 -20 9q-18 18 -33 22q-27 27 -28 33q-20 20 -21 29q-4 8 -4 43q0 2 -1 19t-1 22q4 12 14 22l19 8q16 10 18 12.5 t16.5 19.5t18.5 21q-2 2 22 43q14 14 15 33q18 27 33 72l8 14q8 14 8 17q2 4 19.5 46t19.5 46q2 6 23.5 54t23.5 54q14 29 14 52q0 2 14.5 34.5t14.5 38.5q37 63 47 115q33 63 55 145q8 25 22.5 53.5t16.5 30.5q2 8 19.5 43t21.5 41q33 61 56 95q6 8 37.5 32.5t41.5 30.5 l9 2q10 2 21 5t18 3h2h8q43 -12 67 -20q0 -2 27 -21q4 -2 16.5 -13t23.5 -19.5t13 -10.5q31 -25 39 -41q18 -23 25 -63q6 -47 8 -66q0 -10 2 -45t2 -37q6 -61 6 -168q0 -4 -1 -40.5t-1 -43.5q-6 -12 -6 -40q0 -4 -13.5 -86t-11.5 -89v-12v-8q8 0 9 8q4 8 34.5 95t32.5 92 q0 4 27 83q2 4 20.5 48.5t24.5 56.5l8 14q8 14 10 17q12 25 23 65l8 8q31 61 31 64q29 47 34 51q2 4 12.5 16.5t18.5 23.5t10 13q2 0 6.5 3t7.5 5.5t5 2.5q25 2 33 2q4 0 18 -2h14q2 0 14.5 -5.5t16.5 -5.5q37 -18 39 -20q31 -25 43 -43v-17q2 -14 2 -20q0 -25 4 -37 q-23 -10 -26 -20l-9 -4q-8 -6 -10 -7q-16 -10 -43 -53q-2 -4 -15.5 -24.5t-28.5 -46t-21 -33.5q-2 -2 -9.5 -15.5t-9.5 -15.5l-6 -18q-6 -20 -8 -23q-20 -41 -33 -53q2 0 0 -4t-4 -9.5t-2 -7.5l2 -4l-2 -6q-2 -6 -25 -51q0 -4 -8 -21q-2 -10 -9 -33.5t-12 -42t-5 -20.5v-12 q-4 -16 -7 -19l-10 -8q-6 -18 -6 -33q0 -2 -5 -11t-3 -11q-2 -6 -14.5 -52t-14.5 -53q0 -14 -6 -20q-4 -4 -18 -33q-31 -104 -54 -143q0 -10 -14 -33q0 -2 -11.5 -21.5t-11.5 -21.5q-2 -2 -9 -20.5t-7 -20.5q-14 -45 -27 -51q2 -4 -6 -13.5t-8 -11.5q-2 -2 -14 -10l-13 -10 l-4 -4l-4 -4q-4 -10 -18 -11h-8h-11q-18 0 -28 11q-2 0 -13 4l-8 4q-12 12 -28 20q-4 12 -11 13q-8 20 -36 63q-10 31 -11 33q-4 25 -6 33z" />
<glyph unicode="O" horiz-adv-x="1073" d="M31 244l2 30q0 27 10 58l2 6q2 6 4 13t2 11q14 37 29 87q20 41 20 53q4 8 16.5 35.5t21.5 49t9 25.5q66 98 80 127l11 23q8 20 10 24q6 10 30.5 50.5t26.5 44.5q0 2 13.5 18t30 37.5t24.5 32.5q78 90 78 98q37 37 51 41q2 2 14 17.5t12 17.5q49 49 62 53q2 2 22.5 15.5 t24.5 17.5q88 51 96 53q2 0 14.5 5t16.5 7q2 0 12 3t19 6l8 2l20 2h26.5h19h20.5l10 -2q2 0 7 -2.5t12.5 -5.5t9.5 -3q37 -18 41 -22q4 0 19.5 -13.5t19.5 -21.5l20 -20h29q10 0 20 -11q0 -2 8.5 -11t8.5 -11q31 -45 30 -64v-172q0 -2 -4 -6t-4 -6v-23q-2 0 -6 -8l-4 -10 q-2 -4 -7 -28.5t-5 -26.5q0 -4 -17 -78q0 -2 -4 -15.5t-4 -15.5q-23 -37 -31 -88q-2 -2 -6 -21.5t-4 -21.5q-4 -31 -20 -63q0 -4 -9.5 -20.5t-19.5 -35t-10 -20.5t-4 -10.5t-4 -10.5q-2 -4 -12.5 -18t-12.5 -19l-8 -18q-8 -20 -8 -23q-2 -4 -19.5 -32.5t-19.5 -32.5l-2 -6 q-2 -4 -7 -10l-2 -7l-8 -10q-29 -29 -28 -45q-4 -4 -30 -35.5t-32 -38.5q-2 -4 -12 -16t-15 -14q-4 -4 -29.5 -28t-29.5 -28q-66 -57 -78 -65q-33 -25 -69 -43q-29 -10 -88 -45q-25 -8 -50 -21q-31 -10 -67 -10l-12 -2h-16.5h-11.5h-11l-7 2l-6 2q-6 2 -13 5t-9 3 q-8 4 -21 13l-49 32q-27 20 -31 21q-2 4 -14 16.5t-21.5 23.5t-11.5 15q-8 8 -30 53q0 12 -19 56q-8 25 -8 30q-2 6 -6 35t-4 31v14q-2 15 -2 19zM227 141v-37l21 -24l14 -2q14 -2 19 -2q6 0 24.5 2t20.5 2q31 14 116 65q2 2 21.5 16.5t42 33t33.5 24.5q4 4 26.5 23.5 t24.5 21.5l10 10q61 84 86 109q6 6 21 35l12 20q12 18 23.5 34.5t13.5 19.5q0 4 8 16t8 16q18 37 31 56q29 59 59 96q2 2 10.5 19.5t16.5 36t10 20.5q4 2 21 34q25 49 41 95q14 51 18 55q2 6 2 12l-2 8q0 2 -3 10.5t-5 16.5l-2 6v10q-8 12 -8 15v53q-12 25 -25 29 q0 12 -8 12l-17 12h-26h-23q-23 0 -28 -12q-2 0 -15.5 -8t-31 -18.5t-23.5 -14.5l-49 -33q-2 -2 -26.5 -25.5t-31.5 -27.5q-6 -8 -62 -68.5t-67 -72.5q-23 -33 -39 -54q-23 -35 -47 -77q-6 -8 -34.5 -55.5t-34.5 -53.5q-33 -57 -39 -63q-8 -8 -8 -23q-2 -4 -10.5 -32.5 t-10.5 -32.5q0 -2 -10 -17l-8 -14v-25q-8 -20 -11 -20q-2 -4 -18 -54q-2 -6 -7 -20t-9 -28.5t-4 -16.5q-10 -51 -11 -53v-60z" />
<glyph unicode="P" horiz-adv-x="1013" d="M6 -47q-2 6 -2 24l10 13l6 26q8 25 17.5 57.5t15.5 47.5q0 2 5 30.5t5 32.5q2 8 25 90t27 99q0 6 16 22q4 4 16.5 32t14.5 32q35 86 45 100q0 6 4 27q0 2 7 22.5t13.5 41t6.5 24.5q12 37 18 61q53 109 59 146q8 37 29 80v10l-2 8l-2 10q0 2 -8 6l-4 4l4 9q4 10 4 14 q31 61 39 70l2 6q2 8 3 14t-1 12l2 11q2 8 4 18t2 12q0 4 4 30t2 30q2 6 10 10q98 12 103 12q55 18 112 47q6 2 39 3t50 -3q2 0 14 -2t26.5 -4t18.5 -2q2 0 32.5 -8t39.5 -12l18 -6q4 -2 14.5 -7.5t20.5 -11.5l10 -4q10 -4 45 -31.5t39 -34.5q2 -2 10.5 -9t17.5 -15t11 -12 q2 -2 17.5 -20.5t15.5 -22.5q14 -10 14 -48l2 -8q4 -8 6 -18t2 -14.5t1 -14.5t3 -18v-10q-4 -31 -4 -43l-2 -27q-4 -4 -14 -21.5t-12 -21.5l-32 -48t-34 -52q-27 -27 -31 -39q-37 -25 -47 -35q-25 -25 -30 -37q-2 -2 -11.5 -9t-19.5 -16.5t-14 -11.5q-27 -12 -35 -25 q-63 -47 -99 -61l-6 -4q-12 -4 -10 -6q-4 0 -26.5 -8.5t-28.5 -6.5q-8 -6 -27.5 -11t-34 -9t-16.5 -6q-29 0 -37 -4l-31 2q-4 -2 -16 -2h-14q-8 4 -33 28q-2 -2 -4 -6h-4l-2 -6q-4 -6 -8.5 -12t-4.5 -8q-4 -8 -9 -28.5t-10 -37t-7 -18.5q-2 -4 -3 -26.5t-1 -25t-3.5 -10.5 t-3.5 -10q-2 -2 -19 -35t-19 -39q-6 -10 -28 -74.5t-24 -68.5q-6 -4 -6 -6q0 -23 -8 -31q-2 -16 -55 -168q-4 -12 -25 -33q-8 0 -24 -12q-8 -12 -37 -12q-8 2 -28.5 18.5t-25.5 22.5q-6 2 -19 14t-13 16l-6.5 6.5t-6.5 8.5l-4 6q0 29 -6 41zM700 1120l-32 -6q-6 6 -43 -18 q-2 2 -11.5 -2t-11.5 -9q-6 -4 -12 -12l-2 -10q-2 -10 -4 -22.5t-4 -16.5q-14 -29 -15 -57q2 -4 1 -7.5t-3 -8.5t-2 -7q-2 0 -5 -7t-7 -15l-4 -7q0 -12 -6 -24q0 -4 -11.5 -48t-13.5 -52q0 -2 -4 -13.5t-4 -13.5t-2 -6l-4 -8v-2q-4 -16 -25 -78q-4 -8 -4 -16.5t6 -14.5 q6 10 17 10q2 2 31.5 11.5t33.5 13.5l16 10q16 8 37 19.5t29 19.5l18 10q18 8 21 12q0 2 9 9.5t18.5 15.5t11.5 10q27 14 26 23q63 55 68 69q20 20 29 33q2 4 11 23.5t9 21.5q16 16 17 35q-2 6 -1 12.5t3 14.5l2 8v14l-4 15q-2 -2 -9 8l-6 8q-4 6 -26.5 22.5t-24.5 18.5 q-12 6 -20 6q-43 12 -64 12q-21 -2 -29 -4zM358 1022q-8 4 -12 -2t2 -10q4 0 8 4t2 8z" />
<glyph unicode="Q" horiz-adv-x="1402" d="M860 111q-2 2 -4 2l-4 -2q-2 0 -20.5 -15.5t-20.5 -15.5q-4 -4 -35 -29q-31 -14 -76 -49q-14 -10 -42.5 -27.5t-51.5 -31.5l-22 -15q-82 -41 -105 -41q-10 -6 -92 -12q-6 -2 -44 -5t-44 -3q-16 16 -27 16q-10 10 -20 11q-80 66 -100 92q-23 45 -33 59l-23 53 q-2 4 -6 22.5t-8 40t-6 27.5q0 6 -6 37v37q-4 8 2 62q0 2 2 21.5t2 23.5q0 2 3 15t3 15q8 47 10 51.5t7 20.5t9.5 30.5t4.5 18.5q0 2 13 28.5t15 35.5q8 10 47 88q14 29 15 30q31 45 166 238q2 4 17 23.5t29.5 38t16.5 20.5q4 4 78 102q29 18 51 50l8 10q10 8 20.5 17 t18.5 18.5t10 11.5q6 0 17 10q119 84 127 88q86 43 100 49q16 12 64 19q12 2 16 2l21 2q2 0 22.5 -3t24.5 -5q14 0 55 -11q6 -4 30.5 -14t26.5 -12q0 -2 17.5 -17.5t21.5 -21.5q4 -4 19 -21l12 -16l4 -10q6 -10 11 -23.5t7 -17.5q0 -4 4.5 -10.5t6.5 -10.5l4 -6q2 -27 4 -35 q0 -4 1 -13t3 -15v-9q0 -25 -6 -55q0 -25 -4 -33q-4 -6 -11.5 -32.5t-9.5 -30.5q0 -12 -8 -12l-6 -4l-2 12l-12 18q-47 82 -48 92q0 43 -8 54q0 4 -5 21.5t-5 19.5q-4 10 -18 16q-4 0 -29 -2t-31 -2q-25 -8 -57 -8q-8 0 -37 -15q-2 -2 -36 -19t-40 -22q-4 0 -23.5 -11 t-21.5 -11q-63 -53 -84 -62q0 -2 -41 -34l-24 -25q-49 -57 -58 -61q-2 -4 -22.5 -29t-24.5 -29q-127 -166 -172 -245q-4 -4 -36.5 -62.5t-41.5 -71.5q-2 0 -5 -7t-6 -15t-5 -12q0 -6 -10 -28t-10 -26q-12 -49 -21 -65q0 -2 -5 -24.5t-7 -26.5q2 -4 -2 -19l-4 -14v-53 q0 -27 4 -47q0 -6 1 -18.5t1 -20.5l2 -11q0 -6 12 -18l19 -19q2 -2 34 -10l4 2h7q4 2 26.5 9.5t26.5 9.5q2 0 9 3t15.5 6t10.5 5q12 4 48 21.5t40 17.5q2 0 18.5 12.5t22.5 14.5q94 57 121 75q16 16 32 25l6 10l2 8l-4 2q-10 20 -30 41q-4 4 -22.5 29t-40 54.5t-30.5 39.5 q-20 20 -20 31q-2 2 -6 11t-6 12q-25 41 -25 57q-4 41 -22 113q0 35 6 53q10 0 18 4h17q14 0 26 -8l19 -9q18 -12 61 -55l2 -4q2 -4 6 -8l2 -6q0 -2 3 -10.5t6.5 -14.5t3.5 -8q2 -4 12 -25.5t12 -23.5t11.5 -19.5t11.5 -19.5q0 -4 8 -16.5t10 -12.5q4 -4 30.5 -32.5 t35.5 -34.5q2 -6 13 -17.5t13 -11.5q18 16 25 23q8 10 33 34q2 0 14 16.5t28.5 37t22.5 28.5q4 8 36 47t34 45l4 4q4 4 8 9.5t6 7.5t22.5 37t22.5 41q74 94 119 170q8 0 27 63q0 2 4 12.5t6 12.5l4 28q4 12 10 13q10 2 15 2h12l10 -10l6 -9q2 0 11 -4l10 -2q0 -4 13 -49 t15 -53v-8v-5q0 -2 -1 -13t-1 -17v-10q-14 -29 -14 -43q-2 -2 -14.5 -31t-16.5 -35q-4 -18 -22 -45l-6 -12q-2 -2 -15.5 -26t-15.5 -26q0 -4 -8 -10l-8 -4q-41 -51 -60 -102q0 -2 -8 -16.5t-10 -14.5t-4 -4l-2 -4q-2 -4 -11.5 -25.5t-11.5 -23.5q-4 -6 -33.5 -49.5 t-58.5 -81t-39 -48.5q0 -2 6 -10t8 -10q2 0 17.5 -13.5t35 -29.5t27.5 -23q49 -33 62 -45q6 -6 17 -14t21.5 -15t10.5 -10l10 -6q8 -4 20.5 -10t18.5 -8q2 -2 41 -22.5t43 -24.5q8 4 27 -15q8 -6 30 -28q16 -16 23 -41q12 -18 12 -29l-8 -12h-8q-4 0 -14.5 -5t-10.5 -7 q-4 -8 -8 -13q-18 -12 -27 -12q-18 4 -26 8q-82 20 -95 33q-14 4 -71.5 35t-71.5 43q-2 0 -16.5 13t-16.5 13q-10 12 -32 19l-13 10q-12 10 -29.5 23.5t-23.5 19.5q-51 52 -80 64z" />
<glyph unicode="R" horiz-adv-x="1210" d="M63 129q0 33 7 45l14 98q0 2 14 64l6 31v-2q2 10 5 18l6 20q10 31 10 37l6 27l10 39l-2 -6q16 72 60 194l6 19q16 53 20 55q41 106 47 115l43 88l7 8q4 8 8 12v-2l14 23l-4 -4l14 26l6 8l29 37l23 31l14 18l25 31q6 6 6 43l10 21h-2l10 16q6 6 33 2q39 4 76 -6l2 2l43 23 l47 20q14 10 92 27l39 10q16 4 18 4q23 0 41 2q8 0 25.5 3t24 3t16.5 -2h-4q29 0 41 -2q2 0 10 -1t12 -1h10q47 -12 66 -23l68 -38v2q35 -35 45 -56v2q12 -14 18 -39q0 -8 2 -14v-12l2 -8l-2 2q10 -20 10 -31q-2 -18 -2 -25q-2 -6 -2 -32l-8 -4l-27 -54l-14 -28l-29 -31 l-8 -12q-31 -31 -71 -62h2q-14 -12 -47 -35l-27 -20l-100 -72h2q-4 -4 -31 -25.5t-31 -25.5l-14 -18v2l-15 -21l-6 -6l-10 -23h2q-2 -2 -4 -10l-6 -18v2l-12 -47v-17q-2 -20 2 -75v-13q-4 -4 6 -30l-2 4l6 -19q0 -4 6 -10l6 -8q4 -10 12 -10l11 -25q4 -4 4 -10l26 -58 l43 -65v2q33 -33 37 -33q119 -119 142 -133q14 -23 26 -29l10 -6q12 0 25 -6l-8 2q12 -8 26 -14l5 -4l8 -11q10 -20 10 -26q-2 -16 -2 -21l-2 -20q-12 -18 -23 -27h2l-6 -8q-16 -8 -37 -8q-47 8 -84 33l-28 18l2 -2q-4 0 -8 4t-9 6q-2 2 -8 4t-8 2h2l-12 7q-4 12 -64 59 q-10 6 -37.5 28.5t-31.5 26.5l-99 111l-12 18v-2q-20 31 -22 33l-19 33l-16 30q0 -2 -4 7q-29 63 -31 75l-27 90q-4 20 -4 60q-6 31 -6 43v8q0 6 1 17.5t1 13.5q0 16 4 45q0 12 4 20q18 37 19 54q18 47 22 51l-2 -8q16 27 27 43l2 4v-2l25 32l20 19l53 45l27 18l53 35 q25 12 39 27l-2 -2q74 57 80 63q4 2 15 12.5t14 14.5l18 20q16 16 31 54l-6 8l-5 4q-14 4 -20 6h-6l-25 2l8 -2h-2q-4 0 -9 -1t-11 -1q-12 -2 -35 -2h-6l-43 -8l-25 -4q-14 0 -80 -27v2l-16 -8l-12 -4q-10 -4 -17 -8q-10 -8 -18 -9l6 2q-18 -18 -29 -18l-4 -2l-26 -109 q-16 -49 -17 -57q-18 -74 -22 -82q-33 -141 -45 -168v2l-17 -80l-4 -12l-12 -41q-4 -20 -20 -70q-20 -66 -21 -69q0 -8 -10 -39q-12 -23 -12 -27l-11 -32q-10 -35 -10 -37l-10 -21q-2 -12 -17 -45l-4 -12l-30 -76q-27 -80 -27 -82l-25 -39l-4 -12l-41 -70q-6 -6 -19 -16 t-15 -10l-105 6q-12 0 -31 31l-24 36l2 -4q-6 0 -6 49l-6 72l-5 43q0 25 2 37zM854 971l2 4v-2zM221 266h-2l2 -4q0 2 2 6l10 21v-2q4 16 14.5 49t12.5 37q2 6 12.5 34.5t16.5 59.5q8 8 10 18l4 13q29 106 43 145q0 2 4 14l6 21l15 57l8 29q-14 -23 -14 -29q-18 -37 -19 -47 l-33 -63l-26 -45q-4 0 -19 -37q-25 -76 -32 -160l-17 -74v-14l-2 -19q0 -6 4 -10zM221 238l2 12v4q0 2 -2 8l-6 -16l-10 -27q-2 -2 -2 -6q4 -4 8 -4l2 2v6l2 2q2 4 4 10zM379 764l12 22v-2l4 11q4 8 4 10h-18v-19v-8q-2 -8 -2 -10v-4z" />
<glyph unicode="S" horiz-adv-x="833" d="M-74 -25l-8 35q0 2 5 22.5t9 26.5q10 10 11 29l32 43l9 4q6 4 10 4q37 18 49 19q2 0 11 -2t16 -2h28q2 2 6 0l5 -2q16 -16 20 -23v-16l2 -13q0 -2 -7 -17t-9 -17q2 -4 2 -31t-2 -31q0 -2 8 -4l6 -4q6 -10 8 -14q2 0 13.5 -7.5t17.5 -9.5q2 0 50 6t54 9h13.5t15.5 4 q55 31 72 36l22 23q10 6 41 43l2 4l15 21q2 4 2 22v13.5v11.5q8 29 6 30l2 9q4 6 6 13t2 11v53q-6 6 -25 78q-2 2 -11 34t-15 38q-4 2 -27.5 47t-32.5 53l-22 37q-10 10 -41 72q-8 10 -35 67l-24 60l-2 6q-20 51 -17 63q0 2 -2 16.5t-4 32t-4 25.5q0 8 1 25.5t1 32.5v14 q0 35 4 45q-2 4 -2 18v15l10 41q10 31 43 63l4 10l23 31q6 2 16 12.5t10 14.5l72 55q33 6 90 47q2 0 17 4l14 4l12 2q12 2 27.5 4t23.5 2q29 4 64 5l16 -2q18 -2 23 -3q10 0 27.5 -3t31.5 -5l13 -2q4 0 20 -7t21 -13q12 -4 38.5 -19.5t30.5 -19.5q45 -45 49 -57l2 -9 q2 -10 4.5 -22t4.5 -17q0 -4 1 -17t1 -24l2 -10q0 -2 -2 -14t-5.5 -28.5t-3.5 -20.5q4 -6 -6 -17l-22 -24q-6 -2 -11 -2q-2 0 -6 1l-4 1l-8 2q-10 2 -14 2l-11 4q-2 2 -22 8l-21 6l-22 13q-4 2 -8 8t-2 8l-25 119q-14 8 -20 8l-33 4q-39 0 -45 -2t-22.5 -7t-28.5 -7l-15 -4 l-30 -17q-29 -18 -37 -24q0 -2 -8.5 -15.5t-10.5 -17.5l-12 -10l-31 -39q-12 -18 -18 -49q-2 -8 -2 -14.5t2 -15.5t2 -11q-6 -6 -6 -41q0 -2 2 -12.5t5 -25t3 -24.5v-2v-6q4 -8 12 -35l11 -26q4 0 16 -35l16 -33l62 -111l78 -135q2 -2 7 -18.5t11 -30.5t8 -16q2 0 4 -4.5 t4 -6.5v-4q4 -4 9.5 -42t7.5 -42q0 -4 2 -30.5t2 -30.5q4 -18 6 -25l-4 -32q2 -6 -12 -74l-19 -31q-2 -8 -17.5 -37.5t-21.5 -38.5l-12 -24q-4 -2 -45 -58q-2 2 -14.5 -9t-14.5 -11q-20 -18 -30 -21q-2 0 -13.5 -7t-27 -16t-17.5 -11q-4 0 -11 -4.5t-13 -8.5l-9 -4l-39 -10 l-65 -14l-127 -11l-61 2l-13 7q-12 6 -25.5 12t-17.5 6q-18 4 -18 6q-2 0 -18.5 15.5t-18.5 15.5l-4 4q-4 2 -4 4l-27 21l-33 43v6q-2 8 -3 16t-1 12z" />
<glyph unicode="T" horiz-adv-x="1110" d="M244 -16l35 57h4q4 2 9 4t9 2q8 8 25 8q41 82 55 135q10 10 10 33l43 131l33 95l12 40l10 25l31 94q4 6 28.5 64.5t29.5 64.5l26 97q8 14 16.5 41.5t14.5 46.5l4 20l27 98h-40h-46.5h-24.5h-76q-49 -6 -78 4q-2 0 -13 -1t-21 -1h-11q-4 0 -29.5 1t-27.5 -1q-4 2 -10 7 h-10q-2 2 -19 6l-16 4q-2 0 -7.5 5t-9.5 9t-6 4l-2 4q-6 6 -4 9l-12 75q0 14 4 31q0 4 4 16l4 11q0 8 12 8l11 2q12 2 14 4h61q4 2 80 2h19q29 -12 73 -6q16 0 49 1t60 3h27q2 0 28.5 -1t30.5 -1q2 0 46 3t52 1h592q10 0 31.5 -7t23.5 -11l11 -11q10 -10 12 -10q2 -2 1 -8 t-1 -13.5t2 -7.5v-47q0 -6 -8 -24l-10 -19l-41 -14q-4 0 -30 -2t-30 -2q-14 0 -68.5 -1t-99.5 -1t-69 2q-14 0 -88 -2t-88 -2q-10 0 -21 -10l-4 -7q-2 -6 -4 -13t-4 -11q-8 -25 -33 -90q-2 -6 -5 -20.5t-3 -16.5l-33 -113q-2 -4 -14.5 -44t-23.5 -72.5t-15 -43.5 q-4 -12 -27.5 -70.5t-30.5 -66.5l-18 -67l-6 -15q-4 -14 -6 -16l-74 -221l-16 -39q-4 -39 -19 -66q-2 -8 -11 -28.5t-18.5 -42t-11.5 -23.5q-8 0 -31 -43q-2 -2 -8 -9t-10 -13l-6 -7q-2 -4 -12.5 -14t-22.5 -20l-12 -13h-8l-7 -2l-16 4q-6 0 -27 11q-68 23 -67 30 q-6 2 -37 41l-12 19v37z" />
<glyph unicode="U" horiz-adv-x="1048" d="M82 57l2 37q0 25 10 66q0 8 4 30.5t4 24.5t8.5 30.5t8.5 33.5q10 20 10 36q18 63 39 121q0 2 8 26.5t8 26.5q2 8 23.5 75t23.5 73q10 37 19 55q16 63 55 156q2 8 19 57q6 23 36 101l19 55q8 16 8 18l19 19q8 2 40 2q41 0 41 -2q31 -14 48 -29q16 -6 26 -27l10 -28v-15 v-12l-18 -37q-2 -4 -8 -18t-12.5 -27.5t-6.5 -17.5q-2 -2 -6 -14.5t-4 -14.5t-8 -22.5t-10 -22.5t-6.5 -14.5t-4.5 -14.5q-4 -20 -45 -118q0 -2 -8 -23.5t-10 -24t-6 -18.5t-4 -18q0 -4 -16.5 -54.5t-18.5 -56.5q0 -2 -4 -18.5t-10 -34.5l-5 -21q-10 -10 -10 -26 q-2 -2 -6 -18.5t-4 -18.5q0 -12 -27 -74q0 -2 -4 -10l-4 -8q-2 -4 -6 -33t-4 -33t-8 -45t-11 -45q2 -8 3 -10h8q2 0 28.5 26.5t62.5 63.5t54 57q14 10 66 74q55 63 82 111q14 14 28 47q2 4 17.5 30.5t19.5 32.5q45 80 47 84q31 53 45 90l82 185q4 6 32 66.5t34 70.5 q14 47 28 55l5 4q4 4 4 6l4 8q4 8 4 10.5t4 14.5t4 14q12 20 39 74q4 12 18 27l29 26q29 25 37 29q0 8 16 8q10 2 15 2q2 0 8 -2h6q2 0 18 -8q35 -29 35 -37q2 -12 2 -20l-2 -25q0 -25 -8 -57q-6 -14 -8 -17q0 -2 -8.5 -14t-10.5 -14q-8 -16 -10 -19l-4 -18q-4 -16 -4 -19 q-4 -4 -21 -36q0 -2 -4 -15l-4 -12q0 -2 -8 -18.5t-8 -18.5q-2 -2 -6 -12t-9.5 -21.5t-5.5 -13.5t-4 -10l-4 -8q-2 -6 -18.5 -41t-18.5 -41q-2 -4 -22.5 -54.5t-24.5 -56.5q-8 -16 -10 -18q0 -2 -4 -7l-4 -4q-10 4 -15 4v-49q-59 -129 -86 -184l-10 -18l-8 -15 q-10 -14 -18.5 -26.5t-10.5 -14.5q-4 -6 -31.5 -52t-31.5 -50l-6 -8q-8 -8 -17.5 -20.5t-13.5 -16.5q-4 -2 -24.5 -27.5t-22.5 -28t-9.5 -13.5t-7.5 -13l-212 -213l-27 -19q-68 -37 -84 -45q-16 -2 -21 -2l-24 2q-27 4 -74 27q-16 12 -57 57l-8 17q0 2 -8.5 22.5t-8.5 24.5 l-10 26q-2 25 -2 37z" />
<glyph unicode="V" horiz-adv-x="1114" d="M225 524v68l2 49q0 57 11 119q0 23 4 84l4 63v166q0 20 8 45q10 20 18 29h13h16q2 0 11.5 -2t20.5 -5t13 -3t13.5 -4.5t15.5 -6.5q10 0 18 -8l8 -8q8 -8 29 -18q6 -12 19 -19q18 -27 18 -29v-24v-31q0 -68 -10 -119q0 -2 -4 -14t-4 -14q-6 -20 -19 -101q-10 -45 -10 -100 q0 -2 -1 -31.5t-1 -66.5v-56q0 -12 1 -75.5t1 -75.5q0 -2 4 -25.5t6 -27.5q0 -4 8 -21l8 8l12.5 12.5l8.5 8.5q2 4 18.5 22.5t18.5 22.5l4 8q4 10 4 12q20 20 74 109q2 4 14 23.5t14 23.5q12 20 63.5 103t55.5 90q35 53 64 102q10 14 43 61l30 47q66 94 113 148q2 2 74 84 l20 20l15 17q33 25 112 73l17 9q41 8 73 8q2 0 8.5 -3t12.5 -8.5t8 -5.5q8 -16 8 -18v-14q2 -14 2 -19l-2 -30q0 -12 -8 -21q-10 -10 -57 -61.5t-54 -57.5q-78 -84 -82 -92q-8 -4 -28 -37q-51 -74 -74 -110q-2 -2 -37 -64q-8 -16 -8 -18t-4 -14.5t-6 -14.5l-37 -37l-18 -37 q0 -2 -5 -6l-4 -4q-2 -2 -14 -27.5t-14 -27.5q-20 -20 -37 -53q-4 -6 -28.5 -56.5t-27.5 -56.5l-26 -35l-10 -10q-25 -49 -29 -53q-2 -4 -14.5 -20.5t-12.5 -18.5l-20 -35q-23 -35 -27 -39q-2 -4 -26.5 -41t-26.5 -41t-14.5 -23.5t-14.5 -21.5q-4 -6 -27.5 -56t-27.5 -57 l-8 -8q-16 -16 -37 -26q-10 -10 -18 -11h-11q-12 -2 -14 -2l-23 2q-16 8 -36 29q-10 0 -19 8q-2 2 -13 18.5t-14 18.5q-6 10 -28 55q-8 16 -8 47l-4 17q-4 16 -7 18q-2 12 -14 67.5t-12 61.5q-8 49 -8 58q-10 57 -11 127l-2 24v50.5v39.5z" />
<glyph unicode="W" horiz-adv-x="1789" d="M147 66v19v26l3 10q0 33 10 84q0 20 8 53q0 4 4 24.5t4 24.5q0 2 4 26.5t4 26.5q2 8 12.5 46t21.5 81t15 58q0 4 8.5 32.5t8.5 32.5q2 4 27.5 75t29.5 81q0 4 8.5 28.5t8.5 26.5t8 22.5t10 22.5q4 10 16.5 46t12.5 38q8 16 8 54q0 4 3 13t5 16t2 9t8 15l9 12q2 2 6 14.5 t4 14.5l18 18q2 0 6 3t9 5l4 2h28h27q2 0 17.5 -9t19.5 -11q41 -20 65 -45l4 -8q4 -8 8.5 -16.5t4.5 -12.5v-4v-6q0 -6 -4 -27l-5 -18q0 -2 -12 -26.5t-14 -29.5q-25 -49 -29 -65l-45 -90q-4 -4 -15 -33t-14 -33q-20 -45 -26 -74q-14 -37 -29 -92l-18 -73q-2 -2 -6 -31 t-4 -33q0 -2 -4.5 -14.5t-4.5 -14.5t-5 -23.5t-9 -41t-4 -27.5v-4v-6q41 41 47 49q12 12 37 45q10 14 93 132t89 126q4 2 23 25l16 20l16 25q16 27 19 31q8 8 43 56t41 54q2 0 17.5 19.5t36 46t28.5 35.5q31 41 47 57q68 68 72 74q2 0 9 5t16 11t13 8q2 2 8.5 7.5t12.5 9.5 l6 4l37 18q2 2 17.5 6t19.5 4h18h19q2 0 22.5 -4t22.5 -6q2 0 6 -2t8 -5t6 -3q25 -25 27 -29q2 0 18 -12l19 -12q18 -18 18 -21q4 -4 10 -28v-3v-6q-8 -61 -10 -63q0 -10 -18 -47q-27 -80 -27 -82q-2 -2 -6 -27.5t-4 -27.5l-19 -37q0 -2 -4 -19l-4 -18q-4 -6 -20 -56 q0 -4 -8.5 -36.5t-8.5 -36.5l-18 -56q-10 -43 -19 -129q-2 -16 -2 -22q0 -2 2 -12v-11l9 9l4 6q4 6 8 13t6 9q8 8 27 45q4 6 20.5 34t18.5 32q33 66 73 137q4 10 49.5 101.5t51.5 101.5q20 39 37 63q18 37 28 47l8 9q0 2 4.5 14t4.5 14l8 13q8 12 17 28.5t14 22.5 q10 31 26 47q12 16 45 65l66 82q16 16 18 17q23 16 74 39h2h8q51 -8 53 -11q12 0 37 -18q8 -8 8 -10t2.5 -17.5t2.5 -17.5q0 -6 -3 -23l-2 -16q-10 -20 -16 -25q-2 -4 -18 -20l-19 -21q-16 -23 -20 -24l-8 -8q0 -2 -6.5 -10.5t-12.5 -17.5t-8 -11t-10 -15l-9 -12 q-2 -4 -18 -24.5t-18 -22.5q0 -2 -4 -10l-5 -8l-8 -13q-10 -12 -12 -14q0 -2 -4 -14.5t-4 -14.5q-35 -59 -56 -108q0 -8 -10 -29q0 -10 -18 -29l-8 -8l-11 -16q-8 -18 -16 -34.5t-10 -23.5q-2 -4 -13.5 -32.5t-15.5 -32.5q0 -2 -4 -14.5t-10 -26.5l-4 -14q0 -2 -4 -9 q-4 -6 -5 -10q0 -2 -12 -22.5t-14 -22.5q-4 -4 -15.5 -27.5t-13.5 -27.5q0 -2 -21.5 -48t-23.5 -52q-25 -41 -74 -140q-14 -14 -47 -73q-35 -53 -37 -54q-2 -4 -36 -39q-8 -8 -27 -8q-37 -18 -39 -18h-8h-8l-37 18q-45 23 -45 29q-8 2 -39 53q-2 4 -10.5 23.5t-8.5 23.5 q0 2 -8 18.5t-8 18.5q-2 2 -4 9t-4 16.5t-2 11.5q0 4 -4 43t-7 47v16v13q0 6 4.5 50t6.5 52q0 2 4 24.5t6 30.5q0 8 8 49.5t8 43.5t4.5 17t4.5 17q10 20 10 29q0 2 9 37t18.5 65.5t11.5 36.5q0 2 4 11l4 8l4 16q4 16 4 18.5t4 14.5t4 14v10v9q-2 -4 -24 -27q-23 -18 -74 -84 q-20 -20 -29 -37l-18 -18q-18 -18 -55 -74q-43 -57 -56 -82l-10 -10q-33 -49 -45 -74q-14 -20 -45 -66t-56.5 -84t-27.5 -42t-33 -37t-33 -37l-4 -8q-4 -8 -4 -10l-10 -11l-27 -53q0 -4 -28 -39q-2 -2 -18.5 -22.5t-16.5 -22.5t-8.5 -14.5t-10.5 -14.5q-4 -6 -31.5 -40.5 t-33.5 -41.5l-19 -18l-12 -6l-16 -8t-17 -9l-8 -4l-8 -2q-10 -2 -12 -2t-11 2l-8 2l-10 7q-12 8 -26.5 16t-18.5 12q-6 12 -18 19q-35 49 -35 55q0 2 -10 57q-3 40 -3 54z" />
<glyph unicode="X" horiz-adv-x="1323" d="M-195 -61v30q104 133 150 178q8 12 68 72q20 16 153 141q2 4 10.5 11.5t15.5 13.5t9 8l6 4q8 6 14.5 11.5t6.5 7.5q8 4 69.5 60t67.5 61l10 8q12 10 14 12q37 25 45 33l50 49q33 25 69 61q16 16 17 21v12q-2 4 -2 17q-10 10 -11 14q-10 14 -34.5 51t-43.5 64l-18 26 q-23 23 -39 35q-2 0 -16.5 7t-28.5 16l-14 8q-8 4 -21 16q-23 45 -22 53l-2 15v18q0 20 -4 33q0 2 18 20q16 0 23 2q4 0 16 2h14q23 -4 29 -8q4 0 23.5 -6t23.5 -6q4 -2 13.5 -6t17.5 -6l8 -4q6 -4 49 -40t51 -44q20 -20 39 -52q2 -2 13.5 -17t25.5 -34.5t19 -25.5 q0 -2 9 -18.5t9 -18.5q4 2 6 2h2q6 4 24.5 20.5t20.5 20.5q117 109 137 123q2 0 8.5 4t8.5 4q2 4 20.5 20.5t24.5 20.5q4 6 31 33q80 63 86 73q8 2 45 31q2 2 17 11.5t17.5 9.5t13.5 10t13 10l33 23q2 0 18.5 5t20.5 5h2l6 2q4 0 14.5 -1t19.5 -2t11 -1q39 -6 47 -15 q39 -25 43 -34l6 -82l-10 -11q-8 -6 -60.5 -38.5t-60.5 -36.5q-14 -14 -96 -72q-18 -18 -86 -74q-20 -20 -61 -51l-31 -31q-2 -2 -13.5 -11t-13.5 -11t-21.5 -18.5t-21.5 -18.5q-4 -4 -19.5 -17.5t-17.5 -15.5q0 -2 -14 -13t-28.5 -23.5t-16.5 -14.5t-8 -9t-11.5 -13.5 t-5.5 -8.5v-10v-8q20 -37 84 -187q43 -109 47 -114q4 -18 13 -27l8 -18q8 -2 10 -2l8 4l9 4q8 6 10 6q4 2 6 2l2 -2q16 -6 22 -16q0 -4 2.5 -24.5t2.5 -25.5q0 -6 1 -18t3 -23v-10q0 -10 2 -76.5t2 -78.5q-16 -16 -17 -23q-4 -2 -12 -9t-16 -13l-6 -7q-16 -4 -23 -4h-25 l-14 11l-14 12q0 2 -14.5 9t-14.5 9q-29 29 -31 33q-10 27 -26 90q0 2 -5 18.5t-8 20.5q-2 2 -12 25.5t-10 25.5q-10 18 -47 117q-2 2 -37 90q-4 12 -15.5 33.5t-19.5 38t-10 16.5l-16 -2q-2 0 -107 -84q-2 -2 -28.5 -24.5t-28.5 -26.5q-2 0 -14.5 -9.5t-14.5 -9.5 q0 -2 -7 -6t-7 -6q-2 -2 -10.5 -10t-8.5 -10q-2 -2 -21.5 -16.5t-21.5 -16.5t-17.5 -14.5t-17.5 -14.5q-8 -8 -8 -12q-8 -6 -28.5 -26.5t-37 -36t-20.5 -17.5q-2 -2 -21.5 -15.5t-21.5 -15.5l-26 -26q-25 -27 -55.5 -58.5t-45.5 -46.5q0 -2 -8 -10q-2 -2 -7 -11t-11.5 -18.5 t-8.5 -11.5l-4 -2q-2 -2 -6 -4l-4 -2q-2 -2 -4 -11.5t-4 -9.5l-4 -4q-4 -4 -4 -6t-2 -6l-4 -8l-2 -4q0 -39 -5 -47q-2 -2 -5 -9.5t-7 -12.5t-6 -7l-10 -6q-14 -4 -13 -6l-20 -11q-10 -2 -12 -2q-14 0 -17 -2l-24 7q-2 0 -13.5 9t-27 19t-21.5 15l-6 4q-4 4 -4 6q-8 12 -8 14 q-4 4 -8 17l-6 12l-3 14q-2 15 -2 19z" />
<glyph unicode="Y" horiz-adv-x="1200" d="M-76 -322l2 41q0 14 11 19q0 2 12 18.5t12 20.5q2 2 23.5 30.5t25.5 32.5l4 4q4 4 4 6q4 2 29 31t27 33q8 10 34.5 41t28.5 33q10 10 56.5 60t54.5 58q2 2 12 12.5t23 22.5l12 13q74 74 119 129q66 74 74 82t8 18v4v4q0 23 -27 103q-2 4 -10 32.5t-8 30.5l-5 21 q-6 18 -10 34.5t-4 18.5l-16 45q-16 43 -21 57q0 2 -8 21.5t-10 23.5q-25 57 -29 64q-4 18 -18 39q-10 23 -56 92q0 2 -8 14t-10 12q0 4 -8 29q-18 49 -19 64v18v18q8 16 11 19q0 8 16 8h6q6 2 10 2l13 -2q47 -6 73 -18q14 -6 74 -74q2 -2 14.5 -17.5t14.5 -17.5 q2 -6 26 -55q0 -2 5 -6l4 -4l10 -19q0 -2 12 -29.5t17 -33.5q0 -4 8 -24.5t8 -22.5q2 -6 8 -21.5t12.5 -33t8.5 -19.5q8 -16 8 -27q10 -20 10 -39q10 -43 37 -108q8 -25 8 -37h2q2 -2 4 -2l4 2q2 0 13.5 12t15.5 14q2 2 18.5 24t16.5 24q59 59 92 100q2 2 14.5 22.5 t14.5 22.5q0 4 17 26.5t41 53.5t32 41q33 41 39 47q4 2 32.5 35t30.5 37q84 102 111 129q2 4 23.5 29.5t23.5 27.5q16 16 18 16q2 2 8.5 6.5t8.5 4.5q47 -10 65 -19l6 -4q4 -4 11.5 -8t9.5 -6q2 0 10 -8l37 -48l2 -18v-23q0 -4 -1 -21t-1 -19q-8 -10 -55 -60.5t-56 -60.5 q-82 -90 -84 -92q-4 -4 -53 -66.5t-55 -73.5l-18.5 -18.5t-18.5 -16.5q-12 -12 -21 -28q-4 -4 -22 -27.5t-23 -28.5l-45 -45q0 -2 -4 -10l-4 -8q-12 -12 -20 -29l-19 -18q-90 -98 -92 -100l-4 -9q-4 -8 -4 -10l-29 -29q-2 0 -10 -12t-8 -14l-137 -137q-2 -2 -30 -34 t-63.5 -73t-54.5 -59q-31 -41 -63 -74q-23 -16 -39 -39q-33 -33 -82 -90q-2 -4 -22.5 -27.5t-22.5 -27.5q-25 -33 -29 -37q-12 -18 -18 -37q-8 -25 -9 -37v-29l-8 -16q-8 -16 -10 -18l-10 -11q-8 -8 -19 -8q-25 -10 -55 -10q-16 0 -27 10q-2 0 -15 9.5t-28.5 20.5t-21.5 15 l-8 8l-4 9q-4 8 -4 12q-10 10 -11 27v18q-2 18 -2 22z" />
<glyph unicode="Z" horiz-adv-x="1015" d="M-119 57q0 4 1 22.5t1 22.5l11 11q139 139 237 229q33 33 37 39q6 4 53 55t49 53q8 8 9 11q137 145 139 145q20 31 45 55q8 10 83 97.5t83 97.5q92 111 108 137q10 6 21 37h-4h-6q-2 0 -21.5 -4t-24.5 -4q-33 -8 -36 -8q-2 0 -13.5 -5.5t-21.5 -9.5t-13 -6l-12 -4 q-12 -4 -14 -4l-35 -17.5l-39 -19.5q-53 -33 -65 -37q-2 -2 -27 -18.5t-27 -18.5q-2 0 -7 -2t-9 -4l-4 -2q-16 -2 -23 -2q-2 0 -12 2h-10q-4 0 -29 8q-2 0 -10 5l-8 4l-4 4q-4 4 -4 6l-5 8q-4 8 -4 10q-10 16 -10 29v41v41q16 16 19 16q12 12 36 29q12 12 29 20q63 33 74 35 q6 4 33.5 15.5t29.5 13.5q78 23 137 45q2 0 15.5 4t29 8t21.5 6q35 8 37 11q49 8 65 8q35 2 48 2l43 -2l73 -19q10 0 19 -8q55 -55 63 -65q0 -4 1 -20.5t1 -20.5q0 -6 -1 -15.5t-1 -17.5v-8q0 -4 -16 -37q-20 -33 -37 -66q-2 -2 -30.5 -37.5t-64.5 -79.5t-53 -65l-10 -10 q-4 -6 -31.5 -37t-31.5 -37q-2 -2 -13.5 -15.5t-20.5 -24.5t-11 -15q-20 -20 -29 -37l-14.5 -14.5t-14.5 -12.5q-2 -2 -18 -22.5t-19 -24.5q0 -2 -4 -10l-4 -8l-65 -66l-4 -6q-4 -6 -9 -14l-6 -6q-4 -6 -23.5 -30t-21.5 -26q-147 -147 -176 -174q-2 -4 -18 -28l-4 -9 q-4 -8 -4 -10h4h4q12 4 59 15.5t53 13.5q2 0 27 8t27 10h10q2 2 18.5 6t18.5 4t22.5 4.5t22.5 4.5t16 4l12 4l33 4q31 4 41 4l90 10q53 0 84 -10q6 0 56 -16q2 0 6 -2l8 -4l4 -3q27 -20 55 -57l8 -16v-8l3 -9l-3 -12q0 -2 -34 -29q-25 -8 -29 -8h-129q-2 0 -24.5 -4 t-28.5 -4l-21 -4q-18 -6 -34.5 -10t-18.5 -4q-31 -10 -47 -11q-111 -20 -119 -28q-8 -2 -72.5 -23.5t-66.5 -21.5t-18.5 -4.5t-36.5 -8.5l-19 -6q-2 -2 -10 -6l-8 -4q-4 -2 -15.5 -6t-21.5 -6l-8 -4q-4 0 -23.5 -4.5t-23.5 -6.5l-74 -18h-15q-12 -2 -16 -2t-18 2h-15 q-2 0 -11 2t-16.5 4t-9.5 4q-4 2 -28.5 17.5t-28.5 17.5q-2 2 -8 9t-11 12.5t-5 7.5q-10 10 -11 28q-2 33 -2 45z" />
<glyph unicode="[" horiz-adv-x="831" d="M-109 -285l-2 4q0 10 9 27v-2l18 16q4 12 10 17q0 25 31 63l2 17q2 2 5 6t5 6q6 12 15 20q29 74 75 185l47 116q0 2 9 15q10 25 10 28l6 17q6 18 6 22l15 21q2 2 7 16.5t11 32.5t8 25q2 14 35 94q10 29 14 37l-2 -2q0 2 6.5 20.5t6.5 22.5l6 14q4 18 8 33q4 20 4 22t8 28 t15.5 48.5t7.5 30.5q27 61 26 69q4 8 82 193.5t97 234.5l12 21q8 16 12 20q0 16 10 33q2 4 7.5 14.5t7.5 12.5q4 4 8 12l2 4q0 2 16 29l2 14q4 14 9 25v-2q2 4 4 10t4 8v2l2 17l18 12q10 0 15 2q6 2 16 2l29 -4h-2l24 -6l6 -4h129q4 0 35 6q6 0 19 4h16q10 0 10 6 q16 0 49 14l15 9h34q8 0 21 -7v2q8 -4 25 -4q18 -18 28 -24q16 0 17 -13l12 -8q16 -12 18 -20l11 -10v-17l-3 -14q-6 -6 -8 -10q-18 -25 -24 -25t-6 -14h-19q-10 -8 -35 -9h-20l-35 9h-10q-20 0 -37 8q-37 -8 -94 -8h-47h-21h-14q-8 -8 -10 -9q-6 -6 -7 -4q-41 -57 -59 -94 q-20 -41 -29 -53q0 -6 -10 -31q-6 -8 -6 -12q-2 -6 -7 -18.5t-12.5 -31t-13.5 -32.5q-18 -49 -33 -72q0 -4 -41 -104l-16 -47q-8 -16 -12 -31l-15 -35q0 -6 -6 -18l-6 -15q0 -16 -10 -24q0 -12 -12.5 -51t-18.5 -47q0 -4 -9 -33t-9 -33q-10 -10 -10 -47q-10 -6 -11 -18 l-14 -43l-12 -33q0 -16 -15 -37q-8 -37 -28 -72v-8q-4 -6 -6 -10l2 2q-4 -8 -5 -15l-8 -14q0 -4 -3 -13t-3 -13l-8 -27l-2 -2q-2 -4 -4 -11.5t-4 -13.5l-11 -20l3 2q-2 -10 -22.5 -56.5t-20.5 -58.5l-15 -22l-8 -15l-6 -22q-2 -6 -10 -27l-9 -20q0 -4 -7 -20.5t-11 -29.5 q-10 -27 -18 -38v-2l-5 -17h7l18 8l96 21q43 0 60 12l18 2q10 4 31 8q6 2 14 4t15 5l4 2l8 2l33 12q4 0 15 3t21.5 5t12.5 2h24l6 -2h11h16l16 -10q0 -2 11 -2l6 -19q6 -6 6 -22q0 -18 -6 -23l-17 -28l-16 -17v-2l-33 -18q-6 0 -10 -2h-12q-10 -8 -33 -8l-10 -2 q-10 -2 -23.5 -4.5t-21.5 -2.5l-13 -4l-28 -2h2q-25 -8 -39 -8q-8 0 -29 -6q-33 -8 -37 -8h-4q-6 -2 -8 -2l-78 -19q0 -6 -16 -6l-2 -2q-2 0 -5 -1t-10 -1l-24 -6h2q-18 -6 -33 -12q-47 0 -63 -11h-37q-16 6 -23 11q-16 4 -20 10l-21 12q-6 6 -26 35q-9 16 -11 18z" />
<glyph unicode="\" horiz-adv-x="1026" d="M776 -510l-12 -35q-51 -51 -70 -59l-22 -14l-19 -7l-26 2l-21 -2l-35 21l-30 31q-8 6 -23 32l-6 29l2 10l-2 -6l-2 27q2 14 8 22l2 4q2 4 4 9q12 23 23 28q4 4 4 8v9v-5l4 41h2v19l-2 24v-2l2 -4v39l-4 53q2 2 3 27t-1 29v35l-4 36q-2 6 -4 15l2 -2q-6 12 -2 16h2v17.5 v15.5l-2 6q-10 137 -27 264q0 31 -6 39q2 14 0 35.5t-2 26.5l-4 16q0 -4 -4 4h2l4 16l-16 33l2 25l-4 31l-17 28q10 4 10 12v-2q0 2 -4 11l-4 8v31q-8 23 -2 28l-4 8l-12 41l-4 21q-2 2 0 10h2v14l-11 33v6q-2 6 -5 15.5t-3 15.5q-2 4 -3 10t-2 11.5t-2 11.5t-1 8 q0 31 -12 80l-4 29l-11 30l3 11l-3 14l3 -6l-7 10v20v-2l-12 64l-10 65l-17 84l-12 99l8 -13q-8 10 -8 31v-10l-4 14v-6q0 2 -1 5t-3 5l-10 82l-13 72q-2 20 -19 123.5t-24 120.5l2 30q2 12 7 15l2 12v-6q2 6 32 26q4 0 23 5l18 4l35 -4q6 -2 17.5 -1t11.5 -1l31 -11 q4 -10 4 -35l4 9q10 -113 14 -150v-12l2 8v-8l4 -8l6 -35v10l5 -20q-2 -2 0 -9.5t2 -9.5q-2 -4 6 -26l-2 6l18 -95l6 -59l10 -43q0 -2 1.5 -9t3.5 -11v-4l8 -48l28 -147l9 -68l16 -106q2 -4 4 -14.5t3 -21.5t1 -15v4q14 -14 10 -43q0 -2 2 -6q6 -16 19 -95v5l4 -21l2 -16 l14 -78l19 -76l2 -41l2 -29q0 -4 3 -11t3 -9v2l6 -33q-6 -6 6 -26l2 -19q0 -6 4.5 -35.5t7.5 -56.5t3 -25l4 -47l8 -55l6 -61l6 -48l11 -176v-20v-60v3v-99l2 -16l-2 -43v-27l-2 4v-16q4 4 2 6l2 -2v-8l2 -2q10 -4 22 -43v2q2 -2 2 -16.5t-2 -16.5zM346 1270l2 -2zM750 -420 q2 -2 0 -4v4zM348 1276l-4 -2z" />
<glyph unicode="]" horiz-adv-x="940" d="M-215 -229l10 12q31 12 43 12l21 4q18 6 45 6l18 5q18 -4 21 -5q16 -2 16 -6q10 0 14 -2t9 -2q63 0 77 -6h58h16q2 0 4 2t4 2l33 2q14 0 35 4h12l19 6q2 0 2 2l2 5q2 0 2 2q2 10 6 18l8 21q0 8 12 32v6v7l15 20l-2 -2q6 31 24 68h-2q25 49 29 51l10 -4q0 6 -1 12t-1 10v8 l-2 5l2 8l4 14q10 16 10 21q0 12 7 30q4 4 4 8q0 2 2 7.5t3 9.5t1 8q12 12 12 27l10 32q2 8 6.5 19.5t6.5 17.5t2 11q2 4 13 38.5t11 38.5q0 18 8 39l7 17v-2v6l2 4l2 6q2 6 2 8q0 6 4 10v-2l8 31q6 20 8 25q4 18 15 22q2 8 8 27l8 14l10 29v2l2 6q18 27 37 94l12 37l11 12 q10 47 28 86q2 4 5 11.5t3 9.5t4.5 11t4.5 13l10 29q14 37 16 39l4 6l2 4q8 10 9 21q10 20 10 35q23 55 41 137v-2q0 12 4 16v-2q2 8 2 16q0 12 10 33l-63 19h2q-39 6 -51 6q-8 8 -25 8h-10q-12 2 -33 2l-33 6l-10 2h-184q-6 0 -13 -2q-14 0 -32 -6h-21q-10 -2 -29 -2h-20 l-6 -6l-6 10q-6 -12 -25 -12q-12 -6 -31 -6l-6 -2h-8h-12l-33 2q-10 6 -16 6l-17 14q-12 25 -12 29l-2 4v8q0 2 -4 10v6q0 2 2 9l2 6v4q2 4 2 6q14 4 14 23h35q2 0 9 1t12 1h8q2 0 10 2t14 3t9 3h32q8 2 49 2h9q2 0 7 1t9 1h16q18 8 54 8h28l33 4h41q4 0 24.5 -1t32.5 -1 q2 0 12.5 -1t12.5 -1h29q14 0 47 -4l32 -6h13l35 -12l-4 2q37 -8 55 -11q37 -6 39 -6q4 0 16 -4l21 -2q8 -2 12 -8v2q12 -4 16 -6q12 -4 15 -4l34 -25l4 -2q8 -16 27 -22q6 -20 6 -27v-18l-2 -11q-4 -10 -7 -21t-3 -16q-8 -37 -12 -49q-2 -14 -10.5 -40.5t-12.5 -39.5 q0 -4 -6 -22l-6 -14q0 -2 -1 -7.5t-1 -9.5v2l-10 -33l-2 -4q0 -2 -5 -10l-6 -14q-8 -33 -8 -35l-8 -8h2l-4 -17l-8 -14l-4 -23l-23 -61l-8 -20q-23 -59 -25 -62q-8 -31 -14 -37v-10l-16 -27q0 -16 -7 -26q-2 -6 -36 -101v2l-15 -38q-6 -31 -16 -39l2 4l-23 -66 q0 -23 -12 -59q0 -18 -8 -29q-8 -25 -8 -31q0 -2 -6.5 -22.5t-11.5 -38.5t-5 -23q-4 0 -4 -18q0 -2 -2 -2t-2 -2q-2 -8 -7 -19.5t-5 -13.5l-2 -4q-6 -31 -11 -39l-6 -22q0 -2 -8 -20.5t-15 -37t-12 -28.5q-2 -4 -2 -11l-8 -6v-6q0 -12 -6 -16h2l-6 -17q-10 -31 -16 -47v2 l-9 -16l-6 -19q0 -4 -4 -16l-6 -14v-19q0 -14 -6 -22l-6 -29q-8 -16 -11 -16q-2 -2 -10 -7.5t-10 -7.5h2q-8 -6 -35 -6h-454q-41 0 -54 13l-6 8h2q-27 14 -33 24v6q-2 0 -5 4.5t-7 6.5v8l2 -4l-4 12q10 -10 10 6h-16v19zM-213 -250l4 -4z" />
<glyph unicode="a" d="M492 221v19q0 4 4 40.5t4 41.5v26v29q-20 -20 -27 -37q-12 -12 -29 -45q-2 -4 -45 -66q-18 -29 -55 -73q-4 -4 -20.5 -23.5t-18.5 -21.5q-27 -35 -63 -74q-8 -18 -37 -37q-45 -45 -55 -45q-18 -14 -56 -29q-2 0 -11 -2t-20.5 -5t-13.5 -3h-14h-15q-4 2 -28 10l-8 8 q0 2 -4.5 9.5t-4.5 11.5q-8 16 -8 27q-10 25 -10 47q-2 29 -2 39v18l2 16q12 39 18 54q0 4 4.5 15t8.5 22l4 8l102 205q2 2 14.5 22.5t14.5 22.5q6 16 37 63q2 6 17.5 28.5t33.5 49t22 35.5q8 16 27 35q33 39 66 65q2 2 26 18l37 19l12 2h18.5h18.5l15 -2q4 0 28.5 -9.5 t26.5 -9.5h57q0 -2 12.5 -10t14.5 -8q2 -2 18.5 -6t18.5 -4q4 0 19.5 -8.5t17.5 -8.5q25 -25 26 -28q10 -10 10 -37l3 -12v-31v-25v-41l-3 -30q0 -23 -10 -64q0 -8 -12 -83t-14 -83q-2 -6 -11 -110v-15v-14q8 -57 11 -64q2 -2 12 -13t14 -13q25 -8 66 -8q4 -2 11 -10.5 t7 -10.5v-74q-20 -12 -28 -18q-8 -8 -19 -8q-2 0 -18.5 -4t-18.5 -6h-18h-19q-2 2 -26.5 6t-26.5 4q-27 10 -37 18q0 2 -12 13.5t-14 15.5q-10 10 -19 27q-10 16 -18 47q-2 0 -10 34q0 6 -4.5 26t-4.5 22q-2 6 3.5 45t5.5 45v20zM469 602q-33 -23 -70 -67q-27 -41 -41 -58 q-12 -12 -55 -84l-94 -162v-16q8 16 27 29q6 6 48 61t48 62q2 4 27.5 34.5t27.5 34.5q0 10 12 29q2 2 9 20l6 19l43 71q0 2 6 15zM123 358q-8 -8 -8 -10q-2 -2 -2 -4l2 -4l8 8v6v4zM186 479q-8 -16 -8 -18v-6v-4q8 16 8 18v4v6zM205 514v-18l8 18h-8z" />
<glyph unicode="b" horiz-adv-x="811" d="M66 -76q0 6 -4.5 33t-4.5 33q0 2 -4 10l-6 8q-2 20 -2 29v16l2 10q0 8 10 9q2 2 27 10t27 8q35 18 36 21l13 4q14 4 16 4l8 4q8 4 11 4q10 10 26 18q25 16 37 29q25 14 45 35q78 70 84 74l166 166l10 20v4v4l-10 10h-4h-6q-2 0 -17.5 -4t-17.5 -6q-29 -6 -47 -18l-17 -13 q-16 -12 -20 -16q-6 -4 -47 -45q-2 -2 -11.5 -13.5t-19.5 -24.5t-14 -17q-2 -4 -14.5 -19.5t-14.5 -17.5q0 -2 -4 -10l-4 -9q-2 -4 -13.5 -22.5t-13.5 -22.5q-2 -2 -6 -9t-8 -13l-4 -6q-2 0 -10.5 -8.5t-10.5 -8.5q0 -10 -16 -10q-33 -8 -37 -10h-20h-17q-2 0 -14 4t-14 6 q-6 6 -9 10q-2 0 -6 11l-4 6q-2 4 -6 19.5t-4 17.5q0 16 -8 65v4v4q2 2 14 22.5t14 22.5q0 2 4.5 14.5t4.5 14.5t5 12.5t9 20.5t6 12q0 2 4 18.5t4 20.5q0 2 8.5 22.5t8.5 22.5q2 2 9 26.5t16 57.5t14 45q2 10 14 53t12 47q8 53 29 113q2 8 45 137q0 4 7 21.5t17.5 41 t12.5 29.5l4 9q4 8 6 8q10 31 18 47q4 8 10.5 24.5t10.5 28.5l6 12l19 19h4h6q2 0 22.5 -8t22.5 -10.5t14 -6.5t14.5 -4t18.5 -8l45 -29q2 0 2 -20q0 -23 -2 -25q-10 -20 -18 -28q-12 -16 -37 -74q-16 -33 -29 -66q-4 -16 -18 -45q-35 -113 -35 -118q-2 -8 -18.5 -75 t-20.5 -81l2 -17h10l6 -2q6 2 47 10.5t47 8.5h13h14q86 -8 92 -10q31 -10 74 -29l8 -8q2 -2 10 -6l9 -4q51 -45 55 -56q2 -23 2 -30q0 -6 -1 -23.5t-1 -20t-8 -26.5q-2 -4 -13.5 -27.5t-13.5 -27.5q-2 -2 -10 -13.5t-10 -13.5q-74 -82 -156 -156q0 -2 -74 -65 q-12 -12 -45 -37q-2 -2 -9 -7l-17.5 -12.5t-12.5 -9.5q-86 -59 -100 -73q-2 0 -21.5 -12.5t-23.5 -14.5q-2 -2 -18.5 -9t-18.5 -10q-10 -4 -37 -16l-29 -12h-12h-14q-6 2 -39 10q-14 6 -16 8z" />
<glyph unicode="c" horiz-adv-x="782" d="M51 301q0 6 2 21.5t2 17.5q16 66 25 82l20 35l43 73q20 31 31 41l12 15q12 14 15 16q10 8 44 38t36 32q4 4 47 33l20 10l8 8l39 18l58 23h26h23l18 -10l62 -31l18 -8l43 -43q16 -25 19 -29v-25l-5 -16q-8 -16 -41 -41q-8 -8 -26 -8q-16 -2 -25 -2q-4 0 -12 2h-10 q-2 0 -19 8l-16 23h-12h-11l-4 -2q-4 -4 -8 -7.5t-6 -3.5q-10 -4 -35 -22l-24 -19q-90 -90 -109 -106l-20 -33q-20 -31 -21 -43q-27 -47 -27 -69l-2 -17q-2 -16 -2 -20t2 -15.5t4 -21.5l3 -8q0 -4 5 -19.5t5 -17.5q0 -4 10 -16.5t14 -16.5l13 -10q33 -16 36 -17l9 -2h18 h18.5h25h28.5l14 2q14 0 72 17l37 10q172 72 176 72q2 0 78 51l79 61q18 12 78 25q20 -14 37 -47l19 -51l-13 -41l-30 -41l-17 -11l-63 -51q6 -2 -71 -44t-85 -44q-4 -2 -38 -13t-38 -13l-22 -5l-86 -28l-53 -13l-13 -4l-12 -2q-31 -10 -68 -10l-14 -2q-12 -2 -16 -2h-19 l-14 2l-62 10q-4 0 -15 3t-20.5 5.5t-11.5 2.5l-67 49l-19 10q-14 12 -51 61l-22 60l-13 61q-4 16 -4 80v43z" />
<glyph unicode="d" horiz-adv-x="905" d="M-39 96q0 43 2 45q0 10 19 66q0 2 8 25.5t8 27.5q2 4 7 16.5l9 22.5l4 8q20 41 54 82q2 4 15 18.5t28.5 32t21.5 23.5l37 37q8 6 83 64.5t83 64.5q2 2 22.5 18.5t22.5 18.5q2 0 4 2q12 6 17 8q2 0 14 4l12 4q25 8 55 29q2 0 28 3t28 5l28 29l7 12q8 10 10 14 q25 37 57 103l27 53q2 4 14 32.5t12 32.5q4 6 34 63.5t32 65.5q41 123 45 140q2 4 10 23.5t8 21.5l19 18q2 0 14 -10l14 -8h9q45 -8 47 -11l8 -4q8 -4 10 -6q4 -2 27 -24q0 -4 1 -22.5t1 -20.5q0 -4 -1 -14.5t-1 -18.5v-8q0 -8 -10 -29q0 -2 -12.5 -36t-12.5 -38 q-20 -43 -57 -166q-4 -20 -37 -118q0 -2 -4 -14.5t-4 -14.5q-2 -4 -13.5 -43t-15.5 -47l-9 -36t-7 -30q-4 -8 -11.5 -38.5t-9.5 -34.5q-18 -86 -18 -91q0 -8 -8.5 -78.5t-10.5 -88.5q0 -6 -4 -57.5t-4 -61.5v-17v-10q0 -6 4 -25.5t4 -21.5q8 -8 10 -8q8 -16 9 -39v-8v-11 q0 -29 -9 -45q0 -2 -4 -9t-6 -9q-16 -16 -16 -18q-33 -16 -39 -19h-23h-22q-29 8 -55 27q-8 8 -9 18q-10 31 -10 66v100v102q0 4 5 45t5 47.5t-2 51.5t-2 51q-2 0 -8 -2h-6l-21 10q-8 2 -10 2l-8 -2l-2 -6l-8 -12t-6 -10q-2 -2 -14.5 -22.5t-14.5 -23.5l-37 -55l-15 -22.5 t-26 -34.5l-14 -17q-6 -8 -46 -55t-46 -55q-4 -4 -18.5 -21.5t-33 -38t-22.5 -24.5l-18 -19l-7 -4l-12 -8t-8 -4l-21 -10q0 -2 -8 -26.5t-8 -28.5l-8 -9q-25 -18 -29 -18q-6 -2 -10 -2l-10 2l-9 8q0 2 -8 6l-8 4q-4 2 -20.5 17.5t-18.5 17.5q-41 76 -45 94q-2 0 -2 37z" />
<glyph unicode="e" horiz-adv-x="757" d="M-51 254q0 4 2 20v15l10 10q49 12 74 20l10 5q12 4 14 6l35 67l47 82l11 23q14 29 24 39q2 2 27.5 30.5t29.5 36.5q8 6 37 37t33 33l21 16q20 16 28 21q14 14 49 28q16 10 27 11h31l35 -19q4 -2 26 -10l25 -10q2 -2 15 -14.5t18 -14.5q2 -2 12 -16l12 -15q8 -16 8 -18 v-84q0 -12 -8 -21l-8 -12q-8 -14 -10 -18t-16.5 -24.5t-14.5 -22.5q-49 -57 -59 -68q-39 -39 -93 -78q-8 -6 -25.5 -19.5t-31.5 -23.5t-16 -12q-33 -23 -119 -70l-8 -8q-6 -10 -8 -12q-8 -8 -9 -19v-39q0 -10 9 -10l30 -8h62q23 0 47 8l78 19q10 2 37.5 15t51 24.5 t25.5 11.5l-16 -8q18 8 35.5 18t25.5 17l11 4l38 16l37 4h9q10 0 28 -22q18 -29 21 -33q0 -2 2 -13.5t2 -15.5t-2 -12t-6 -15l-2 -8l-7 -8l-55 -41q-2 -2 -11 -6t-15.5 -8t-8.5 -4l-86 -47l11 10q-63 -29 -93 -37q-4 -2 -16 -5t-26.5 -6t-16.5 -3l-33 -11q-6 0 -15 -2 l-18 -4l-8 -2l-14 -2h-31.5h-27.5h-20.5h-27.5l-12 2q-25 0 -51 19q-14 0 -14 10q-2 2 -17.5 13t-17.5 13.5t-9.5 10.5t-7.5 10q-2 2 -10 15.5t-8 15.5l-6 26q0 4 -4 30t-4 28l-11 10l-32 20q-23 14 -23 19q-10 4 -10 31v24q-2 25 -2 35z" />
<glyph unicode="f" horiz-adv-x="829" d="M8 -578q12 0 25 7q8 4 37 32q6 6 12 19l10 26q10 27 12 35q18 68 23 74q14 29 14 53q0 23 13 66q8 33 57 262q39 199 53 254q0 4 10.5 46t19.5 80t9 46v19.5t2 17.5h-2l-4 2l-29 -6q-4 -2 -38.5 -8.5t-36.5 -6.5q-4 0 -47.5 -19.5t-49.5 -19.5q-2 0 -17 -3t-20 -3h-4h-4 q-8 0 -18 11q-4 4 -14.5 15t-12.5 13q0 35 -4 47q0 2 -5 8.5t-8 12.5t-3 8v12l2 15q0 8 18 16q16 8 84 33l49 16q37 12 56 12q41 0 141 29q14 0 20 6q8 8 9 10q6 14 38.5 94.5t38.5 94.5q20 41 20.5 43t7.5 18.5t7 18.5t21 43q2 2 10 19.5t14 30.5t8 15q16 25 29 49 q2 4 25.5 40t27.5 42q0 2 10.5 13.5t12.5 13.5q14 29 18 33q6 6 22.5 29.5t18.5 25.5t28 26.5t32 30.5l28 29q4 4 60 41q49 33 57 33q2 0 10 4l9 4q49 16 57 16h8l6 -2l13 -2q8 0 28 -10q2 -2 12.5 -11t12.5 -9t14 -4.5t14 -6.5l62 -41q6 -2 15 -14t9 -16v-21v-14l-2 -10 q-2 -2 -6 -11.5t-10 -20.5t-6 -13q-2 -2 -18.5 -25t-22.5 -29q-27 -35 -31 -37q-6 -4 -26.5 -21.5t-22.5 -19.5q-14 -14 -37 -14q-12 0 -8 8q2 16 2 23v22q0 4 15.5 41t17.5 41v33l-6 4q-6 4 -9 2q-29 -10 -59 -35q-6 -4 -23.5 -19t-38 -33.5t-24.5 -22.5q-16 -14 -51 -62 q-39 -47 -41 -51l-62 -98l-43 -80q-27 -43 -30 -62q-2 -4 -7.5 -14t-11.5 -20l-4 -11q-18 -37 -33 -80q0 -2 -6 -18t-8 -18v-5v-6q154 -20 195 -20q4 0 37.5 -3t35.5 -3l27 -6q27 -6 37 -7q2 0 25.5 -7t25.5 -7l4 -2h6q8 0 29 -10q2 -2 17.5 -11.5t17.5 -9.5t13 -4t13 -6 l7 -10q8 -10 10 -10q8 -16 8 -19l-2 -10v-12v-25q0 -8 -10 -8q-31 -6 -56 -6q-258 27 -385 26h-104l-10 -10q-8 -8 -8 -18q0 -2 -7.5 -29t-16.5 -59.5t-13 -47.5l-25 -98q-2 -10 -9 -37.5t-12.5 -48t-5.5 -24.5q0 -8 -30 -146q0 -4 -6.5 -41t-8.5 -41q-14 -57 -14 -71 q0 -4 -7 -41t-7 -41q0 -2 -5.5 -25.5t-12.5 -53.5t-9 -40q-6 -31 -14 -55q-2 -6 -10 -43q-25 -92 -37 -129l-19.5 -58.5t-17.5 -50.5q-29 -66 -33 -70q-25 -25 -29 -26h-18l-19 4q-16 0 -26 10q-2 2 -13.5 14.5t-13.5 14.5q0 2 -6 19.5t-8 19.5q0 4 -16 20l-3 4q-2 4 -4 8.5 t-2 6.5q-8 12 -8 26q2 14 2 96z" />
<glyph unicode="g" horiz-adv-x="849" d="M0 -717q0 23 18 66q0 8 11 8l16 4q16 4 18 4l11 10h18h19l18 -18v-19q0 -20 8 -36q2 -4 6 -22.5t4 -22.5q6 -2 9 -2h4q4 2 6 2q14 8 37 34q25 37 26 39q25 37 29 45q2 4 13.5 28t13.5 28q2 2 10 22.5t8 22.5l19 37v10q8 20 10 26q39 98 74 213q8 23 63 211q16 49 29 111 q27 115 26 129q0 29 11 74v4v4l-11 10l-55 -55q-33 -33 -74 -66l-18 -12q-16 -14 -32.5 -26.5t-22.5 -16.5q-10 -6 -54 -35q-23 -14 -57 -28q-2 0 -13.5 -4.5t-13.5 -6.5q-4 -2 -46 -7t-46 -9q-2 -2 -10 -2h-8q-2 2 -13.5 6t-13.5 4l-18 8q-43 35 -56 56q-8 16 -10 18 q-8 49 -8 74q0 2 -1 22.5t-1 28.5l2 41q0 8 18 55q25 59 45 84q4 4 36 44t38 48q41 47 129 129q16 16 47 37q33 20 54 27q43 18 65 18q10 0 53 -18q20 -6 47 -19l37 -18q10 0 11 -8q0 -2 4 -10l4 -9q6 -10 10 -10h4h4l19 10h18h18q2 0 11 -4l8 -6q2 -2 22.5 -10t22.5 -8 q20 -10 28.5 -18.5t10.5 -8.5q16 -33 16 -39q2 -29 2 -39v-14v-21l-2 -8q0 -10 -13 -86t-13 -78q0 -16 -9 -65q-2 -4 -6 -37t-4 -37q0 -2 -4 -23.5t-8 -41t-6 -27.5q0 -2 -8.5 -34t-10.5 -40q0 -2 -12 -46t-14 -56q-2 -6 -7.5 -19.5t-9.5 -27.5l-4 -17q0 -2 -4 -14t-8 -27 l-6 -14q-16 -68 -27 -92q-16 -49 -18 -53t-29 -95q-16 -49 -16 -63q0 -8 -11 -29q-47 -115 -55 -147q-6 -20 -26 -53q-47 -86 -56 -95q-2 -2 -17.5 -18t-37 -36.5t-27.5 -27.5l-6 -4q-6 -4 -13 -8t-9 -6l-19 -8h-14q-14 -2 -18.5 -2t-18.5 2h-14l-13 4q-10 4 -14 4 q-10 0 -18 8l-29 19q0 2 -12.5 27.5t-12.5 27.5l-4 4q-4 4 -10 8l-6 6q-8 8 -18.5 29t-10.5 27q0 4 -3 21.5t-4 29.5t-1 14zM416 545h-10q-31 -10 -39 -19q-4 -2 -27 -22.5t-27 -24.5l-65 -65q-2 -4 -18.5 -22.5t-18.5 -22.5q-4 -6 -27.5 -41t-27.5 -41q-6 -18 -19 -37v-4 v-4q8 2 58 26q23 10 53 37q4 4 65 45q2 2 14.5 10.5t14.5 8.5t7 6t11.5 13t8.5 9q6 6 19 22.5t26 31.5l10 12q8 8 8 35v10v8l-8 29h-8z" />
<glyph unicode="h" horiz-adv-x="1122" d="M16 70l2 22l19 111q10 63 37 157q4 20 27.5 114.5t25.5 105.5l20 65l29 92l17 64l55 180l18 72q8 45 29 94l55 164q2 4 19 20h8q31 -10 55 -10l27 -10l28 -19l19 -18l10 -17v-28l-18 -45q-29 -72 -29 -74q-4 -10 -49 -161.5t-53 -174.5l-27 -100l-8 -37l-19 -66 q-37 -129 -37 -147q0 -2 -6 -14l-4 -13v-18l4 2q4 2 8.5 5t6.5 3q41 41 47 45l45 37l37 37q2 2 36.5 25.5t45.5 27.5l39 19q2 2 13 11t13 9q16 8 37 8q12 2 14 2l13 -2l84 -28l18 -9l37 -36l18 -37l9 -45v-47l-27 -101l-37 -110l-10 -19l-8 -37q-8 -8 -9 -28q-2 -10 -2 -15 q0 -2 1 -6t1 -6t2.5 -5t4.5 -9.5t4 -10.5h8q2 4 41 11l33 8q4 0 14 4l10 4q23 14 35 14q10 8 68 43q8 10 98 78q49 37 69 58q43 45 60 47q6 10 60.5 65t66.5 64q0 2 9 9t13 7h25q2 2 18 8l17 8q20 10 33 11q14 -8 16 -11l8 -8v-39l-10 -55l-6 -23q-6 -23 -8 -24l-9 -10 q-6 -10 -8 -12.5t-12 -15.5t-19.5 -24.5t-9.5 -13.5q-29 -29 -35 -41q0 -2 -10 -12t-12 -14q-6 -4 -35 -31t-54.5 -50.5t-31.5 -23.5l-6 -12q-6 -4 -35 -24.5t-62.5 -45t-45.5 -33.5l-25 -12q-29 -29 -43 -29q-39 -10 -55 -26q-10 -2 -45 -12.5t-37 -10.5q-20 -10 -49 -10 q-4 0 -39 4t-45 4q-18 0 -23 11q-4 0 -25 10h-2l-8 4q-8 4 -10 4q-8 0 -8 10l-8 15q-23 23 -31 38q-2 4 -6 41l-10 35l-11 35v57l11 64v6q0 20 16 63q4 8 23.5 67.5t23.5 70.5v10l-29 -10q-20 -10 -34 -25l-103 -102l-26 -33q-29 -31 -39 -41l-45 -55l-19 -37l-55 -84 l-27 -35l-18 -29q0 -8 -10 -18q-6 -6 -37 -18q-16 -8 -29 -9q-16 -2 -23 -2h-14l-8 2q-10 0 -19 9q-2 2 -9 10t-9 8l-8 18q0 2 -4 22.5t-4 24.5q-2 0 -6.5 12.5t-4.5 14.5q-2 17 -2 23z" />
<glyph unicode="i" horiz-adv-x="669" d="M0 211v47q14 43 18 59q0 2 6.5 25t8.5 29q4 6 20 39q70 156 82 168q59 84 86 118q2 4 7 12.5t10 16.5l6 6l12 2q12 4 14 2q29 -10 41 -16q43 -14 51 -23q23 -23 31 -34q10 -6 19 -35v-4v-5l-2 -4q0 -2 -2 -6t-2 -6t-11.5 -15.5t-13.5 -17.5q-2 0 -13.5 -12t-13.5 -12 q-2 -2 -12 -17.5t-12 -17.5q-10 0 -19 -25q-12 -25 -24 -45q-35 -51 -35 -59q0 -18 -27 -55q-2 -6 -9 -22.5t-7 -18.5q-2 -8 -8 -33t-6 -27v-49v-43q0 -2 8 -18h4h14q2 4 41 10q16 0 33 8q2 0 12 4l12 4q14 14 35 15q4 4 68 43q8 10 98 77q49 37 70 58q45 43 59 47 q6 12 59.5 66.5t65.5 62.5q2 2 11.5 9t13.5 7h24l8 4q8 4 16.5 8.5t8.5 6.5q4 0 18.5 4t16.5 4q12 -6 14 -8l10 -10v-19v-20q-2 -6 -6 -29t-4 -27l-6 -22q-6 -23 -8 -25l-2 -4q-4 -4 -6 -7t-5.5 -7t-5.5 -4q-2 -2 -11 -14.5l-18 -25t-9 -14.5q-2 -2 -17.5 -19t-17.5 -22 q0 -2 -11.5 -13t-13.5 -13q-4 -4 -32.5 -30.5t-54 -50.5t-32.5 -24l-6 -12q-6 -4 -34.5 -24.5t-63.5 -45t-47 -32.5q0 -2 -10.5 -6.5t-12.5 -6.5q-35 -29 -43 -28q-29 -6 -57 -27q-10 0 -44 -11t-36 -11q-41 -10 -51 -11q-2 0 -37 5.5t-45 5.5q-8 0 -25 8q-4 0 -18 6l-14 8 l-13 12q-10 12 -12 15q-25 25 -33 41q-2 8 -20 35q-33 78 -33 102v43zM319 985v21q0 16 9 20q2 0 23.5 20.5t27.5 24.5q4 6 25.5 26.5t29.5 22.5q10 10 45 35l33 27q4 4 23.5 14t25.5 10l25 11q6 0 28 12l23 10q2 0 13.5 8t15.5 10h6l41 20.5t45 20.5q12 8 57 9l8 -9 q6 -6 8 -6l3 -4q2 -4 4 -10l2 -4v-2v-4q0 -4 -8.5 -25.5t-8.5 -25.5l-8 -17q0 -2 -4 -6l-4 -4q-96 -88 -102 -92q-16 -8 -52 -43q-55 -37 -67 -49q-37 -31 -49 -43q-70 -70 -103 -99q-12 -12 -12 -14q-4 0 -16 -2h-11h-6h-2l-16 2q-6 8 -19 20q-8 6 -16 35q0 10 -8 27l-9 31 v22z" />
<glyph unicode="j" horiz-adv-x="413" d="M-610 -428l8 43q2 0 9 5t9 5t9 6q2 2 10 2h4q2 2 7 4.5t7 4.5q16 0 21 4q2 0 10 -2q4 -4 6 -2q2 0 14.5 -6.5t14.5 -6.5l8 -2q8 -8 8 -28v-17q0 -23 -4 -62.5t-4 -45.5q0 -49 14 -78q6 -18 10 -23q2 -2 5 -6q6 -8 8 -12q8 -8 10 -8l16 -9q4 0 18.5 -2t16.5 -2 q10 0 24.5 5.5t26.5 11.5l13 6l57 53l18 19q16 14 56 82q31 39 45 73l57 109l35 94q2 6 10 27.5t17.5 48t11.5 35.5q0 4 8 32.5t8 30.5l29 111q4 23 29 121q0 4 16 94t16 94l19 84l18 100q10 66 21 94q0 4 5 20.5t11 36t8 25.5q23 45 29 64q2 6 9 18.5t14 24.5l6 12 q0 2 10 6l6 4h21l36 -18q10 -10 27 -10q2 0 29 -19l26 -26l4 -9l5 -10q10 -16 10 -28q0 -20 -10 -37q0 -2 -8.5 -14.5t-17.5 -24.5t-9 -15q-14 -20 -19 -38l-20 -46q0 -2 -4 -18t-4 -18l-27 -101q-18 -49 -18 -73q0 -2 -25 -132.5t-29 -152.5q0 -33 -10 -53q0 -6 -8 -39 l-2 -6q-2 -6 -4 -15l-4 -6l-29 -111q0 -4 -5 -23.5t-11.5 -41t-8.5 -27.5q-4 -12 -16 -47t-21.5 -61.5t-11.5 -28.5q0 -2 -12 -23.5t-12 -23.5l-74 -145l-29 -47q-31 -41 -37 -48l-100 -100l-39 -27q-4 -4 -16 -12l-11 -8l-47 -18q-4 0 -20 -5l-14 -4h-74q-2 0 -18.5 4.5 t-20.5 4.5l-45 28l-49 29l-29 39l-8 8l-29 37q-2 4 -9 35.5t-9 36.5q-10 16 -10 26q-2 33 0 74t4 65zM299 1167q0 25 10 39l19 19h8q8 0 30.5 4t24.5 4l55 18q16 8 56 9h18q82 -8 92 -9q16 0 27 -10q2 0 18.5 -4t18.5 -4l20 -8v-66q-8 -8 -10 -8l-18 -10q-2 0 -18.5 -4 t-18.5 -4q-92 -31 -101 -39q-4 0 -18 -10.5t-29.5 -22.5t-17.5 -12l-8 -5q-8 -4 -11 -6q-16 -8 -28 -8h-17q-4 0 -16 2t-20.5 4t-10.5 2q-14 14 -18 21l-4 8q-4 8 -4 10q-2 2 -6.5 13.5t-4.5 13.5t-4 18.5t-4 18.5q-10 10 -10 26z" />
<glyph unicode="k" horiz-adv-x="1306" d="M80 233l123 355l14 22l-2 -4l10 12q2 2 36 88.5t36 92.5l10 18l8 10l4 7q14 14 15 30l8 8q2 6 6 9l2 4q4 6 7 18t5.5 14.5t4.5 14.5t8 18q8 20 8 29l25 41v-4l8 12q0 6 8 23q12 20 29 36l4 9l8 20q6 14 12 23l10 14l-2 -6l4 4l11 18q6 6 6 9l20 30l13 45l4 7l-2 -5 q10 14 14 17l18 31q27 27 37 32l6 17l9 12l12 20v-2q10 27 35 27h35q10 -2 32 -14l27 -9v-18l4 -4l12 -25v-14q0 -2 1 -6t1 -8v-6l-2 -7v-12l-22 -49l-10 -14l-35 -52l-29 -71l-33 -49q0 -2 -5 -13.5t-10 -20.5t-7 -11l-45 -76q-6 -12 -23.5 -46t-32 -62.5t-18.5 -41.5 l-4 -14l6 6q2 0 15.5 12.5t29.5 23.5t23 13l28 21q39 23 58 28l16 7h4l4 2q2 0 7.5 1t7.5 1h2q6 4 24 10l15 6l18 4q8 0 18 4l11 4q2 0 11 2t13 2t10.5 2.5t8.5 2.5q12 4 55 4h10q2 0 8.5 1t8.5 1l24 -2q20 0 37 -9h16l25 -14q0 -2 4 -2l14 -2q2 -2 5.5 -5t5.5 -5t6 -5t6 -8 q14 0 19 -6t8.5 -19t9.5 -24q12 -12 18 -24v2q2 -8 2 -27v-43q0 -2 -1 -12t-1 -14l-22 -31l-9 -8q-25 -35 -32 -45v-3q-2 0 -2 -10l-43 -28l-23 -17v2l-16 -12q-35 -27 -58 -33q-27 -10 -77 -49q-43 -16 -84 -43q-2 -2 -24.5 -12t-44 -20.5t-24.5 -12.5q-6 -2 -47 -16.5 t-47 -18.5l31 -18l29 -25q16 -8 26 -14l19 -10q2 -4 12 -13.5t12 -9.5l31 -18q16 0 51 -23q4 -2 11.5 -6t13.5 -8t8 -4l29 -17q6 -2 20 -12l4 -2l27 -8q8 0 14 -6q0 2 2 2q12 -4 21 -4q4 -4 10 -5h80h2q2 2 6 3.5t10 1.5h-2q16 8 31 8l43 16q6 4 22.5 10.5t22.5 8.5 q4 0 12 6t11 6l14 4l4 2q4 2 6 2h-2q29 16 49 41h10q4 2 13 10l16 15l6 6l4 4q4 4 14.5 11t16.5 13l8 7l10 10l17 18l22 23q8 16 21 28q4 4 14 19.5t15 19.5q2 2 4 7.5t4 7.5l4 6l35 43l4 6q8 18 22 18q4 0 11 4q6 4 6 3l24 4l17 -2l22 -15l10 -22l11 -21l2 -16l-4 -25 l-11 -47l-8 -20q-4 -12 -8 -19q-4 -4 -4 -12q-12 -12 -14 -16l-21 -33l-18 -29q-2 -2 -9.5 -13t-11.5 -16q-41 -53 -88 -90l-31 -26l-18 -17l-14 -10l-19 -12l-41 -25l-20 -14q-10 -2 -62 -25l-16 -6q-12 -12 -37 -18l-12 -2h2q-4 0 -11.5 -4t-9.5 -4q-6 0 -14 -5 q-12 -12 -27 -12l-26 -4h-121q-2 0 -5 2t-5 2h-9q-16 4 -26 8l-33 15l2 -2q-10 4 -18 6l-19 4q-49 25 -55 31q-6 4 -21.5 12t-21.5 12l-14 4l-13 6q-6 4 -20 19q-70 31 -86 47l-2 2l-8 6q-16 4 -48 35q-33 20 -32 22q-6 12 -25 13q-2 2 -16 22v-2q-27 27 -33 41q-4 4 -4 12 l4 -6q2 2 0 4q-2 0 -4 2v3q-6 6 -6 12q-2 6 -2 8q-10 14 -11 16l-4 11l-6 12q-10 16 -10 29q-4 8 -4 20q-29 -43 -31 -47q-10 -16 -14 -41q-20 -27 -29 -49l-4 -10v2l-10 -31l-45 -86q-2 -2 -10 -27q-2 -4 -7.5 -19.5t-11.5 -28.5t-10 -21l-12 -29q-2 -10 -15 -35l-6 -20 q0 -2 -2 -8l-2 -5q0 -12 -4 -24q-10 -29 -27 -49l-26 -19q-8 -2 -25 -2h-8l-25 8q-14 4 -45 45l-28 58l8 39q0 31 12 59.5t12 32.5q0 2 2 4v2l7 16q0 8 6 17l26 57l15 29q8 24 10 28zM426 487q-10 -8 -20 -26h2l41 14q16 10 51 24.5t43 22.5q29 18 53 23q12 2 92 51 q8 6 39 16l25 27l30 16l17 2q4 4 18 12.5t25.5 16.5t13.5 14l8 33v19l-14 8q-25 -6 -37 -6l-22 -9q-23 -4 -31 -6l-47 -20l-37 -21q-4 -2 -32 -18t-30 -18l-12 -11l-6 -2q-6 -2 -12 -6t-11 -8q-4 -6 -24 -17q-6 -6 -25.5 -17t-21.5 -15q-8 -8 -19.5 -22.5t-19.5 -24 t-19 -15.5zM1151 195l4 2q-2 -2 -4 -2z" />
<glyph unicode="l" horiz-adv-x="446" d="M51 102v41q8 35 8 47q0 4 9 37q2 4 8 33t8 35q0 2 5 13t5 14q0 6 25 77q0 2 8 23.5t10 24t5 16.5t3 16q2 2 9.5 33t7.5 33q2 4 20.5 55t36 100.5t17.5 55.5q0 2 4 14t4 14t12 44t12 53q18 49 19 67q4 23 22.5 105t18.5 90q20 113 20 157l12 13q12 -2 14.5 0t14.5 2 q6 -2 25.5 -5t21.5 -3q31 -10 39 -19q2 -2 15.5 -14t15.5 -14q8 -16 8 -19q4 -37 4 -49v-45q0 -14 -14 -86q0 -6 -6 -30.5t-12.5 -51.5t-8.5 -33q-2 -10 -11 -45t-15.5 -63.5t-6.5 -36.5l-4 -15q-4 -12 -4 -14q-2 -6 -46 -134t-46 -134q0 -2 -20.5 -68.5t-22.5 -77.5 q0 -20 -8 -36l-17 -50q-18 -41 -26 -86q-23 -76 -23 -106v-14v-13q4 -2 29 -9t29 -9q8 0 8 -8l2 -9v-10v-20q0 -18 -8 -31q0 -2 -2 -6l-4 -8l-2 -4l-29 -29q-10 -10 -27 -10l-6 -2h-10h-12q-27 8 -41 18q-16 8 -17 18q-2 4 -28.5 42t-32.5 51q-20 35 -21 39q-4 26 -4 36z " />
<glyph unicode="m" horiz-adv-x="1777" d="M1409 401l-8 -36l-53 -156v-66q0 -2 8 -18h18q2 4 41 10l33 8q2 0 14 4l11 5q14 14 34 14q6 6 68 43q8 10 98 78q49 37 70 57q43 45 59 47q6 10 59.5 65.5t65.5 63.5q2 4 12.5 10.5t12.5 6.5h24l9 4l16 8l8 4q31 10 35 10q12 -8 14 -10l4 -2q6 -4 6 -6v-39l-10 -55 l-6 -23q-6 -23 -8 -25l-4 -4q-2 -4 -4 -7t-5 -7t-6 -4q-2 -4 -19 -26.5t-19 -26.5q-29 -29 -35 -41q-2 -2 -12.5 -13.5t-12.5 -13.5q-4 -4 -32.5 -30.5t-54 -50t-32.5 -23.5l-6 -13q-6 -4 -34.5 -24.5t-63.5 -45t-47 -32.5l-23 -12q-29 -29 -43 -29q-29 -6 -57 -27 q-10 -2 -44 -12t-36 -10q-20 -10 -51 -10q-2 0 -37 4t-45 4q-14 0 -25 10q-4 0 -24 10l-8 4q-8 4 -11 4q-8 0 -8 11l-8 14q-23 23 -31 39l-8 41l-10 35l-8 35v57l8 63q0 6 10 37l19 56q0 4 9 40.5t9 38.5q0 8 -10 19h-8l-46 -29q-20 -10 -38 -28l-404 -404q-10 -10 -18 -10 h-64q-4 2 -19.5 15t-19.5 22q-43 76 -43 92l-2 8q-2 8 -2 12v15l2 12q0 2 4 26.5t6 28.5l19 53q18 55 55 130q8 31 19 47q8 16 8 26h-8q-2 0 -48 -45q-41 -41 -45 -55l-55 -64l-84 -102l-47 -55l-16 -27l-64 -82l-47 -65q-35 -43 -55 -56q-2 0 -12 -2h-11l-24 2 q-2 0 -13.5 3t-13.5 6q-4 2 -19.5 18t-19.5 18q-2 4 -17.5 40t-17.5 44q-2 12 -2 17l2 20q0 2 4.5 21.5t6.5 23.5q0 6 34 119l29 86l27 100l18 64l10 29q4 10 27 100l18 92q8 49 9 64v47l10 26q4 10 10 11h27l37 -11q43 -14 63 -35q6 -2 19 -28q10 -27 10 -66q0 -2 -2 -12 t-5 -23.5t-3 -17.5q-49 -215 -72 -295h8q8 0 47 45l37 45q31 41 63 74q84 90 111 111q33 25 82 55l29 10h55q12 0 37 -10q18 0 26 -8q2 0 6.5 -3t8.5 -6l4 -2l18 -16q2 -4 6.5 -17.5t8.5 -28.5t6 -20v-28l-10 -72q0 -8 -11 -39l-37 -108h11q10 0 63 53l82 84l84 74l4 4 q4 4 6 4l27 18l47 29q16 8 27 8l12 2h14l29 -2q2 0 14.5 -4t14.5 -4t33.5 -4t33.5 -4l29 -11q12 -6 26 -28q2 0 11 -19q8 -16 8 -26l10 -37q2 -10 -1 -57.5t-5 -49.5zM563 584l-10 -2l-8 -19h-10q-31 -31 -35 -37q-10 -20 -11 -28h11l12 12q12 12 28.5 29.5t22.5 23.5l10 19 h-4q-4 2 -6 2zM600 610l-4 4l-4 -4q4 -6 8 0z" />
<glyph unicode="n" horiz-adv-x="1406" d="M43 86l2 20q0 4 12.5 29t14.5 27l84 194l8 17q18 49 18 57q10 102 11 129q0 8 10 8q10 2 16 2h10l9 -2q4 0 28 -8q4 -2 12.5 -7t15.5 -8t7 -5q23 -12 39 -35q8 -8 8 -29v-20q2 -18 2 -24.5t-1 -18t-1 -19.5v-10l-4 -18q-4 -16 -4 -19q-2 -14 -2 -18l2 -9v-10l8 4 q8 4 10 6q16 8 27 19l57 47l17 16l55 45q2 2 74 66q49 49 82 74q57 47 84 65l20 13q18 10 27 14l35 18q18 8 55 19q4 0 26.5 -8.5t41 -13.5t24.5 -5q8 0 18 -10l27 -27l19 -39q10 -14 10 -26v-19q2 -18 2 -24t-1 -18.5t-1 -20.5v-10q0 -2 -4 -30t-4 -34q0 -18 -11 -29 l-8 -36l-53 -156v-66q0 -2 8 -18h19q2 4 40 10l33 8q2 0 13 4l12 5q14 14 35 14q6 6 34.5 23.5t30.5 19.5q10 10 101 78q49 37 69 57q45 45 60 47q6 10 59 65.5t65 63.5q2 2 11.5 9.5t11.5 7.5h25q2 0 10 4l16 8l8 4q31 10 35 10l15 -10l4 -2q6 -4 6 -6v-41l-10 -53 q0 -4 -6.5 -24.5t-8.5 -23.5q-2 0 -8 -10t-10 -12q-2 -4 -19.5 -26.5t-19.5 -26.5q-33 -33 -37 -41q-2 -2 -11 -13.5t-12 -13.5q-4 -4 -32.5 -30.5t-54 -50t-31.5 -23.5l-6 -13q-8 -4 -36 -23.5t-63 -45t-47 -33.5l-22 -12q-35 -29 -45 -29q-25 -6 -56 -27q-10 -2 -44 -12 t-36 -10q-20 -10 -51 -10q-2 0 -38 4t-46 4q-12 0 -22 10q-4 0 -25 10h-2q-12 8 -16 8q-8 0 -9 11l-8 14q-27 27 -32 39q0 2 -1.5 7t-2.5 15.5t-3 18.5l-10 35l-8 35v57l8 63q0 2 2 9.5t5 17.5t3 12l19 54q37 111 37 120v13v14l-45 -27l-58 -39q-25 -16 -53 -45l-121 -110 l-10 -8l-119 -103l-55 -45l-137 -119l-84 -75q-8 -8 -19 -9l-16 -2h-20.5h-14.5l-12 2q-2 0 -39 37l-17 27v18q0 4 -9 24.5t-9 22.5v11q-2 10 -2 14zM707 567q-6 0 -6.5 -9t6.5 -9q8 0 8 9t-8 9zM635 520v-8h8v8h-8zM801 623l-6 2l-4 -2q2 -4 5 -4t5 4z" />
<glyph unicode="o" horiz-adv-x="731" d="M4 184v4q8 68 10 74q16 49 19 53q2 8 26 58q10 20 29 45q2 4 17.5 27.5t17.5 27.5q4 4 16 21l13 16q82 90 110 111q23 23 66 47l8 4l16 8t16.5 8t12.5 6q25 8 29 8q27 2 36 3h21l16 -3q18 0 27 -8l18 -18q2 0 18.5 -12.5t18.5 -14.5q4 -6 37 -39h4h6q2 0 27 4t27 7h14h14 q6 0 11 -11l8 -16v-27v-30q0 -4 -4 -27t-4 -29l-5 -10q-4 -12 -8 -25.5t-6 -17.5t-10 -24.5t-10 -22.5q-2 -6 -13.5 -27.5t-20.5 -41t-11 -23.5q-25 -49 -48 -72q-8 -20 -45 -57q-41 -45 -102 -101q-6 -10 -53 -47l-6 -4q-6 -4 -12.5 -8t-10.5 -4q-4 -4 -15.5 -10t-21.5 -13 l-8 -6q-10 -6 -45 -18q-2 0 -22.5 -4t-24.5 -6h-27h-28q-35 8 -37 10q-8 6 -66 63q-12 25 -16 37q0 2 -4 23.5t-6 23.5q0 2 -5 15l-4 12q0 2 -2 13t-5 24.5t-3 17.5v6zM150 143l2 -10q0 -10 10 -10q6 0 26 10q4 2 37 17.5t37 17.5q49 33 55 39q47 41 129 129q4 4 29 37 q16 33 17 37v8q0 10 1 20.5t1 16.5q0 4 -1 24.5t-1 22.5q0 8 -17 8q-12 0 -29 -8l-20 -13q-20 -12 -25 -16q-6 -4 -22.5 -15.5t-28.5 -20.5t-14 -9q-61 -55 -82 -84q-16 -12 -74 -111l-4 -4l-4 -8l-2 -4q-8 -25 -18 -65z" />
<glyph unicode="p" horiz-adv-x="847" d="M-55 -569q0 4 -1 13t-1 11v15l2 10q12 74 26 145q31 133 47 203q2 2 6.5 14.5t4.5 14.5q0 4 8 35.5t8 37.5q8 33 8 45v11v8q0 4 -16 37l-10 10q-10 8 -18.5 16.5t-8.5 10.5q-2 10 -2 12l2 14q0 2 8 10q16 8 37 9q25 8 29 10q16 8 18 8q0 8 10 29q0 6 8.5 33.5t8.5 31.5 q23 70 37 146q10 51 18 84q0 4 3 12t5 16l2 6q0 6 27 84q2 4 9 22.5t9 22.5l29 58q8 14 45 45q8 0 19 10l26 8q6 0 21.5 3t29 5.5t15.5 2.5t15 -2.5t28.5 -5.5t21.5 -3q2 -2 32 -10t32 -8q2 -2 18.5 -6t18.5 -4q16 -4 63 -27q61 -25 84 -47q29 -20 64 -64q0 -8 28 -45 q8 -16 8 -18q2 -4 6.5 -24.5t4.5 -22.5v-14v-13q-2 -4 -6.5 -24.5t-4.5 -22.5q0 -10 -8 -26.5t-10 -18.5q-8 -23 -18 -29q-4 -4 -23.5 -28.5t-22.5 -26.5l-55 -55q-6 -4 -42 -32t-42 -32q-51 -31 -71 -47q-6 -4 -30 -15t-50.5 -23.5t-32.5 -16.5l-12 -4q-12 -4 -15 -4 q-4 -2 -31.5 -13.5t-31.5 -13.5q-4 -4 -20.5 -11t-18.5 -9l-19 -19l-4 -16q-6 -16 -13 -35.5t-9 -30.5q-2 -2 -10.5 -32.5t-8.5 -32.5t-8 -26.5t-10 -27.5q0 -2 -6 -22.5t-12.5 -46t-8.5 -33.5q0 -2 -4 -18.5t-6 -18.5q0 -2 -4 -22.5t-4 -24.5q-2 -6 -14.5 -59.5 t-14.5 -59.5q0 -4 -4 -23.5t-9 -43t-5 -25.5l-4 -8q-4 -8 -4 -10q-2 0 -9.5 -8.5t-9.5 -8.5q-2 -2 -10 -6l-8 -4h-11h-10q-2 0 -8 2t-11 4t-5 4q-4 0 -29 25zM455 578q0 -43 -4 -60l-19 -37q-2 -2 -6 -14l-4 -12q0 -2 -8 -22.5t-8 -24.5q-2 -2 -6.5 -18.5t-4.5 -18.5 q0 -10 -8 -27l-6 -12q-4 -12 -8 -22.5t-6 -10.5l-19 -74v-10h10q10 0 93 45q2 2 29.5 21.5t33.5 25.5q20 10 55 45q23 16 29 29q4 6 27.5 41t27.5 41q0 10 9 26v7v4q0 10 -9 18l-10 10q-33 16 -37 17q-20 10 -53 18q-4 2 -24.5 6t-22.5 4q-16 5 -51 5zM195 346l-11 -2 l-10 -10q0 -2 -8 -21.5t-10 -23.5v-6v-4q16 8 18 10l10 10v16l4 9q4 8 4.5 10l1.5 6t1 6zM240 481q-25 0 -39 -18v-23v-22q2 0 10 8q0 8 10 29l8 8l4 8q5 8 7 10z" />
<glyph unicode="q" horiz-adv-x="952" d="M203 -985q0 4 1 16.5t1 14.5q6 33 8 45q16 70 20 73q2 6 22.5 70t23.5 68q4 10 31.5 105t31.5 106q33 100 37 120q0 2 -2 11.5t-2 13.5l-10 2h-13q-61 -12 -147 -37q-35 29 -55 55q-2 2 -10.5 14.5t-8.5 14.5t-7 8t-13 13l-9 6v18v19q0 4 7.5 10t11.5 8q20 10 47 10l12 4 q12 4 15 4q4 0 41.5 8.5t42.5 10.5q2 2 14 6l12 4q133 27 139 27q8 0 9 10q2 2 6 10t8 19l4 8q74 201 74 219v39q-10 -10 -19 -10q-2 0 -14 -11.5t-25.5 -22.5t-15.5 -13q-45 -23 -74 -35q-4 -2 -18 -6t-27 -9l-10 -4q-2 -2 -45 -2h-47q-2 0 -25.5 9.5t-29.5 9.5 q-8 0 -37 28l-8 9q-8 8 -19 28q0 2 -3 6.5t-5 8.5l-2 4q-2 2 -10.5 22.5t-8.5 22.5t-8 19.5t-8 19.5q-10 20 -10 26q-2 18 -2 27v16l2 13q0 4 3 27.5t5 27.5l37 92q2 2 14 21.5t14.5 23.5t17.5 27.5t19 27.5q2 4 8.5 12.5t12.5 16.5l6 8q41 45 102 101q16 16 37 28 q16 12 54 37q8 8 18 8q2 0 14.5 4.5t14.5 6.5q14 0 18 10q4 0 28.5 1t30.5 1q10 0 35 -2h27q68 -16 82 -27q2 -2 10 -2l21 -12q20 -10 24 -14q2 0 11.5 -8.5t19.5 -17.5t14 -13q8 -8 10 -9q2 -4 27 -45q0 -2 3 -7t5 -9l2 -4q2 -23 2 -31v-18l-2 -15l-6 -12q-4 -12 -4 -14 q0 -6 20 -47l9 -27v-16v-21q0 -4 -11 -45q0 -12 -8 -29q-2 -2 -10 -22.5t-8 -22.5q-2 -4 -14.5 -41.5t-14.5 -42.5l-12 -34q-12 -35 -14 -39q-2 -8 -27 -79t-29 -77q0 -2 -13 -36t-13 -38l-2 -10q-2 -8 -2 -12l4 -17q20 -6 26 -8q16 -8 45 -8l11 -8l2 -8v-12.5v-10.5l-2 -8 q0 -6 -19 -35l-8 -10q-8 -10 -16.5 -18.5t-12.5 -8.5q-12 0 -18 -12q-6 0 -56 -16l-18 -9q0 -4 -8 -20q-2 -4 -18.5 -51t-20.5 -60q-4 -6 -22.5 -73.5t-22.5 -73.5q-2 -6 -22.5 -68.5t-22.5 -68.5q0 -4 -8.5 -34t-10.5 -32q-2 -4 -13 -35.5t-21.5 -63.5t-12.5 -38 q-35 -139 -35 -166q0 -8 -10 -18q-10 -16 -20 -17q-8 -2 -13 -2q-2 0 -8 2h-6q-14 6 -18 8q-18 6 -29 17q-4 4 -23.5 25.5t-21.5 23.5q-8 8 -8 16q-2 21 -2 27zM250 254v-12l4 -4q4 -4 4 -7h6h4q4 0 13.5 2.5t17.5 4.5l6 2q41 20 66 36q2 2 17 15.5t18 13.5q0 2 13 10.5 t15 8.5q72 61 84 73q119 119 137 140l4 8q4 6 8.5 11t6.5 5q6 10 18 10h27l10 11q-10 20 -18 28l-6 4q-6 4 -12.5 7.5t-8.5 5.5q-4 2 -13 6l-18 8l-8 4q-20 2 -27 2l-26 -2q-37 -12 -66 -27q-31 -12 -55 -36q-53 -43 -111 -111q-2 -4 -16 -24.5t-33.5 -50t-23.5 -36.5 q-2 -4 -8.5 -15t-11.5 -24.5t-7 -15.5q-10 -20 -10 -37v-14z" />
<glyph unicode="r" horiz-adv-x="768" d="M393 690l-8 -24q0 -35 -2 -45q-2 -23 -16 -74q0 -4 -7 -35h-2l-4 -8l-4 -8l-12 -33l4 2q-2 -2 0 -10l12 10l23 14q10 6 22 8h2l41 31q2 0 11 8l8 4q12 10 22 15l19 8q2 0 9 6t7 8q76 37 82 43q4 0 33 11l14 8l33 18q12 0 22 10h-2l11 7l37 8q25 4 53 4l16 -4q16 -4 21 -4 q12 -4 30 -4q2 -4 35 -27q8 -23 8 -27q0 -2 7 -8l2 -16l2 -8q-4 -12 -9 -23q-8 -18 -28.5 -29.5t-36.5 -13.5l-19 -2l-38 -16q-18 -10 -25 -13l-2 2l-29 -12h2l-88 -43l-8 -6l-8 -19q-29 -10 -89.5 -41.5t-64.5 -37.5l-49 -41q-8 -6 -21.5 -17.5t-21.5 -17.5 q-8 -14 -32.5 -41t-32.5 -31l-7 -12v-10q-98 -147 -118 -189q-10 -10 -21 -35h-20q-2 0 -6.5 -2t-6.5 -2h-18q-2 0 -7 1t-9 1h2q-20 4 -33 11h2q-14 10 -17 12l-12 6q-10 10 -12 25q-2 2 -7 8t-7 8l-27 33l4 2q0 2 -1 6t-1 6t8 23.5t8 25.5q2 10 4 23q4 20 5 24l26 84 l41 107v-4l2 10q0 4 10.5 27.5t17.5 44t3 24.5l18 47l2 17l9 32l28 88q23 90 27 125q4 2 4 13q2 10 2 53q0 2 1 6t1 6l2 21q-8 49 35 49q39 0 41 4q12 -4 14 -4q12 0 25 -12l45 -23q4 -10 6 -18l2 -15q2 -2 6 -14l2 -6l2 -12l6 -11v-22q2 -4 2.5 -18.5t0.5 -20.5z" />
<glyph unicode="s" horiz-adv-x="471" d="M-168 -231q0 4 1 13t3 17v8q14 29 23 35q6 10 28 27h11q0 -2 7 -7t9 -5l16 8q18 8 21 8h22l17 -2q4 -20 8 -29v-10q-16 -33 -16 -61v-19q2 0 13 -2t13 -2l29 10q8 0 49 33q10 0 18 16q2 2 6.5 10.5t7.5 16.5t5 8l27 54q0 2 3 11t7 15l2 8l2 13q0 12 1 26.5t1 22.5 t-4 22.5t-6 26.5l-2 10l-2 6q-2 8 -4.5 17.5t-2.5 13.5q0 10 -6 29q-8 37 -24 65q-4 20 -23 58l-14 51q0 2 -3 10t-5 14l-2 9q-16 68 -17 137q-2 8 0 32.5t4 34.5q0 8 1 23.5t1 30.5v12q0 16 15 27q12 37 20 45l6 10q8 12 13 16q25 33 30 33q20 29 99 88q2 2 12 9t20.5 14.5 t14.5 9.5q6 2 25.5 13t21.5 11h10q4 -4 29 -12l8 -6q8 -4 10 -4t12.5 -3t18.5 -5l10 -4q23 -12 37 -39q0 -2 -1 -20.5t-1 -22.5q-2 -10 -2 -39q0 -12 -12 -19q-14 -14 -68 -41q-33 -27 -39 -26q-49 -41 -63 -51l-9 -13q-8 -10 -10 -12t-15 -26.5t-16 -28.5q-12 -25 -12 -27 q-2 -16 -2 -22v-25q0 -10 8 -27q39 -158 54 -188q25 -68 43 -168q4 -16 4 -53v-33q-2 -31 -2 -41l-9 -74q0 -6 -10 -47q0 -2 -22 -55q0 -2 -4 -8l-5 -9q-4 -2 -21 -25.5t-24 -27.5q-18 -29 -28 -33q-2 -6 -13.5 -15t-17.5 -11q-37 -27 -57 -33l-13 -2q-10 -4 -14 -4 q-20 -8 -39 -8h-31q-4 0 -18 2l-14 2q-4 2 -23.5 7t-21.5 5q-4 0 -25 21q-4 2 -12 11t-15 17l-8 11q-2 2 -9 19t-9 19q0 2 -8.5 15.5t-15.5 27t-7 15.5v35z" />
<glyph unicode="t" horiz-adv-x="681" d="M-12 -70l2 9q2 4 26 36q6 4 47 45q8 14 35 111q0 2 4 18.5t7 18.5q2 4 14 46t14 46q33 119 35 137v9h-8l-8 2l-74 -19h-6h-2q-4 2 -15.5 10.5t-13.5 8.5q-2 2 -10 9t-10 9q0 2 -8.5 17.5t-8.5 19.5l-4 12q-4 12 -4 14l-10 21q-2 12 -2 18l2 17q0 4 10 10q4 2 18.5 8 t32 12.5t23.5 8.5q8 4 73 18l21 4q23 4 25 4q16 8 26 8l10 11l4 8q4 8 4.5 10t4.5 18.5t4 18.5q23 72 39 139q2 2 10 32t8 32t4 18l4 17q0 4 19 20h14h14q59 -16 64 -20q8 0 37 -35l4 -8q4 -8 4 -11q10 -14 10 -28v-19v-18q-2 -2 -10 -22.5t-8 -22.5q-2 -6 -8.5 -26.5 t-12.5 -37t-6 -18.5v-9t1 -13.5t1 -10.5q8 0 99.5 3t109.5 1q41 0 82 -10q4 0 37 -8q25 -8 29 -11q2 0 18 -8q4 -2 31.5 -18.5t32 -18.5t28.5 -10v-74l-8 -8q-33 -8 -39 -10h-20h-25q-31 10 -55 10h-68h-72q-57 0 -118 -10q-25 0 -74 -8q-41 -8 -45 -8l-10 -11q-8 -8 -9 -18 l-8 -29q-8 -29 -12 -35l-6 -18q-4 -20 -8.5 -36.5t-4.5 -18.5q0 -4 -8 -33t-8 -31q0 -4 -16.5 -63.5t-20.5 -75.5q-10 -20 -10 -37q-2 -2 -6 -14t-4 -15q0 -4 -16.5 -58t-18.5 -60q-2 -4 -6 -18.5t-8 -26.5l-4 -11q-16 -33 -21 -36q-31 -37 -45 -46q0 -4 -22.5 -4t-22.5 4 q-2 0 -37 35l-4 8q-4 8 -6 11q-2 4 -15 26l-12 21q-8 16 -8 18q-2 4 -6 21l-4 16v4z" />
<glyph unicode="u" horiz-adv-x="864" d="M20 41v12l3 13q0 16 10 36q0 4 8 32t8 34l8 25q2 4 13 38l8 35q0 2 5 16.5t9 27t4 14.5q2 4 12.5 43t14.5 47q10 41 18 65l19 74q8 49 8 65v82q0 2 5 9.5t5 9.5q0 8 10 8q2 0 15.5 1t17.5 1l31 -2q18 0 27 -8q37 -25 38 -27q8 -8 9 -18q0 -2 3 -12.5l5 -17.5t2 -9v-55 v-54q0 -2 -2 -11t-5 -20.5t-3 -15.5q0 -6 -4.5 -21.5t-10.5 -33.5l-4 -18q-20 -51 -28 -93q-8 -25 -9 -37v-4v-6q37 45 74 74q0 2 10.5 13.5t21.5 24.5t15 19q2 4 27.5 38t50.5 64.5t31 35.5l10 10q2 2 22.5 26.5t24.5 28.5q43 49 64 64q27 18 36 18l11 -2q8 -2 19 -4t18 -2 q2 -2 13 -6t13 -4q16 -8 19 -11l18 -18q0 -2 5 -9.5t9 -15.5t4 -10q8 -25 9 -39v-16v-19q-4 -14 -22.5 -93t-22.5 -93q0 -2 -8.5 -31.5t-10.5 -32.5q-10 -29 -18 -73q-8 -41 -8 -45v-17q-2 -16 -3 -22q0 -4 3 -21v-14q0 -10 8 -18q2 -4 21.5 -23.5t21.5 -22t2 -16.5v-12 q0 -20 -8 -45l-11 -21q-8 -8 -18 -8q-16 -2 -23 -2l-22 2q-10 0 -19 8q-2 2 -10 13l-8 8q-2 2 -13.5 17.5t-13.5 17.5q-14 20 -28 47q-2 4 -19 45q-18 43 -18 55v61v68q0 29 8 37q2 2 2 18v19q-23 -23 -47 -56q-4 -6 -50 -64t-52 -65q0 -2 -13.5 -15t-25 -27.5t-11.5 -20.5 q0 -2 -6 -6l-8 -4q-49 -49 -100 -111q-6 -4 -29 -26q-29 -29 -45 -37q-20 -10 -39 -11q-14 0 -35 11l-18 18q-8 12 -39 74l-4 6q-4 6 -8 13t-4 9q-3 15 -3 21z" />
<glyph unicode="v" horiz-adv-x="804" d="M125 332q0 10 1 33.5t1 43v21.5l4 49q4 47 4 64q0 4 5 45t5 47v8l9 55v19q8 14 8 18l10 8l12 2h17l26 -2q2 0 11 -4l8 -4l26 -8l29 -29q10 -10 10 -18l8 -45v-8l2.5 -12.5t-2.5 -10.5v-8l-18 -74q0 -6 -8 -63q-8 -82 -8 -84l-2 -15v-34.5v-26.5t1 -41t1 -39q0 -2 8 -10 h10l45 47q4 4 26.5 31.5t28.5 34.5q43 55 54 73q16 12 75 109q66 98 138 213l41 39q0 -2 10 -4l6 -2l6 2q8 4 6 0q4 2 4 -9q0 -6 2 -6q12 0 25 6q16 10 29 11h26q10 -4 11 -11v-55q0 -12 -11 -26l-10 -21l-16 -27l-29 -36l-27 -46q-4 -10 -46 -88.5t-46 -87.5 q-20 -39 -55 -90q-45 -72 -47 -73q-8 -8 -8 -11l-19 -26l-26 -37l-47 -58q-4 -4 -33 -31.5t-33 -31.5l-35 -27q-8 -8 -18 -8q-2 0 -18.5 -1t-24.5 -1q-4 0 -20.5 1t-20.5 1l-45 45l-19 27l-10 20l-27 80q0 6 -8 47q0 6 -3 19.5t-5 23.5l-2 13v20t-1 41t-1 33zM709 668v4 q0 6 1 12t1 10l-39 -41q-10 -10 -10 -20l16 -8l18 28z" />
<glyph unicode="w" horiz-adv-x="1243" d="M12 86q0 4 1 20.5t1 18.5l4 14q4 14 8.5 32.5t6.5 27.5q0 2 5 20.5t12 41t9 30.5l2 6q2 6 5 14l4 6q0 2 4 18.5t4 18.5q45 135 55 174l19 56q2 6 10 42t10 42q0 8 16 8h31h25q18 0 37 -19q20 -12 47 -47q8 -27 8 -35v-18v-20q-6 -20 -8 -25l-37 -74q-10 -33 -47 -131 q-8 -33 -8 -37q0 -8 8 -8q31 23 47 45q6 8 46 52t46 51q2 4 26.5 32.5t26.5 30.5q8 8 24.5 26.5t28.5 32.5l13 15l129 129q8 8 18 8q2 0 15 -4l12 -4q2 0 23.5 -4t23.5 -4l10 -4q8 -4 16.5 -8.5t10.5 -6.5l10 -10q0 -2 4 -9l8 -14l4 -6q10 -20 11 -53v-276l8 -29q16 6 29 18 q4 6 41.5 47t42.5 48l8 8q49 61 82 110q4 6 23.5 30t33.5 42t16 20l93 93q2 0 9 4t9 4h18h19l8 -4q8 -4 10 -4l56 -19q18 -12 18 -18v-84q-27 -10 -37 -19q-43 -35 -63 -65q-4 -2 -74 -98q0 -2 -26.5 -41t-30.5 -43q-4 -6 -14.5 -20.5t-19.5 -28t-12 -15.5 q-4 -6 -23.5 -30.5t-21.5 -26.5q-117 -117 -139 -137q-4 -2 -19.5 -6.5t-17.5 -4.5h-14h-12q-2 0 -10.5 4t-8.5 7q-4 2 -13 12t-20.5 21.5l-13.5 13.5l-8 12q-8 12 -10 14q0 4 -12.5 33t-14.5 31q0 8 -10 18q-2 4 -6 18.5t-8.5 24.5t-4.5 12q0 8 -8 58q-2 6 -6 45t-4 45v29 q-10 -10 -68.5 -69.5t-68.5 -70.5q-8 -16 -84 -92q-33 -33 -64 -74l-147 -147q-2 -2 -27 -18l-18 -9h-29h-27l-8 4l-10 5l-18 18q-16 25 -21 29q0 2 -8 18l-8 19q-12 14 -19 28q-2 25 -2 35z" />
<glyph unicode="x" horiz-adv-x="911" d="M-184 -305l-6 24v9l-3 18h-4l9 8v-2q12 18 24 31h-2l25 22q4 4 8 11l10 12q12 10 43 47l12 10q106 113 220 219q12 14 48 50t44 41q27 33 86 77l16 17l21 26q6 2 15 15.5t9 17.5q-20 27 -29 39q-20 35 -38 47l2 -4q-2 2 -8.5 7t-8.5 7l-22 11h2l-39 22h8q-20 10 -53 10 h-2q-2 2 -4 2q-29 16 -45 39l-2 11l-5 14q-6 12 -9 22.5t-3 12.5q-12 12 -20 28l-9 15l13 18q2 0 4 2l-2 -2q25 6 37 6q20 4 43 4h8q80 -27 88 -26q6 0 31 -17l6 -8q10 -8 36.5 -31.5t37.5 -31.5q14 -12 34 -33q2 -2 14.5 -16.5t24 -25.5t15.5 -13l12 -13h12l29 27h-2l49 39 l74 53l-2 -2q4 2 21.5 15.5t41 30t35.5 24.5q2 2 5 4t5 4h-2l33 23q27 20 41 24q16 16 31 16q4 4 26 5q2 0 6 1t9 1q6 0 10 2l6 -9l14 -12h23l22 -2q4 -2 6 -2h19q12 -4 12 -14q2 -4 2 -8q4 -20 4 -37q0 -2 4 -23q2 -8 2 -20l-14 -21l-2 -2l-12 -8l-21 -10v2 q-33 -16 -39 -25l2 6q-47 -27 -167 -116q-25 -12 -86 -64h2l-15 -12l-16 -12q-14 -12 -17 -13q-23 -14 -32 -33l4 -10l117 -170l30 -24l29 -21l8 -24q8 -66 8 -123q0 -12 -6 -15l-26 -32q-10 0 -17 -2l-18 -2q-8 0 -21 8q-2 4 -4 6l-22 27l-25 26v-2l-18 29l-9 12l-4 10 l-6 17q-53 66 -121 170q-6 4 -14 12h2l-10 2l-12 -10q-68 -49 -91 -74l-10 -10t-18 -15l-8 -8q-61 -61 -78 -73l-11 -9q-10 -10 -18 -19t-10 -11l-15 -11l-40 -32q-6 -8 -36 -39t-38 -37l-72 -66l-6 -6l-29 -33q-4 -8 -14 -18l-12 -18q2 -2 0 -13l-2 -8h-2q-2 0 -2 -2v2 q0 -2 -5.5 -16.5t-7.5 -18.5q-6 -12 -18 -18h-2q-6 -12 -17 -13q-8 -2 -10 -2t-4 -1t-4 -1l-18 -2q-4 6 -11 13q-4 4 -18 10h4l-12 12l-15 10l-18 37q-6 8 -6 11q0 10 -2 14zM328 428l-2 2zM201 487zM201 487l-2 2zM956 520h-2h2z" />
<glyph unicode="y" horiz-adv-x="1140" d="M-96 -1001.5q0 4.5 2 18.5v14q8 47 10 47q0 12 35 66q16 16 18 16q20 10 37 11q47 10 66 18l4 -4q4 -4 4 -6v-13v-14q0 -4 -8.5 -35.5t-8.5 -38.5q-2 -4 -11 -27.5t-9 -27.5q-8 -49 -8 -55q0 -12 8 -29q4 -8 20 -8q4 0 40 4t42 4l7 2q6 2 12 5t8 3q4 2 15.5 6.5t20.5 8.5 t11 4q6 2 31 16l24 12l5 5q6 4 13 8t9 6q4 2 12.5 8t16.5 12l8 7l137 137q10 10 47 65q2 2 10.5 13.5t8.5 13.5q6 8 17 26.5t20 32.5l8 15q70 131 92 184q2 6 14.5 33.5t25.5 60.5t17 45q4 25 53 156q37 92 37 110q0 2 4.5 18.5t4.5 18.5q2 8 24.5 82t24.5 82q31 123 35 148 q10 41 10 73q0 4 -2 22.5t-2 22.5l-17 2q-10 -10 -35 -18q-4 0 -18 -10t-29.5 -22.5t-17.5 -12.5q-96 -70 -137 -92q-2 -2 -28 -23.5t-28 -23.5q-4 -4 -19 -14.5t-17.5 -12.5t-21.5 -15.5t-37.5 -25.5t-22.5 -12l-11 -10q-14 -14 -63 -48l-14 -10q-14 -8 -26.5 -16 t-14.5 -10q-20 -10 -39 -29q-8 -8 -19 -8q-2 0 -17.5 -3t-17.5 -5t-10 -2h-10q-2 0 -17.5 4t-17.5 6q-16 8 -18 8q-2 2 -7.5 9t-12.5 17.5t-9 12.5q-4 4 -10 16q-16 49 -17 66q0 2 -6 8l-4 8q-8 25 -8 29v12q0 10 -1 23.5t-1 19.5t1 19.5t1 23.5v12q0 8 9 83t9 83v37v37 q0 2 -5 36t-5 38q0 14 10 28l9 9q16 2 22 2h14l11 -2q27 0 35 -9q27 -20 47 -47q18 -29 18 -55v-29v-36q0 -55 -8 -101q-10 -41 -10 -82v-33v-32q18 0 26 8q2 2 33 23.5t33 23.5q10 10 18 10q2 2 18.5 14.5t18.5 12.5q37 23 92 63q2 2 22.5 19.5t22.5 19.5q6 6 37 27 q14 8 66 47q10 8 61 42t57 40q27 23 56 37q33 16 39 18q47 18 53 19l6 2h8l15 -2q37 -10 55 -19q16 -8 27 -18l26 -27q4 -4 10 -29q0 -4 3.5 -13t5.5 -15l2 -8v-31v-35q-10 -41 -11 -90q0 -20 -10 -57q0 -12 -8 -45q0 -2 -4 -22.5t-7 -39t-5 -20.5t-2 -11q-2 -4 -12.5 -51 t-14.5 -57q-10 -20 -10 -29q-2 -2 -10.5 -32.5t-8.5 -32.5q0 -16 -10 -27q-2 -8 -26.5 -91t-26.5 -93q-2 -4 -10 -27l-11 -20q-39 -127 -71 -211q-8 -25 -56 -119l-37 -74q-16 -33 -36 -63q-4 -8 -28 -48t-28 -47q0 -2 -8 -13t-10 -13q-4 -4 -15.5 -19.5t-13.5 -17.5l-8 -8 q-20 -31 -92 -103q-4 -4 -15.5 -14t-13.5 -12q-27 -27 -45 -39q-2 -2 -74 -45l-47 -29q-18 -6 -26 -8q-4 -2 -20.5 -7t-29 -8.5t-14.5 -3.5q-41 -8 -57 -8h-15q-14 -2 -18 -2t-18 2h-13q-27 0 -35 8l-22 13q-23 12 -27 14q-2 4 -17 20.5t-17 18.5l-9 12l-10 15l-29 28 q-2 2 -18 35q-8 25 -8 29v12q-2 14 -2 18.5z" />
<glyph unicode="z" horiz-adv-x="796" d="M-4 -115v21v12l2 8l10 13q2 4 13.5 16t15.5 22v-2l72 82l43 49l4 5q4 6 11 13l13 13q4 4 13.5 15.5t11.5 13.5q4 4 17.5 21.5t15.5 19.5q10 20 75 86q0 2 7.5 11t17.5 21.5t14 20.5l13 14l20 25l8 16v-2q12 14 90 115l9 14l12 21v4q-2 6 -2 8v12h-6q-6 2 -8.5 2h-8.5h-12 h-8q-6 0 -23.5 -4t-40 -8t-28.5 -6q-29 -8 -31 -8q-8 -4 -53 -24.5t-56 -26.5l-26 -15h2q-18 -12 -25 -12l-8 -2l-10 2q-14 0 -31 8l2 -2l-31 27l-18 74l-10 20v39l14 10l20 15l41 18l35 18l33 7q78 25 94 24l23 10q57 14 69 15h15q10 0 34.5 1t30.5 1t33 -1t35 -1h8l12 -4 q12 -4 26.5 -8.5t22.5 -4.5q6 -4 44 -22l-3 2q25 -18 60 -53l2 -5v-10v-12v-31q0 -37 -2 -49v-8q-10 -27 -14.5 -35t-16.5 -27l-18 -30q-6 -12 -13 -19q-6 -8 -19 -26.5t-20 -28.5l-24 -31l-31 -39q-35 -35 -41 -47l-12 -16l-12 -19l-6 -6l2 2l-5 -8q-10 -10 -49 -63 l-98 -123q-23 -23 -23 -33v-8v-19q68 6 136 19q4 0 28.5 2t38.5 4q10 2 27 2q8 0 36.5 3t41.5 3q61 4 67 4h25q14 0 43 1t35 1q10 0 42.5 -1t43.5 -1h10q10 -2 20 -2q8 0 33 -8l-2 2q20 -10 47 -10h31l12 -12q0 -2 1 -8.5t1 -10.5v-14q0 -2 -1 -13.5t-1 -15.5v-6 q-6 -8 -26 -23q-14 -10 -41 -18q-16 0 -25 -2q-61 -12 -98 -16l-127 -11h-53l-5 -2q-6 0 -15 -2t-15 -2q-12 -2 -31 -2q-31 -6 -49 -8l-23 -4q-33 0 -59 -10l-16 -2l-21 -7l-45 -8l-135 -31q-96 -27 -135 -26q-12 -2 -17 -2q-6 2 -10 2l-31 12l-10 4l-20 17l-2 6l-7 14 q-8 14 -10 12q0 4 -4 17l-6 14v10q0 6 -1 21.5t-1 19.5zM395 403l-2 -2z" />
<glyph unicode="{" horiz-adv-x="911" d="M1112 1317l-16 12h-19v12l-6 5l-12 12l-33 8h-12q-6 -8 -8 -14l-7 6l-12 -8l-39 -41q-2 -4 -2 -23q-14 -2 -16 -6l-12 -6l-5 -8l-10 -17l-4 -14l-16 4l-9 -12h5q4 0 4 -8l-9 -25l-2 -8l-10 -19l-12 -26l-27 -54l-14 -30q0 -12 -8 -27v-8l-2 -6l-4 -6q-2 -6 -5.5 -15.5 t-3.5 -17.5l-10 -23q-2 -16 -16 -51l-4 -12l-4 -8l-19 -64l-2 -2l-20 -49q-2 -8 -15.5 -34.5t-13.5 -41.5l-20 -43l-25 4l-2 -4l4 -2h6l-2 -14l-16 -27q0 -2 -4 -10l-5 -8q-6 -8 -14 -19.5t-12 -17.5l-27 -35q12 -10 17.5 -24.5t7.5 -27.5t2 -15l-2 -109l-2 -2v-14 q0 -2 -1 -8.5t-1 -10.5l-6 -22v-17q-12 -12 -13 -45q-2 -2 -9 -20.5t-17.5 -48t-20.5 -50.5l-10 -22q-16 -43 -35 -66l-12 -28v2q-2 -2 -2 -6l-39 -62q0 -4 -4 -9t-6 -7l-13 -19v-12q0 -6 -6 -17.5t-12 -13.5h2q-6 -6 -6 -43h-10q-20 -33 -21 -69l2 -11h10q0 -18 11 -24v-2 q0 -12 39 -45h2v6l14 -12l8 -9q10 0 17 -2h53q18 6 61 7l4 -11q2 0 6.5 1t9.5 2t9 1v15q29 0 47 -7.5t25 -11.5l6 -6v-24q0 -31 -23 -41l-35 -19l-20 -14h-12q-27 -18 -62 -19h-98l-21 7q-2 0 -6 2t-6 2h2l-27 2h-6l-6 2l-6 6h4q-4 0 -20.5 5t-20.5 5v0h-4v-12 q-51 39 -59 39l-39 30l-29 29q0 10 -6 12t-15.5 28t-9.5 36v6l-4 27v2v6q0 57 9 72q2 16 14 48.5t12 37.5l25 45l10 12h-2q0 2 4 8q2 6 2 8l37 62l4 2v6l10 20q0 2 5 12.5t5 12.5v-2l11 27l6 4l8 18l16 27l9 2h-2q0 37 18 63l12 21l-4 -2q0 6 4 19t4 20l9 12q6 20 8 26 q10 49 12 52v78q-2 4 -6 16v-4l-2 4q-10 4 -12 10l4 -2l-9 6h-20q-14 10 -18 10l-13 17l4 -2q8 -4 9 -4q2 0 2 2l-19 18l-14 -8l-14 18l-19 21v-2q-20 14 -20 49q0 12 20 35v-2l8 12l15 2q10 4 26 4h47q37 -4 43 -4l9 -4l8 4l8 6l-2 2l4 4l2 -2l35 54h-2l26 59q0 10 9 18 l22 41v-2l12 33l7 29l4 12q20 51 20 62q4 2 12.5 22.5t8.5 22.5h-7l15 24q0 2 3 11.5t3 13.5l2 14q4 14 13.5 39t21.5 45v37h12h6l17 37q0 4 4 8h2v4q0 27 39 66q8 20 12 22v-2l6 6q0 6 6 16.5t15.5 22.5t13.5 19l90 92q12 6 14 8l31 16l23 6q25 4 41 5h49q33 -2 41 -15v2 q4 -4 25.5 -10t27.5 -6q53 -41 78 -62v-51v-4v-41h-74v-12z" />
<glyph unicode="|" horiz-adv-x="1067" d="M133 -557q0 2 2 12l2 8q2 25 4 35q20 41 21 58q18 37 18 71q8 20 58.5 175t62.5 188q2 6 20.5 53t20.5 51q2 12 18.5 62.5t16.5 52.5q8 25 18 65q2 2 18.5 48.5t20.5 52.5q43 145 66 194q4 12 36.5 110.5t34.5 106.5q2 6 66 195q16 29 37 121q12 12 12 41q6 25 8 24 q2 6 14.5 47t12.5 48q0 4 5 10t7 6q2 10 21.5 71.5t21.5 69.5q2 6 14.5 48t12.5 44q14 14 14 23q0 2 19 8h10h16q16 -8 37 -8h37q2 -2 17.5 -18.5t19.5 -20.5l6 -8q4 -6 9 -12.5t7 -6.5l4 -10q4 -20 5 -28l-5 -31q0 -10 -26 -90q-2 -8 -9.5 -32t-7.5 -26q-10 -35 -20 -43 q-37 -100 -45 -143q-68 -203 -74 -244q-6 -14 -27.5 -75.5t-46 -134t-32.5 -95.5q-2 -12 -20.5 -65.5t-39 -111.5t-22.5 -65q-4 -8 -19.5 -58t-17.5 -54q0 -4 -12.5 -30t-14.5 -28q-2 -4 -9 -24.5t-16.5 -44t-13.5 -31.5q-2 -12 -55 -170q-49 -115 -55 -158 q-4 -6 -11.5 -29.5t-9.5 -27.5q-2 -12 -18.5 -66.5t-18.5 -64.5q0 -14 -12 -45q0 -2 -2 -31.5t-2 -34.5q-6 -27 -23 -36h-14l-14 -3l-35 3q-2 0 -14.5 10t-14.5 10t-14 4l-12 2q-25 25 -27 31q-4 0 -16.5 8t-16.5 8q-4 8 -4 13q-4 12 -4 16z" />
<glyph unicode="}" horiz-adv-x="911" d="M-186 -383q0 4 12 19.5t20 19.5h2l27 18h47q4 -4 18.5 -8t24.5 -12t10 -21h-8l8 -10q6 10 9 10h2l20 15q45 14 55 22l15 11l26 14h-2l45 35l13 22l-2 -2l8 14q2 2 8 14.5t12 18.5q-6 2 -12 8l12 31v12q0 4 5.5 30t5.5 40q0 27 4 33q10 41 10 74l8 6v2q2 4 2 6v4 q0 12 4 14v11q6 12 6 24q4 0 9 14l4 15l8 12q-2 16 12 33q6 6 6 20l15 11v-2l32 36l9 15q-4 4 -11 8l-6 6l-4 29q-6 25 -6 49v90q-2 16 8 49t10 49l11 13l14 28l47 74h-2l6 10q2 4 2 6q2 2 34 50.5t38 56.5l31 41l18 31q6 20 17.5 45.5t17.5 43t6 27.5q14 14 14 27l4 22 q0 6 5 11v39q-4 25 -5 39q-10 4 -10 30l-8 15l2 -2l-14 18v-2q-4 4 -21.5 24.5t-34.5 34.5l-8 6l-16 9q-20 0 -42 11t-22 21v9v8q-2 2 -2 6l-6 27q0 4 2 13t2 11l-12 4l57 37h90v-8q12 0 48 -25v17q43 -37 45 -37l39 -43v4l20 -16q20 -20 29 -48l6 -12h-2l8 -12l27 -41 l18 -64l8 -20v-98q0 -2 -6 -22.5t-8 -31.5l-4 -26l-4 -2v2q-6 -25 -13 -35h2l-10 -23v7q0 10 2 12q-23 -45 -41 -60l15 -6l-9 -18v0l-4 -4l-4 -4h2l-24 -43l-21 -33h2l-35 -55q-10 -4 -16 -11.5t-12 -18.5t-8 -15h2l-9 -21l-32 -51q-12 -18 -13 -27l-18 -49h-6v-2l-2 -2v-31 q-4 -16 -4 -26v-19q2 -4 4 -6v-33h100q6 0 33 -8t31 -8q8 -12 16 -18l4 -23v-41l-2 -2v-41q-12 0 -12 -8q-31 0 -84 -14q-20 -4 -49 -5h-21l-12 -4l-17 -18l-10 -4l-22 -25v-6q0 -4 -2 -8l-4 -4h2l-13 -23v-8l-6 -4l-2 -6q0 -4 -8 -37v2q-6 -6 -6 -23l-4 -8q0 -18 -4 -26 l-2 -9q0 -2 2 -4v-2q0 -25 -9 -32v-2q0 -4 -12 -35l17 -2q-12 -25 -13 -52v-14h-6l-2 -8q-2 -6 -2 -10v-17l-8 -16v2q0 -4 -2 -6l-8 -29l-7 -8v-4q-8 -39 -39 -57l-8 -15q-10 -14 -24 -24l-51 -23q-2 0 -7 -2v-2q0 -6 -30 -14l-41 -25q-4 -2 -14.5 -6t-16.5 -8l-72 -33 l-16 -8h-59l-11 8h-12q-12 0 -33 12v-2q-43 10 -65 39l-11 8q-29 18 -28 47v-2q-6 0 -6 17v12z" />
<glyph unicode="~" horiz-adv-x="2342" d="M1505 477q-14 0 -26.5 3t-17.5 6t-3 6q-55 20 -80 40q-2 2 -7 6.5t-9 8.5q-6 10 -12 10l-29 14q-2 4 -7 10.5t-7 8.5l-11 10q-51 57 -84 82l-2 6l-49 57q0 2 -2 5q-8 4 -22 16q-4 4 -12.5 13t-12.5 12l-22 16l-35 20q-4 0 -10.5 2t-8.5 2h-2h-16l-14 -4l-13 -4 q-45 -14 -53 -20q-23 -8 -53 -27l-27 -14l-31 -21q-12 -10 -18 -16l-47 -47q-2 -2 -43 -53q-27 -6 -39 0q-37 0 -49 16l-2 2q-35 35 -35 82v41l8 25l84 81q8 0 51 33l21 17l78 43l26 14l17 6q12 2 24 8q6 2 14.5 5t12.5 6h4q8 6 24 6h50q12 0 30 -6l11 -5h8q27 -16 53 -16 q41 -25 55 -27l15 -10q2 -2 4 -2q76 -59 133 -127l10 -6l82 -80q-2 0 4 -6l14 -14q14 -18 35 -27l37 -25q10 0 35 -14h47q25 14 53 14l35 13q18 8 35 4l-8 6l139 72v-2l39 30l22 15l21 18l8 8l21 11q14 18 39 18l4 4h51q6 -6 16 -6l17 -19q25 -18 32 -36v-45q0 -23 -16 -35 l-8 -15l-31 -41q-8 -10 -24.5 -20t-18.5 -12q-37 -29 -47 -37l-31 -23l-16 -6q-6 -2 -13.5 -7t-9.5 -5l-10 -4l-57 -27q-16 -6 -27.5 -12t-17.5 -8q-33 -16 -58 -21l-65 -14h-94q-17 0 -56 14z" />
<glyph unicode="&#xa1;" horiz-adv-x="841" d="M680 952v-22l-2 -15q0 -16 -10 -26q0 -4 -12.5 -28.5t-12.5 -26.5q-10 -14 -20 -48q-2 -2 -19 -26q-8 -8 -10 -8q-4 -4 -31 -4q-29 0 -33 4q-6 0 -63 24q-16 8 -29 21l-26 26q-2 2 -6.5 13.5t-4.5 13.5v16v13q0 2 4.5 14t6.5 14q2 4 19.5 32t34.5 54.5t19 32.5 q2 2 6.5 14.5t4.5 14.5q0 16 8 16q0 2 4 6l4 4q10 0 18 9q4 2 15.5 6t13.5 4h4h6q25 -8 25 -10l74 -74q4 -2 10 -27l2 -14v-23zM467 326v-35q0 -2 -5 -35t-9 -60.5t-4 -33.5v-19q0 -4 -4.5 -27.5t-6.5 -27.5q0 -4 -3 -20.5t-8 -33t-5 -20.5q-6 -25 -29 -92q0 -2 -4 -14 t-6 -14l-4 -17q-4 -16 -4 -18q-4 -14 -46 -119t-46 -113q-29 -66 -37 -110q-12 -31 -19 -74q0 -2 -4 -27.5t-6 -27.5q0 -12 -8 -29q-16 -16 -18.5 -16t-18.5 -1t-18 -1h-23l-14 2q-14 6 -19 8q-2 2 -14 10t-14 8l-17 8q-16 8 -18 11l-10 10l-29 35v39v34q0 6 47 121 q2 4 10 23.5t8 21.5q18 55 48 113l8 25q4 10 33.5 83.5t31.5 83.5q2 4 13.5 40t13.5 42q0 2 8 32t10 32q0 2 4 16l5 13v10q20 133 28 164q4 8 19 65l8 27q2 2 11 10t17.5 16.5t10.5 12.5q2 0 18 8l17 8l10 10h4h4q4 -2 29 -18q2 0 6 -4l4 -4q2 -4 13 -19.5t14 -19.5 q8 -8 8 -19q10 -14 10 -34v-39z" />
<glyph unicode="&#xa2;" horiz-adv-x="1411" d="M395 -512q0 4 2 12v8q0 2 3 25t7.5 51.5t6.5 42.5q0 4 4 29t6 27q0 2 4 32.5t4 32.5q10 10 10 35q8 49 11 57v19v16q0 6 -11 10q-16 8 -55 9q-16 0 -27 10q-66 27 -73 26q-59 35 -84 58q-2 0 -27 24q-2 4 -14 19.5t-15 19.5q-12 25 -28 45q0 2 -4 10l-4 9q0 2 -4.5 14 t-4.5 14t-4 22.5t-4 22.5t-4 14.5t-6 14.5q0 4 -1 33t-1 35v24.5v30.5l2 14q0 31 10 56q0 4 5 21.5t11.5 36.5t8.5 26q14 23 28 63q12 31 29 55l8 15q8 12 9 14q8 4 28 45q6 8 29.5 43t25.5 39l56 74q10 12 100 102q4 2 23.5 17.5t23.5 17.5q2 4 27 20q8 4 38.5 23.5 t35.5 21.5l8 5q8 4 12 4q2 2 30.5 14t33.5 14q18 8 18 11q8 8 10 8q0 4 8 37q27 129 27 137q2 4 6 28.5t4 28.5q27 150 29 156q6 8 8 8h4h4q2 0 18.5 -4t18.5 -4h21q25 -8 34 -19l48 -47v-41v-41q-8 -57 -29 -139q-8 -33 -8 -63v-7q-2 -6 -2 -10l2 -10q0 -4 18 -10 q2 -2 22.5 -10.5t22.5 -8.5q70 -29 92 -45q2 0 14.5 -8t14.5 -10q0 -2 8 -10l8 -9q14 -14 39 -55q18 -27 19 -39q0 -2 4 -21.5t4 -23.5v-33v-30q0 -4 -8 -29q-8 -6 -10.5 -8t-18.5 -10q-2 0 -13 -4.5t-16 -4.5h-2h-6l-16 9q-10 4 -10 10q-2 2 -11 26q0 29 -8 37 q-16 41 -28 58q-23 23 -27 24q-8 8 -39 21q-8 8 -25 8q-31 10 -47 10q-18 0 -18 -10q0 -4 -8.5 -36t-10.5 -38q-2 -4 -18 -100q0 -2 -4 -27.5t-6 -27.5q0 -2 -4 -18.5t-4 -18.5q-18 -92 -19 -101q0 -4 -4 -20.5t-4 -18.5q-4 -20 -24.5 -110t-22.5 -101q-27 -106 -27 -137 q-2 -8 -6 -32.5t-8 -50t-4 -27.5q-2 -2 0 -12.5t2 -12.5q2 0 37 -3t43 -1q27 0 73 20q10 0 27 9q4 0 24.5 8t22.5 8q6 4 20.5 10t28.5 13l15 6q53 27 55 28q45 23 102 64l19 18q0 8 16 8q2 2 10 3v-35q2 0 7 -1l4 -1l8 4q8 4 10 4q20 10 27 10h10h8q8 0 8 -10v-101 q0 -4 -24.5 -28.5t-38.5 -36.5q-2 0 -16.5 -9t-32 -20.5t-25.5 -15.5q-4 -4 -39 -23.5t-43 -23.5l-37 -19q-2 0 -15 -5t-25.5 -8t-16.5 -3q-88 -27 -145 -39q-2 0 -22.5 -2t-49.5 -4t-39 -2h-18q-16 -8 -19 -10q-2 0 -6 -11l-4 -6q0 -4 -5 -30.5t-12.5 -62.5t-9.5 -46 q-2 -6 -10 -51t-8 -49q0 -2 -4 -23.5t-6 -23.5q0 -59 -9 -101l-18 -55q0 -2 -4 -10l-4 -9l-10 -10q-16 -8 -19 -8h-10h-8l-27 8q-4 2 -20.5 27.5t-18.5 28t-14 14.5t-12 14q-8 8 -9 19q-2 12 -2 16zM250 233v-34q0 -4 8 -29l8 -18l66 -66l10 -6q10 -6 21.5 -12.5t15.5 -6.5 q2 -2 27 -10q20 -10 36 -10h23h22q2 4 11 29q0 4 4 40.5t4 41.5q4 6 20 92q0 2 4.5 26.5t4.5 28.5q2 2 10 47q29 145 35 174q16 66 20 74q8 33 8 47v8q2 2 6 18.5t4 18.5q0 6 8.5 51t8.5 49q0 2 4 22.5t6 22.5v23q-8 -2 -10 -2q-2 -2 -13.5 -10t-13.5 -11q-10 -8 -147 -145 q-31 -31 -47 -55q-2 -4 -22.5 -46t-22.5 -46l-9 -13q-8 -12 -10 -14q-2 -6 -45 -84q-8 -16 -10 -18q-6 -10 -19 -45q-2 -4 -10 -29t-8 -29q-8 -33 -8 -35v-39zM1151 180l-4 4q-4 0 -4 -4t4 -4t4 4zM600 391q-2 2 -4 -4q-2 -12 4 -14q2 2 2 9t-2 9zM627 512q-8 -8 -9 -10 q-2 -6 -2 -8t1 -6l1 -5l5 4q4 4 4 7v8v10zM645 631q-4 2 -4 -2q-2 -8 4 -8q4 2 4 5t-4 5zM653 659q-2 0 -2 -5t2 -5q4 2 4 5t-4 5z" />
<glyph unicode="&#xa3;" horiz-adv-x="1458" d="M362 -416q0 6 -1 45t-1 45v33t1 40t1 20q43 211 48 231q4 12 28.5 120.5t26.5 119.5q0 4 3 15t5 21l2 9v18v18q-41 8 -65 9h-29q-12 4 -66.5 15t-60.5 13q-23 8 -39 19q-18 12 -27 28q-18 37 -18 56l-4 8q-4 8 -4 10q-2 16 -2 25v10l2 10q0 4 7 11.5t11 7.5 q16 -12 45 -19l29 -2q29 -2 35 -6q2 -2 20 -2q8 0 64 -18q33 -8 92 -9h24h21q2 0 10 8.5t8 18.5q0 8 11 29q4 16 23.5 92t21.5 82l-19 18h-16q-47 12 -94 19q-6 2 -34 11t-30 9l-14 6q-12 4 -24.5 10.5t-16.5 10.5q-23 12 -27 18q-10 0 -10 8q-2 2 -6 9.5t-8 13.5l-4 6 q-2 2 -11 27q0 4 -2 13t-4 15l-2 9q0 4 -1 25.5t-1 23.5q2 0 24.5 -1t24.5 -1t15 -7l12 -4q4 0 32.5 -8t32.5 -10q2 -2 27 -10t27 -8l94 -19h41h41q0 2 4 10l4 9q8 16 8 26q12 49 21 74q16 49 16 57q0 2 5 17.5t5 17.5q2 6 6.5 21.5t8.5 29t4 15.5q10 37 28 81q0 4 9.5 28 t20.5 52.5t15 40.5q18 55 37 92q43 92 74 146q12 25 37 57l37 37q8 8 28 19l56 18h75h70q74 -25 84 -29q12 -4 55 -28q37 -18 54 -35q2 -2 24.5 -14.5t24.5 -14.5l63 -63l6 -7q6 -8 12.5 -17t10.5 -13q8 -12 16 -29q27 -53 29 -53q0 -23 -10 -39q-2 -4 -13.5 -14.5 t-15.5 -12.5h-12h-15l-18 19q-2 2 -18.5 22.5t-18.5 22.5q-39 45 -65 65q-43 33 -54 35q-4 4 -25.5 11.5t-29.5 7.5q-6 0 -36.5 10t-47.5 10h-37h-35q-2 0 -19 -4t-19 -6q-16 -8 -27 -19q-16 -16 -29 -34q-2 -6 -17.5 -33t-19.5 -33q-2 -2 -5 -14.5t-3 -14.5l-18 -37 q-16 -33 -27 -63l-74 -203q-45 -121 -45 -155q0 -2 -6 -15l-6 -14q0 -2 2 -22.5t2 -22.5h6q16 0 53 2t65 4t30 2q33 0 63 10q41 8 74 9h22q23 2 31 2q6 0 17.5 -1t21.5 -1h10q14 0 27 -9l8 -4q8 -4 10 -6q2 0 18.5 -4t20.5 -4q4 -2 15 -6l10 -4q2 0 15.5 -8.5t13.5 -10.5 q8 -8 20 -8q8 0 8 -10q8 -16 8 -19v-20v-17q-8 -14 -36 -36q-20 -6 -29 -9q-2 -2 -17.5 -6t-17.5 -4h-6h-4q-16 8 -19 10l-18 19l-4 4l-8 4l-4 2h-15h-14q-6 -2 -39 -6t-69.5 -9t-39.5 -5q-14 -2 -85.5 -10.5t-79.5 -8.5q-8 -2 -50.5 -6t-50.5 -4q-2 0 -18 -16 q-2 -2 -10 -29q0 -2 -4.5 -18.5t-8.5 -36.5l-6 -19q-8 -8 -8 -26q-10 -31 -10 -37q0 -2 -4 -25.5t-4 -30.5v-6v-2l8 -10h37q2 0 18 -4t18 -4h9q41 -10 65 -10h27q6 -2 47 -6.5t47 -4.5q82 -8 147 -8l9 -10h63q6 0 10 -8q27 -51 27 -56v-4v-6l-16 -16l-21 -11q-4 -2 -19.5 -6 t-28.5 -8t-15 -4q-31 -10 -93 -10h-102h-100q-2 0 -36 5t-38 5l-23 2h-26q-4 0 -26.5 -1t-24.5 -1q-2 -2 -6 -14l-5 -15q-8 -16 -8 -34q0 -2 -13 -67t-13 -73q-10 -20 -11 -37q-2 -10 -13 -62t-21.5 -101.5t-12.5 -65.5q-16 -90 -16 -100q-10 -37 -10 -84l-2 -13v-16l2 -27 q8 -33 8 -47q0 -8 10 -8q20 -10 27 -10h28h35q102 10 195 10h100q8 0 74.5 4t73.5 4h10q31 6 74 21q25 8 26 8l12 8q14 10 17 10q31 2 41 2q4 0 21.5 -1t19.5 -1l8 -8q12 -12 20 -28l19 -37v-4v-4q-8 -16 -10 -19l-5 -4q-4 -6 -8 -11t-6 -5q-14 -14 -26 -19q-31 -18 -56 -26 q-4 0 -37 -9h-10q-41 -20 -53 -20q-49 -8 -113 -8l-100 -8l-8 -3q-16 0 -162 -8t-162 -8h-20h-17l-73 16q-23 6 -27 11q-23 14 -37 37l-37 73q-10 20 -18 45q-3 6 -11 39zM602 604q-8 0 -8 -8v-6q-2 -6 -2 -8l2 -7v-8zM768 1194q-6 0 -6 -9t6 -9q8 0 8 9t-8 9zM786 1249 q-4 2 -4 -2q-2 -8 4 -8q12 4 0 10zM795 1286q-6 0 -6.5 -9t6.5 -9q8 0 8 9t-8 9z" />
<glyph unicode="&#xa5;" horiz-adv-x="1554" d="M1159 -819q-2 -4 -5 -4t-5 4l6 2zM1139 -801q8 0 8 -9t-8 -9q-6 0 -6 9t6 9zM401 -580v11l2 8q0 8 19 45q0 2 4 14.5t6 14.5l4 16q4 16 4 18t4.5 14.5t6.5 14.5q0 2 5 19.5t8 33t3 21.5q53 229 57 248q0 6 4 29.5t4 27.5v16v19q-8 -2 -55 -10.5t-55 -8.5q-2 0 -21.5 -4 t-23.5 -4t-19.5 -4t-17.5 -4q-20 -10 -29 -10q-16 -2 -24 -2l-21 2q-31 8 -37 18l-18 37q-2 0 -6 4l-4 4q-23 45 -29 45q0 8 10 29q12 12 39 18q0 2 64 19q25 8 34 8q2 0 22.5 4t25.5 6q2 0 26.5 4t28.5 6q6 0 64.5 8.5t64.5 10.5q4 0 29 8q8 8 8 10t2 13.5t5 25t3 17.5v47 v45q-8 14 -10 16q0 2 -8 10h-52h-51q-6 0 -32.5 -3t-49 -5t-29 -2t-71.5 -16q-2 0 -14.5 -4t-14.5 -6q-33 -8 -37 -9q-12 -2 -16 -2h-6l-6 2q-12 0 -37 19q-8 6 -8 8l-4 12l-5 15q-10 10 -10 20l-2 8v17.5v15.5q0 2 1 20.5t1 20.5q2 2 10 6l9 4q41 16 55 17q2 2 55 10 q49 8 74 8q8 0 59.5 4t59.5 6h14h26.5h14.5q27 0 27 8q2 12 2 17l-2 20q0 8 -8.5 59.5t-8.5 61.5l-18 92q-2 2 -6 18.5t-4 18.5q0 25 -11 45q-6 57 -18 103q0 2 -4 26.5t-4 26.5t-4 18.5t-4 20.5q-2 4 -6.5 23.5t-4.5 21.5t-4 26.5t-4 28.5q-35 137 -39 148q0 10 -26 82 q-8 31 -19 47q0 2 -8 18t-10 16q-2 8 -19 58q-8 33 -8 37v18v19l8 16q8 2 13 2q2 0 8 -2h8l12 -4q12 -4 15 -4q4 0 28.5 -4t26.5 -4t10 -5l8 -4q43 -43 45 -49q8 0 29 -63q2 -2 6 -13.5t4 -13.5q16 -80 56 -221q14 -66 18 -82q8 -61 55 -279l4 -16q4 -16 5 -18q2 -2 6 -27 t4 -29q2 -14 17.5 -92t17.5 -92l10 -10h10h8q6 0 10 10q20 31 35 45q6 8 26.5 39t44 68.5t32.5 48.5q2 6 55 94q53 86 92 137q0 2 13.5 18.5t13.5 18.5q2 4 31.5 46t33.5 46q4 6 64 82q4 6 13 17.5t18 19.5l6 10q8 6 58 61.5t52 57.5q51 51 92 102l9 11q8 0 28 -11 q2 -2 32 -6t32 -4q23 -8 39 -18q14 -10 26 -35l2 -10v-15q0 -2 -1 -11t-1 -11q-96 -88 -184 -185q-2 -2 -25.5 -30.5t-52.5 -64.5t-43 -52q-2 -2 -8 -10t-12 -16.5t-6 -10.5q-18 -27 -89 -133t-77 -115q-6 -12 -57.5 -94t-61.5 -100q-2 -2 -19 -35l2 -8q8 0 57.5 -1t59.5 -1 q8 2 55.5 6t55.5 4q14 0 129 16q6 0 36.5 8.5t37.5 10.5q16 -8 18 -8l74 -19l18 -18q16 -25 19 -29q8 -8 8 -27l2 -8l-2 -10q0 -2 -8 -18l-11 -11q-25 -8 -34 -18q-4 0 -25 -4t-23 -4q-4 0 -38.5 -12.5t-43.5 -14.5q0 -2 -8 -6t-10 -4h-10h-10q-10 10 -27 10h-25h-30 q-6 -2 -64.5 -6t-64.5 -4q-92 -10 -148 -10h-82q-12 0 -37 -9q-20 -53 -36 -139v-6q2 -4 3 -9t1 -7h290q25 -12 37 -13q4 0 41 -8t41 -10q0 -2 8.5 -6t10.5 -4q23 -14 28 -29q2 -16 2 -20.5v-14.5l-2 -10l-18 -19l-21 -10q-4 0 -53 -8q-6 0 -25.5 -3t-33 -4t-15.5 -1h-94 q-23 0 -145 -10q-35 0 -84 -9q0 -2 -4 -6l-4 -4q-8 -8 -9 -18q-23 -90 -47 -221q0 -2 -4 -18.5t-10 -37.5l-4 -18q0 -2 -4 -22.5t-4 -22.5t-4 -18.5t-9 -37.5l-6 -18q-2 -2 -6 -26.5t-4 -28.5q0 -2 -7 -30t-11 -36q-2 0 -6.5 -12t-4.5 -14q0 -49 -8 -82q0 -2 -18 -29 l-19 -18l-12 -5q-12 -4 -16 -4h-4h-5q-4 0 -19 4.5t-17 4.5t-11 4l-8 4q-61 61 -63 65q-10 4 -11 27l-2 8v12zM928 782q-6 0 -6 -9t6 -9q8 0 8 9t-8 9zM938 799q-4 4 -4 -2t4 -6q4 2 4 5t-4 3zM991 883q-16 -16 -16 -27v-6v-4q0 2 4 6l4 4l8 16v7v4zM1020 930q-4 0 -4 -5 t4 -5q4 2 4 5t-4 5zM1178 1151l-13.5 -13.5t-20.5 -21.5t-14 -12q-2 -2 -14 -23l-12 -22q-33 -49 -39 -55q0 -2 -4 -14.5t-4 -14.5l18 18q6 6 28.5 38t26.5 36q20 41 29 45q10 20 19 29v4v6zM1196 1167q-8 0 -8 -8t8 -8q6 0 6 8t-6 8zM1222.5 1214q-8.5 0 -8.5 -9t8.5 -9 t8.5 9t-8.5 9zM1270 1270q-8 0 -8 -9.5t8 -9.5q6 0 6 9.5t-6 9.5z" />
<glyph unicode="&#xa7;" horiz-adv-x="1409" d="M-266 -954q0 4 12 53l37 72l12 20q27 35 25 35l26.5 26.5l37 37l20.5 20.5l63 47h-2q4 4 27 10l33 12q16 4 22 9l68 16q2 0 14 -2t29.5 -4t27.5 -2l35 -6l23 -8q6 0 17 -5.5t18.5 -8.5t7.5 -5l8 -6l24 -31l19 -26q12 -12 12 -21l2 -4l8 -8l25 -60q0 -4 4 -24.5t4 -22.5 v-80q0 -14 -6 -32q-2 -12 -4 -15l-16 -32q-29 -14 -39 -15h-41q-8 0 -17 2q-12 0 -24 8l-10 15q-14 14 -39 51v25l-9 47l-12 51q-2 0 -4 4l-14 25l-11 8h-4l-34 -13h2l-15 -8h-4q-8 -8 -14 -8l-37 -33h2l-29 -30v2l-28 -33l-17 -25v2l-10 -16l-6 -10q-6 -12 -6 -21 q-8 -16 -8 -43q0 -2 3 -18.5t3 -22.5l6 -12v-4l8 -23l8 -16l15 -18v2l2 -7l20 -26l10 -17l47 -49h-2l33 -28l4 -4q4 -4 27.5 -15.5t28.5 -13.5l53 -14q16 -10 57 -11h156q31 0 55 11q90 8 100 14l84 20l23 9h6l33 12q4 0 12 3t12 3l33 14q23 31 53 58l21 20l12 -10 q31 61 27 63q-2 2 -19 -22l-2 -2q10 20 17 28v5q0 14 24 38l-12 3q6 18 6 30v140q-10 31 -22 83l-7 27l-12 31h2l-12 24l-2 11q-6 10 -6 16l-53 107v-3l-31 52l-23 39v-2l-6 10l-16 26v-2l-43 64q0 2 -13.5 17.5t-15.5 17.5l-14 28q-12 12 -35 41t-29 37l-20 29 q-12 12 -53 63l-25 35l-25 29l-12 24h2l-6 9l2 -5l-33 39l-2 9v-5l-49 76q-20 20 -41 56l-41 59l-16 29l-15 28l-26 47l-6 11l-2 2l-13 47l-8 24q-2 6 -5 22.5t-7 29.5l-2 12v8q0 2 -1 11.5t-1 15.5v49q0 6 1 17t1 16v16q0 31 6 49l10 25l10 24v-2l13 23h-2l6 16q6 8 8 8 q12 20 25 29l6 8l14 10l18 15l62 41l49 30q57 33 78 39q2 0 11 3t11 3t17.5 3.5t17.5 3.5l8 6q-12 45 -16 78q-8 20 -14 69q-8 37 -8 68v178q0 27 8 68l14 75l16 -2l-6 39q0 14 8 25l35 71l15 27l39 53q23 33 43 47h6l20 17q2 4 10.5 8t12.5 8h-2l18 15q0 4 14 4l13 6h2 q4 0 4 2q16 8 74 22h88q2 0 38.5 -4t47.5 -4l28 -4l19 -4q4 0 18.5 -4t20.5 -4q25 -6 32 -6q47 -12 64 -23l61 -29l35 -24l31 -21v-2l35 -24l6 -8q8 -8 14 -14.5t8 -6.5l-10 -14q57 -57 58 -51q0 2 -13 20l-2 2q4 -2 8 -8t10.5 -15.5t10.5 -13.5q2 0 2 -2v-2l22 -37l23 -39 l29 -65l2 -4q2 -4 2 -6l2 -5q2 -6 2 -8v-4l2 -4v2q6 -43 6 -49v-43l-2 -49q0 -8 -2 -12v-2q4 -25 -12 -41q-2 -6 -7.5 -20.5t-7.5 -20.5l-16 -35v4q-6 -6 -6 -10l-13 -17l-26 -39l-10 -10l-62 -43l-10 -4l-10 -2l-4 -2h-7l-14 2l-31 6q-10 10 -18 23l6 79l10 19q0 31 17 88 v-2l6 14q8 23 10 27l4 45l6 35v18l-2 6v15v2q-2 4 -2 6q-6 20 -4 24q-2 2 -2 5v4q-4 8 -4 14l-25 49q-8 18 -45 49l-36 39l-23 19l-41 28l2 -2l-18 6l-64 25q-6 0 -24.5 3t-20.5 3h-74q-2 0 -8 -3t-10 -3l-29 -8l-16 -6q-4 -2 -14 -2l-19 -9l-8 -6l-23 -18h2l-22 -23 l-12 -10v2l-29 -43h2l-29 -57l-10 -23h2l-10 -24l-4 -15l-8 -28l-7 -31q-6 -12 -6 -33v-176q0 -18 9 -47l6 -41l6 -21l10 -34q8 -29 21 -64l10 -29v3l4 -19l8 -16l18 -49h-2l23 -41l16 -31v2q6 -10 16.5 -33.5t12.5 -25.5l14 -23v-4l23 -41q10 -16 18 -29l27 -41l20 -30 l31 -47l133 -203l51 -82l13 -19l24 -30l54 -80v2q8 -8 8 -17q8 -12 16 -47v-133l-20 -65l-13 -23l-8 -12l2 2q-4 -16 -26 -43q-8 -12 -25 -29l-29 -14l-14 -6q-6 -4 -14 -4h-9q-25 6 -30 8l-43 18l-53 54q-12 8 -13 30v6q0 10 10 25q10 16 15 18v2q0 2 2 3l12 12 q25 25 25 26l2 -2q-4 25 8 33v70q0 8 -2 10l-21 33q-8 6 -10 16q-4 8 -4 17q-4 6 -4 8l-14 26v-2l-15 27v-2l-4 8q-4 4 -4 10q-29 47 -31 54q-4 4 -8 11l-8 14t-6 9h2l-12 23l-15 22l-8 11v-2q-12 12 -24 37v-3l-19 29l-14 27v-2q-14 18 -15 24l-36 56v-2l-19 32l-6 11 l-12 22l-2 2l-86 146l-21 40h2l-35 70v-4l-2 6l-10 15l-18 -7l-37 -12l-6 -2l-41 -25h2l-23 -14h2l-12 -10l-4 -6l-16 -11h2l-29 -28q-8 -8 -21 -15l-8 -14v-2l-8 -22l-4 -11q0 -2 -2 -7t-2 -7q-4 -16 -6 -20q-4 -25 -4 -37v-27q0 -12 6 -18v-15l16 -51v2l4 -14v-2l17 -29v2 l18 -33q0 -2 2 -4t4 -5t4 -5l13 -18q12 -20 14 -23l27 -37l30 -47q2 -2 11.5 -17.5t18.5 -28.5t13 -15q18 -37 64 -88v2l6 -9l12 -14l29 -41l12 -14q35 -45 41 -58l12 -12l23 -29q4 -4 12 -16t12 -16l86 -115l15 -20l59 -95q2 -2 7.5 -10t7.5 -14l4 -6l-2 6q4 -4 8 -12.5 t9 -19.5t9 -17l23 -35q27 -37 41 -80q2 -8 12 -31.5t17.5 -43t9.5 -27.5l20 -86q8 -33 8 -43v-148q0 -14 -8 -47q0 -16 -6 -31l-8 -26l-10 -21h2q-10 -39 -39 -78q-2 -4 -6.5 -10t-6.5 -11t-4 -5l-4 -6q-16 -14 -20 -25l-35 -33q-14 -18 -37 -26h2q-49 -31 -61 -33 q-6 -4 -23.5 -10.5t-21.5 -8.5l-25 -12l-31 -8l-137 -35l-98 -18q-8 -4 -19 -4q-6 0 -24.5 -2.5t-31.5 -4.5t-15 -2h-168q-16 0 -82 9q0 4 -15 4h-2l-4 2q-6 2 -14 2q-18 6 -41 6q-25 8 -29 8l-14 4l-39 17l-41 22l-14 8l-25 13h2q-49 37 -57 45h2q-20 12 -61 53l-5 4h5 q-6 4 -35 49q-4 2 -8 16h2q-12 16 -23 27l-18 39q-2 8 -27 72l-4 10v-2q0 4 -3 11t-3 9v97z" />
<glyph unicode="&#xa9;" horiz-adv-x="2138" d="M432 -313q-16 25 -20 28q-2 2 -18.5 22.5t-16.5 22.5q-33 49 -39 56q-20 45 -64 131q-20 41 -26 82q-8 25 -8 65q-10 10 -11 35v29q-2 29 -2 39l2 69q0 33 11 74q0 16 8 57q0 4 4 23.5t4 21.5q14 66 18 74q8 27 41 118t33 93l74 147l74 111q2 2 11 15.5t20.5 28.5 t15.5 22l26 34q31 41 74 84l22.5 22.5l33 33l18.5 18.5q20 14 28 19q49 33 74 45q2 0 14.5 8t12.5 10q4 2 31.5 18.5t33.5 20.5q2 0 17.5 7t17.5 9q8 4 28.5 13.5t37 16.5t18.5 9q4 0 82 27q2 0 51 12t60 15q31 10 65 10h90h92q29 0 66 -10q12 0 37 -9q131 -43 137 -45 q4 -2 26.5 -13t28.5 -15q4 -2 74 -45q4 -4 19.5 -14.5t25.5 -16.5l10 -8q25 -16 48 -45q0 -2 12 -17.5t14 -19.5q25 -37 29 -47q2 -2 18 -35q8 -25 10 -29q0 -6 4.5 -29.5t4.5 -25.5v-45v-47q0 -2 -4.5 -33t-4.5 -41q-2 -2 -6 -22.5t-4 -22.5l-10 -29l-18 -45 q-6 -20 -27 -47q-2 -2 -14.5 -17.5t-14.5 -17.5q-8 -10 -35.5 -38.5t-37.5 -35.5q-10 -10 -27 -18l-4 -2l-6 2q-8 0 -9 8v27q0 2 -5 22.5t-3 24.5q0 2 13.5 18.5t13.5 18.5q12 18 18 37v18q0 10 9 19h10q2 0 10 8l-10 10h-6h-4l-46 -45v2v6q2 4 14.5 28.5t12.5 26.5 q6 10 23 48l16 36q0 2 5 17.5t8 29t3 17.5q8 33 9 74l2 12v16v15l-2 12q0 10 -17 37q-8 16 -18 26q-2 2 -7.5 8.5t-12.5 12.5t-9 8q-25 16 -35 27q-4 2 -22.5 11t-42 21.5t-29.5 14.5q-29 14 -45 18q-49 16 -66 17q-53 14 -129 18h-8h-10q-139 -8 -147 -8q-4 0 -27 -4 t-27 -6q-8 -2 -34.5 -10.5t-49 -16.5t-26.5 -8q-70 -33 -185 -94l-14 -11q-14 -10 -32.5 -23.5t-26.5 -19.5q-2 -2 -21.5 -18t-23.5 -21q-25 -12 -58 -45l-55 -55q-49 -66 -53 -72q-4 -8 -42 -66.5t-42 -64.5l-37 -55q-27 -45 -37 -74q-6 -8 -45 -118l-2 -7q-2 -6 -5 -13 t-3 -9q-41 -133 -47 -148q0 -6 -8.5 -53t-8.5 -55v-100v-113q6 -33 8 -45l9 -37q27 -53 39 -74q12 -25 45 -65q31 -31 36 -35q0 -2 37 -29q25 -16 29 -18q33 -20 53 -27q2 -2 25.5 -9t30.5 -11q4 0 13 -2t16 -4.5t9 -2.5l17 -2h38.5h30.5q8 0 45 1t44 1q18 0 26 9 q6 4 25.5 11t21.5 9q27 10 37 19q25 12 74 45q8 8 29 18q4 4 18 14l16 13q37 31 64 57q8 4 39 35q6 6 21.5 24.5t27.5 33t14 16.5q49 63 74 112q4 6 92 182q0 2 8.5 22.5t10.5 25.5q25 66 36 108q0 2 4.5 19.5t6.5 19.5q0 4 8 31.5t10 32.5q4 18 15.5 63t20.5 81t9 40 q2 4 6 41t4 41q0 2 4.5 18.5t4.5 20.5v16q0 16 1 35.5t1 30t-2 41.5v32q0 29 -19 74q-2 4 -12 14.5t-17 12.5q-10 10 -45 18q-4 2 -31.5 6t-31.5 4h-102q-10 0 -19 9l-18 18v8v10q2 6 14 30t12 26q8 8 29 18q0 8 -10 8q-4 10 -19 11q-2 2 -12 2t-14 -2q10 10 26 10h33h33 q4 -2 27.5 -6t27.5 -4q2 0 38 -12.5t46 -16.5q10 0 35 -16q6 -4 17.5 -10.5t19.5 -12.5l10 -6l45 -45q2 -2 10.5 -14.5t10.5 -14.5q0 -2 4 -10l4 -8q2 -6 11 -35t16.5 -50.5t9.5 -25.5v-27q0 -4 4 -41.5t4 -42.5l2 -18v-22v-14.5v-18.5l-2 -8q0 -47 -8 -84 q-2 -10 -14.5 -94.5t-14.5 -98.5q0 -8 -4 -30.5t-4 -24.5l-4 -15q-4 -12 -4 -14l-11 -35q-8 -35 -10 -39q-6 -35 -18 -63l-19 -55q-8 -25 -45 -111l-8 -18l-16.5 -33t-12.5 -23q-29 -63 -47 -82q-35 -59 -74 -110q-2 -4 -18 -24.5t-16 -22.5q-109 -109 -131 -129 q-2 0 -20.5 -15.5t-24.5 -19.5q-2 -2 -26 -18.5t-28 -20.5q-6 -2 -26.5 -14.5t-22.5 -12.5q-82 -41 -90 -47q-37 -10 -55 -18q-6 0 -30 -4t-26 -4h-65h-64l-24 4q-25 4 -31 4q-2 2 -18.5 6t-18.5 4q-4 2 -31.5 9t-31.5 9q-29 8 -29 11q-10 4 -92 45q-86 57 -119 82zM616 387 l2 6q2 8 4.5 17.5t2.5 13.5q12 43 18 55q29 70 55 111q8 16 37 45q2 2 10.5 14.5t8.5 14.5l18 18q16 16 27 37l55 55q6 6 37 27q6 4 27 16l20 12q31 10 37 11h59h49q10 0 58 -21l16 -8q8 -6 57 -55q0 -2 6.5 -17.5t12.5 -32t8 -24.5q2 -6 2 -10l-2 -8q-2 -4 -10 -29l-8 -17 q0 -2 -17 -2q-18 0 -20 2q-2 0 -22.5 17.5t-22.5 17.5q-25 18 -37 19q-20 0 -37 -8q-25 -8 -55 -29q-4 0 -66 -55q-8 0 -8 -9q-33 -41 -47 -55q-2 -4 -14.5 -19.5t-12.5 -17.5q-16 -25 -37 -65q-4 -6 -18 -35q-2 -6 -6 -17.5t-8 -21.5l-4 -8q-2 -12 -2.5 -16.5t2.5 -12.5v-8 q0 -4 8 -29q2 -2 10 -13t10 -13q4 -6 27 -19q25 -8 37 -8h12q12 0 26.5 -1t20.5 -1q8 0 22.5 1t26.5 1h10q14 0 48 8l14 6q14 6 32.5 12.5t26.5 10.5q27 8 92 37l31 12q29 14 33 14q2 2 65 2q53 0 64 -2q2 -2 10 -18v-8v-11q-35 -76 -39 -83q-39 -27 -53 -35 q-2 -2 -17.5 -10.5t-28.5 -16.5t-19 -12q-2 0 -26 -11.5t-28 -13.5q-8 -4 -28.5 -13t-37 -16.5t-18.5 -9.5q-12 0 -39 -10q-6 0 -28.5 -4t-24.5 -4h-61h-58l-10 2q-8 2 -19.5 4t-17.5 2q-20 10 -37 10q-2 2 -18 11q-2 2 -12.5 8t-20.5 12t-12 8q-4 0 -10 4t-13 8l-6 5l-9 9 t-13 12t-6 7q0 6 -64 119q-8 16 -10 18q0 4 -4 15.5t-4 13.5q-9 66 -9 82zM1491 129q-8 0 -8 -9t8 -9q6 0 6 9t-6 9zM1509 152q-14 0 -18 -5q-2 0 -10 -8q-2 -2 0 -6l2 -4h-13l21 10h8q8 2 10 2v11zM1573 336v-4q8 -8 10 -8l8 16q8 25 8 29q0 2 4.5 21.5t6.5 23.5v10v8 q-2 -2 -11 -18l-6 -21q-8 -20 -10 -24q-2 -2 -6 -14.5t-4 -14.5v-4zM293 442q-10 -18 -19 -55v-8v-10q8 16 11 18q8 25 8 27l2 6v10q-2 10 -2 12zM1638 506h-10l-4 -8q-4 -8 -8 -19.5t-6 -17.5l-2 -10q10 0 10 2q2 0 10 8q2 2 6 21.5t4 23.5zM303 498q-4 2 -4 -2q-2 -8 4 -9 q4 2 4 5.5t-4 5.5zM330 580q-8 0 -8 -9v-22v-23q0 2 4 17.5t4 17.5v10v9zM1657 635q-2 -2 -6 -13.5t-4 -13.5v-28v-27q10 10 10 18v31v33zM1657 664l8 -11v19zM643 1114q-10 0 -18 -8l-74 -74q-6 -4 -55 -84q0 -2 -4.5 -10t-6.5 -8q-2 -2 -18 -26.5t-16 -29.5 q-37 -57 -56 -100l-18 -55l-10 -19v-14v-14l10 20q0 2 12 22.5t14 22.5q25 49 29 56q2 6 14.5 25.5t12.5 21.5q2 0 14 11t12 13v29l11 10l36 55q66 78 93 119q16 25 18 29v4v4zM1913 885l-10 -11v-4v-6zM928 1327l-8 -2q-12 0 -37 -18q-2 -2 -22.5 -14.5t-22.5 -12.5l-11 -4 q-10 -4 -18 -8t-10 -6l-32 -32l-32 -32t-14 -6t-14 -4q0 -2 -12.5 -13.5t-14.5 -15.5q-8 0 -8 -16q6 -2 8 -2l4 2h6t22.5 16.5t22.5 18.5q20 20 37 28l19 19q2 2 10 8l16 12t10 6q4 4 39 27l35 20l27 19q2 0 10 8l-4 2h-6z" />
<glyph unicode="&#xab;" horiz-adv-x="1701" d="M342 520q4 29 4 37t2 21l6 18q0 31 17 59l24 52q0 2 2 4t2 4l21 28q27 37 94 105h-2l39 37v-2l94 96q43 29 60 43q55 45 75 49q4 8 51 45l91 74h41q8 4 22 4l21 -6l-5 2l21 -12q0 -2 12 -2q0 -10 6 -17q10 -10 13 -14l30 -33q8 -20 9 -31v-20q0 -4 -9 -25h2q0 -2 -2 -8 l-2 -2l-22 -16q-18 -18 -60 -33l-38 -29l-23 -12q0 -2 -18 -14l-25 -13q-27 -10 -66 -49q-31 -29 -49 -39l-2 -6l-22 -16l-33 -25l-21 -31l-4 -2l-41 -47q-6 -8 -17 -22.5t-17.5 -20.5t-6.5 -2l-12 -14l-20 -25l2 6l-2 -2q-2 -2 -4 -7t-4.5 -7t-6.5 -8l-6 -9t-2 -1 q-2 0 -8 -15.5t-6 -19.5l-2 -4q-2 -4 -2 -8l-2 -11l-13 -35v-88q8 -25 13 -28l4 -31q0 -4 2 -6q6 -8 6 -21q0 -2 5 -10t5 -14l2 -4q2 -2 2 -4q0 -8 17 -9q0 -14 30 -65q2 -2 4.5 -7t4.5 -7l2 -2q0 -4 2 -7l14 -22l16 -21q31 -35 35 -49q16 -10 29 -31q27 -27 76 -88 q18 -27 18 -30l14 -15l23 -8q8 -2 16.5 -10t8.5 -16l-5 2q10 -14 15 -29q0 -2 5 -17.5t5 -19.5v-76q-8 -20 -10 -20l-10 -10q-18 -8 -27 -9h-33h-18l-13 4q-10 8 -10 13l-24 24l-19 21q0 4 -26 45q-10 12 -15 16l-4 8l-12 11l-10 14l-50 61v-2q-2 2 -10 12.5t-15 20.5t-9 15 v-5l-13 13q-18 25 -20 32q-2 2 -7 6.5t-10 8.5l-6 4q0 16 -12 22l-4 13v-4q-14 12 -39 55l-10 14q-6 6 -25 45l-16 25l-29 61l-4 9q-2 4 -2 16l-14 41q-8 16 -9 37q-4 10 -6 16q-2 10 -2 29q-2 6 -4 16q-4 25 -4 33l-2 4v10q0 6 -1 16.5t-1 12.5v10zM807 553q4 6 4 10 q0 2 1 13.5t1 17.5l8 4q33 51 49 61l7 9q59 59 84 77q0 2 8 11l8 10l41 33q4 6 10 8l2 2q6 4 35 26.5t53.5 41t30.5 26.5q23 8 35 19h-2q4 2 9 5t8 5t5 2l4 2q4 0 21 8l10 2q2 6 12 17q31 25 56 32l28 15q33 16 54 28h49q16 -12 47 -12l14 -14q47 -47 47 -49v-19l-2 -35 q-8 -16 -16 -20q-4 -12 -15 -12q-109 -59 -120 -64q-20 -14 -70 -41q-8 -4 -18 -14q-2 -2 -11.5 -7.5t-17.5 -12.5t-12 -15q-12 0 -25 -8l-18 -10h2q-4 -6 -20.5 -16.5t-18.5 -12.5l-31 -27l-29 -24h2q-86 -86 -116 -113q-12 -18 -17 -23v-22q2 -14 2 -25l11 -22l4 -14 l16 -21q10 -10 12 -18l17 -19q2 -2 0 -2v-2q96 -117 112 -133q45 -43 66 -59q14 -14 22 -15q37 -37 37 -49v-59q0 -4 -4 -21v-12l-8 -16l-10 -17l-17 -8h-59q-16 8 -18 8q-18 18 -33 23q0 4 -15.5 20.5t-17.5 16.5l-2 14q-25 18 -68 65q-31 35 -34 35l-5 8q-4 4 -14 19 l-14 18q-4 8 -43 54l-19 22q-14 14 -37 59l-6 13v-4q-39 78 -47 88q0 2 -1 4t-1 4q-2 10 -7 31.5t-5 25.5v74zM1280 -25v5v-5z" />
<glyph unicode="&#xae;" horiz-adv-x="1945" d="M109 -41q0 8 1 24.5t1 30.5v15l8 41q6 39 10 51q0 4 8 30.5t8 32.5q12 25 21 58q51 129 53 137q6 12 50 99t53 104h-5h-4q-2 0 -14 -4.5t-14 -6.5h-13q0 2 2 11l2 8q0 2 9 10q2 2 10 6l8 4l10 8v37l27 -37l10 9q4 6 23.5 30.5t21.5 26.5q6 0 19 25l10 20q20 35 55 82 q8 12 82 111q2 2 27.5 31.5t27.5 33.5q6 4 19 27q12 16 192 194l93 74q72 49 84 53q2 2 27.5 14.5t27.5 14.5q2 0 10 8l8 8q6 6 74 39q2 0 37 12.5t45 14.5q55 18 74 18q4 2 82 2q72 0 75 -2l35 -10q37 -12 47 -16q49 -25 56 -29q2 -2 15 -14.5t28.5 -28.5t19.5 -20 q2 -2 10 -19q2 -4 11 -29q0 -20 8 -36q0 -2 13 -18.5t13 -18.5q6 -8 47 -90q0 -2 7.5 -21.5t9.5 -26.5q10 -10 10 -26q8 -33 10 -39q18 -98 19 -100q2 -8 6 -60.5t4 -58.5v-53v-50q0 -49 -10 -100v-10q-8 -76 -11 -82q-16 -113 -28 -137q0 -35 -45 -148q-18 -68 -37 -102 q-2 -6 -13.5 -34t-13.5 -32t-14 -26.5t-14 -26.5q-27 -55 -56 -92q-2 -8 -17 -29.5t-20 -25.5q-10 -20 -45 -56q-2 -4 -21.5 -23.5l-23.5 -23.5q-2 -2 -65 -55q-31 -20 -47 -37q-2 -2 -17.5 -13.5t-17.5 -13.5q-20 -10 -29 -18q-59 -45 -74 -45q-37 -25 -81 -47l-74 -37 q-2 0 -13.5 -5t-21.5 -9l-10 -4q-2 -2 -32 -14.5t-34 -14.5q-4 0 -27.5 -8.5t-27.5 -8.5q-37 -10 -92 -18q-4 -2 -23.5 -4t-42 -4t-26.5 -2h-23h-24q-18 0 -56 10q-41 8 -45 8q-6 2 -33.5 10.5t-29.5 8.5q-31 8 -47 18q-6 2 -38 17.5t-36 19.5l-12 8q-12 8 -14.5 10 t-23 18.5t-24.5 18.5q0 2 -8 9.5t-10 9.5q-2 0 -37 45q-20 35 -29 39q-12 18 -53 90l-29 57q-8 20 -8 25l-18 73v29q-2 31 -2 41zM266 -100l2 -35q0 -20 8 -49q0 -4 5 -21l4 -14q2 -2 10 -19.5t8 -19.5q41 -57 55 -72q10 -10 48 -37q10 -10 26 -18l74 -37l14 -4q16 -4 23 -4 l45 -10h76h63q2 0 23.5 5t48 11t39.5 10q4 0 26.5 8.5t28.5 10.5l29 12q31 12 34 16l74 37q53 27 82 47q4 2 24.5 13.5t22.5 11.5q6 4 29.5 20.5t25.5 18.5q4 2 37 26q31 20 47 37q98 98 109 111q2 0 12.5 14.5t24.5 32.5t20 27q10 20 17 26q29 49 39 66q0 2 45 102 q23 43 55 137q0 2 4 13.5t4 15.5q12 25 19 82q0 2 3 13.5t5 20.5t2 11q0 4 4 27.5t8 52.5t6 39l11 65v121v119q0 2 -11 74q0 2 -4 16t-8 33.5t-6 23.5q-8 25 -10 29q-2 6 -9.5 20.5t-9.5 14.5q-66 66 -82 84q-4 2 -23.5 17.5t-23.5 19.5q-33 27 -45 26h-16h-21 q-4 0 -28.5 -8t-26.5 -8q-2 -2 -27.5 -6t-27.5 -4q-6 -2 -46 -18.5t-47 -18.5q-2 0 -12 -7t-20.5 -13.5t-12.5 -6.5h-10q-61 -35 -63 -39q-27 -18 -97.5 -74.5t-87.5 -72.5q-37 -27 -110 -109q-98 -117 -101 -120l-14 -19q-14 -16 -25.5 -32.5t-15.5 -22.5q-14 -14 -39 -55 q-2 -2 -26.5 -44t-26.5 -49q-2 -4 -22.5 -36.5t-24.5 -36.5t-37 -54.5t-37 -54.5q-29 -51 -82 -166q-6 -8 -37 -94q-2 -2 -6 -13.5t-4 -13.5q0 -6 -4 -20t-9 -28.5t-5 -16.5l-4 -21q-4 -18 -5 -24q-8 -29 -8 -55l-2 -15v-22zM653 -29v13q0 2 4.5 21.5t4.5 23.5q2 6 6 22.5 t8 34.5l4 16q2 4 13.5 44t15.5 49q2 6 13 40.5t13 40.5q2 4 14.5 37t14.5 37q0 2 4 14.5t4 14.5q2 8 17.5 47t32 82t16.5 45q16 49 18 57l12 35q12 35 15 39q4 8 28 82q8 16 9 55q2 2 10 19l4 4q4 4 6 4l16 8h29q14 14 29 18q0 2 10 11.5t21.5 17.5t13.5 10l45 27q8 8 18 8 q8 4 29 13l18 8q16 8 45 8h11h8q39 0 55 -8q2 -2 26.5 -10.5t28.5 -10.5q10 0 29 -18q2 0 19 -17q0 -10 8 -18q8 -25 8 -29l2 -10v-22.5v-18.5l-2 -49q0 -20 -8 -37q-8 -27 -47 -84q-12 -25 -45 -74q-29 -37 -74 -92q-61 -70 -111 -108q0 -2 -1 -7l-1 -4l2 -4v-6l13 -10 q12 -12 16 -16.5t37 -30t63.5 -50t36.5 -30.5l10 -10q0 -2 16.5 -14.5t18.5 -12.5q35 -27 39 -37q0 -4 8 -37v-8v-10q0 -14 -8 -47q-2 0 -6 -10l-4 -7l-10 -10q-8 -8 -19 -8q-18 -2 -24 -2h-13l-8 2q-2 2 -55 45l-74 74q-16 16 -37 29q0 2 -12 10t-14 8l-9 8q-20 10 -28 19 q-18 10 -29 28q-2 2 -22.5 18.5t-22.5 16.5q-35 35 -37 39h-6h-2l-10 -10l-2 -6q-2 -6 -4 -12.5t-4 -10.5q-12 -47 -19 -63q-8 -25 -8 -37q-10 -31 -10 -47l-4 -17q-4 -14 -5 -18q-12 -61 -28 -103l-19 -73q-4 -23 -26 -56q0 -8 -19 -8h-10h-8q-12 0 -29 8q-2 2 -13 14.5 t-13 14.5l-9 16l-10 11q-4 6 -28 47l-9 16v8zM1520 47q-8 0 -8.5 -9t8.5 -9q6 0 6 9t-6 9zM174 111q-8 0 -8 -9l-2 -8h10v17zM1602 223v-28h10v28h-10zM1628 258q-6 0 -6 -8t6 -8q8 0 8 8t-8 8zM229.5 287q-8.5 0 -8.5 -9.5t8.5 -9.5t8.5 9.5t-8.5 9.5zM268 371 q-8 0 -8 -10.5t8 -10.5q6 0 6 10.5t-6 10.5zM322 471l-3 -8h3q4 0 4 4t-4 4zM1702 498l-2 -4l2 -5q6 5 0 9zM1712 582l-4 -13q0 -31 4 -32q4 4 4 22.5t-4 22.5zM434 659q-10 0 -10 -4l-10 -20l-8 -8l-5 -13q-4 -12 -6 -14q-18 -37 -37 -55h4h5q2 0 6 4l4 4q2 2 9 14.5 t9 14.5q20 31 37 63q0 2 2 8v6zM1214 782q-2 0 -18 -8t-18 -8t-13.5 -8t-13.5 -10q-25 -16 -47 -39l-8 -9q-18 -18 -19 -26q-47 -100 -47 -113v-8h8q2 0 28 24.5t38 40.5q4 4 37 46q6 8 19.5 26.5t24.5 31.5t11 15q2 2 9 18.5t9 18.5v6v2zM240 604v6q-4 0 -21 17v8v10 l10 -10q18 0 19 -8q4 0 10 -37v-8h-29q2 2 11 18v4zM1720 618l-2 -8h2q4 0 4 4t-4 4zM645 954q-14 0 -18 -6q-4 -2 -29 -35q0 -2 -8 -19t-10 -20q0 -8 -19 -8q-8 -8 -8 -10q-12 -12 -29 -45l-37 -55l-18 -37q-25 -25 -29 -27q0 -2 -4 -10l-4 -8h4h4q18 6 19 10l10 16 q2 0 6 5l4 4q2 4 15 24l12 23l18 18q4 4 29 41t27 41q10 20 55 66l4 8q4 8 6 10v14zM1731 737q-2 -4 -11 -28q-2 -14 -2 -17h13v45zM739 1057q-20 0 -20 -6q-12 -4 -29 -29q-2 -2 -10 -27v-10q8 0 10 2q6 6 10 8q35 43 35 47q4 5 4 15zM819 1135q-2 8 -18 -13q-4 -6 0 -6 q4 -2 11 5.5t7 13.5zM965 1264l-9 -2q-8 -6 -8 -9l-2 -12l10 2q12 6 19 19q-6 2 -10 2z" />
<glyph unicode="&#xb6;" horiz-adv-x="1679" d="M-653 -1102l28 144l17 63q2 4 8 18.5t8 18.5l-2 -6q6 18 14 30l15 27l78 70v-2q2 2 6 5t8 7l8 8l6 6l4 4l17 7l12 2h8q18 18 51 43l23 18q6 2 10 4l12 4q35 10 39 10h54q27 -8 39 -18q14 -10 32 -45l19 -29q0 -4 6 -10q-2 -6 -2 -16v-31q0 -2 -1 -7t-1 -9l-4 -15 q-2 -6 -17 -43l-26 -33l2 5l-13 -17l-41 -41l-8 -4l-24 -20l-29 -11q-25 -8 -57 -8h-6l-5 2q-6 0 -13 2t-11 2l-19 6l-24 -43l-4 -4q-10 -20 -10 -26l-5 -10v-10.5t-1 -17.5t-1 -13v-54q0 -18 2 -18q4 -12 19 -27l12 -8l33 -27h2l2 -2l12 -6q27 -16 52 -22h-3l27 -13h-2 q8 -4 21 -4h18l12 -4q18 -6 31 -6q12 -6 39 -6h4q4 0 16.5 -1t14.5 -1q4 0 16 1t16 1h5h10q12 2 16 2q4 6 8 6q18 0 35 8q10 0 27 4l22 7l-12 -2q4 0 10 2t11.5 4t7.5 2q0 4 4 4l20 6q25 8 54 22l16 11l41 16l31 16l8 3q8 4 15 8t9 6t11.5 7t17.5 11l6 4q14 8 76 62l10 10 l45 47l6 4l9 8l59 70q0 4 6 8l8 6l15 25l24 29q6 8 27.5 38.5t40 57.5t22.5 35q35 41 50 69q0 2 3 7.5t6 14.5t7 17l14 27l29 74l10 20q2 4 8 19.5t6 17.5l31 96q12 37 12 39q4 6 23 80q0 2 2 9t5 14.5t5 13.5q0 8 3 20.5t6.5 19.5t3.5 9l-2 -2q4 16 8 25q0 23 14 41 q0 2 2 11t5 19.5t3 14.5q2 4 9.5 22.5t11.5 32.5l18 59l-2 -4l12 41q2 8 8.5 23.5t6.5 19.5q2 4 8 19.5t8 19.5t4 10l4 13v8q12 25 19 45l8 29l8 20l6 12q8 29 15 45q2 8 12 41q6 20 14 33l17 62l16 47q10 29 32.5 109.5t22.5 82.5l11 43q2 6 21.5 70.5t23.5 79.5l12 22 l12 27l-2 -2l10 20v-2q2 4 10.5 23.5t10.5 23.5l16 35l6 16q0 2 2.5 6.5t4.5 9.5t4 7l-2 -2l14 39q8 8 8 12l10 23h-159l-15 -2l-10 -23q-2 -2 -9 -19.5t-15.5 -35t-10.5 -27.5l-10 -31l-10 -20l4 4q-2 -4 -3 -9t-1 -7h-2l-13 -23l-45 -115q-4 -12 -36 -94q-23 -45 -48 -118 l-4 -7q-2 -8 -2 -12l-2 -4l-2 -4q-2 -6 -5 -15.5t-5 -15.5q-14 -37 -16 -39q-10 -35 -25 -63l-16 -31l6 10l-19 -57q-18 -31 -41 -113q-14 -29 -14 -39l-20 -53q-16 -45 -17 -49l-69 -190q-4 -23 -15 -52l-16 -47q-4 -16 -8 -26l-7 -21l-10 -29q-2 -4 -4 -14q-4 -12 -4 -10 l-6 -35l-12 -35l-2 -12q-2 -8 -7.5 -27.5t-11.5 -48.5t-10 -49l-29 -127q0 -4 -4 -11l-8 -14l-2 -6q-4 -8 -8 -10l-21 -14l12 6q-12 -10 -38 -19q-12 -2 -15 -2h-12q-2 0 -27 13v4q-10 0 -14 4h-4l-21 22l-6 7q-2 4 -9 12t-9 10v2l-2 4v-2q0 4 -3 15.5t-3 13.5l14 61 q0 2 18 58l4 20l25 98q2 8 16 52l19 61q14 49 20 59l7 21q2 8 2 18q2 2 20 60q8 10 14 39v-2l13 28q0 2 6 22.5t6 22.5q2 2 10 27l2 6l4 14q4 18 6 21q6 10 7 12q0 2 3 12.5t5 16.5q0 10 6 16l10 27q2 8 12.5 30.5t14.5 36t2 19.5l2 -6v6l2 2q0 8 10 29l12 37l5 16l6 10 q6 14 6 19v2l-60 18q-12 4 -14 6l-131 70l-12 8l-25 16l2 -2l-10 11l-18 18v-2l-50 63q-10 6 -22 29q-2 4 -8 23q-2 6 -2 18t2 25v12q-4 12 -4 18l-2 23v-2l-7 8q-4 8 -2 12v43l2 6q2 6 2 27l-6 21l4 12q10 41 15 53q2 4 5 26.5t7 28.5l35 52l16 34l17 17l20 16l53 47l-2 -2 l19 19l-6 -2l39 22q2 2 13 7t15 10l19 6h-7l11 8q27 18 41 22l45 19h8q8 4 10 4l41 16q12 4 33.5 5t36 0t20.5 1l21 5h6l6 2l29 6l18 6h82q10 0 18 -6h164q141 6 269 6h24q37 0 74 2q66 4 82 4h12q4 0 62 4q25 2 65 2q25 -4 41 -8l25 -4h-2l20 -10l27 -21l-13 2 q14 -2 19 -20l-2 10l12 -20l-12 -60q0 -2 -14.5 -20.5t-20.5 -22.5q-2 0 -7 -4t-7 -4l-11 -4q-12 -6 -20 -6h2q-8 -2 -18 -2h-5q-2 2 -4 2h-4q-16 0 -20 2l-15 2h-45q-51 0 -77 -2q-29 -2 -64 -2l-6 -6q0 -4 -1 -8.5t-1 -6.5l-6 -8l-23 -68l-24 -71l-7 -19q0 -4 -2 -9t-4 -9 l-2 -4q-2 -2 -12 -43l-8 -25l-4 -24q-10 0 -11 -11l-4 -34l-20 -70q-8 -37 -19 -55l-24 -105l-23 -76q0 -2 -1 -7t-3 -10t-4 -7l-12 -49q-2 -10 -27 -109q-25 -94 -30 -121l-25 -96l-2 -8l-35 -137q0 -4 -12.5 -52.5t-14.5 -52.5l-4 -18q0 -8 -10 -35l-8 -25l-14 -47 q-2 -8 -9 -26l-10 -37l-8 -21q-6 -12 -6 -18l-2 -4l-15 -51q-2 -14 -28 -78q-10 -37 -19 -60l-16 -43q-8 -10 -21 -45l-2 -8l-14 -27l4 3q-2 -6 -10 -18.5t-10 -20.5l-8 -17l-5 -10l-45 -82l-41 -76l-16 -24l-4 -6q-12 -14 -31 -45l-28 -46l-13 -14l-59 -80l-39 -49l-14 -14 l-11 -13q-27 -33 -43 -43l-55 -49l-25 -16l-32 -23l-64 -32l-67 -29l10 4l-10 -2q-4 -8 -35 -16h2l-35 -11l-6 -2l-19 -4l-43 -10q-25 -6 -53 -6q-16 -8 -20 -8h-13h-26l-19 -2h-16l-12 -4q-8 -2 -25 -3h-6l-18 -4q-20 -4 -31 -4q-18 0 -72 -4q-12 0 -29.5 -2t-28.5 -3 t-16 -1h-71q-16 0 -27 2q-4 0 -15 1t-14 3q-10 0 -32 8h2l-29 11l-14 2q-4 0 -8.5 2t-9.5 4t-7 2l-20 8l-23 8q-6 0 -6 4l-16 4l-17 11l-30 18l2 2q-10 6 -33 29q-6 2 -12.5 8t-10.5 10l-6 6q-25 35 -29 48l-16 47l-2 16v-2l-8 37v10zM-289 -1264l-6 2q4 0 6 -2zM1493 1184 l4 2zM594 338l2 4v-2q-2 0 -2 -2z" />
<glyph unicode="&#xbb;" horiz-adv-x="1681" d="M768 -233v18l14 14l17 17l49 57l26 39q20 25 33 47l17 18q14 33 41 60l98 147l10 21l8 12q16 23 31 57q16 41 23 52q10 20 10 36q2 2 4 11q10 31 10 35q0 10 4 30l2 4q12 55 13 58v78q-8 31 -13 38q0 14 -12 52l-6 8h2q-4 6 -4 14l-10 25l2 -2q-2 2 -17 28q-4 14 -14 19 l-19 24l-2 13q-8 6 -38 55l-25 35l-49 74l-8 18v-2l-15 20q0 6 -4 19v4l-10 16q-2 0 -14 19q-12 20 -15 20q-2 12 -2 19l-2 2q-2 2 -4 6t-6 6q-2 18 -4 25v-3l-2 11l-10 35v16l10 16l10 19h49q8 0 21 -6q25 -12 39 -13l22 -8q6 -2 12.5 -9t6.5 -11q16 -16 16 -31l-4 4 l12 -27l12 -32q16 -29 23 -41q0 -2 4 -11q0 -2 4 -6t4 -6q2 0 4 -4l5 -10t8 -10l8 -11q0 -2 3 -4t6 -6t5 -6l4 -12l8 -17q76 -102 113 -174q0 -6 43 -84q0 -10 8 -30l-4 2l4 -9q16 -55 17 -86l2 -4v-12q2 -16 2 -47q0 -27 -4 -60v-8q0 -6 -4 -35q-2 -12 -3 -30 q0 -51 -18 -92q-10 -6 -10 -19q-8 -27 -15 -39l-18 -47q-23 -23 -45 -82q-8 -20 -41 -55q0 -2 -5 -10.5t-13.5 -19.5t-12.5 -19q-6 -10 -41 -68q0 -4 -12 -16v4l-25 -33l-4 -10q-18 -4 -30 -39q-4 0 -13 -12l-10 -11q-23 -29 -31 -32q-4 -12 -12 -21l-6 -8q0 -12 -31 -33h4 l-47 -35l2 5q-2 -4 -22 -19h4l-21 -10q-6 0 -43 12l-24 12h2q-12 16 -21 27l-16 14v33v17zM281 -172l12 16v-4q6 20 33 35h-2q4 4 26.5 33t28.5 35q2 12 33.5 57t42.5 53q2 2 21.5 27.5t21.5 30.5v4q0 -2 12 14q2 4 4 6q10 14 23.5 31.5t25.5 34.5l12 16v-4q18 25 19 29 q6 4 18.5 25.5t12.5 23.5q6 2 17 21.5t11 23.5q4 2 20.5 23.5t18.5 25.5l19 27q25 31 26 30l6 17q0 8 9 28v21q-8 8 -9 20l-10 21v-2q-10 14 -10 24q-10 12 -25 37q0 14 -41 62q-37 41 -43 61q-29 33 -125 131l-10 12q-2 2 -12 10.5t-14 24.5q-2 2 -22.5 21.5t-31.5 30.5v-3 l-18 21q0 14 -14 33l-19 51q0 2 -3 14.5t-3 16.5q0 10 2 16q4 16 4 18q0 4 9.5 13.5t13.5 9.5l12 4q14 4 41 4q14 -2 41 -18q23 -14 27 -23l18 -14q10 -14 20 -14q4 -12 25 -41q14 -18 20 -33q12 -20 13 -25q18 -8 30 -26l3 -2l34 -41l7 -9q10 -8 92 -110q10 -10 12 -10 q2 -2 13.5 -21.5t25.5 -42t18 -29.5l2 -6q0 2 4 -6q2 -2 5 -4q23 -33 26 -45v2q23 -23 23 -33v4q4 -6 11 -19t9 -20h-2q20 -43 35 -59q0 -10 4 -18l2 -17v-57q0 -20 -18 -47q-2 -10 -19 -43q-20 -45 -31 -53q-6 -4 -22 -27q-74 -106 -104 -143q-20 -20 -21 -31 q-33 -33 -41 -49v4l-2 -4l-25 -33q-31 -41 -38 -57q0 -2 -8.5 -13.5t-15.5 -23t-7 -13.5l-27 -26l-88 -109l2 2q-8 -16 -22 -30l-15 -13h-45q-16 16 -18 17l-10 8h-15l-18 4q0 4 -3 9t-7 7l-5 2q0 8 -10 9h2q-16 8 -20 22l-10 16v21z" />
<glyph unicode="&#xbc;" horiz-adv-x="2066" d="M1288 -311q2 2 11.5 34.5t9.5 38.5q16 115 16 160q2 4 4 28.5t4 29.5q0 12 10 43q0 4 9 34l8 29v20v17q-25 8 -43 8h-8q-80 8 -86 10q-25 0 -58 17q-10 2 -51 32q-43 43 -49 52q-8 8 -16 30q-16 33 -17 52v10v8q0 2 23 35q96 74 168 139q53 49 94 76q0 2 9 8t20.5 11 t13.5 7q18 18 47 33q57 45 68 49q18 12 24 19q4 0 11.5 4t15.5 10l8 4q4 0 14 2l11 2h6h4q14 -4 16 -4q12 -12 24.5 -12t18.5 -6l23 -19q6 -27 8 -41l12 -49v-12v-12l-12 -33q0 -4 -2 -14.5t-4 -18.5t-2 -10q-2 -16 -7.5 -56t-10.5 -73t-5 -39v-18v-17q29 0 60 -10h8 q0 10 33 10q16 -16 24 -22q8 -16 8 -19l17 -41v-16v-8q0 -4 -9 -21q-25 -16 -24 -22q-2 -2 -18.5 -5t-22.5 -8h-33q-8 0 -44 -2t-42 -2q0 -2 -8 -25.5t-8 -29.5q-8 -8 -17 -57q-2 -8 -16 -65.5t-18 -65.5q0 -6 -2.5 -15.5t-4.5 -17.5l-2 -8v-27q-16 -98 -16 -109v-45l-2 -20 q-4 -23 -8 -27q0 -18 -8 -26l-5 -4l-2 -5l-18 -8h-33h-35q-14 6 -16 8q-25 16 -33 25q-23 29 -35 35q-10 21 -10 35zM168 -88v18q0 10 33 50q2 2 12 17t14 17q2 6 19.5 26.5t23.5 22.5q0 2 56 68q6 4 36 41l31 35q37 37 41 51q27 29 139.5 155t131.5 148q2 2 48 55.5 t60 67.5q29 35 115 135.5t88 102.5q2 4 49 61t57 72q6 6 27.5 34.5t24.5 34.5q8 6 57 71t57 79q4 4 10.5 12t12.5 14l6 7q20 41 26 49q4 23 5 26q4 2 12 9l6 6l10 2l6 -2q2 0 15 -4l10 -2q33 -6 53 -27l23 -8q6 -2 23.5 -18.5t21.5 -22.5q6 -12 6 -33q-4 -20 -6 -27 q-2 -2 -7 -13t-11.5 -21.5t-10.5 -12.5q0 -16 -16 -28q-2 -4 -11.5 -17.5t-11.5 -13.5q-59 -76 -127 -154q-2 -2 -12 -16t-12 -16q-12 -12 -57.5 -69.5t-51.5 -64.5q-2 -2 -24.5 -28.5t-26.5 -32.5l-8 -6q-6 -8 -82 -99.5t-86 -101.5q0 -8 -8 -8q-43 -55 -68 -80l-10 -14 q-10 -12 -12.5 -14.5t-15.5 -17.5t-30.5 -33.5t-23.5 -26.5q-4 -4 -36 -41t-40 -41q-82 -90 -86 -95l-12 -14q-84 -100 -111 -129q-10 -10 -46 -53t-40 -47l-49 -66q-6 -16 -8 -18q0 -2 -3 -12.5t-3 -12.5q-4 -2 -8.5 -7t-6.5 -11l-4 -4q-4 -4 -18.5 -11.5t-16.5 -9.5h-20 h-18q-12 0 -29 21q-8 0 -31 22q-25 8 -35 19q-2 2 -9 13t-7 15v27zM1298 307l103 -10l16 10q4 0 10.5 27.5t6.5 42.5v22v27q-12 -8 -17 -10q-68 -55 -84 -65.5t-24 -26.5l-4 -9q-5 -6 -7 -8zM401 840v57q6 33 9 49q8 37 8 41q16 49 16 125q10 92 10 127q0 8 9 16q20 6 24 11 h6h2q6 -4 35 -14.5t31 -12.5q20 -4 35 -18q2 0 12 -6.5t12 -6.5l11 -12q16 -16 16 -43q-6 -25 -16 -133q-16 -66 -17 -107q-2 -20 -2 -85.5t2 -86.5l-2 -4l-4 -12l-2 -6l-2 -4q-2 -4 -5 -8.5t-3 -6.5q-2 -2 -11.5 -15t-11.5 -15q-16 -8 -18 -11l-33 -8q-10 0 -35 19 q-2 4 -43 24l-6 6q-14 47 -18 52q0 4 -2 12t-5 14l-2 8v54z" />
<glyph unicode="&#xbd;" horiz-adv-x="2150" d="M152 -141v8l18 27q20 41 41 55q23 35 27 37q6 8 38.5 45t34.5 39q43 41 437 434q72 82 135 145q25 23 26 25q4 6 41 46t41 46q6 4 26.5 28.5t24.5 30.5q98 125 136 166q12 25 24 37q12 20 14.5 22.5t20.5 22.5l16 21q72 92 99 133l8 14v43q10 8 10 12q0 14 8 23q0 2 3 5 t3 5q59 27 86 43h7h10q2 0 13 -5t25.5 -12t20.5 -9q16 -16 33 -17q29 -23 33 -29q10 0 10 -22v-27v-24q-4 -14 -10 -15q-2 -2 -23.5 -29.5t-23.5 -29.5q-55 -70 -78 -94q-25 -33 -33 -41t-40 -51t-36 -52q-2 0 -18 -16l-4 -6q-4 -6 -8.5 -12.5t-4.5 -8.5l-16 -14l-16 -27 q-20 -20 -33 -40l-76 -91q-25 -39 -78 -84q-2 -6 -36.5 -39.5t-36.5 -39.5q-59 -53 -193 -201q-23 -18 -141.5 -136t-134.5 -139q-2 -2 -23.5 -24.5t-45.5 -48t-32 -39.5q-8 -6 -36.5 -37t-32.5 -33q-4 -14 -35 -45q0 -4 -13.5 -33.5t-13.5 -33.5q-2 0 -10 -7.5t-10 -7.5 q-10 -10 -19 -10h-6h-10q-6 0 -25.5 6t-23.5 10l-25 17l-33 16q-10 6 -18 21q-8 12 -8 14t-3 8t-5 11t-2 8v6zM1075 -39v25q0 6 10 16q0 2 6.5 9t8.5 7q217 223 221 226q8 18 49 69q2 2 8 11.5t6 11.5q4 2 10.5 17.5t6.5 19.5q6 0 14 24h-8h-6q-12 0 -23 -10l-8 -8 q-18 -6 -27 -6q-14 -2 -16 -2l-16 2q-8 0 -27 6q-4 4 -17.5 12t-24.5 14.5t-13 8.5q-6 2 -27 32q-8 0 -8 33v6v4q0 25 8 25l37 18q12 4 21 5l100 43h160q2 0 11 -9.5t21.5 -21.5t18.5 -17q14 -12 18 -28q0 -2 8.5 -23.5t8.5 -25.5v-41v-54q0 -16 -11 -30q-2 -6 -6 -18.5 t-7 -21.5t-3 -11q-2 -4 -21.5 -26t-21.5 -26q-4 -4 -32.5 -44t-33.5 -48q-4 -4 -25.5 -28.5t-29.5 -36.5q-16 -16 -20 -17q-2 -4 -9.5 -14t-7.5 -14h82h86q6 0 69.5 6t72.5 6h47h34q16 0 35 -19q6 -2 18.5 -15t14.5 -17q6 -4 17.5 -21.5t11.5 -19.5q2 0 2 -23q0 -20 -2 -20 q0 -2 -11.5 -11.5t-17.5 -11.5q-4 -12 -12 -12l-15 -2h-20h-21l-16 2q-29 12 -31 12h-49h-51q-27 0 -113 -12q-16 -8 -82 -8h-49q-20 0 -57 -6q-6 0 -28.5 -5.5t-24.5 -5.5q-16 -2 -29 -2l-22 2q-2 0 -27 7.5t-31 9.5q-2 0 -16.5 8t-18.5 12q-4 2 -20.5 17.5t-18.5 23.5 q-10 10 -10 17v24zM428 709l2 16q6 31 6 33q8 14 19 84q0 2 3 14t5 25l2 10q0 8 2 43l4 33q10 143 10 157v205l8 17l5 8h18h18q16 -8 27 -8q4 -10 31 -27q43 -43 51 -47q0 -2 8 -17.5t8 -19.5l4 -6q2 -6 5 -12l2 -5q6 -43 6 -69v-13q0 -14 1 -30.5t1 -24.5t-1 -25.5 t-1 -31.5v-14q0 -8 -3 -70t-3 -68q-2 -6 -6.5 -69.5t-4.5 -71.5q0 -4 -8 -26.5t-8 -24.5q0 -4 -4 -23l-2 -18q0 -4 -6 -10l-4 -7l-19 -24q0 -2 -10 -5t-22.5 -7.5t-14.5 -6.5h-8h-10q-18 0 -25 7q-12 6 -33 26q-16 6 -16 17q-8 4 -19 26q-16 25 -16 51z" />
<glyph unicode="&#xbe;" horiz-adv-x="2430" d="M1677 -168v2q2 6 12.5 40t19.5 63.5t9 38t11 28.5q2 8 9 43t7 39q0 33 10 84v6v2q-25 8 -26 8h-218q-12 0 -43 19q-29 14 -34 14l-68 68l-2 8q-4 6 -8 15t-6 14q-6 6 -7 32q-2 10 -2 13l2 12l5 4q6 6 11 12t7 9q41 33 51 43q2 0 29 19t29 19q8 4 36.5 26t30.5 28 q2 0 13.5 7t13.5 7q53 37 67 45q29 10 101 59q6 2 20.5 10.5t24.5 14.5l12 8q8 2 31 13l22 12l17 4q18 2 22 2h12h7q16 -6 18 -6l10 -4q8 -4 18.5 -9.5t12.5 -5.5l25 -24l6 -15q10 -20 10 -34l2 -19q2 -20 2 -28l-4 -37q0 -4 -8 -35t-8 -33t-4.5 -30.5t-4.5 -36.5v-9v-8 l9 -8h94q18 -12 22 -19l4 -2l5 -4l14 -26l18 -47q-2 -16 -4 -19q-4 -2 -28 -26l-9 -5q-6 -4 -10 -4q-31 0 -41 -10q-2 0 -12 -2t-12 -2q-20 -10 -66 -10q0 -2 -3 -6t-5 -7.5t-2 -5.5t-7.5 -37.5t-9.5 -46.5q0 -4 -5 -32.5t-5 -32.5q0 -2 -3 -16.5t-6 -33t-5 -26.5 q0 -2 -4 -18l-4 -15q-6 -18 -7 -41q-2 -4 -11 -27.5t-9 -25.5t-7 -32.5t-7 -34.5q-14 -25 -17 -33l-8 -8h-22h-23q-2 0 -16.5 4t-18.5 4q-16 16 -30 16q-29 29 -33 35l-4 6q-4 6 -6 8q0 4 -2.5 10.5t-4.5 11.5t-2 7v4zM469 -109v9q12 27 35 53q0 2 22.5 27.5t26.5 31.5 q10 12 67.5 72.5t67.5 71t121 120t123 121.5q78 78 231 242q37 37 62 70q2 2 21.5 20.5t21.5 20.5q12 27 32 41q2 4 25 29.5t25 29.5q4 2 22.5 25.5t20.5 23.5q0 8 10 8q33 47 233 295l17 23q0 4 6 14t12 21l6 10q16 25 25 24h16h19q14 0 30 -16q29 -10 52 -33l34 -35 q4 0 5 -28q0 -37 -5 -39q-12 -18 -14 -23q-45 -55 -72 -76q0 -4 -10 -20l-12 -14q0 -8 -8 -9q-74 -92 -76 -94q-8 -8 -48 -57t-88 -106.5t-65 -77.5q-14 -23 -43 -50l-14 -16q-4 -4 -24.5 -26.5t-45 -50t-33.5 -36.5q-6 -4 -48 -50t-44 -48l-99 -99t-172 -171t-99 -99 q-16 -27 -111 -120q-4 -2 -6 -6q-4 -4 -25.5 -33t-25.5 -33q0 -14 -11 -18q-2 -2 -14 -17.5t-14 -17.5l-19 -8h-14h-10q-14 6 -16.5 8t-13.5 10t-13 10q-2 0 -12.5 10.5t-10.5 12.5q-20 10 -26 16q-16 16 -17 21q-2 0 -6 9t-4 13v14zM1653 362l8 -6h14q14 -2 21 -2 q4 0 25.5 1t23.5 1q6 0 20 4l13 2q2 0 10 35v27v31q-25 -12 -43 -25q-2 -2 -13.5 -9t-23.5 -15l-12 -9q-4 -2 -18.5 -13t-16.5 -11q-8 -1 -8 -11zM408 506q0 4 2 14v12q6 14 10 15q12 12 12 18h47h43q29 -10 31 -10h4h6q4 6 41 16q4 2 17.5 9.5l22.5 12.5t9 7q27 10 68 49 q4 2 18 17q14 23 15 26q4 2 4 6l-4 11q-25 8 -49 24q-10 6 -46 33q-2 6 -14 17.5t-22 21.5l-11 10q-2 2 -8 16.5t-11 26.5t-5 16v31v37q6 16 8 19q16 16 16 24q33 25 41 33l11 6l16 12t8 8q25 16 74 76h-29h-28q-51 -10 -101 -26q-33 -8 -41 -17q-47 -31 -55 -33 q-2 -4 -16.5 -10t-22.5 -6h-4h-2q-10 0 -17 6q-2 0 -13 8.5t-13 8.5q-4 2 -10.5 9t-12.5 13l-6 4q-4 33 -4 49v7v2q0 2 16 51q2 0 4.5 7t2.5 9q2 4 10 10.5t8 8.5q6 6 51 24l99 33q4 0 25.5 4t27.5 4q2 0 26.5 2t55 4t41.5 2h8h10l62 -8l131 -65q0 -2 3 -5.5t7 -7.5l6 -6 q2 -10 16 -22l5.5 -16.5t3.5 -12.5v-27v-22q-10 -25 -17 -33l-24 -41q-2 -2 -38 -39t-46 -47q-6 -4 -35 -28.5t-31 -28.5q-6 -4 -27 -35q4 -4 15.5 -13.5t26 -18.5t16.5 -11q2 0 10 -4l6 -2q14 -6 35 -27q4 0 27 -35l14 -22q18 -18 18 -43q0 -16 -8 -58l-4 -8l-8 -16t-4 -12 q-2 -2 -9.5 -12.5t-7.5 -12.5l-33.5 -33.5t-35.5 -34.5q-33 -33 -68 -47q-14 -14 -100 -43q-61 -25 -74 -24h-26q-14 0 -25 -11h-6h-2q-2 2 -29 17.5t-31 17.5l-2 2q-4 2 -8 3t-6 3.5t-20.5 24t-20.5 25.5l-18 24q0 2 -1 11.5t-1 15.5z" />
<glyph unicode="&#xbf;" horiz-adv-x="1167" d="M948 1022q0 -4 -2 -14v-13l-18 -18q-25 -2 -33 -2h-17.5h-21.5l-10 2q-14 0 -29 10q-6 2 -36.5 17.5t-37.5 17.5q-8 8 -8 10q-2 2 -10 19l-18 45v18v21q51 25 57 26q8 8 53 8l8 2h13l16 -2q14 -6 18 -8l48 -26q0 -2 7 -17.5t9 -21.5q10 -14 10 -35q0 -2 1 -18.5t1 -20.5z M109 -524l8 -8q25 -8 28 -11q49 -8 66 -8h57h62q23 0 121 8q6 2 36.5 6.5t36.5 4.5q4 0 45 8q35 8 37 10l37 18l12 4q12 4 15 7q2 0 10 4l10 4h21h24q4 0 19.5 -4t17.5 -4q23 -23 27 -29q2 -2 10 -18l8 -27l2 -14v-19l-2 -33q0 -18 -8 -26l-10 -11q-29 -18 -35 -18t-22.5 -4 t-32.5 -8l-19 -6q-41 -8 -102 -9q-2 -2 -31 -6t-33 -4q-106 -8 -129 -8h-41q-41 -2 -55 -2q-10 0 -31.5 1t-38.5 1h-18q-6 0 -55 8q-6 2 -39 10q-16 0 -25 9q-2 0 -10 4t-10 4q-74 43 -82 57q-4 2 -37 35q0 2 -29 39q-2 2 -5 6l-6 8t-5 8l-2 5v22v25q8 47 18 73l37 74 q6 6 47 74q12 25 19 24q31 49 55 74q2 4 18 21q0 2 9 14l8 12q4 4 46 55.5t48 55.5q2 2 18.5 23.5t18.5 23.5q156 174 164 182l6 8q8 8 14 14.5t8 6.5t6.5 8t4.5 10l16 19q16 20 35.5 44.5t29.5 37.5q20 31 46 55q20 20 38 57q0 8 27 35q0 2 8 18.5t11 20.5q8 8 8 25v10v10 q-2 2 -10.5 26.5t-8.5 26.5v25v22q25 8 29 11l12 8q12 8 15 8l14 2h22l37 -2q4 0 37 -16q2 -2 9.5 -6.5t13.5 -8.5l6 -4q2 -4 14 -15t12 -13q10 -4 11 -19v-137q0 -12 -11 -27q-2 -6 -14 -30.5t-12 -26.5q-4 -4 -27.5 -40t-30.5 -42q0 -2 -34 -47q-8 -8 -74 -83t-74 -83 q-2 -2 -18.5 -22.5t-18.5 -22.5q-6 -6 -49 -57.5t-51 -61.5q-49 -57 -66 -74q-51 -61 -110 -120q-2 0 -14.5 -16.5t-14.5 -18.5q-2 -4 -22.5 -29.5t-22.5 -28t-13 -17.5t-16 -19q-2 -4 -10 -15l-6 -12q-20 -37 -57 -111q0 -4 -4 -15t-4 -13z" />
<glyph unicode="&#xc0;" horiz-adv-x="1341" d="M666 80q0 2 -2 6v6l4 19q0 4 7 11t9 7q12 0 37 -18q2 0 10 -11l8 -10q2 -2 16.5 -14.5t16.5 -16.5q4 6 12 31q0 20 15 115q18 111 18 145q2 14 4 75.5t2 70.5h-10q-2 0 -36 -4.5t-38 -4.5h-8q-2 0 -32.5 -5t-32.5 -7q-12 -2 -107.5 -13t-114.5 -16q-37 -57 -61 -114 q-2 -2 -11.5 -21.5t-18.5 -41t-11 -23.5q-8 -12 -23 -41q0 -4 -16 -34t-16 -32q-10 -25 -51 -98q0 -2 -10.5 -17.5t-19.5 -31t-9 -19.5l-4 -10q-6 -8 -13 -16l-4 -10q-2 -4 -13 -11.5t-13 -9.5h-13h-14q-25 8 -29 10q-14 14 -16 21l-4 12q-4 12 -4 14t-4 7l-3 4 q-10 10 -10 18v23l2 26q8 29 13 39q0 18 10 29q0 4 9 25.5t9 23.5q4 6 18.5 35.5t14.5 32.5q31 76 39 88l43 90q43 90 47 104q12 12 12 29l-14 96q10 14 10 16q4 4 21 13q43 0 55 6q2 0 12 10q2 2 9.5 16.5t9.5 16.5q80 127 92 156l10 12q8 10 10 10q6 10 20.5 34.5t30 49.5 t17.5 27q18 37 29 47q6 6 32.5 45t30.5 45q2 4 33 46t35 48q0 2 10 15.5t10 15.5l8 8q6 6 39 47t37 49l21 21h8q8 2 10 2t12 -2h13q37 -8 80 -31q12 -4 36 -16q0 -10 17 -19l4 -8q4 -10 6 -14v-6q2 -6 4 -13.5t2 -9.5q0 -4 3 -20.5t3 -18.5q6 -43 6 -57q0 -141 2 -156 q0 -4 1.5 -41t1.5 -63.5v-41t-13 -161.5h33q6 0 68.5 9t70.5 9h19q33 8 100 9h133h90l27 -9l-4 -67q0 -8 -8 -13q-33 -16 -47 -16q-2 0 -18.5 -5t-20.5 -7q-25 -8 -45 -8q-29 -10 -115 -21l-74 -18q-2 0 -26.5 -4.5t-28.5 -4.5q-2 0 -18.5 -5t-18.5 -5q-4 0 -42 -8t-42 -10 q-12 -4 -29 -12q-8 0 -8 -9q-4 -23 -11 -92t-15.5 -146t-10.5 -93q0 -2 -2 -28t-2 -28q0 -10 -7 -74.5t-7 -72.5q-8 -82 -14 -96l-19 -37q-8 -16 -20 -29q-6 -12 -11 -12q-25 -8 -47 -8h-18h-19q-57 57 -71 77q-2 2 -9.5 19.5t-7.5 19.5l-12 19q-12 18 -14 20 q0 2 -22.5 53.5t-24.5 61.5zM844 1096h-4q-23 -23 -27 -29l-6 -8q-6 -8 -12.5 -17.5t-8.5 -13.5l-43 -57q-6 -10 -45 -69.5t-43 -67.5q-25 -37 -28 -46q-4 -6 -25.5 -43.5t-26.5 -46.5q-2 -4 -11 -19t-9 -20q-2 -8 -2 -10q4 0 25.5 1t23.5 1q8 0 51 4t49 4q14 4 66 13l51 6 q27 6 27 10l18 389l-2 4q-2 4 -5 8.5t-3 6.5h-10zM852 1614q-53 49 -61 55q-12 2 -31 21q-4 4 -2 4l-25 14l-26 47q-8 10 -21 64l10 49q2 6 37 28q39 0 72 -4l33 -6q4 0 12 -16q2 -4 7 -11.5t5 -9.5l12 -24l76 -68l146 -147q31 -25 34 -29q4 -8 21.5 -36.5t19.5 -35.5 q4 -18 5 -28l-2 -13l-15 -16l-6 -6l4 2l-8 -6q-18 -18 -33 -19l-35 9q-33 0 -47 14l-16 16l-57 49l-17 15q-16 16 -20 16q-41 45 -72 72z" />
<glyph unicode="&#xc1;" horiz-adv-x="1341" d="M666 80q0 2 -2 6v6l4 19q0 4 7 11t9 7q12 0 37 -18q2 0 10 -11l8 -10q2 -2 16.5 -14.5t16.5 -16.5q4 6 12 31q0 20 15 115q18 111 18 145q2 14 4 75.5t2 70.5h-10q-2 0 -36 -4.5t-38 -4.5h-8q-2 0 -32.5 -5t-32.5 -7q-12 -2 -107.5 -13t-114.5 -16q-37 -57 -61 -114 q-2 -2 -11.5 -21.5t-18.5 -41t-11 -23.5q-8 -12 -23 -41q0 -4 -16 -34t-16 -32q-10 -25 -51 -98q0 -2 -10.5 -17.5t-19.5 -31t-9 -19.5l-4 -10q-6 -8 -13 -16l-4 -10q-2 -4 -13 -11.5t-13 -9.5h-13h-14q-25 8 -29 10q-14 14 -16 21l-4 12q-4 12 -4 14t-4 7l-3 4 q-10 10 -10 18v23l2 26q8 29 13 39q0 18 10 29q0 4 9 25.5t9 23.5q4 6 18.5 35.5t14.5 32.5q31 76 39 88l43 90q43 90 47 104q12 12 12 29l-14 96q10 14 10 16q4 4 21 13q43 0 55 6q2 0 12 10q2 2 9.5 16.5t9.5 16.5q80 127 92 156l10 12q8 10 10 10q6 10 20.5 34.5t30 49.5 t17.5 27q18 37 29 47q6 6 32.5 45t30.5 45q2 4 33 46t35 48q0 2 10 15.5t10 15.5l8 8q6 6 39 47t37 49l21 21h8q8 2 10 2t12 -2h13q37 -8 80 -31q12 -4 36 -16q0 -10 17 -19l4 -8q4 -10 6 -14v-6q2 -6 4 -13.5t2 -9.5q0 -4 3 -20.5t3 -18.5q6 -43 6 -57q0 -141 2 -156 q0 -4 1.5 -41t1.5 -63.5v-41t-13 -161.5h33q6 0 68.5 9t70.5 9h19q33 8 100 9h133h90l27 -9l-4 -67q0 -8 -8 -13q-33 -16 -47 -16q-2 0 -18.5 -5t-20.5 -7q-25 -8 -45 -8q-29 -10 -115 -21l-74 -18q-2 0 -26.5 -4.5t-28.5 -4.5q-2 0 -18.5 -5t-18.5 -5q-4 0 -42 -8t-42 -10 q-12 -4 -29 -12q-8 0 -8 -9q-4 -23 -11 -92t-15.5 -146t-10.5 -93q0 -2 -2 -28t-2 -28q0 -10 -7 -74.5t-7 -72.5q-8 -82 -14 -96l-19 -37q-8 -16 -20 -29q-6 -12 -11 -12q-25 -8 -47 -8h-18h-19q-57 57 -71 77q-2 2 -9.5 19.5t-7.5 19.5l-12 19q-12 18 -14 20 q0 2 -22.5 53.5t-24.5 61.5zM844 1096h-4q-23 -23 -27 -29l-6 -8q-6 -8 -12.5 -17.5t-8.5 -13.5l-43 -57q-6 -10 -45 -69.5t-43 -67.5q-25 -37 -28 -46q-4 -6 -25.5 -43.5t-26.5 -46.5q-2 -4 -11 -19t-9 -20q-2 -8 -2 -10q4 0 25.5 1t23.5 1q8 0 51 4t49 4q14 4 66 13l51 6 q27 6 27 10l18 389l-2 4q-2 4 -5 8.5t-3 6.5h-10zM741 1626l2 23l27 26q0 2 5 4t9 4l4 3q14 6 39 19t27 19q2 2 20.5 11.5t34 19.5t21.5 14q55 37 57 37q4 2 79 38t97 46q2 0 14.5 4t14.5 4l12 3l15 -3l10 -8q2 0 11 -2t16.5 -4t9.5 -2q0 -2 10 -9t10 -11v-31v-35 q-6 -12 -10 -18l-19 -19q-4 -2 -21 -15t-33.5 -24.5t-22.5 -13.5q-14 -12 -17 -12q0 -2 -12 -8.5t-14 -10.5q-61 -41 -76 -55q-2 -2 -13.5 -11.5t-21.5 -17.5l-10 -8q-55 -43 -98 -55q0 -8 -33 -8h-31h-27q-14 6 -16 8l-16 8l-11 8q-18 12 -22 23q-2 2 -10.5 17t-8.5 18 l-2 10v14z" />
<glyph unicode="&#xc2;" horiz-adv-x="1341" d="M666 80q0 2 -2 6v6l4 19q0 4 7 11t9 7q12 0 37 -18q2 0 10 -11l8 -10q2 -2 16.5 -14.5t16.5 -16.5q4 6 12 31q0 20 15 115q18 111 18 145q2 14 4 75.5t2 70.5h-10q-2 0 -36 -4.5t-38 -4.5h-8q-2 0 -32.5 -5t-32.5 -7q-12 -2 -107.5 -13t-114.5 -16q-37 -57 -61 -114 q-2 -2 -11.5 -21.5t-18.5 -41t-11 -23.5q-8 -12 -23 -41q0 -4 -16 -34t-16 -32q-10 -25 -51 -98q0 -2 -10.5 -17.5t-19.5 -31t-9 -19.5l-4 -10q-6 -8 -13 -16l-4 -10q-2 -4 -13 -11.5t-13 -9.5h-13h-14q-25 8 -29 10q-14 14 -16 21l-4 12q-4 12 -4 14t-4 7l-3 4 q-10 10 -10 18v23l2 26q8 29 13 39q0 18 10 29q0 4 9 25.5t9 23.5q4 6 18.5 35.5t14.5 32.5q31 76 39 88l43 90q43 90 47 104q12 12 12 29l-14 96q10 14 10 16q4 4 21 13q43 0 55 6q2 0 12 10q2 2 9.5 16.5t9.5 16.5q80 127 92 156l10 12q8 10 10 10q6 10 20.5 34.5t30 49.5 t17.5 27q18 37 29 47q6 6 32.5 45t30.5 45q2 4 33 46t35 48q0 2 10 15.5t10 15.5l8 8q6 6 39 47t37 49l21 21h8q8 2 10 2t12 -2h13q37 -8 80 -31q12 -4 36 -16q0 -10 17 -19l4 -8q4 -10 6 -14v-6q2 -6 4 -13.5t2 -9.5q0 -4 3 -20.5t3 -18.5q6 -43 6 -57q0 -141 2 -156 q0 -4 1.5 -41t1.5 -63.5v-41t-13 -161.5h33q6 0 68.5 9t70.5 9h19q33 8 100 9h133h90l27 -9l-4 -67q0 -8 -8 -13q-33 -16 -47 -16q-2 0 -18.5 -5t-20.5 -7q-25 -8 -45 -8q-29 -10 -115 -21l-74 -18q-2 0 -26.5 -4.5t-28.5 -4.5q-2 0 -18.5 -5t-18.5 -5q-4 0 -42 -8t-42 -10 q-12 -4 -29 -12q-8 0 -8 -9q-4 -23 -11 -92t-15.5 -146t-10.5 -93q0 -2 -2 -28t-2 -28q0 -10 -7 -74.5t-7 -72.5q-8 -82 -14 -96l-19 -37q-8 -16 -20 -29q-6 -12 -11 -12q-25 -8 -47 -8h-18h-19q-57 57 -71 77q-2 2 -9.5 19.5t-7.5 19.5l-12 19q-12 18 -14 20 q0 2 -22.5 53.5t-24.5 61.5zM844 1096h-4q-23 -23 -27 -29l-6 -8q-6 -8 -12.5 -17.5t-8.5 -13.5l-43 -57q-6 -10 -45 -69.5t-43 -67.5q-25 -37 -28 -46q-4 -6 -25.5 -43.5t-26.5 -46.5q-2 -4 -11 -19t-9 -20q-2 -8 -2 -10q4 0 25.5 1t23.5 1q8 0 51 4t49 4q14 4 66 13l51 6 q27 6 27 10l18 389l-2 4q-2 4 -5 8.5t-3 6.5h-10zM975 1632h-6q-10 -4 -46 -37.5t-40 -35.5q-63 -74 -95 -93q0 -2 -17 -5t-19 -7q-18 0 -27 -8h-10h-10q-49 25 -54 29l-4 4q-6 4 -6 6q-4 4 -15.5 19.5t-13.5 17.5l-8 16q-2 6 -2 12l2 9q0 2 4 10l4 8q10 10 41 42t68 67.5 t41 39.5q14 14 57 46q4 4 19.5 15t15.5 13q16 8 23 8q0 4 7 12.5t9 8.5t63 20h7h6q43 -12 63.5 -12t46.5 -18q23 -23 35 -39q2 0 7 -6.5t9 -12.5l5 -6q37 -92 36 -94q8 -8 9 -19q0 -4 10 -16t12 -14q2 -4 14.5 -23.5t12.5 -21.5q16 -33 16 -37q10 -20 10 -55v-15v-14 q0 -2 -4 -10.5t-6 -8.5l-6 -8l-18 -14h-39h-27q-2 6 -41 33q-16 16 -24 28q-4 0 -10.5 8.5t-12.5 17.5t-8 11q-25 49 -27 56q-12 29 -37 65q-8 8 -12 8h-8z" />
<glyph unicode="&#xc3;" horiz-adv-x="1341" d="M666 80q0 2 -2 6v6l4 19q0 4 7 11t9 7q12 0 37 -18q2 0 10 -11l8 -10q2 -2 16.5 -14.5t16.5 -16.5q4 6 12 31q0 20 15 115q18 111 18 145q2 14 4 75.5t2 70.5h-10q-2 0 -36 -4.5t-38 -4.5h-8q-2 0 -32.5 -5t-32.5 -7q-12 -2 -107.5 -13t-114.5 -16q-37 -57 -61 -114 q-2 -2 -11.5 -21.5t-18.5 -41t-11 -23.5q-8 -12 -23 -41q0 -4 -16 -34t-16 -32q-10 -25 -51 -98q0 -2 -10.5 -17.5t-19.5 -31t-9 -19.5l-4 -10q-6 -8 -13 -16l-4 -10q-2 -4 -13 -11.5t-13 -9.5h-13h-14q-25 8 -29 10q-14 14 -16 21l-4 12q-4 12 -4 14t-4 7l-3 4 q-10 10 -10 18v23l2 26q8 29 13 39q0 18 10 29q0 4 9 25.5t9 23.5q4 6 18.5 35.5t14.5 32.5q31 76 39 88l43 90q43 90 47 104q12 12 12 29l-14 96q10 14 10 16q4 4 21 13q43 0 55 6q2 0 12 10q2 2 9.5 16.5t9.5 16.5q80 127 92 156l10 12q8 10 10 10q6 10 20.5 34.5t30 49.5 t17.5 27q18 37 29 47q6 6 32.5 45t30.5 45q2 4 33 46t35 48q0 2 10 15.5t10 15.5l8 8q6 6 39 47t37 49l21 21h8q8 2 10 2t12 -2h13q37 -8 80 -31q12 -4 36 -16q0 -10 17 -19l4 -8q4 -10 6 -14v-6q2 -6 4 -13.5t2 -9.5q0 -4 3 -20.5t3 -18.5q6 -43 6 -57q0 -141 2 -156 q0 -4 1.5 -41t1.5 -63.5v-41t-13 -161.5h33q6 0 68.5 9t70.5 9h19q33 8 100 9h133h90l27 -9l-4 -67q0 -8 -8 -13q-33 -16 -47 -16q-2 0 -18.5 -5t-20.5 -7q-25 -8 -45 -8q-29 -10 -115 -21l-74 -18q-2 0 -26.5 -4.5t-28.5 -4.5q-2 0 -18.5 -5t-18.5 -5q-4 0 -42 -8t-42 -10 q-12 -4 -29 -12q-8 0 -8 -9q-4 -23 -11 -92t-15.5 -146t-10.5 -93q0 -2 -2 -28t-2 -28q0 -10 -7 -74.5t-7 -72.5q-8 -82 -14 -96l-19 -37q-8 -16 -20 -29q-6 -12 -11 -12q-25 -8 -47 -8h-18h-19q-57 57 -71 77q-2 2 -9.5 19.5t-7.5 19.5l-12 19q-12 18 -14 20 q0 2 -22.5 53.5t-24.5 61.5zM844 1096h-4q-23 -23 -27 -29l-6 -8q-6 -8 -12.5 -17.5t-8.5 -13.5l-43 -57q-6 -10 -45 -69.5t-43 -67.5q-25 -37 -28 -46q-4 -6 -25.5 -43.5t-26.5 -46.5q-2 -4 -11 -19t-9 -20q-2 -8 -2 -10q4 0 25.5 1t23.5 1q8 0 51 4t49 4q14 4 66 13l51 6 q27 6 27 10l18 389l-2 4q-2 4 -5 8.5t-3 6.5h-10zM786 1595l-129 -133h-96q-23 18 -33 29q-10 6 -30 27q-8 4 -9 18l-2 10q-2 10 -2 15l2 10l2 10q4 6 28 33.5t26 34.5l75 75q2 0 16.5 8.5t33 18.5t26.5 16q2 0 5 3.5t8 7.5l4 2q6 2 20 6t27 8l10 4q16 2 25 2q2 0 12 -1 t12 -1q31 -16 37 -18q2 -2 27 -11l26 -8q25 -25 27 -30q14 -4 29 -33l10 -21q6 -8 47 -49q4 0 10 -5t12 -9l7 -4q12 10 18 12l8 6q2 0 15.5 10.5t15.5 10.5q55 63 119 118q4 0 16 -3t14 -3h27q2 -2 18 -10q6 -16 9 -20q4 -6 10 -32t6 -32q4 -12 4 -14l-2 -6q-2 -6 -2 -9 l-2 -12q-4 -12 -4 -16q-8 -25 -19 -35q-25 -41 -28 -47q0 -4 -12 -10q-51 -51 -64 -56q-23 -23 -55 -39q-23 -6 -35 -20h-14h-17q-6 2 -34.5 7t-30.5 5l-9 4q-8 4 -10 4q-2 2 -9 6.5t-13 8.5l-6 4q-31 31 -35 39q-2 2 -14.5 18.5t-14.5 18.5l-74 77h-39z" />
<glyph unicode="&#xc4;" horiz-adv-x="1341" d="M666 80q0 2 -2 6v6l4 19q0 4 7 11t9 7q12 0 37 -18q2 0 10 -11l8 -10q2 -2 16.5 -14.5t16.5 -16.5q4 6 12 31q0 20 15 115q18 111 18 145q2 14 4 75.5t2 70.5h-10q-2 0 -36 -4.5t-38 -4.5h-8q-2 0 -32.5 -5t-32.5 -7q-12 -2 -107.5 -13t-114.5 -16q-37 -57 -61 -114 q-2 -2 -11.5 -21.5t-18.5 -41t-11 -23.5q-8 -12 -23 -41q0 -4 -16 -34t-16 -32q-10 -25 -51 -98q0 -2 -10.5 -17.5t-19.5 -31t-9 -19.5l-4 -10q-6 -8 -13 -16l-4 -10q-2 -4 -13 -11.5t-13 -9.5h-13h-14q-25 8 -29 10q-14 14 -16 21l-4 12q-4 12 -4 14t-4 7l-3 4 q-10 10 -10 18v23l2 26q8 29 13 39q0 18 10 29q0 4 9 25.5t9 23.5q4 6 18.5 35.5t14.5 32.5q31 76 39 88l43 90q43 90 47 104q12 12 12 29l-14 96q10 14 10 16q4 4 21 13q43 0 55 6q2 0 12 10q2 2 9.5 16.5t9.5 16.5q80 127 92 156l10 12q8 10 10 10q6 10 20.5 34.5t30 49.5 t17.5 27q18 37 29 47q6 6 32.5 45t30.5 45q2 4 33 46t35 48q0 2 10 15.5t10 15.5l8 8q6 6 39 47t37 49l21 21h8q8 2 10 2t12 -2h13q37 -8 80 -31q12 -4 36 -16q0 -10 17 -19l4 -8q4 -10 6 -14v-6q2 -6 4 -13.5t2 -9.5q0 -4 3 -20.5t3 -18.5q6 -43 6 -57q0 -141 2 -156 q0 -4 1.5 -41t1.5 -63.5v-41t-13 -161.5h33q6 0 68.5 9t70.5 9h19q33 8 100 9h133h90l27 -9l-4 -67q0 -8 -8 -13q-33 -16 -47 -16q-2 0 -18.5 -5t-20.5 -7q-25 -8 -45 -8q-29 -10 -115 -21l-74 -18q-2 0 -26.5 -4.5t-28.5 -4.5q-2 0 -18.5 -5t-18.5 -5q-4 0 -42 -8t-42 -10 q-12 -4 -29 -12q-8 0 -8 -9q-4 -23 -11 -92t-15.5 -146t-10.5 -93q0 -2 -2 -28t-2 -28q0 -10 -7 -74.5t-7 -72.5q-8 -82 -14 -96l-19 -37q-8 -16 -20 -29q-6 -12 -11 -12q-25 -8 -47 -8h-18h-19q-57 57 -71 77q-2 2 -9.5 19.5t-7.5 19.5l-12 19q-12 18 -14 20 q0 2 -22.5 53.5t-24.5 61.5zM844 1096h-4q-23 -23 -27 -29l-6 -8q-6 -8 -12.5 -17.5t-8.5 -13.5l-43 -57q-6 -10 -45 -69.5t-43 -67.5q-25 -37 -28 -46q-4 -6 -25.5 -43.5t-26.5 -46.5q-2 -4 -11 -19t-9 -20q-2 -8 -2 -10q4 0 25.5 1t23.5 1q8 0 51 4t49 4q14 4 66 13l51 6 q27 6 27 10l18 389l-2 4q-2 4 -5 8.5t-3 6.5h-10zM600 1591l2 31l4 8q4 8 4 10q0 4 6.5 12.5t13.5 16.5t9 10q10 18 68 66h30h39q39 -18 39 -21h37q4 0 20 -8q20 -20 58 -47q2 -2 4 -5l4 -6t4 -5t2 -4v-2v-7l-14 -57q-14 -14 -15 -18q-2 -4 -53 -64q-18 -18 -20 -18 q-25 -18 -56 -29h-34h-41l-11 4q-12 4 -22 8t-12 9q-35 25 -45 43q0 2 -5.5 13t-9.5 21.5t-4 12.5q-2 20 -2 26zM991 1599v7q4 4 8 24l5 19l18 37q0 2 37 38q2 2 14 10.5t14 10.5l9 6q10 10 18 10h23h14q2 0 9 -4t7 -6q2 0 23.5 -3t23.5 -3q27 -18 29 -21q2 0 29 -55l2 -6 l-2 -6q0 -2 -10 -15l-9 -12v-51q0 -14 -10 -31q0 -2 -2 -6l-4 -8l-2 -4q-25 -35 -55 -55q-2 -4 -29 -11h-10h-4q-41 6 -60 19q-2 0 -14 8t-16 10l-15 17q-16 33 -41 73v8z" />
<glyph unicode="&#xc5;" horiz-adv-x="1249" d="M621 -29v11q6 12 18 18l14 4q14 4 15 6q4 4 18 39q8 16 8 27q0 6 9.5 38.5t9.5 39.5v10q0 4 4 32.5t6 32.5q0 2 2 11.5t5 21.5t3 14q0 4 8.5 44t10.5 45q8 25 8 57v6q-2 0 -8.5 1t-11.5 1h-7l-65 -18q-190 -74 -222 -74l-8 -6q-8 -6 -10 -6t-22.5 -4.5t-22.5 -4.5 q-2 -2 -9 -6t-9.5 -4t-6.5 -5t-8 -11l-4 -4q-8 -16 -20 -29q-6 -10 -23.5 -34.5t-37 -49t-21.5 -29.5q-59 -78 -74 -96q0 -2 -30.5 -38t-33.5 -40q-33 -49 -36 -57l-13 -12q-10 -12 -20 -22.5t-14 -12.5q-2 -2 -17 -10q-25 -8 -47 -9h-10h-8q-8 0 -27 19q-37 31 -55 59 q-2 0 -11 17q-8 25 -8 28q-2 18 -2 25l2 22q6 10 8 10.5t18.5 14.5t18.5 14q55 55 64 68q14 10 110 133q37 45 47 59l27 37v58l10 8q8 8 11 10q37 18 45 31l37 37q14 14 26 39q2 2 39 57q27 35 72 106q2 2 14 19.5t25.5 36t15.5 20.5q8 16 18 27q6 8 24.5 36.5t21.5 30.5 q6 10 50 67.5t52 68.5q0 2 8 11t10 9q4 4 41 47t41 47q14 14 39 29q0 2 12.5 10t14.5 10l26 27q2 2 2 6l-2 2q-2 4 -14 36t-12 34q0 12 -8 29l-11 36v27v33q0 4 4.5 32.5t6.5 32.5q25 74 24 88l2 4q2 4 5 7.5t3 5.5q33 68 39 67q0 2 8.5 8.5t16.5 12.5t10 8q27 27 29 31 q10 10 26 18q2 2 14.5 4t14.5 4l37 19q2 0 8 3t11.5 5t7.5 4q25 8 39 8q6 0 19 3t24 5l10 3q37 -10 55 -19q31 -20 74 -57q2 -4 18.5 -20.5t18.5 -20.5q4 -4 19 -24.5t18 -22.5q23 -45 28 -56q0 -4 2 -11t4 -13l2 -6q0 -2 -8 -19q0 -2 -9 -13t-11 -15l-8 -11l-9 -2h-10h-10 l-8 2q-16 16 -19 21q-2 2 -10 16.5t-16.5 26.5t-10.5 14q-8 8 -8 10q-33 25 -37 25q-12 12 -28 12l-37 -12q-2 -2 -21.5 -12.5t-23.5 -12.5q-70 -70 -82 -88q-6 -6 -29 -57q-18 -45 -18 -49q-2 -18 -2 -22.5t2 -14.5v-10q2 -4 9 -11.5t9 -7.5q27 8 37 8q6 0 27 11 q2 2 23.5 11t23.5 9l14 4q14 6 26.5 10.5t14.5 4.5q10 0 18 8q4 2 32 20.5t32 20.5q23 0 55 16q37 12 56 31h6h2q4 0 13 -2t16.5 -4t9.5 -2q8 0 8 -11v-20v-18q0 -6 -4 -30t-4 -28l-11 -20q-2 -2 -6 -9.5t-8 -13.5l-4 -6q-6 -6 -64 -55q-2 0 -18 -14.5t-20 -16.5l-5 -4 q-4 -4 -4 -6q-2 -2 -22.5 -18.5t-22.5 -18.5q-29 -23 -28 -29l-2 -10q-2 -12 -4.5 -26.5t-2.5 -20.5q0 -41 -8 -66l-12 -45q-12 -45 -21.5 -88t-9.5 -61l-14 -27q0 -4 -4 -20.5t-4 -18.5v-18l16 -2q82 20 84 20h47q6 0 27 11q2 0 18.5 4t34.5 10l21 4q4 0 32.5 9t30.5 11 q25 8 57 9h9h8l18 -9q4 0 10 -49v-4v-6q-10 -18 -18 -18h-10q-10 -20 -17 -29q-2 0 -6 -10l-4 -11q-2 -2 -18.5 -10t-18.5 -8l-4 -2l-6 -6q-18 -12 -35 -21q-190 -72 -221 -71l-47 -13l-8 -2q-12 0 -29 -8q-12 -6 -18 -12l-19 -19q-14 -27 -18 -57q0 -2 -7.5 -37t-16.5 -79 t-13 -64q-14 -82 -19 -96q0 -4 -4 -30t-9 -53.5t-5 -31.5q-2 -10 -8 -47t-11.5 -64.5t-7.5 -31.5l-10 -21q-6 -12 -18 -18q-16 -8 -27 -9q-2 0 -13 -2t-24.5 -5t-17.5 -3h-4h-4q-35 6 -39 10q-57 57 -64 66l-4 6q-4 6 -8 13.5t-6 9.5q0 2 -3 6t-5 8l-2 4v10zM686 795h-8 l-10 -9q-16 -35 -19 -38q-35 -35 -37 -39q-2 -2 -8 -15.5l-12 -27t-6 -15.5t-9.5 -9t-9.5 -9l-4 -19q-4 -16 -4 -20l-2 -4q-2 -4 -2 -6h10q2 2 19.5 6t19.5 4q160 45 193 57q12 6 18 19q8 23 10 30q8 25 31 103l23 76q2 4 7 20t9 30.5t4 18.5q8 25 8 49v21q-6 0 -8 -2 q-6 -6 -39 -31q-25 -16 -74 -65q-4 -4 -18 -21.5t-16 -19.5t-11 -15l-8 -10q-18 -30 -47 -59z" />
<glyph unicode="&#xc6;" horiz-adv-x="1644" d="M492 -156v13q0 12 10 28q2 2 6 9.5t4 9.5q12 31 27 45q0 2 8 10q2 0 14 8t14 10l11 11q2 8 17 50t18 48q10 41 18 66q2 2 6 14t4 14q6 16 28.5 103.5t27.5 97.5q8 53 28 113q0 4 8.5 31.5t8.5 31.5q0 2 -1 16.5t-1 18.5q-10 0 -55.5 1t-53.5 1l-43 -4q-43 -4 -57 -4 q-66 -8 -74 -11q-27 0 -27 -8q-16 -16 -18 -20q-10 -6 -10 -19v-8q-4 -2 -29 -26q-2 -6 -27 -56q-68 -115 -102 -166q-12 -25 -27 -39l-20 -24q-23 -27 -27 -29q0 -2 -4 -10t-4 -10q-2 0 -6 -13l-4 -12q-2 -10 -45 -74q-8 -23 -56 -102l-26 -45q-2 -2 -18.5 -10t-18.5 -10 q-2 0 -14.5 -8.5t-14.5 -10.5q-16 -2 -22 -2l-23 2q-4 4 -37 29q-25 25 -28 26q0 2 -8.5 14.5t-8.5 14.5q-10 10 -10 18l-2 15v20t1 20.5t1 18.5l18 19q25 33 74 100q0 2 5 8t8.5 12.5t3.5 8.5q4 4 25.5 37.5t23.5 35.5q2 6 34.5 54.5t36.5 54.5q0 2 13.5 22.5t13.5 24.5 q8 12 56 78.5t57 79.5v8v8q-8 16 -21 29q-2 4 -6 13t-8 15l-4 9v26v29l10 10q2 0 9 4t9 4t17.5 4.5t19.5 4.5q33 0 74 10q10 0 18.5 8t8.5 10q8 6 47 64q0 2 8 14t10 14q4 8 36 47t38 46l37 55l18 18l19 17q4 10 55 84q33 49 45 73l8 7q8 8 14.5 14t6.5 8q2 2 22.5 26.5 t22.5 26.5q6 8 37 39l8 4q8 4 10 4h6h4l53 -8q31 -10 48 -18q2 -2 14 -6l12 -4q25 -10 39 -11h23h30q29 0 286 4t286 7h16h12q2 0 18.5 -4.5t18.5 -6.5q57 -8 82 -8h28.5h52.5h30q55 -8 92 -18q10 -10 10 -19v-30v-33l-10 -10q-4 0 -29 -9q-10 -4 -45 -12t-37 -8h-45 q-4 0 -28.5 -4t-26.5 -4h-176q-33 0 -53 -11h-21q-12 0 -137 -4t-137 -4h-19q-8 0 -52 -4t-50 -4l-10 -10q0 -2 -4 -10l-5 -9q-8 -41 -8 -102q0 -2 -4 -31.5t-6 -32.5q-8 -41 -8 -84l8 -4q8 -4 10 -4h2h6q8 0 83 4t83 4h50q49 2 65 3q12 0 38 -1.5t46.5 -1.5h22.5 q27 0 55 -8q2 0 17.5 -4t19.5 -4q16 -8 28 -8q6 -6 54 -29l45 -45l10 -20q2 -12 2 -15l-2 -12q-2 -2 -14 -6l-13 -4l-8 -17q-12 -2 -16 -2t-13 2h-10q-2 0 -26.5 4.5t-28.5 4.5h-76h-80q-6 0 -56 -4.5t-54 -4.5h-9q-4 0 -51 -4t-51 -6h-18q-4 0 -29 -4t-27 -4 q-31 -10 -92 -10l-10 -10q0 -4 -8 -27t-8 -27t-8.5 -42t-10.5 -42q-23 -98 -39 -157q0 -6 -12 -58l-14 -51q2 -6 2 -8h8l8 -2q2 0 36 13t38 13q84 31 139 48q4 2 20.5 7t28.5 8t15 3q66 8 100 8q20 0 37 -8q2 0 10 -7t10 -11v-17v-20q-4 -25 -20 -56q0 -6 -19 -18 q-10 -10 -26 -18q-37 -23 -74 -37q-4 -2 -62.5 -27t-66.5 -27q-4 -4 -31.5 -16t-61.5 -27.5t-44 -21.5q-4 -2 -13.5 -6t-15.5 -8l-8 -5q-37 -18 -66 -47q-23 -14 -37 -36q-4 -16 -53 -138q-4 -6 -28 -55q-12 -27 -21 -27q0 -2 -53 -10h-8q-10 -2 -13 -2l-16 2l-16 12 q-16 12 -21 17q-6 4 -29 26q-25 51 -26 56q0 25 -10 55v14zM602 786q25 -8 37 -8h4h6q74 8 92 8q4 0 28 4.5t28 6.5q2 2 6 10l4 8q0 2 4 17.5t4 19.5q8 49 8 63q0 8 1 52.5t1 52.5l-10 -2q-4 -2 -29 -19q-4 -2 -22.5 -18t-22.5 -18l-28 -29q0 -2 -30 -34t-34 -40 q-4 -4 -28 -37q-2 -2 -5.5 -6t-6.5 -8t-5 -8l-2 -4v-6v-5z" />
</font>
</defs>
</svg>
